<svg id="Layer_1" data-name="Layer 1" xmlns="http://www.w3.org/2000/svg" xmlns:xlink="http://www.w3.org/1999/xlink" viewBox="0 0 599.33 708.35"><defs><style>.cls-1,.cls-12,.cls-16,.cls-2,.cls-4,.cls-50,.cls-54,.cls-6,.cls-7{fill:none;}.cls-2,.cls-4{stroke:#000;stroke-width:0.8px;}.cls-12,.cls-16,.cls-2,.cls-50,.cls-54,.cls-6,.cls-7{stroke-linejoin:round;}.cls-3{font-size:12px;}.cls-3,.cls-8{font-family:ArialMT, Arial;}.cls-16,.cls-4,.cls-54,.cls-7{stroke-linecap:square;}.cls-4,.cls-5{stroke-miterlimit:10;}.cls-5{fill:#707070;stroke:#3182be;}.cls-6,.cls-7{stroke:#333;}.cls-12,.cls-50,.cls-6{stroke-width:2.03px;}.cls-16,.cls-54,.cls-7{stroke-width:2.7px;}.cls-8{font-size:21px;fill:#231f20;}.cls-9{clip-path:url(#clip-path);}.cls-10{clip-path:url(#clip-path-2);}.cls-11{fill:#3183be;}.cls-12,.cls-16{stroke:#3183be;}.cls-13{clip-path:url(#clip-path-3);}.cls-14{clip-path:url(#clip-path-4);}.cls-15{clip-path:url(#clip-path-5);}.cls-17{clip-path:url(#clip-path-7);}.cls-18{clip-path:url(#clip-path-8);}.cls-19{clip-path:url(#clip-path-9);}.cls-20{clip-path:url(#clip-path-10);}.cls-21{clip-path:url(#clip-path-11);}.cls-22{clip-path:url(#clip-path-13);}.cls-23{clip-path:url(#clip-path-14);}.cls-24{clip-path:url(#clip-path-15);}.cls-25{clip-path:url(#clip-path-16);}.cls-26{clip-path:url(#clip-path-17);}.cls-27{clip-path:url(#clip-path-18);}.cls-28{clip-path:url(#clip-path-19);}.cls-29{clip-path:url(#clip-path-20);}.cls-30{clip-path:url(#clip-path-21);}.cls-31{clip-path:url(#clip-path-22);}.cls-32{clip-path:url(#clip-path-24);}.cls-33{clip-path:url(#clip-path-25);}.cls-34{clip-path:url(#clip-path-26);}.cls-35{clip-path:url(#clip-path-27);}.cls-36{clip-path:url(#clip-path-28);}.cls-37{clip-path:url(#clip-path-30);}.cls-38{clip-path:url(#clip-path-31);}.cls-39{clip-path:url(#clip-path-32);}.cls-40{clip-path:url(#clip-path-33);}.cls-41{clip-path:url(#clip-path-34);}.cls-42{clip-path:url(#clip-path-36);}.cls-43{clip-path:url(#clip-path-37);}.cls-44{clip-path:url(#clip-path-38);}.cls-45{clip-path:url(#clip-path-39);}.cls-46{clip-path:url(#clip-path-40);}.cls-47{clip-path:url(#clip-path-42);}.cls-48{clip-path:url(#clip-path-43);}.cls-49{fill:#d62a28;}.cls-50,.cls-54{stroke:#d62a28;}.cls-51{clip-path:url(#clip-path-44);}.cls-52{clip-path:url(#clip-path-45);}.cls-53{clip-path:url(#clip-path-46);}.cls-55{clip-path:url(#clip-path-48);}.cls-56{clip-path:url(#clip-path-49);}.cls-57{clip-path:url(#clip-path-50);}.cls-58{clip-path:url(#clip-path-51);}.cls-59{clip-path:url(#clip-path-52);}</style><clipPath id="clip-path" transform="translate(-34.87 -11.21)"><rect class="cls-1" x="470.93" y="120.06" width="162.88" height="173.27"/></clipPath><clipPath id="clip-path-2" transform="translate(-34.87 -11.21)"><rect class="cls-1" x="485.88" y="240.18" width="10.82" height="10.82"/></clipPath><clipPath id="clip-path-3" transform="translate(-34.87 -11.21)"><rect class="cls-1" x="526.6" y="266.21" width="10.82" height="10.82"/></clipPath><clipPath id="clip-path-4" transform="translate(-34.87 -11.21)"><rect class="cls-1" x="567.32" y="246.3" width="10.82" height="10.82"/></clipPath><clipPath id="clip-path-5" transform="translate(-34.87 -11.21)"><rect class="cls-1" x="608.03" y="269.71" width="10.82" height="10.82"/></clipPath><clipPath id="clip-path-7" transform="translate(-34.87 -11.21)"><rect class="cls-1" x="66.03" y="323.74" width="162.88" height="173.27"/></clipPath><clipPath id="clip-path-8" transform="translate(-34.87 -11.21)"><rect class="cls-1" x="80.98" y="473.44" width="10.82" height="10.82"/></clipPath><clipPath id="clip-path-9" transform="translate(-34.87 -11.21)"><rect class="cls-1" x="121.7" y="480.11" width="10.82" height="10.82"/></clipPath><clipPath id="clip-path-10" transform="translate(-34.87 -11.21)"><rect class="cls-1" x="162.42" y="481.29" width="10.82" height="10.82"/></clipPath><clipPath id="clip-path-11" transform="translate(-34.87 -11.21)"><rect class="cls-1" x="203.14" y="485.15" width="10.82" height="10.82"/></clipPath><clipPath id="clip-path-13" transform="translate(-34.87 -11.21)"><rect class="cls-1" x="268.64" y="323.54" width="162.88" height="173.27"/></clipPath><clipPath id="clip-path-14" transform="translate(-34.87 -11.21)"><rect class="cls-1" x="283.59" y="490.46" width="10.82" height="10.82"/></clipPath><clipPath id="clip-path-15" transform="translate(-34.87 -11.21)"><rect class="cls-1" x="324.31" y="486.98" width="10.82" height="10.82"/></clipPath><clipPath id="clip-path-16" transform="translate(-34.87 -11.21)"><rect class="cls-1" x="365.03" y="486.27" width="10.82" height="10.82"/></clipPath><clipPath id="clip-path-17" transform="translate(-34.87 -11.21)"><rect class="cls-1" x="405.74" y="485.23" width="10.82" height="10.82"/></clipPath><clipPath id="clip-path-18" transform="translate(-34.87 -11.21)"><rect class="cls-1" x="471.38" y="323.84" width="162.88" height="173.27"/></clipPath><clipPath id="clip-path-19" transform="translate(-34.87 -11.21)"><rect class="cls-1" x="486.33" y="465.47" width="10.82" height="10.82"/></clipPath><clipPath id="clip-path-20" transform="translate(-34.87 -11.21)"><rect class="cls-1" x="527.05" y="482.19" width="10.82" height="10.82"/></clipPath><clipPath id="clip-path-21" transform="translate(-34.87 -11.21)"><rect class="cls-1" x="567.76" y="478.06" width="10.82" height="10.82"/></clipPath><clipPath id="clip-path-22" transform="translate(-34.87 -11.21)"><rect class="cls-1" x="608.48" y="474.91" width="10.82" height="10.82"/></clipPath><clipPath id="clip-path-24" transform="translate(-34.87 -11.21)"><rect class="cls-1" x="66.32" y="527.63" width="162.88" height="173.27"/></clipPath><clipPath id="clip-path-25" transform="translate(-34.87 -11.21)"><rect class="cls-1" x="81.27" y="692.74" width="10.82" height="10.82"/></clipPath><clipPath id="clip-path-26" transform="translate(-34.87 -11.21)"><rect class="cls-1" x="121.99" y="686.55" width="10.82" height="10.82"/></clipPath><clipPath id="clip-path-27" transform="translate(-34.87 -11.21)"><rect class="cls-1" x="162.71" y="691.35" width="10.82" height="10.82"/></clipPath><clipPath id="clip-path-28" transform="translate(-34.87 -11.21)"><rect class="cls-1" x="203.43" y="685.77" width="10.82" height="10.82"/></clipPath><clipPath id="clip-path-30" transform="translate(-34.87 -11.21)"><rect class="cls-1" x="269.18" y="527.95" width="162.88" height="173.27"/></clipPath><clipPath id="clip-path-31" transform="translate(-34.87 -11.21)"><rect class="cls-1" x="284.14" y="689.71" width="10.82" height="10.82"/></clipPath><clipPath id="clip-path-32" transform="translate(-34.87 -11.21)"><rect class="cls-1" x="324.85" y="669.01" width="10.82" height="10.82"/></clipPath><clipPath id="clip-path-33" transform="translate(-34.87 -11.21)"><rect class="cls-1" x="365.57" y="678.43" width="10.82" height="10.82"/></clipPath><clipPath id="clip-path-34" transform="translate(-34.87 -11.21)"><rect class="cls-1" x="406.29" y="670.08" width="10.82" height="10.82"/></clipPath><clipPath id="clip-path-36" transform="translate(-34.87 -11.21)"><rect class="cls-1" x="470.97" y="527.69" width="162.88" height="173.27"/></clipPath><clipPath id="clip-path-37" transform="translate(-34.87 -11.21)"><rect class="cls-1" x="485.92" y="684.62" width="10.82" height="10.82"/></clipPath><clipPath id="clip-path-38" transform="translate(-34.87 -11.21)"><rect class="cls-1" x="526.64" y="687.34" width="10.82" height="10.82"/></clipPath><clipPath id="clip-path-39" transform="translate(-34.87 -11.21)"><rect class="cls-1" x="567.36" y="691.58" width="10.82" height="10.82"/></clipPath><clipPath id="clip-path-40" transform="translate(-34.87 -11.21)"><rect class="cls-1" x="608.08" y="674.24" width="10.82" height="10.82"/></clipPath><clipPath id="clip-path-42" transform="translate(-34.87 -11.21)"><rect class="cls-1" x="66.58" y="120.23" width="162.88" height="173.27"/></clipPath><clipPath id="clip-path-43" transform="translate(-34.87 -11.21)"><rect class="cls-1" x="81.54" y="260.44" width="10.82" height="10.82"/></clipPath><clipPath id="clip-path-44" transform="translate(-34.87 -11.21)"><rect class="cls-1" x="122.25" y="193.02" width="10.82" height="10.82"/></clipPath><clipPath id="clip-path-45" transform="translate(-34.87 -11.21)"><rect class="cls-1" x="162.97" y="247.11" width="10.82" height="10.82"/></clipPath><clipPath id="clip-path-46" transform="translate(-34.87 -11.21)"><rect class="cls-1" x="203.69" y="274.45" width="10.82" height="10.82"/></clipPath><clipPath id="clip-path-48" transform="translate(-34.87 -11.21)"><rect class="cls-1" x="268.42" y="119.52" width="162.88" height="173.27"/></clipPath><clipPath id="clip-path-49" transform="translate(-34.87 -11.21)"><rect class="cls-1" x="283.37" y="223.23" width="10.82" height="10.82"/></clipPath><clipPath id="clip-path-50" transform="translate(-34.87 -11.21)"><rect class="cls-1" x="324.09" y="186.38" width="10.82" height="10.82"/></clipPath><clipPath id="clip-path-51" transform="translate(-34.87 -11.21)"><rect class="cls-1" x="364.81" y="119.7" width="10.82" height="10.82"/></clipPath><clipPath id="clip-path-52" transform="translate(-34.87 -11.21)"><rect class="cls-1" x="405.53" y="210.58" width="10.82" height="10.82"/></clipPath></defs><title>global</title><rect class="cls-1" x="31.16" y="108.46" width="162.88" height="173.27"/><line x1="51.52" y1="281.73" x2="51.52" y2="285.23"/><line class="cls-2" x1="51.52" y1="281.73" x2="51.52" y2="285.23"/><line x1="92.23" y1="281.73" x2="92.23" y2="285.23"/><line class="cls-2" x1="92.23" y1="281.73" x2="92.23" y2="285.23"/><line x1="132.95" y1="281.73" x2="132.95" y2="285.23"/><line class="cls-2" x1="132.95" y1="281.73" x2="132.95" y2="285.23"/><line x1="173.67" y1="281.73" x2="173.67" y2="285.23"/><line class="cls-2" x1="173.67" y1="281.73" x2="173.67" y2="285.23"/><line x1="31.16" y1="281.73" x2="27.66" y2="281.73"/><line class="cls-2" x1="31.16" y1="281.73" x2="27.66" y2="281.73"/><text class="cls-3" transform="translate(12.8 285.53)">0</text><line x1="31.16" y1="247.08" x2="27.66" y2="247.08"/><line class="cls-2" x1="31.16" y1="247.08" x2="27.66" y2="247.08"/><line x1="31.16" y1="212.42" x2="27.66" y2="212.42"/><line class="cls-2" x1="31.16" y1="212.42" x2="27.66" y2="212.42"/><line x1="31.16" y1="177.77" x2="27.66" y2="177.77"/><line class="cls-2" x1="31.16" y1="177.77" x2="27.66" y2="177.77"/><line x1="31.16" y1="143.12" x2="27.66" y2="143.12"/><line class="cls-2" x1="31.16" y1="143.12" x2="27.66" y2="143.12"/><line x1="31.16" y1="108.46" x2="27.66" y2="108.46"/><line class="cls-2" x1="31.16" y1="108.46" x2="27.66" y2="108.46"/><rect class="cls-1" x="31.16" y="108.46" width="162.88" height="173.27"/><line class="cls-4" x1="31.16" y1="281.73" x2="31.16" y2="108.46"/><line class="cls-4" x1="31.16" y1="281.73" x2="194.03" y2="281.73"/><text class="cls-3" transform="translate(106.61 99.46)">USA</text><rect class="cls-1" x="233.61" y="108.46" width="162.88" height="173.27"/><line x1="253.96" y1="281.73" x2="253.96" y2="285.23"/><line class="cls-2" x1="253.96" y1="281.73" x2="253.96" y2="285.23"/><line x1="294.68" y1="281.73" x2="294.68" y2="285.23"/><line class="cls-2" x1="294.68" y1="281.73" x2="294.68" y2="285.23"/><line x1="335.4" y1="281.73" x2="335.4" y2="285.23"/><line class="cls-2" x1="335.4" y1="281.73" x2="335.4" y2="285.23"/><line x1="376.12" y1="281.73" x2="376.12" y2="285.23"/><line class="cls-2" x1="376.12" y1="281.73" x2="376.12" y2="285.23"/><line x1="233.61" y1="281.73" x2="230.11" y2="281.73"/><line class="cls-2" x1="233.61" y1="281.73" x2="230.11" y2="281.73"/><line x1="233.61" y1="247.08" x2="230.11" y2="247.08"/><line class="cls-2" x1="233.61" y1="247.08" x2="230.11" y2="247.08"/><line x1="233.61" y1="212.42" x2="230.11" y2="212.42"/><line class="cls-2" x1="233.61" y1="212.42" x2="230.11" y2="212.42"/><line x1="233.61" y1="177.77" x2="230.11" y2="177.77"/><line class="cls-2" x1="233.61" y1="177.77" x2="230.11" y2="177.77"/><line x1="233.61" y1="143.12" x2="230.11" y2="143.12"/><line class="cls-2" x1="233.61" y1="143.12" x2="230.11" y2="143.12"/><line x1="233.61" y1="108.46" x2="230.11" y2="108.46"/><line class="cls-2" x1="233.61" y1="108.46" x2="230.11" y2="108.46"/><rect class="cls-1" x="233.61" y="108.46" width="162.88" height="173.27"/><line class="cls-4" x1="233.61" y1="281.73" x2="233.61" y2="108.46"/><line class="cls-4" x1="233.61" y1="281.73" x2="396.48" y2="281.73"/><text class="cls-3" transform="translate(301.62 99.46)">Europe</text><path class="cls-5" d="M491.29,248.59a3.38,3.38,0,0,0,3.38-3.38,3.39,3.39,0,1,0-6.77,0,3.38,3.38,0,0,0,3.39,3.38Z" transform="translate(-34.87 -11.21)"/><path class="cls-6" d="M491.29,248.59a3.38,3.38,0,0,0,3.38-3.38,3.39,3.39,0,1,0-6.77,0,3.38,3.38,0,0,0,3.39,3.38Z" transform="translate(-34.87 -11.21)"/><rect class="cls-1" x="451.01" y="228.59" width="10.82" height="10.82"/><path class="cls-5" d="M532,274.62a3.38,3.38,0,1,0-2.4-1A3.42,3.42,0,0,0,532,274.62Z" transform="translate(-34.87 -11.21)"/><path class="cls-6" d="M532,274.62a3.38,3.38,0,1,0-2.4-1A3.42,3.42,0,0,0,532,274.62Z" transform="translate(-34.87 -11.21)"/><rect class="cls-1" x="491.72" y="254.61" width="10.82" height="10.82"/><path class="cls-5" d="M572.72,254.71a3.38,3.38,0,1,0-2.39-1A3.42,3.42,0,0,0,572.72,254.71Z" transform="translate(-34.87 -11.21)"/><path class="cls-6" d="M572.72,254.71a3.38,3.38,0,1,0-2.39-1A3.42,3.42,0,0,0,572.72,254.71Z" transform="translate(-34.87 -11.21)"/><rect class="cls-1" x="532.44" y="234.7" width="10.82" height="10.82"/><path class="cls-5" d="M613.44,278.12a3.38,3.38,0,1,0-2.39-1A3.42,3.42,0,0,0,613.44,278.12Z" transform="translate(-34.87 -11.21)"/><path class="cls-6" d="M613.44,278.12a3.38,3.38,0,1,0-2.39-1A3.42,3.42,0,0,0,613.44,278.12Z" transform="translate(-34.87 -11.21)"/><rect class="cls-1" x="573.16" y="258.11" width="10.82" height="10.82"/><rect class="cls-1" x="436.05" y="108.46" width="162.88" height="173.27"/><line x1="456.41" y1="281.73" x2="456.41" y2="285.23"/><line class="cls-2" x1="456.41" y1="281.73" x2="456.41" y2="285.23"/><line x1="497.13" y1="281.73" x2="497.13" y2="285.23"/><line class="cls-2" x1="497.13" y1="281.73" x2="497.13" y2="285.23"/><line x1="537.85" y1="281.73" x2="537.85" y2="285.23"/><line class="cls-2" x1="537.85" y1="281.73" x2="537.85" y2="285.23"/><line x1="578.57" y1="281.73" x2="578.57" y2="285.23"/><line class="cls-2" x1="578.57" y1="281.73" x2="578.57" y2="285.23"/><line x1="436.05" y1="281.73" x2="432.55" y2="281.73"/><line class="cls-2" x1="436.05" y1="281.73" x2="432.55" y2="281.73"/><line x1="436.05" y1="247.08" x2="432.55" y2="247.08"/><line class="cls-2" x1="436.05" y1="247.08" x2="432.55" y2="247.08"/><line x1="436.05" y1="212.42" x2="432.55" y2="212.42"/><line class="cls-2" x1="436.05" y1="212.42" x2="432.55" y2="212.42"/><line x1="436.05" y1="177.77" x2="432.55" y2="177.77"/><line class="cls-2" x1="436.05" y1="177.77" x2="432.55" y2="177.77"/><line x1="436.05" y1="143.12" x2="432.55" y2="143.12"/><line class="cls-2" x1="436.05" y1="143.12" x2="432.55" y2="143.12"/><line x1="436.05" y1="108.46" x2="432.55" y2="108.46"/><line class="cls-2" x1="436.05" y1="108.46" x2="432.55" y2="108.46"/><polyline class="cls-7" points="456.41 233.99 497.13 260.02 537.85 240.11 578.57 263.52"/><rect class="cls-1" x="436.05" y="108.46" width="162.88" height="173.27"/><line class="cls-4" x1="436.05" y1="281.73" x2="436.05" y2="108.46"/><line class="cls-4" x1="436.05" y1="281.73" x2="598.93" y2="281.73"/><text class="cls-3" transform="translate(498.9 99.46)">East Asia</text><path class="cls-5" d="M86.39,482.24a3.4,3.4,0,1,0-2.4-1A3.39,3.39,0,0,0,86.39,482.24Z" transform="translate(-34.87 -11.21)"/><path class="cls-6" d="M86.39,482.24a3.4,3.4,0,1,0-2.4-1A3.39,3.39,0,0,0,86.39,482.24Z" transform="translate(-34.87 -11.21)"/><rect class="cls-1" x="46.11" y="462.23" width="10.82" height="10.82"/><path class="cls-5" d="M127.11,488.91a3.4,3.4,0,1,0-2.4-1A3.39,3.39,0,0,0,127.11,488.91Z" transform="translate(-34.87 -11.21)"/><path class="cls-6" d="M127.11,488.91a3.4,3.4,0,1,0-2.4-1A3.39,3.39,0,0,0,127.11,488.91Z" transform="translate(-34.87 -11.21)"/><rect class="cls-1" x="86.83" y="468.9" width="10.82" height="10.82"/><path class="cls-5" d="M167.83,490.08a3.38,3.38,0,1,0-2.4-1A3.38,3.38,0,0,0,167.83,490.08Z" transform="translate(-34.87 -11.21)"/><path class="cls-6" d="M167.83,490.08a3.38,3.38,0,1,0-2.4-1A3.38,3.38,0,0,0,167.83,490.08Z" transform="translate(-34.87 -11.21)"/><rect class="cls-1" x="127.54" y="470.08" width="10.82" height="10.82"/><path class="cls-5" d="M208.54,494a3.38,3.38,0,1,0-2.39-1A3.42,3.42,0,0,0,208.54,494Z" transform="translate(-34.87 -11.21)"/><path class="cls-6" d="M208.54,494a3.38,3.38,0,1,0-2.39-1A3.42,3.42,0,0,0,208.54,494Z" transform="translate(-34.87 -11.21)"/><rect class="cls-1" x="168.26" y="473.94" width="10.82" height="10.82"/><rect class="cls-1" x="31.16" y="312.53" width="162.88" height="173.27"/><line x1="51.52" y1="485.8" x2="51.52" y2="489.3"/><line class="cls-2" x1="51.52" y1="485.8" x2="51.52" y2="489.3"/><line x1="92.23" y1="485.8" x2="92.23" y2="489.3"/><line class="cls-2" x1="92.23" y1="485.8" x2="92.23" y2="489.3"/><line x1="132.95" y1="485.8" x2="132.95" y2="489.3"/><line class="cls-2" x1="132.95" y1="485.8" x2="132.95" y2="489.3"/><line x1="173.67" y1="485.8" x2="173.67" y2="489.3"/><line class="cls-2" x1="173.67" y1="485.8" x2="173.67" y2="489.3"/><line x1="31.16" y1="485.8" x2="27.66" y2="485.8"/><line class="cls-2" x1="31.16" y1="485.8" x2="27.66" y2="485.8"/><text class="cls-3" transform="translate(12.8 489.59)">0</text><line x1="31.16" y1="451.14" x2="27.66" y2="451.14"/><line class="cls-2" x1="31.16" y1="451.14" x2="27.66" y2="451.14"/><line x1="31.16" y1="416.49" x2="27.66" y2="416.49"/><line class="cls-2" x1="31.16" y1="416.49" x2="27.66" y2="416.49"/><line x1="31.16" y1="381.84" x2="27.66" y2="381.84"/><line class="cls-2" x1="31.16" y1="381.84" x2="27.66" y2="381.84"/><line x1="31.16" y1="347.18" x2="27.66" y2="347.18"/><line class="cls-2" x1="31.16" y1="347.18" x2="27.66" y2="347.18"/><line x1="31.16" y1="312.53" x2="27.66" y2="312.53"/><line class="cls-2" x1="31.16" y1="312.53" x2="27.66" y2="312.53"/><polyline class="cls-7" points="51.52 467.64 92.23 474.31 132.95 475.49 173.67 479.35"/><rect class="cls-1" x="31.16" y="312.53" width="162.88" height="173.27"/><line class="cls-4" x1="31.16" y1="485.8" x2="31.16" y2="312.53"/><line class="cls-4" x1="31.16" y1="485.8" x2="194.03" y2="485.8"/><text class="cls-3" transform="translate(91.74 306.53)">Australia</text><rect class="cls-1" x="233.61" y="312.53" width="162.88" height="173.27"/><line x1="253.96" y1="485.8" x2="253.96" y2="489.3"/><line x1="294.68" y1="485.8" x2="294.68" y2="489.3"/><line class="cls-2" x1="294.68" y1="485.8" x2="294.68" y2="489.3"/><line x1="335.4" y1="485.8" x2="335.4" y2="489.3"/><line class="cls-2" x1="335.4" y1="485.8" x2="335.4" y2="489.3"/><line x1="376.12" y1="485.8" x2="376.12" y2="489.3"/><line class="cls-2" x1="376.12" y1="485.8" x2="376.12" y2="489.3"/><line x1="233.61" y1="485.8" x2="230.11" y2="485.8"/><line class="cls-2" x1="233.61" y1="485.8" x2="230.11" y2="485.8"/><line x1="233.61" y1="451.14" x2="230.11" y2="451.14"/><line class="cls-2" x1="233.61" y1="451.14" x2="230.11" y2="451.14"/><line x1="233.61" y1="416.49" x2="230.11" y2="416.49"/><line class="cls-2" x1="233.61" y1="416.49" x2="230.11" y2="416.49"/><line x1="233.61" y1="381.84" x2="230.11" y2="381.84"/><line class="cls-2" x1="233.61" y1="381.84" x2="230.11" y2="381.84"/><line x1="233.61" y1="347.18" x2="230.11" y2="347.18"/><line class="cls-2" x1="233.61" y1="347.18" x2="230.11" y2="347.18"/><line x1="233.61" y1="312.53" x2="230.11" y2="312.53"/><line class="cls-2" x1="233.61" y1="312.53" x2="230.11" y2="312.53"/><rect class="cls-1" x="233.61" y="312.53" width="162.88" height="173.27"/><line class="cls-4" x1="233.61" y1="485.8" x2="233.61" y2="312.53"/><line class="cls-4" x1="233.61" y1="485.8" x2="396.48" y2="485.8"/><text class="cls-3" transform="translate(236.5 306.53)">Arab Middle East and North Africa</text><rect class="cls-1" x="436.05" y="312.53" width="162.88" height="173.27"/><line x1="456.41" y1="485.8" x2="456.41" y2="489.3"/><line class="cls-2" x1="456.41" y1="485.8" x2="456.41" y2="489.3"/><line x1="497.13" y1="485.8" x2="497.13" y2="489.3"/><line class="cls-2" x1="497.13" y1="485.8" x2="497.13" y2="489.3"/><line x1="537.85" y1="485.8" x2="537.85" y2="489.3"/><line class="cls-2" x1="537.85" y1="485.8" x2="537.85" y2="489.3"/><line x1="578.57" y1="485.8" x2="578.57" y2="489.3"/><line class="cls-2" x1="578.57" y1="485.8" x2="578.57" y2="489.3"/><line x1="436.05" y1="485.8" x2="432.55" y2="485.8"/><line class="cls-2" x1="436.05" y1="485.8" x2="432.55" y2="485.8"/><line x1="436.05" y1="451.14" x2="432.55" y2="451.14"/><line class="cls-2" x1="436.05" y1="451.14" x2="432.55" y2="451.14"/><line x1="436.05" y1="416.49" x2="432.55" y2="416.49"/><line class="cls-2" x1="436.05" y1="416.49" x2="432.55" y2="416.49"/><line x1="436.05" y1="381.84" x2="432.55" y2="381.84"/><line class="cls-2" x1="436.05" y1="381.84" x2="432.55" y2="381.84"/><line x1="436.05" y1="347.18" x2="432.55" y2="347.18"/><line class="cls-2" x1="436.05" y1="347.18" x2="432.55" y2="347.18"/><line x1="436.05" y1="312.53" x2="432.55" y2="312.53"/><line class="cls-2" x1="436.05" y1="312.53" x2="432.55" y2="312.53"/><rect class="cls-1" x="436.05" y="312.53" width="162.88" height="173.27"/><line class="cls-4" x1="436.05" y1="485.8" x2="436.05" y2="312.53"/><line class="cls-4" x1="436.05" y1="485.8" x2="598.93" y2="485.8"/><text class="cls-3" transform="translate(494.09 306.53)">West Asia</text><rect class="cls-1" x="31.16" y="516.6" width="162.88" height="173.27"/><line x1="51.52" y1="689.86" x2="51.52" y2="693.36"/><line class="cls-2" x1="51.52" y1="689.86" x2="51.52" y2="693.36"/><text class="cls-3" transform="translate(38.8 704.46)">2015</text><line x1="92.23" y1="689.86" x2="92.23" y2="693.36"/><line class="cls-2" x1="92.23" y1="689.86" x2="92.23" y2="693.36"/><text class="cls-3" transform="translate(79.52 704.46)">2016</text><line x1="132.95" y1="689.86" x2="132.95" y2="693.36"/><line class="cls-2" x1="132.95" y1="689.86" x2="132.95" y2="693.36"/><text class="cls-3" transform="translate(120.23 704.46)">2017</text><line x1="173.67" y1="689.86" x2="173.67" y2="693.36"/><line class="cls-2" x1="173.67" y1="689.86" x2="173.67" y2="693.36"/><text class="cls-3" transform="translate(160.95 704.46)">2018</text><line x1="31.16" y1="689.86" x2="27.66" y2="689.86"/><line class="cls-2" x1="31.16" y1="689.86" x2="27.66" y2="689.86"/><text class="cls-3" transform="translate(12.8 693.66)">0</text><line x1="31.16" y1="655.21" x2="27.66" y2="655.21"/><line class="cls-2" x1="31.16" y1="655.21" x2="27.66" y2="655.21"/><line x1="31.16" y1="620.56" x2="27.66" y2="620.56"/><line class="cls-2" x1="31.16" y1="620.56" x2="27.66" y2="620.56"/><line x1="31.16" y1="585.9" x2="27.66" y2="585.9"/><line class="cls-2" x1="31.16" y1="585.9" x2="27.66" y2="585.9"/><line x1="31.16" y1="551.25" x2="27.66" y2="551.25"/><line class="cls-2" x1="31.16" y1="551.25" x2="27.66" y2="551.25"/><line x1="31.16" y1="516.6" x2="27.66" y2="516.6"/><line class="cls-2" x1="31.16" y1="516.6" x2="27.66" y2="516.6"/><text class="cls-3" transform="translate(6.36 250.87)">20</text><text class="cls-3" transform="translate(6.36 216.22)">40</text><text class="cls-3" transform="translate(6.36 181.57)">60</text><text class="cls-3" transform="translate(6.36 146.91)">80</text><text class="cls-3" transform="translate(0 112.26)">100<tspan x="0" y="14.4">billion</tspan></text><text class="cls-3" transform="translate(6.36 454.94)">20</text><text class="cls-3" transform="translate(6.36 420.29)">40</text><text class="cls-3" transform="translate(6.36 385.63)">60</text><text class="cls-3" transform="translate(6.36 350.98)">80</text><text class="cls-3" transform="translate(0 316.33)">100</text><text class="cls-3" transform="translate(6.36 659.01)">20</text><text class="cls-3" transform="translate(6.36 624.35)">40</text><text class="cls-3" transform="translate(6.36 589.7)">60</text><text class="cls-3" transform="translate(6.36 555.05)">80</text><text class="cls-3" transform="translate(0 520.39)">100</text><rect class="cls-1" x="31.16" y="516.6" width="162.88" height="173.27"/><line class="cls-4" x1="31.16" y1="689.86" x2="31.16" y2="516.6"/><line class="cls-4" x1="31.16" y1="689.86" x2="194.03" y2="689.86"/><text class="cls-3" transform="translate(72.65 510.6)">North America</text><rect class="cls-1" x="233.61" y="516.6" width="162.88" height="173.27"/><line x1="253.96" y1="689.86" x2="253.96" y2="693.36"/><line class="cls-2" x1="253.96" y1="689.86" x2="253.96" y2="693.36"/><text class="cls-3" transform="translate(241.25 704.46)">2015</text><line x1="294.68" y1="689.86" x2="294.68" y2="693.36"/><line class="cls-2" x1="294.68" y1="689.86" x2="294.68" y2="693.36"/><text class="cls-3" transform="translate(281.97 704.46)">2016</text><line x1="335.4" y1="689.86" x2="335.4" y2="693.36"/><line class="cls-2" x1="335.4" y1="689.86" x2="335.4" y2="693.36"/><text class="cls-3" transform="translate(322.68 704.46)">2017</text><line x1="376.12" y1="689.86" x2="376.12" y2="693.36"/><line class="cls-2" x1="376.12" y1="689.86" x2="376.12" y2="693.36"/><text class="cls-3" transform="translate(363.4 704.46)">2018</text><line x1="233.61" y1="689.86" x2="230.11" y2="689.86"/><line class="cls-2" x1="233.61" y1="689.86" x2="230.11" y2="689.86"/><line x1="233.61" y1="655.21" x2="230.11" y2="655.21"/><line class="cls-2" x1="233.61" y1="655.21" x2="230.11" y2="655.21"/><line x1="233.61" y1="620.56" x2="230.11" y2="620.56"/><line class="cls-2" x1="233.61" y1="620.56" x2="230.11" y2="620.56"/><line x1="233.61" y1="585.9" x2="230.11" y2="585.9"/><line class="cls-2" x1="233.61" y1="585.9" x2="230.11" y2="585.9"/><line x1="233.61" y1="551.25" x2="230.11" y2="551.25"/><line class="cls-2" x1="233.61" y1="551.25" x2="230.11" y2="551.25"/><line x1="233.61" y1="516.6" x2="230.11" y2="516.6"/><line class="cls-2" x1="233.61" y1="516.6" x2="230.11" y2="516.6"/><rect class="cls-1" x="233.61" y="516.6" width="162.88" height="173.27"/><line class="cls-4" x1="233.61" y1="689.86" x2="233.61" y2="516.6"/><line class="cls-4" x1="233.61" y1="689.86" x2="396.48" y2="689.86"/><text class="cls-3" transform="translate(279.55 510.6)">South America</text><line x1="456.41" y1="689.86" x2="456.41" y2="693.36"/><line class="cls-2" x1="456.41" y1="689.86" x2="456.41" y2="693.36"/><text class="cls-3" transform="translate(443.7 704.46)">2015</text><line x1="497.13" y1="689.86" x2="497.13" y2="693.36"/><line class="cls-2" x1="497.13" y1="689.86" x2="497.13" y2="693.36"/><text class="cls-3" transform="translate(484.42 704.46)">2016</text><line x1="537.85" y1="689.86" x2="537.85" y2="693.36"/><line class="cls-2" x1="537.85" y1="689.86" x2="537.85" y2="693.36"/><text class="cls-3" transform="translate(525.13 704.46)">2017</text><line x1="578.57" y1="689.86" x2="578.57" y2="693.36"/><line class="cls-2" x1="578.57" y1="689.86" x2="578.57" y2="693.36"/><text class="cls-3" transform="translate(565.85 704.46)">2018</text><line x1="436.05" y1="689.86" x2="432.55" y2="689.86"/><line class="cls-2" x1="436.05" y1="689.86" x2="432.55" y2="689.86"/><line x1="436.05" y1="655.21" x2="432.55" y2="655.21"/><line class="cls-2" x1="436.05" y1="655.21" x2="432.55" y2="655.21"/><line x1="436.05" y1="620.56" x2="432.55" y2="620.56"/><line class="cls-2" x1="436.05" y1="620.56" x2="432.55" y2="620.56"/><line x1="436.05" y1="585.9" x2="432.55" y2="585.9"/><line class="cls-2" x1="436.05" y1="585.9" x2="432.55" y2="585.9"/><line x1="436.05" y1="551.25" x2="432.55" y2="551.25"/><line class="cls-2" x1="436.05" y1="551.25" x2="432.55" y2="551.25"/><line x1="436.05" y1="516.6" x2="432.55" y2="516.6"/><line class="cls-2" x1="436.05" y1="516.6" x2="432.55" y2="516.6"/><line class="cls-4" x1="436.05" y1="689.86" x2="436.05" y2="516.6"/><line class="cls-4" x1="436.05" y1="689.86" x2="598.93" y2="689.86"/><text class="cls-3" transform="translate(463.66 510.6)">Sub-Saharan Africa</text><text class="cls-8" transform="translate(118.74 18.02)">Chinese Investment Globally (2015 - 2018)</text><g class="cls-9"><g class="cls-10"><path class="cls-11" d="M491.29,249a3.4,3.4,0,1,0-2.4-1A3.39,3.39,0,0,0,491.29,249Z" transform="translate(-34.87 -11.21)"/><path class="cls-12" d="M491.29,249a3.4,3.4,0,1,0-2.4-1A3.39,3.39,0,0,0,491.29,249Z" transform="translate(-34.87 -11.21)"/></g><g class="cls-13"><path class="cls-11" d="M532,275a3.38,3.38,0,1,0-2.4-1A3.42,3.42,0,0,0,532,275Z" transform="translate(-34.87 -11.21)"/><path class="cls-12" d="M532,275a3.38,3.38,0,1,0-2.4-1A3.42,3.42,0,0,0,532,275Z" transform="translate(-34.87 -11.21)"/></g><g class="cls-14"><path class="cls-11" d="M572.72,255.09a3.38,3.38,0,1,0-2.39-1A3.38,3.38,0,0,0,572.72,255.09Z" transform="translate(-34.87 -11.21)"/><path class="cls-12" d="M572.72,255.09a3.38,3.38,0,1,0-2.39-1A3.38,3.38,0,0,0,572.72,255.09Z" transform="translate(-34.87 -11.21)"/></g><g class="cls-15"><path class="cls-11" d="M613.44,278.5a3.38,3.38,0,1,0-2.39-1A3.42,3.42,0,0,0,613.44,278.5Z" transform="translate(-34.87 -11.21)"/><path class="cls-12" d="M613.44,278.5a3.38,3.38,0,1,0-2.39-1A3.42,3.42,0,0,0,613.44,278.5Z" transform="translate(-34.87 -11.21)"/></g></g><g class="cls-9"><polyline class="cls-16" points="456.41 234.38 497.13 260.4 537.85 240.49 578.57 263.9"/></g><g class="cls-17"><g class="cls-18"><path class="cls-11" d="M86.39,482.24a3.4,3.4,0,1,0-2.4-1A3.39,3.39,0,0,0,86.39,482.24Z" transform="translate(-34.87 -11.21)"/><path class="cls-12" d="M86.39,482.24a3.4,3.4,0,1,0-2.4-1A3.39,3.39,0,0,0,86.39,482.24Z" transform="translate(-34.87 -11.21)"/></g><g class="cls-19"><path class="cls-11" d="M127.11,488.91a3.4,3.4,0,1,0-2.4-1A3.39,3.39,0,0,0,127.11,488.91Z" transform="translate(-34.87 -11.21)"/><path class="cls-12" d="M127.11,488.91a3.4,3.4,0,1,0-2.4-1A3.39,3.39,0,0,0,127.11,488.91Z" transform="translate(-34.87 -11.21)"/></g><g class="cls-20"><path class="cls-11" d="M167.83,490.08a3.38,3.38,0,1,0-2.4-1A3.38,3.38,0,0,0,167.83,490.08Z" transform="translate(-34.87 -11.21)"/><path class="cls-12" d="M167.83,490.08a3.38,3.38,0,1,0-2.4-1A3.38,3.38,0,0,0,167.83,490.08Z" transform="translate(-34.87 -11.21)"/></g><g class="cls-21"><path class="cls-11" d="M208.54,494a3.38,3.38,0,1,0-2.39-1A3.42,3.42,0,0,0,208.54,494Z" transform="translate(-34.87 -11.21)"/><path class="cls-12" d="M208.54,494a3.38,3.38,0,1,0-2.39-1A3.42,3.42,0,0,0,208.54,494Z" transform="translate(-34.87 -11.21)"/></g></g><g class="cls-17"><polyline class="cls-16" points="51.52 467.64 92.23 474.31 132.95 475.49 173.67 479.35"/></g><g class="cls-22"><g class="cls-23"><path class="cls-11" d="M289,499.25a3.38,3.38,0,1,0-2.4-1A3.38,3.38,0,0,0,289,499.25Z" transform="translate(-34.87 -11.21)"/><path class="cls-12" d="M289,499.25a3.38,3.38,0,1,0-2.4-1A3.38,3.38,0,0,0,289,499.25Z" transform="translate(-34.87 -11.21)"/></g><g class="cls-24"><path class="cls-11" d="M329.72,495.77a3.38,3.38,0,1,0-2.4-1A3.42,3.42,0,0,0,329.72,495.77Z" transform="translate(-34.87 -11.21)"/><path class="cls-12" d="M329.72,495.77a3.38,3.38,0,1,0-2.4-1A3.42,3.42,0,0,0,329.72,495.77Z" transform="translate(-34.87 -11.21)"/></g><g class="cls-25"><path class="cls-11" d="M370.43,495.06a3.38,3.38,0,1,0-2.39-1A3.42,3.42,0,0,0,370.43,495.06Z" transform="translate(-34.87 -11.21)"/><path class="cls-12" d="M370.43,495.06a3.38,3.38,0,1,0-2.39-1A3.42,3.42,0,0,0,370.43,495.06Z" transform="translate(-34.87 -11.21)"/></g><g class="cls-26"><path class="cls-11" d="M411.15,494a3.38,3.38,0,1,0-2.39-1A3.42,3.42,0,0,0,411.15,494Z" transform="translate(-34.87 -11.21)"/><path class="cls-12" d="M411.15,494a3.38,3.38,0,1,0-2.39-1A3.42,3.42,0,0,0,411.15,494Z" transform="translate(-34.87 -11.21)"/></g></g><polyline class="cls-16" points="254.12 484.66 294.84 481.17 335.56 480.46 376.28 479.42"/><g class="cls-27"><g class="cls-28"><path class="cls-11" d="M491.74,474.26a3.38,3.38,0,1,0-2.4-1A3.42,3.42,0,0,0,491.74,474.26Z" transform="translate(-34.87 -11.21)"/><path class="cls-12" d="M491.74,474.26a3.38,3.38,0,1,0-2.4-1A3.42,3.42,0,0,0,491.74,474.26Z" transform="translate(-34.87 -11.21)"/></g><g class="cls-29"><path class="cls-11" d="M532.45,491a3.38,3.38,0,1,0-2.39-1A3.42,3.42,0,0,0,532.45,491Z" transform="translate(-34.87 -11.21)"/><path class="cls-12" d="M532.45,491a3.38,3.38,0,1,0-2.39-1A3.42,3.42,0,0,0,532.45,491Z" transform="translate(-34.87 -11.21)"/></g><g class="cls-30"><path class="cls-11" d="M573.17,486.86a3.4,3.4,0,1,0-2.39-1A3.39,3.39,0,0,0,573.17,486.86Z" transform="translate(-34.87 -11.21)"/><path class="cls-12" d="M573.17,486.86a3.4,3.4,0,1,0-2.39-1A3.39,3.39,0,0,0,573.17,486.86Z" transform="translate(-34.87 -11.21)"/></g><g class="cls-31"><path class="cls-11" d="M613.89,483.7a3.38,3.38,0,1,0-2.39-1A3.38,3.38,0,0,0,613.89,483.7Z" transform="translate(-34.87 -11.21)"/><path class="cls-12" d="M613.89,483.7a3.38,3.38,0,1,0-2.39-1A3.38,3.38,0,0,0,613.89,483.7Z" transform="translate(-34.87 -11.21)"/></g></g><g class="cls-27"><polyline class="cls-16" points="456.86 459.66 497.58 476.38 538.3 472.26 579.02 469.11"/></g><line class="cls-2" x1="253.96" y1="485.8" x2="253.96" y2="489.3"/><g class="cls-32"><g class="cls-33"><path class="cls-11" d="M86.68,701.53a3.38,3.38,0,1,0-2.39-1A3.38,3.38,0,0,0,86.68,701.53Z" transform="translate(-34.87 -11.21)"/><path class="cls-12" d="M86.68,701.53a3.38,3.38,0,1,0-2.39-1A3.38,3.38,0,0,0,86.68,701.53Z" transform="translate(-34.87 -11.21)"/></g><g class="cls-34"><path class="cls-11" d="M127.4,695.34a3.38,3.38,0,1,0-2.39-1A3.34,3.34,0,0,0,127.4,695.34Z" transform="translate(-34.87 -11.21)"/><path class="cls-12" d="M127.4,695.34a3.38,3.38,0,1,0-2.39-1A3.34,3.34,0,0,0,127.4,695.34Z" transform="translate(-34.87 -11.21)"/></g><g class="cls-35"><path class="cls-11" d="M168.12,700.14a3.38,3.38,0,1,0-2.39-1A3.34,3.34,0,0,0,168.12,700.14Z" transform="translate(-34.87 -11.21)"/><path class="cls-12" d="M168.12,700.14a3.38,3.38,0,1,0-2.39-1A3.34,3.34,0,0,0,168.12,700.14Z" transform="translate(-34.87 -11.21)"/></g><g class="cls-36"><path class="cls-11" d="M208.84,694.57a3.41,3.41,0,1,0-2.39-1A3.35,3.35,0,0,0,208.84,694.57Z" transform="translate(-34.87 -11.21)"/><path class="cls-12" d="M208.84,694.57a3.41,3.41,0,1,0-2.39-1A3.35,3.35,0,0,0,208.84,694.57Z" transform="translate(-34.87 -11.21)"/></g></g><g class="cls-32"><polyline class="cls-16" points="51.81 686.93 92.53 680.75 133.25 685.55 173.97 679.97"/></g><g class="cls-37"><g class="cls-38"><path class="cls-11" d="M289.54,698.51a3.4,3.4,0,1,0-2.39-1A3.39,3.39,0,0,0,289.54,698.51Z" transform="translate(-34.87 -11.21)"/><path class="cls-12" d="M289.54,698.51a3.4,3.4,0,1,0-2.39-1A3.39,3.39,0,0,0,289.54,698.51Z" transform="translate(-34.87 -11.21)"/></g><g class="cls-39"><path class="cls-11" d="M330.26,677.8a3.38,3.38,0,1,0-2.39-1A3.42,3.42,0,0,0,330.26,677.8Z" transform="translate(-34.87 -11.21)"/><path class="cls-12" d="M330.26,677.8a3.38,3.38,0,1,0-2.39-1A3.42,3.42,0,0,0,330.26,677.8Z" transform="translate(-34.87 -11.21)"/></g><g class="cls-40"><path class="cls-11" d="M371,687.23a3.39,3.39,0,1,0,0-6.77,3.34,3.34,0,0,0-2.39,1,3.39,3.39,0,0,0,2.39,5.78Z" transform="translate(-34.87 -11.21)"/><path class="cls-12" d="M371,687.23a3.39,3.39,0,1,0,0-6.77,3.34,3.34,0,0,0-2.39,1,3.39,3.39,0,0,0,2.39,5.78Z" transform="translate(-34.87 -11.21)"/></g><g class="cls-41"><path class="cls-11" d="M411.7,678.87a3.38,3.38,0,1,0-2.39-1A3.34,3.34,0,0,0,411.7,678.87Z" transform="translate(-34.87 -11.21)"/><path class="cls-12" d="M411.7,678.87a3.38,3.38,0,1,0-2.39-1A3.34,3.34,0,0,0,411.7,678.87Z" transform="translate(-34.87 -11.21)"/></g></g><g class="cls-37"><polyline class="cls-16" points="254.67 683.91 295.39 663.2 336.11 672.63 376.83 664.28"/></g><g class="cls-42"><g class="cls-43"><path class="cls-11" d="M491.33,693.41a3.38,3.38,0,1,0-2.39-1A3.38,3.38,0,0,0,491.33,693.41Z" transform="translate(-34.87 -11.21)"/><path class="cls-12" d="M491.33,693.41a3.38,3.38,0,1,0-2.39-1A3.38,3.38,0,0,0,491.33,693.41Z" transform="translate(-34.87 -11.21)"/></g><g class="cls-44"><path class="cls-11" d="M532.05,696.13a3.4,3.4,0,1,0-2.39-1A3.38,3.38,0,0,0,532.05,696.13Z" transform="translate(-34.87 -11.21)"/><path class="cls-12" d="M532.05,696.13a3.4,3.4,0,1,0-2.39-1A3.38,3.38,0,0,0,532.05,696.13Z" transform="translate(-34.87 -11.21)"/></g><g class="cls-45"><path class="cls-11" d="M572.77,700.37a3.34,3.34,0,0,0,2.39-1,3.38,3.38,0,0,0,0-4.78,3.34,3.34,0,0,0-2.39-1,3.38,3.38,0,1,0,0,6.76Z" transform="translate(-34.87 -11.21)"/><path class="cls-12" d="M572.77,700.37a3.34,3.34,0,0,0,2.39-1,3.38,3.38,0,0,0,0-4.78,3.34,3.34,0,0,0-2.39-1,3.38,3.38,0,1,0,0,6.76Z" transform="translate(-34.87 -11.21)"/></g><g class="cls-46"><path class="cls-11" d="M613.49,683a3.38,3.38,0,1,0-2.4-1A3.42,3.42,0,0,0,613.49,683Z" transform="translate(-34.87 -11.21)"/><path class="cls-12" d="M613.49,683a3.38,3.38,0,1,0-2.4-1A3.42,3.42,0,0,0,613.49,683Z" transform="translate(-34.87 -11.21)"/></g></g><g class="cls-42"><polyline class="cls-16" points="456.46 678.81 497.18 681.53 537.9 685.78 578.62 668.43"/></g><g class="cls-47"><g class="cls-48"><path class="cls-49" d="M86.94,269.23a3.38,3.38,0,1,0-2.39-1A3.42,3.42,0,0,0,86.94,269.23Z" transform="translate(-34.87 -11.21)"/><path class="cls-50" d="M86.94,269.23a3.38,3.38,0,1,0-2.39-1A3.42,3.42,0,0,0,86.94,269.23Z" transform="translate(-34.87 -11.21)"/></g><g class="cls-51"><path class="cls-49" d="M127.66,201.81a3.38,3.38,0,1,0-2.39-1A3.42,3.42,0,0,0,127.66,201.81Z" transform="translate(-34.87 -11.21)"/><path class="cls-50" d="M127.66,201.81a3.38,3.38,0,1,0-2.39-1A3.42,3.42,0,0,0,127.66,201.81Z" transform="translate(-34.87 -11.21)"/></g><g class="cls-52"><path class="cls-49" d="M168.38,255.9a3.38,3.38,0,1,0-2.39-1A3.38,3.38,0,0,0,168.38,255.9Z" transform="translate(-34.87 -11.21)"/><path class="cls-50" d="M168.38,255.9a3.38,3.38,0,1,0-2.39-1A3.38,3.38,0,0,0,168.38,255.9Z" transform="translate(-34.87 -11.21)"/></g><g class="cls-53"><path class="cls-49" d="M209.1,283.25a3.4,3.4,0,1,0-2.39-1A3.35,3.35,0,0,0,209.1,283.25Z" transform="translate(-34.87 -11.21)"/><path class="cls-50" d="M209.1,283.25a3.4,3.4,0,1,0-2.39-1A3.35,3.35,0,0,0,209.1,283.25Z" transform="translate(-34.87 -11.21)"/></g></g><g class="cls-47"><polyline class="cls-54" points="52.07 254.63 92.79 187.21 133.51 241.31 174.23 268.65"/></g><g class="cls-55"><g class="cls-56"><path class="cls-49" d="M288.78,232a3.38,3.38,0,1,0-2.39-1A3.34,3.34,0,0,0,288.78,232Z" transform="translate(-34.87 -11.21)"/><path class="cls-50" d="M288.78,232a3.38,3.38,0,1,0-2.39-1A3.34,3.34,0,0,0,288.78,232Z" transform="translate(-34.87 -11.21)"/></g><g class="cls-57"><path class="cls-49" d="M329.5,195.17a3.38,3.38,0,1,0-2.39-1A3.38,3.38,0,0,0,329.5,195.17Z" transform="translate(-34.87 -11.21)"/><path class="cls-50" d="M329.5,195.17a3.38,3.38,0,1,0-2.39-1A3.38,3.38,0,0,0,329.5,195.17Z" transform="translate(-34.87 -11.21)"/></g><g class="cls-58"><path class="cls-49" d="M370.22,128.5a3.38,3.38,0,1,0-2.39-1A3.38,3.38,0,0,0,370.22,128.5Z" transform="translate(-34.87 -11.21)"/><path class="cls-50" d="M370.22,128.5a3.38,3.38,0,1,0-2.39-1A3.38,3.38,0,0,0,370.22,128.5Z" transform="translate(-34.87 -11.21)"/></g><g class="cls-59"><path class="cls-49" d="M410.94,219.38a3.41,3.41,0,1,0-2.39-1A3.35,3.35,0,0,0,410.94,219.38Z" transform="translate(-34.87 -11.21)"/><path class="cls-50" d="M410.94,219.38a3.41,3.41,0,1,0-2.39-1A3.35,3.35,0,0,0,410.94,219.38Z" transform="translate(-34.87 -11.21)"/></g></g><g class="cls-55"><polyline class="cls-54" points="253.91 217.43 294.63 180.57 335.35 113.9 376.07 204.78"/></g></svg>