<svg id="Layer_1" data-name="Layer 1" xmlns="http://www.w3.org/2000/svg" xmlns:xlink="http://www.w3.org/1999/xlink" viewBox="0 0 1456.63 544.13"><defs><style>.cls-1,.cls-2,.cls-4,.cls-5,.cls-7,.cls-8{fill:none;}.cls-2,.cls-8{stroke:#000;stroke-width:0.8px;}.cls-2,.cls-4,.cls-5,.cls-7{stroke-linejoin:round;}.cls-3{font-size:18px;}.cls-15,.cls-17,.cls-3,.cls-9{font-family:ArialMT, Arial;}.cls-4{stroke:#e0843f;}.cls-4,.cls-5,.cls-7,.cls-8{stroke-linecap:square;}.cls-4,.cls-7{stroke-width:3px;}.cls-5{stroke:#b6b6c6;stroke-width:1.5px;}.cls-6{clip-path:url(#clip-path);}.cls-7{stroke:#d8d832;}.cls-8{stroke-miterlimit:10;}.cls-17,.cls-9{font-size:21px;}.cls-10{fill:#ea1d13;}.cls-11{fill:#e0843f;}.cls-12{fill:#d8d832;}.cls-13{fill:#79d32a;}.cls-14{letter-spacing:-0.06em;}.cls-15{font-size:26.07px;}.cls-16{letter-spacing:-0.06em;}.cls-17{fill:#4d4f4e;}</style><clipPath id="clip-path" transform="translate(-68.52 -40.53)"><rect class="cls-1" x="265.15" y="195" width="1116" height="271.8"/></clipPath></defs><title>bj</title><line x1="298.09" y1="426.27" x2="298.09" y2="429.77"/><line class="cls-2" x1="298.09" y1="426.27" x2="298.09" y2="429.77"/><text class="cls-3" transform="translate(282.91 448.86)">Feb</text><line x1="501" y1="426.27" x2="501" y2="429.77"/><line class="cls-2" x1="501" y1="426.27" x2="501" y2="429.77"/><text class="cls-3" transform="translate(485.82 448.86)">April</text><line x1="703.91" y1="426.27" x2="703.91" y2="429.77"/><line class="cls-2" x1="703.91" y1="426.27" x2="703.91" y2="429.77"/><text class="cls-3" transform="translate(688.73 448.86)">June</text><line x1="906.82" y1="426.27" x2="906.82" y2="429.77"/><line class="cls-2" x1="906.82" y1="426.27" x2="906.82" y2="429.77"/><text class="cls-3" transform="translate(891.64 448.86)">Aug</text><line x1="1109.72" y1="426.27" x2="1109.72" y2="429.77"/><line class="cls-2" x1="1109.72" y1="426.27" x2="1109.72" y2="429.77"/><text class="cls-3" transform="translate(1095.37 448.86)">Oct</text><line x1="1312.63" y1="426.27" x2="1312.63" y2="429.77"/><line class="cls-2" x1="1312.63" y1="426.27" x2="1312.63" y2="429.77"/><text class="cls-3" transform="translate(1294.27 448.86)">Dec</text><line x1="196.63" y1="426.27" x2="193.13" y2="426.27"/><line class="cls-2" x1="196.63" y1="426.27" x2="193.13" y2="426.27"/><text class="cls-3" transform="translate(171.27 433.06)">0</text><text class="cls-3" transform="translate(164.92 365.11)">50</text><text class="cls-3" transform="translate(158.56 297.16)">100</text><text class="cls-3" transform="translate(158.56 229.21)">150</text><text class="cls-3" transform="translate(158.56 161.26)">200</text><polyline class="cls-4" points="196.63 303.95 298.09 294.44 399.54 298.52 501 317.55 602.45 308.03 703.91 278.13 805.36 259.11 906.82 293.08 1008.27 259.11 1109.72 264.54 1211.18 238.72 1312.63 294.44"/><polyline class="cls-5" points="196.63 365.11 298.09 222.41 399.54 347.44 501 301.24 602.45 337.93 703.91 278.13 805.36 280.85 906.82 284.93 1008.27 297.16 1109.72 227.85 1211.18 278.13 1312.63 278.13"/><polyline class="cls-5" points="196.63 264.54 298.09 312.11 399.54 295.8 501 306.67 602.45 302.6 703.91 294.44 805.36 316.19 906.82 316.19 1008.27 344.73 1109.72 297.16 1211.18 308.03 1312.63 278.13"/><polyline class="cls-5" points="196.63 163.98 298.09 257.75 399.54 259.11 501 336.57 602.45 310.75 703.91 275.42 805.36 332.49 906.82 342.01 1008.27 302.6 1109.72 280.85 1211.18 302.6 1312.63 291.72"/><polyline class="cls-5" points="196.63 264.54 298.09 188.44 399.54 276.77 501 297.16 602.45 328.42 703.91 346.08 805.36 303.95 906.82 340.65 1008.27 331.13 1109.72 234.65 1211.18 284.93 1312.63 318.9"/><polyline class="cls-5" points="196.63 279.49 298.09 294.44 399.54 305.31 501 318.9 602.45 344.73 703.91 352.88 805.36 351.52 906.82 365.11 1008.27 362.39 1109.72 328.42 1211.18 256.39 1312.63 206.11"/><g class="cls-6"><polyline class="cls-7" points="196.63 328.42 298.09 366.47 399.54 299.88 501 336.57 602.45 351.52 703.91 346.08 805.36 346.08 906.82 373.26 1008.27 355.6 1109.72 314.83 1211.18 283.57 1312.63 229.21"/></g><line class="cls-8" x1="196.63" y1="426.27" x2="1312.63" y2="426.27"/><rect class="cls-1" x="16.63" y="111.27" width="1440" height="360"/><text class="cls-9" transform="translate(1313.63 234.21)">2016</text><text class="cls-9" transform="translate(1315.18 306.9)">2010</text><text class="cls-3" transform="translate(116.4 133.7)">μg/m3</text><rect class="cls-10" x="126.35" y="147.15" width="26" height="70.84"/><rect class="cls-11" x="126.35" y="217.99" width="26" height="70.84"/><rect class="cls-12" x="126.35" y="288.83" width="26" height="70.84"/><rect class="cls-13" x="126.35" y="359.68" width="26" height="70.84"/><text class="cls-3" transform="translate(76.64 394.33)">Good</text><text class="cls-3" transform="translate(47.14 327.19)">Moderate</text><text class="cls-3" transform="translate(40.23 261.26)">Unhealthy</text><text class="cls-3" transform="translate(1.72 197)"><tspan class="cls-14">V</tspan><tspan x="11.01" y="0">ery Unhealthy</tspan></text><text class="cls-15" transform="translate(315.38 22.37) scale(1.02 1)"><tspan xml:space="preserve">                    Monthly Outdoor</tspan><tspan class="cls-16" x="337.62" y="0"> </tspan><tspan x="343.43" y="0" xml:space="preserve">Air Quality In Beijing (2010 - 2016)                                         </tspan></text><text class="cls-17" transform="translate(482.58 65.98)">Measured by average monthly PM2.5 concentration</text><text class="cls-3" transform="translate(0 538.28)">Source: Mission China</text></svg>