<svg id="Layer_1" data-name="Layer 1" xmlns="http://www.w3.org/2000/svg" viewBox="0 0 1444.1 539.76"><defs><style>.cls-1,.cls-2,.cls-4,.cls-5,.cls-6,.cls-7{fill:none;stroke-linecap:square;}.cls-1,.cls-2{stroke:#979797;}.cls-1,.cls-2,.cls-7{stroke-miterlimit:10;stroke-width:0.8px;}.cls-2{stroke-dasharray:12.13 12.13;}.cls-3{font-size:18px;}.cls-11,.cls-15,.cls-3,.cls-8{font-family:ArialMT, Arial;}.cls-4{stroke:#e0843f;}.cls-4,.cls-5,.cls-6{stroke-linejoin:round;stroke-width:2px;}.cls-5{stroke:#79d32a;}.cls-6{stroke:#d8d832;}.cls-7{stroke:#000;}.cls-15,.cls-8{font-size:21px;}.cls-9{letter-spacing:-0.02em;}.cls-10{letter-spacing:-0.09em;}.cls-11{font-size:26.07px;}.cls-12{letter-spacing:-0.06em;}.cls-13{letter-spacing:-0.02em;}.cls-14{letter-spacing:-0.09em;}.cls-15{fill:#4d4f4e;}.cls-16{fill:#ea1d13;}.cls-17{fill:#e0843f;}.cls-18{fill:#d8d832;}.cls-19{fill:#79d32a;}.cls-20{letter-spacing:-0.06em;}.cls-21{letter-spacing:-0.07em;}</style></defs><title>PM2.5_month</title><line class="cls-1" x1="196.77" y1="386.16" x2="202.77" y2="386.16"/><line class="cls-2" x1="214.91" y1="386.16" x2="1300.7" y2="386.16"/><line class="cls-1" x1="1306.76" y1="386.16" x2="1312.77" y2="386.16"/><line class="cls-1" x1="196.83" y1="320.58" x2="202.83" y2="320.58"/><line class="cls-2" x1="214.96" y1="320.58" x2="1300.76" y2="320.58"/><line class="cls-1" x1="1306.82" y1="320.58" x2="1312.83" y2="320.58"/><line class="cls-1" x1="196.93" y1="255.11" x2="202.93" y2="255.11"/><line class="cls-2" x1="215.07" y1="255.11" x2="1300.86" y2="255.11"/><line class="cls-1" x1="1306.92" y1="255.11" x2="1312.93" y2="255.11"/><text class="cls-3" transform="translate(193.47 449.99)">2010</text><text class="cls-3" transform="translate(337.75 449.99)">2011</text><text class="cls-3" transform="translate(491.21 449.99)">2012</text><text class="cls-3" transform="translate(660.67 449.99)">2013</text><text class="cls-3" transform="translate(831.12 449.99)">2014</text><text class="cls-3" transform="translate(991.58 449.99)">2015</text><text class="cls-3" transform="translate(1146.04 449.99)">2016</text><line x1="196.65" y1="353.28" x2="193.15" y2="353.28"/><line x1="196.65" y1="287.78" x2="193.15" y2="287.78"/><line x1="196.65" y1="222.28" x2="193.15" y2="222.28"/><polyline class="cls-4" points="196.65 300.88 210.1 291.71 223.54 295.64 236.99 313.98 250.43 304.81 263.88 275.99 277.33 257.65 290.77 290.4 304.22 257.65 317.66 262.89 331.11 238 344.56 291.71 358 359.83 371.45 222.28 384.89 342.8 398.34 298.26 411.78 333.63 425.23 275.99 438.68 278.61 452.12 282.54 465.57 294.33 479.01 227.52 492.46 275.99 505.9 275.99 519.35 262.89 532.8 308.74 546.24 293.02 559.69 303.5 573.13 299.57 586.58 291.71 600.02 312.67 613.47 312.67 626.92 340.18 640.36 294.33 653.81 304.81 667.25 275.99 680.7 165.95 694.14 256.34 707.59 257.65 721.04 332.32 734.48 307.43 747.93 273.37 761.37 328.39 774.82 337.56 788.27 299.57 801.71 278.61 815.16 299.57 828.6 289.09 842.05 262.89 855.5 189.53 868.94 274.68 882.39 294.33 895.83 324.46 909.28 341.49 922.72 300.88 936.17 336.25 949.62 327.08 963.06 234.07 976.51 282.54 989.95 315.29 1003.4 277.3 1016.84 291.71 1030.29 302.19 1043.74 315.29 1057.18 340.18 1070.63 348.04 1084.07 346.73 1097.52 359.83 1110.96 357.21 1124.41 324.46 1137.86 255.03 1151.3 206.56 1164.75 324.46 1178.19 361.14 1191.64 296.95 1205.09 332.32 1218.53 346.73 1231.98 341.49 1245.42 341.49 1258.87 367.69 1272.31 350.66 1285.76 311.36 1299.21 281.23 1312.65 228.83"/><polyline class="cls-5" points="196.65 398.79 210.1 404.68 223.54 406.87 236.99 407.17 250.43 407.28 263.88 405.35 277.33 404.66 290.77 407.3 304.22 407.83 317.66 410.07 331.11 406.92 344.56 404.37 358 399.02 371.45 401.66 384.89 408.81 398.34 406.62 411.78 409.83 425.23 409.13 519.35 402.95 532.8 404.06 546.24 406 559.69 410.08 573.13 407.24 586.58 407.48 600.02 405.76 613.47 405.62 626.92 409.09 640.36 406.12 653.81 400.46 667.25 398.95 680.7 395.76 694.14 399.9 707.59 408.3 721.04 408.16 734.48 407.29 747.93 407.65 761.37 404.14 774.82 407.05 788.27 410.07 801.71 406.46 815.16 408.32 828.6 400.42 842.05 399.15 855.5 399.08 868.94 404.88 882.39 409.15 895.83 408.39 909.28 409.66 922.72 407.55 936.17 409.11 949.62 408.57 963.06 410.17 976.51 407.24 989.95 404.6 1003.4 401.51 1016.84 400.63 1030.29 405.02 1043.74 410.04 1057.18 407.22 1070.63 408.88 1084.07 405.07 1097.52 408.91 1110.96 407.93 1124.41 410.35 1137.86 407.05 1151.3 403.16 1164.75 403.69 1178.19 405.3 1191.64 407.85 1205.09 410.23 1218.53 408.95 1231.98 409.54 1245.42 408.2 1258.87 409.93 1272.31 410.46 1285.76 409.16 1299.21 407.7 1312.65 405.46"/><polyline class="cls-6" points="344.56 329.58 358 334.37 371.45 349.26 384.89 330.64 398.34 347.95 411.78 347.98 425.23 366.22 438.68 383.77 452.12 397.73 465.57 360.84 479.01 346.19 492.46 329.94 505.9 334.4 519.35 284.93 532.8 334.47 546.24 333.63 559.69 337.86 573.13 349.06 586.58 360.79 600.02 377.22 613.47 384.33 626.92 382.3 640.36 371.39 653.81 315.13 667.25 258.72 680.7 323.63 694.14 350.3 707.59 347.4 721.04 351.08 734.48 338.75 747.93 363.63 761.37 372.84 774.82 380.6 788.27 380.93 801.71 368.06 815.16 348.55 828.6 320.97 842.05 307.92 855.5 331.17 868.94 352.63 882.39 348.69 895.83 365.06 909.28 370.97 922.72 372.36 936.17 371.59 949.62 382.11 963.06 369.3 976.51 345.42 989.95 311.27 1003.4 323.88 1016.84 343.34 1030.29 344.97 1043.74 345.81 1057.18 355.21 1070.63 372.5 1084.07 373.25 1097.52 391.81 1110.96 381.91 1124.41 391.73 1137.86 353.26 1151.3 336.17"/><line class="cls-7" x1="196.65" y1="425.4" x2="1312.65" y2="425.4"/><line class="cls-1" x1="197.03" y1="189.62" x2="203.03" y2="189.62"/><line class="cls-2" x1="215.17" y1="189.62" x2="1300.96" y2="189.62"/><line class="cls-1" x1="1307.02" y1="189.62" x2="1313.03" y2="189.62"/><text class="cls-3" transform="translate(1294.1 450.31)">2017</text><text class="cls-8" transform="translate(1333.92 228.94)">Beijing</text><text class="cls-8" transform="translate(1333.92 357.64)">Shanghai</text><text class="cls-8" transform="translate(1333.92 409.98)">New<tspan class="cls-9" x="42.01" y="0"> </tspan><tspan class="cls-10" x="47.46" y="0">Y</tspan><tspan x="59.54" y="0">ork</tspan></text><text class="cls-11" transform="translate(358.48 22.37) scale(1.02 1)">Outdoor<tspan class="cls-12" x="94.21" y="0"> </tspan><tspan x="100.01" y="0">Air Quality In Beijing, Shanghai &amp; New</tspan><tspan class="cls-13" x="543.48" y="0"> </tspan><tspan class="cls-14" x="550.25" y="0">Y</tspan><tspan x="565.25" y="0" xml:space="preserve">ork  (2010 - 2016)                                         </tspan></text><text class="cls-15" transform="translate(525.68 65.98)">Measured by average monthly PM2.5 concentration</text><text class="cls-3" transform="translate(161.93 389.83)">25</text><text class="cls-3" transform="translate(161.93 324.33)">75</text><text class="cls-3" transform="translate(155.57 258.83)">125</text><text class="cls-3" transform="translate(156.14 193.93)">175</text><text class="cls-3" transform="translate(116.71 129.52)">μg/m3</text><rect class="cls-16" x="126.66" y="142.96" width="26" height="70.84"/><rect class="cls-17" x="126.66" y="213.81" width="26" height="70.84"/><rect class="cls-18" x="126.66" y="284.65" width="26" height="70.84"/><rect class="cls-19" x="126.66" y="355.5" width="26" height="70.84"/><text class="cls-3" transform="translate(76.95 390.15)">Good</text><text class="cls-3" transform="translate(47.45 323.01)">Moderate</text><text class="cls-3" transform="translate(40.54 257.08)">Unhealthy</text><text class="cls-3" transform="translate(2.02 192.82)"><tspan class="cls-20">V</tspan><tspan x="11.01" y="0">ery Unhealthy</tspan></text><text class="cls-3" transform="translate(0 533.92)">Sources: Mission China; US E<tspan class="cls-21" x="241.09" y="0">P</tspan><tspan class="cls-20" x="251.76" y="0">A</tspan></text></svg>