<svg id="Layer_1" data-name="Layer 1" xmlns="http://www.w3.org/2000/svg" xmlns:xlink="http://www.w3.org/1999/xlink" viewBox="0 0 1440 664.65"><defs><style>.cls-1,.cls-11,.cls-12,.cls-2,.cls-3,.cls-9{fill:none;}.cls-2,.cls-3{stroke:#979797;}.cls-11,.cls-12,.cls-2,.cls-3{stroke-linecap:square;}.cls-12,.cls-2,.cls-3{stroke-miterlimit:10;}.cls-12,.cls-2,.cls-3,.cls-9{stroke-width:0.8px;}.cls-3{stroke-dasharray:12.13 12.13;}.cls-4{fill:#8c6bb1;}.cls-5{clip-path:url(#clip-path);}.cls-6{fill:#88419d;}.cls-7{fill:#810f7c;}.cls-8{fill:#4d004b;}.cls-12,.cls-9{stroke:#000;}.cls-11,.cls-9{stroke-linejoin:round;}.cls-10{font-size:18px;}.cls-10,.cls-14,.cls-17{font-family:ArialMT, Arial;}.cls-11{stroke:#424242;stroke-width:2.7px;}.cls-13{letter-spacing:-0.06em;}.cls-14{font-size:26.07px;}.cls-15{letter-spacing:-0.06em;}.cls-16{letter-spacing:0em;}.cls-17{font-size:21px;fill:#4d4f4e;}</style><clipPath id="clip-path" transform="translate(0 -44.18)"><rect class="cls-1" x="180" y="329.87" width="1116" height="271.8"/></clipPath></defs><title>severe</title><line class="cls-2" x1="178.21" y1="524.22" x2="184.21" y2="524.22"/><line class="cls-3" x1="196.34" y1="524.22" x2="1282.14" y2="524.22"/><line class="cls-2" x1="1288.2" y1="524.22" x2="1294.21" y2="524.22"/><line class="cls-2" x1="178.77" y1="448.01" x2="184.78" y2="448.01"/><line class="cls-3" x1="196.91" y1="448.01" x2="1282.7" y2="448.01"/><line class="cls-2" x1="1288.77" y1="448.01" x2="1294.77" y2="448.01"/><line class="cls-2" x1="180.3" y1="372.15" x2="186.31" y2="372.15"/><line class="cls-3" x1="198.44" y1="372.15" x2="1284.23" y2="372.15"/><line class="cls-2" x1="1290.3" y1="372.15" x2="1296.3" y2="372.15"/><line class="cls-2" x1="180.32" y1="295.38" x2="186.33" y2="295.38"/><line class="cls-3" x1="198.46" y1="295.38" x2="1284.25" y2="295.38"/><line class="cls-2" x1="1290.32" y1="295.38" x2="1296.32" y2="295.38"/><rect class="cls-4" x="195.94" y="298.63" width="31.89" height="258.86"/><g class="cls-5"><rect class="cls-4" x="355.37" y="338.6" width="31.89" height="218.89"/></g><rect class="cls-4" x="514.8" y="361.44" width="31.89" height="196.05"/><rect class="cls-4" x="674.23" y="323.38" width="31.89" height="234.11"/><rect class="cls-4" x="833.66" y="330.99" width="31.89" height="226.5"/><rect class="cls-4" x="993.09" y="401.42" width="31.89" height="156.08"/><rect class="cls-4" x="1152.51" y="412.84" width="31.89" height="144.66"/><rect class="cls-6" x="227.83" y="471.84" width="31.89" height="85.65"/><rect class="cls-6" x="387.26" y="452.81" width="31.89" height="104.68"/><rect class="cls-6" x="546.69" y="485.16" width="31.89" height="72.33"/><rect class="cls-6" x="706.11" y="445.19" width="31.89" height="112.3"/><rect class="cls-6" x="865.54" y="466.13" width="31.89" height="91.36"/><rect class="cls-6" x="1024.97" y="477.55" width="31.89" height="79.94"/><rect class="cls-6" x="1184.4" y="502.29" width="31.89" height="55.2"/><rect class="cls-7" x="259.71" y="509.91" width="31.89" height="47.58"/><rect class="cls-7" x="419.14" y="521.33" width="31.89" height="36.16"/><rect class="cls-7" x="578.57" y="536.55" width="31.89" height="20.94"/><rect class="cls-7" x="738" y="498.49" width="31.89" height="59"/><rect class="cls-7" x="897.43" y="517.52" width="31.89" height="39.97"/><rect class="cls-7" x="1056.86" y="528.94" width="31.89" height="28.55"/><rect class="cls-7" x="1216.29" y="527.04" width="31.89" height="30.45"/><rect class="cls-8" x="291.6" y="538.46" width="31.89" height="19.03"/><rect class="cls-8" x="451.03" y="549.88" width="31.89" height="7.61"/><rect class="cls-8" x="610.46" y="551.78" width="31.89" height="5.71"/><rect class="cls-8" x="769.89" y="534.65" width="31.89" height="22.84"/><rect class="cls-8" x="929.31" y="542.26" width="31.89" height="15.23"/><rect class="cls-8" x="1088.74" y="540.36" width="31.89" height="17.13"/><rect class="cls-8" x="1248.17" y="544.17" width="31.89" height="13.32"/><line x1="259.71" y1="557.49" x2="259.71" y2="560.99"/><line class="cls-9" x1="259.71" y1="557.49" x2="259.71" y2="560.99"/><text class="cls-10" transform="translate(240 579.08)">2010</text><line x1="419.14" y1="557.49" x2="419.14" y2="560.99"/><line class="cls-9" x1="419.14" y1="557.49" x2="419.14" y2="560.99"/><text class="cls-10" transform="translate(399.42 579.08)">2011</text><line x1="578.57" y1="557.49" x2="578.57" y2="560.99"/><line class="cls-9" x1="578.57" y1="557.49" x2="578.57" y2="560.99"/><text class="cls-10" transform="translate(558.85 579.08)">2012</text><line x1="738" y1="557.49" x2="738" y2="560.99"/><line class="cls-9" x1="738" y1="557.49" x2="738" y2="560.99"/><text class="cls-10" transform="translate(718.28 579.08)">2013</text><line x1="897.43" y1="557.49" x2="897.43" y2="560.99"/><line class="cls-9" x1="897.43" y1="557.49" x2="897.43" y2="560.99"/><text class="cls-10" transform="translate(877.71 579.08)">2014</text><line x1="1056.86" y1="557.49" x2="1056.86" y2="560.99"/><line class="cls-9" x1="1056.86" y1="557.49" x2="1056.86" y2="560.99"/><text class="cls-10" transform="translate(1037.14 579.08)">2015</text><line x1="1216.29" y1="557.49" x2="1216.29" y2="560.99"/><line class="cls-9" x1="1216.29" y1="557.49" x2="1216.29" y2="560.99"/><text class="cls-10" transform="translate(1196.57 579.08)">2016</text><text class="cls-10" transform="translate(153.28 530.22)">20</text><text class="cls-10" transform="translate(153.28 454.09)">60</text><text class="cls-10" transform="translate(146.92 377.95)">100</text><text class="cls-10" transform="translate(146.92 301.82)">140<tspan x="0" y="21.6">Days</tspan></text><g class="cls-5"><path class="cls-11" d="M0,646.67" transform="translate(0 -44.18)"/></g><g class="cls-5"><path class="cls-11" d="M0,646.67" transform="translate(0 -44.18)"/></g><g class="cls-5"><path class="cls-11" d="M0,646.67" transform="translate(0 -44.18)"/></g><g class="cls-5"><path class="cls-11" d="M0,646.67" transform="translate(0 -44.18)"/></g><g class="cls-5"><path class="cls-11" d="M0,646.67" transform="translate(0 -44.18)"/></g><g class="cls-5"><path class="cls-11" d="M0,646.67" transform="translate(0 -44.18)"/></g><g class="cls-5"><path class="cls-11" d="M0,646.67" transform="translate(0 -44.18)"/></g><g class="cls-5"><path class="cls-11" d="M0,646.67" transform="translate(0 -44.18)"/></g><g class="cls-5"><path class="cls-11" d="M0,646.67" transform="translate(0 -44.18)"/></g><g class="cls-5"><path class="cls-11" d="M0,646.67" transform="translate(0 -44.18)"/></g><g class="cls-5"><path class="cls-11" d="M0,646.67" transform="translate(0 -44.18)"/></g><g class="cls-5"><path class="cls-11" d="M0,646.67" transform="translate(0 -44.18)"/></g><g class="cls-5"><path class="cls-11" d="M0,646.67" transform="translate(0 -44.18)"/></g><g class="cls-5"><path class="cls-11" d="M0,646.67" transform="translate(0 -44.18)"/></g><g class="cls-5"><path class="cls-11" d="M0,646.67" transform="translate(0 -44.18)"/></g><g class="cls-5"><path class="cls-11" d="M0,646.67" transform="translate(0 -44.18)"/></g><g class="cls-5"><path class="cls-11" d="M0,646.67" transform="translate(0 -44.18)"/></g><path class="cls-11" d="M0,646.67" transform="translate(0 -44.18)"/><path class="cls-11" d="M0,646.67" transform="translate(0 -44.18)"/><path class="cls-11" d="M0,646.67" transform="translate(0 -44.18)"/><path class="cls-11" d="M0,646.67" transform="translate(0 -44.18)"/><path class="cls-11" d="M0,646.67" transform="translate(0 -44.18)"/><path class="cls-11" d="M0,646.67" transform="translate(0 -44.18)"/><path class="cls-11" d="M0,646.67" transform="translate(0 -44.18)"/><path class="cls-11" d="M0,646.67" transform="translate(0 -44.18)"/><path class="cls-11" d="M0,646.67" transform="translate(0 -44.18)"/><path class="cls-11" d="M0,646.67" transform="translate(0 -44.18)"/><line class="cls-12" x1="180" y1="557.49" x2="1296" y2="557.49"/><rect class="cls-1" y="242.49" width="1440" height="360"/><rect class="cls-4" x="190.6" y="163.12" width="70.84" height="26"/><rect class="cls-6" x="261.45" y="163.12" width="70.84" height="26"/><rect class="cls-7" x="332.29" y="163.12" width="70.84" height="26"/><rect class="cls-8" x="403.13" y="163.12" width="70.84" height="26"/><text class="cls-10" transform="translate(175.92 216.96)"><tspan xml:space="preserve">&gt; 200        300        400        500</tspan></text><text class="cls-10" transform="translate(434.98 215.92)">μg/m3</text><text class="cls-10" transform="translate(134.41 154.92)"><tspan class="cls-13">V</tspan><tspan x="11.01" y="0">ery Unhealthy</tspan></text><text class="cls-10" transform="translate(291.2 154.92)">Hazardous</text><text class="cls-10" transform="translate(427.77 154.92)">Beyond Index</text><text class="cls-14" transform="translate(164.57 22.37) scale(1.02 1)"><tspan xml:space="preserve">                    Number of Days with Severe</tspan><tspan class="cls-15" x="476.7" y="0"> </tspan><tspan class="cls-16" x="482.51" y="0" xml:space="preserve">Air Pollution in Beijing (2010 - 2016)                                         </tspan></text><text class="cls-17" transform="translate(486.69 65.98)">Measured by average daily PM2.5 concentration</text><text class="cls-10" transform="translate(124.19 658.81)">Source: Mission China</text></svg>