<?xml version="1.0" encoding="utf-8"?>
<!-- Generator: Adobe Illustrator 23.0.4, SVG Export Plug-In . SVG Version: 6.00 Build 0)  -->
<svg version="1.1" id="Layer_1" xmlns="http://www.w3.org/2000/svg" xmlns:xlink="http://www.w3.org/1999/xlink" x="0px" y="0px"
	 viewBox="0 0 1080 811" style="enable-background:new 0 0 1080 811;" xml:space="preserve">
<style type="text/css">
	.st0{fill:#FBB4B9;}
	.st1{fill:none;}
	.st2{fill:#B9C1C6;}
	.st3{fill:#1F77B4;}
	.st4{fill:none;stroke:#D3D3D3;stroke-width:0.5;stroke-linecap:square;stroke-linejoin:round;}
	.st5{font-family:'ArialMT';}
	.st6{font-size:15.6796px;}
	.st7{font-size:18.2929px;}
	.st8{font-size:31.3592px;}
</style>
<rect x="276.9" y="243.1" class="st0" width="65.6" height="490.2"/>
<rect x="938.4" y="242.3" class="st0" width="54.7" height="490.2"/>
<g id="patch_3">
	<rect x="247.6" y="307.6" class="st1" width="729.1" height="426.1"/>
	<path class="st2" d="M257.2,733.9h19.2v-0.6h-19.2V733.9z"/>
</g>
<g id="patch_4">
	<rect x="247.6" y="307.6" class="st1" width="729.1" height="426.1"/>
	<path class="st2" d="M295.6,733.9h19.2v-0.4h-19.2V733.9z"/>
</g>
<g id="patch_5">
	<rect x="247.6" y="307.6" class="st1" width="729.1" height="426.1"/>
	<path class="st2" d="M333.9,733.9h19.2V733h-19.2V733.9z"/>
</g>
<g id="patch_6">
	<rect x="247.6" y="307.6" class="st1" width="729.1" height="426.1"/>
	<path class="st2" d="M372.3,733.9h19.2v-0.6h-19.2V733.9z"/>
</g>
<g id="patch_7">
	<rect x="247.6" y="307.6" class="st1" width="729.1" height="426.1"/>
	<path class="st2" d="M410.6,733.9h19.2v-1.7h-19.2V733.9z"/>
</g>
<g id="patch_8">
	<rect x="247.6" y="307.6" class="st1" width="729.1" height="426.1"/>
	<path class="st2" d="M449.1,733.9h19.2v-17.4h-19.2V733.9z"/>
</g>
<g id="patch_9">
	<rect x="247.6" y="307.6" class="st1" width="729.1" height="426.1"/>
	<path class="st2" d="M487.4,733.9h19.2v-1.7h-19.2V733.9z"/>
</g>
<g id="patch_10">
	<rect x="247.6" y="307.6" class="st1" width="729.1" height="426.1"/>
	<path class="st2" d="M525.8,733.9H545v-3.1h-19.2V733.9z"/>
</g>
<g id="patch_11">
	<rect x="247.6" y="307.6" class="st1" width="729.1" height="426.1"/>
	<path class="st2" d="M564.1,733.9h19.2v-6.7h-19.2V733.9L564.1,733.9z"/>
</g>
<g id="patch_12">
	<rect x="247.6" y="307.6" class="st1" width="729.1" height="426.1"/>
	<path class="st2" d="M602.5,733.9h19.2v-6.1h-19.2V733.9z"/>
</g>
<g id="patch_13">
	<rect x="247.6" y="307.6" class="st1" width="729.1" height="426.1"/>
	<path class="st2" d="M640.9,733.9H660V694h-19.2V733.9z"/>
</g>
<g id="patch_14">
	<rect x="247.6" y="307.6" class="st1" width="729.1" height="426.1"/>
	<path class="st2" d="M679.3,733.9h19.2v-42.4h-19.2V733.9z"/>
</g>
<g id="patch_15">
	<rect x="247.6" y="307.6" class="st1" width="729.1" height="426.1"/>
	<path class="st2" d="M717.6,733.9h19.2v-64.7h-19.2V733.9z"/>
</g>
<g id="patch_16">
	<rect x="247.6" y="307.6" class="st1" width="729.1" height="426.1"/>
	<path class="st2" d="M756,733.9h19.2V609.6H756V733.9z"/>
</g>
<g id="patch_17">
	<rect x="247.6" y="307.6" class="st1" width="729.1" height="426.1"/>
	<path class="st2" d="M794.4,733.9h19.2V623h-19.2V733.9z"/>
</g>
<g id="patch_18">
	<rect x="247.6" y="307.6" class="st1" width="729.1" height="426.1"/>
	<path class="st2" d="M832.8,733.9h19.2V600.1h-19.2V733.9z"/>
</g>
<g id="patch_19">
	<rect x="247.6" y="307.6" class="st1" width="729.1" height="426.1"/>
	<path class="st3" d="M871.2,733.9h19.2V327.9h-19.2V733.9z"/>
</g>
<g id="patch_20">
	<rect x="247.6" y="307.6" class="st1" width="729.1" height="426.1"/>
	<path class="st2" d="M909.5,733.9h19.2V474.4h-19.2V733.9z"/>
</g>
<g id="patch_21">
	<rect x="247.6" y="307.6" class="st1" width="729.1" height="426.1"/>
	<path class="st3" d="M947.9,733.9h19.2v-47h-19.2V733.9z"/>
</g>
<rect x="247.6" y="307.6" class="st1" width="729.1" height="426.1"/>
<path class="st4" d="M247.6,733.9h729.1"/>
<rect x="247.6" y="307.6" class="st1" width="729.1" height="426.1"/>
<path class="st4" d="M247.6,646.6h729.1"/>
<rect x="247.6" y="307.6" class="st1" width="729.1" height="426.1"/>
<path class="st4" d="M247.6,559.2h729.1"/>
<rect x="247.6" y="307.6" class="st1" width="729.1" height="426.1"/>
<path class="st4" d="M247.6,471.9h729.1"/>
<rect x="247.6" y="307.6" class="st1" width="729.1" height="426.1"/>
<path class="st4" d="M247.6,384.6h729.1"/>
<g>
	<text transform="matrix(1 0 0 1 223.271 382.4268)" class="st5 st6">40</text>
	<text transform="matrix(1 0 0 1 223.271 401.2422)" class="st5 st6">billion</text>
	<text transform="matrix(1 0 0 1 223.2705 476.9834)" class="st5 st6">30</text>
	<text transform="matrix(1 0 0 1 223.271 565.0635)" class="st5 st6">20</text>
	<text transform="matrix(1 0 0 1 223.271 653.4512)" class="st5 st6">10</text>
	<text transform="matrix(1 0 0 1 232.395 739.2451)" class="st5 st6">0</text>
</g>
<g>
	<text transform="matrix(1 0 0 1 862.7607 753.9443)" class="st5 st7">2016</text>
	<text transform="matrix(1 0 0 1 938.7812 752.5449)" class="st5 st7">2018</text>
	<text transform="matrix(1 0 0 1 708.6025 751.8848)" class="st5 st7">2012</text>
	<text transform="matrix(1 0 0 1 554.6719 752.8359)" class="st5 st7">2008</text>
	<text transform="matrix(1 0 0 1 403.4277 750.8057)" class="st5 st7">2004</text>
	<text transform="matrix(1 0 0 1 286.0483 750.29)" class="st5 st7">2001</text>
</g>
<image style="overflow:visible;enable-background:new    ;" width="200" height="240" xlink:href="barack_obama_PNG37.png"  transform="matrix(0.3129 0 0 0.3129 578.085 657.1863)">
</image>
<image style="overflow:visible;enable-background:new    ;" width="334" height="346" xlink:href="donald_trump_PNG51.png"  transform="matrix(0.1537 0 0 0.1537 888.6793 416.0832)">
</image>
<image style="overflow:visible;enable-background:new    ;" width="289" height="373" xlink:href="george-bush-face-png-9.png"  transform="matrix(0.1485 0 0 0.1485 282.6974 672.9335)">
</image>
<text transform="matrix(1 0 0 1 277.9932 261.3555)" class="st5 st7">China </text>
<text transform="matrix(1 0 0 1 277.9932 283.3066)" class="st5 st7">Entered </text>
<text transform="matrix(1 0 0 1 277.9932 305.2583)" class="st5 st7">WTO</text>
<text transform="matrix(1 0 0 1 940.5342 241.1206)" class="st5 st7"> </text>
<text transform="matrix(1 0 0 1 940.5342 263.0718)" class="st5 st7">Trade </text>
<text transform="matrix(1 0 0 1 940.5342 285.0229)" class="st5 st7">War</text>
<text transform="matrix(1 0 0 1 940.5342 306.9751)" class="st5 st7">Began</text>
<rect x="863.8" y="308.8" class="st1" width="63.3" height="27.3"/>
<text transform="matrix(1 0 0 1 863.7852 321.7495)" class="st5 st7">46.5</text>
<rect x="945" y="668.9" class="st1" width="63.3" height="27.3"/>
<text transform="matrix(1 0 0 1 945.0117 681.8184)" class="st5 st7">5.4</text>
<rect x="366.2" y="159.1" class="st1" width="523.4" height="139.8"/>
<text transform="matrix(1 0 0 1 366.2192 181.4097)" class="st5 st8">Chinese Investment in US (2000-2018)</text>
</svg>
