<?xml version="1.0" encoding="utf-8"?>
<!-- Generator: Adobe Illustrator 23.0.4, SVG Export Plug-In . SVG Version: 6.00 Build 0)  -->
<svg version="1.1" id="Layer_1" xmlns="http://www.w3.org/2000/svg" xmlns:xlink="http://www.w3.org/1999/xlink" x="0px" y="0px"
	 viewBox="0 0 803.2 1008.5" style="enable-background:new 0 0 803.2 1008.5;" xml:space="preserve">
<style type="text/css">
	.st0{fill:#FBB4B9;}
	.st1{fill:none;}
	.st2{fill:#B9C1C6;}
	.st3{fill:#1F77B4;}
	.st4{fill:none;stroke:#D3D3D3;stroke-width:0.5;stroke-linecap:square;stroke-linejoin:round;}
	.st5{font-family:'ArialMT';}
	.st6{font-size:15.6796px;}
	.st7{font-size:18.2929px;}
	.st8{font-size:31.3592px;}
</style>
<rect x="69" y="382.1" class="st0" width="65.6" height="490.2"/>
<rect x="730.5" y="381.3" class="st0" width="54.7" height="490.2"/>
<g id="patch_3">
	<rect x="39.7" y="446.7" class="st1" width="729.1" height="426.1"/>
	<path class="st2" d="M49.3,872.9h19.2v-0.6H49.3V872.9z"/>
</g>
<g id="patch_4">
	<rect x="39.7" y="446.7" class="st1" width="729.1" height="426.1"/>
	<path class="st2" d="M87.7,872.9h19.2v-0.4H87.7V872.9z"/>
</g>
<g id="patch_5">
	<rect x="39.7" y="446.7" class="st1" width="729.1" height="426.1"/>
	<path class="st2" d="M126,872.9h19.2V872H126V872.9z"/>
</g>
<g id="patch_6">
	<rect x="39.7" y="446.7" class="st1" width="729.1" height="426.1"/>
	<path class="st2" d="M164.4,872.9h19.2v-0.6h-19.2V872.9z"/>
</g>
<g id="patch_7">
	<rect x="39.7" y="446.7" class="st1" width="729.1" height="426.1"/>
	<path class="st2" d="M202.7,872.9h19.2v-1.7h-19.2V872.9z"/>
</g>
<g id="patch_8">
	<rect x="39.7" y="446.7" class="st1" width="729.1" height="426.1"/>
	<path class="st2" d="M241.2,872.9h19.2v-17.4h-19.2V872.9z"/>
</g>
<g id="patch_9">
	<rect x="39.7" y="446.7" class="st1" width="729.1" height="426.1"/>
	<path class="st2" d="M279.5,872.9h19.2v-1.7h-19.2V872.9z"/>
</g>
<g id="patch_10">
	<rect x="39.7" y="446.7" class="st1" width="729.1" height="426.1"/>
	<path class="st2" d="M317.9,872.9h19.2v-3.1h-19.2V872.9z"/>
</g>
<g id="patch_11">
	<rect x="39.7" y="446.7" class="st1" width="729.1" height="426.1"/>
	<path class="st2" d="M356.2,872.9h19.2v-6.7h-19.2L356.2,872.9L356.2,872.9z"/>
</g>
<g id="patch_12">
	<rect x="39.7" y="446.7" class="st1" width="729.1" height="426.1"/>
	<path class="st2" d="M394.6,872.9h19.2v-6.1h-19.2V872.9z"/>
</g>
<g id="patch_13">
	<rect x="39.7" y="446.7" class="st1" width="729.1" height="426.1"/>
	<path class="st2" d="M433,872.9h19.2V833H433V872.9z"/>
</g>
<g id="patch_14">
	<rect x="39.7" y="446.7" class="st1" width="729.1" height="426.1"/>
	<path class="st2" d="M471.4,872.9h19.2v-42.4h-19.2V872.9z"/>
</g>
<g id="patch_15">
	<rect x="39.7" y="446.7" class="st1" width="729.1" height="426.1"/>
	<path class="st2" d="M509.7,872.9h19.2v-64.7h-19.2V872.9z"/>
</g>
<g id="patch_16">
	<rect x="39.7" y="446.7" class="st1" width="729.1" height="426.1"/>
	<path class="st2" d="M548.1,872.9h19.2V748.7h-19.2V872.9z"/>
</g>
<g id="patch_17">
	<rect x="39.7" y="446.7" class="st1" width="729.1" height="426.1"/>
	<path class="st2" d="M586.5,872.9h19.2V762.1h-19.2V872.9z"/>
</g>
<g id="patch_18">
	<rect x="39.7" y="446.7" class="st1" width="729.1" height="426.1"/>
	<path class="st2" d="M624.9,872.9H644V739.1h-19.2V872.9z"/>
</g>
<g id="patch_19">
	<rect x="39.7" y="446.7" class="st1" width="729.1" height="426.1"/>
	<path class="st3" d="M663.3,872.9h19.2V467h-19.2V872.9z"/>
</g>
<g id="patch_20">
	<rect x="39.7" y="446.7" class="st1" width="729.1" height="426.1"/>
	<path class="st2" d="M701.6,872.9h19.2V613.4h-19.2V872.9z"/>
</g>
<g id="patch_21">
	<rect x="39.7" y="446.7" class="st1" width="729.1" height="426.1"/>
	<path class="st3" d="M740,872.9h19.2v-47H740V872.9z"/>
</g>
<rect x="39.7" y="446.7" class="st1" width="729.1" height="426.1"/>
<path class="st4" d="M39.7,872.9h729.1"/>
<rect x="39.7" y="446.7" class="st1" width="729.1" height="426.1"/>
<path class="st4" d="M39.7,785.6h729.1"/>
<rect x="39.7" y="446.7" class="st1" width="729.1" height="426.1"/>
<path class="st4" d="M39.7,698.2h729.1"/>
<rect x="39.7" y="446.7" class="st1" width="729.1" height="426.1"/>
<path class="st4" d="M39.7,610.9h729.1"/>
<rect x="39.7" y="446.7" class="st1" width="729.1" height="426.1"/>
<path class="st4" d="M39.7,523.7h729.1"/>
<g>
	<text transform="matrix(1 0 0 1 15.3705 521.4602)" class="st5 st6">40</text>
	<text transform="matrix(1 0 0 1 15.3705 540.2756)" class="st5 st6">billion</text>
	<text transform="matrix(1 0 0 1 15.37 616.0168)" class="st5 st6">30</text>
	<text transform="matrix(1 0 0 1 15.3705 704.0969)" class="st5 st6">20</text>
	<text transform="matrix(1 0 0 1 15.3705 792.4846)" class="st5 st6">10</text>
	<text transform="matrix(1 0 0 1 24.4945 878.2786)" class="st5 st6">0</text>
</g>
<g>
	<text transform="matrix(1 0 0 1 654.8603 892.9778)" class="st5 st7">2016</text>
	<text transform="matrix(1 0 0 1 730.8808 891.5784)" class="st5 st7">2018</text>
	<text transform="matrix(1 0 0 1 500.7021 890.9182)" class="st5 st7">2012</text>
	<text transform="matrix(1 0 0 1 346.7714 891.8694)" class="st5 st7">2008</text>
	<text transform="matrix(1 0 0 1 195.5273 889.8391)" class="st5 st7">2004</text>
	<text transform="matrix(1 0 0 1 78.1479 889.3235)" class="st5 st7">2001</text>
</g>
<image style="overflow:visible;enable-background:new    ;" width="200" height="240" xlink:href="barack_obama_PNG37.png"  transform="matrix(0.3129 0 0 0.3129 370.1845 796.2198)">
</image>
<image style="overflow:visible;enable-background:new    ;" width="334" height="346" xlink:href="donald_trump_PNG51.png"  transform="matrix(0.1537 0 0 0.1537 680.7788 555.1166)">
</image>
<image style="overflow:visible;enable-background:new    ;" width="289" height="373" xlink:href="george-bush-face-png-9.png"  transform="matrix(0.1485 0 0 0.1485 74.7969 811.967)">
</image>
<text transform="matrix(1 0 0 1 70.0927 400.3889)" class="st5 st7">China </text>
<text transform="matrix(1 0 0 1 70.0927 422.3401)" class="st5 st7">Entered </text>
<text transform="matrix(1 0 0 1 70.0927 444.2917)" class="st5 st7">WTO</text>
<text transform="matrix(1 0 0 1 732.6337 380.1541)" class="st5 st7"> </text>
<text transform="matrix(1 0 0 1 732.6337 402.1052)" class="st5 st7">Trade </text>
<text transform="matrix(1 0 0 1 732.6337 424.0564)" class="st5 st7">War</text>
<text transform="matrix(1 0 0 1 732.6337 446.0085)" class="st5 st7">Began</text>
<rect x="655.9" y="447.8" class="st1" width="63.3" height="27.3"/>
<text transform="matrix(1 0 0 1 655.8847 460.783)" class="st5 st7">46.5</text>
<rect x="737.1" y="807.9" class="st1" width="63.3" height="27.3"/>
<text transform="matrix(1 0 0 1 737.1113 820.8518)" class="st5 st7">5.4</text>
<rect x="158.3" y="298.1" class="st1" width="523.4" height="139.8"/>
<text transform="matrix(1 0 0 1 158.3188 320.4431)" class="st5 st8">Chinese Investment in US (2000-2018)</text>
</svg>
