<svg id="Layer_1" data-name="Layer 1" xmlns="http://www.w3.org/2000/svg" xmlns:xlink="http://www.w3.org/1999/xlink" viewBox="0 0 901.2 694.97"><defs><style>.cls-1,.cls-12,.cls-2{fill:none;}.cls-1{stroke:#d3d3d3;stroke-linecap:square;stroke-linejoin:round;stroke-width:0.5px;}.cls-3{fill:#b9c1c6;}.cls-4{fill:#c51b8a;}.cls-10,.cls-5,.cls-6,.cls-7{isolation:isolate;}.cls-5{font-size:18px;}.cls-10,.cls-5,.cls-6{font-family:ArialMT, Arial;}.cls-6{font-size:21px;}.cls-8{letter-spacing:-0.02em;}.cls-9{letter-spacing:-0.04em;}.cls-10{font-size:36px;}.cls-11{fill:#14020e;}.cls-12{stroke:#000;stroke-miterlimit:10;stroke-dasharray:12.01 12.01;}</style></defs><title>china_fdi_2</title><path class="cls-1" d="M135,629.8H972" transform="translate(-107.1 -64.91)"/><path class="cls-1" d="M135,529.5H972" transform="translate(-107.1 -64.91)"/><path class="cls-1" d="M135,329.1H972" transform="translate(-107.1 -64.91)"/><path class="cls-1" d="M135,429.3H972" transform="translate(-107.1 -64.91)"/><rect class="cls-2" x="27.9" y="175.79" width="837" height="489.2"/><g id="patch_3" data-name="patch 3"><rect class="cls-2" x="27.9" y="175.79" width="837" height="489.2"/><path class="cls-3" d="M146,730h22v-.7H146Z" transform="translate(-107.1 -64.91)"/></g><g id="patch_4" data-name="patch 4"><rect class="cls-2" x="27.9" y="175.79" width="837" height="489.2"/><path class="cls-3" d="M190.1,730h22v-.5h-22Z" transform="translate(-107.1 -64.91)"/></g><g id="patch_5" data-name="patch 5"><rect class="cls-2" x="27.9" y="175.79" width="837" height="489.2"/><path class="cls-3" d="M234.1,730h22v-1h-22Z" transform="translate(-107.1 -64.91)"/></g><g id="patch_6" data-name="patch 6"><rect class="cls-2" x="27.9" y="175.79" width="837" height="489.2"/><path class="cls-3" d="M278.2,730h22v-.7h-22Z" transform="translate(-107.1 -64.91)"/></g><g id="patch_7" data-name="patch 7"><rect class="cls-2" x="27.9" y="175.79" width="837" height="489.2"/><path class="cls-3" d="M322.2,730h22v-2h-22Z" transform="translate(-107.1 -64.91)"/></g><g id="patch_8" data-name="patch 8"><rect class="cls-2" x="27.9" y="175.79" width="837" height="489.2"/><path class="cls-3" d="M366.3,730h22V710h-22Z" transform="translate(-107.1 -64.91)"/></g><g id="patch_9" data-name="patch 9"><rect class="cls-2" x="27.9" y="175.79" width="837" height="489.2"/><path class="cls-3" d="M410.3,730h22v-2h-22Z" transform="translate(-107.1 -64.91)"/></g><g id="patch_10" data-name="patch 10"><rect class="cls-2" x="27.9" y="175.79" width="837" height="489.2"/><path class="cls-3" d="M454.4,730h22v-3.6h-22Z" transform="translate(-107.1 -64.91)"/></g><g id="patch_11" data-name="patch 11"><rect class="cls-2" x="27.9" y="175.79" width="837" height="489.2"/><path class="cls-3" d="M498.4,730h22v-7.7h-22V730Z" transform="translate(-107.1 -64.91)"/></g><g id="patch_12" data-name="patch 12"><rect class="cls-2" x="27.9" y="175.79" width="837" height="489.2"/><path class="cls-3" d="M542.5,730h22v-7h-22Z" transform="translate(-107.1 -64.91)"/></g><g id="patch_13" data-name="patch 13"><rect class="cls-2" x="27.9" y="175.79" width="837" height="489.2"/><path class="cls-3" d="M586.5,730h22V684.2h-22Z" transform="translate(-107.1 -64.91)"/></g><g id="patch_14" data-name="patch 14"><rect class="cls-2" x="27.9" y="175.79" width="837" height="489.2"/><path class="cls-3" d="M630.6,730h22V681.3h-22Z" transform="translate(-107.1 -64.91)"/></g><g id="patch_15" data-name="patch 15"><rect class="cls-2" x="27.9" y="175.79" width="837" height="489.2"/><path class="cls-3" d="M674.6,730h22V655.7h-22Z" transform="translate(-107.1 -64.91)"/></g><g id="patch_16" data-name="patch 16"><rect class="cls-2" x="27.9" y="175.79" width="837" height="489.2"/><path class="cls-3" d="M718.7,730h22V587.4h-22Z" transform="translate(-107.1 -64.91)"/></g><g id="patch_17" data-name="patch 17"><rect class="cls-2" x="27.9" y="175.79" width="837" height="489.2"/><path class="cls-3" d="M762.8,730h22V602.8h-22Z" transform="translate(-107.1 -64.91)"/></g><g id="patch_18" data-name="patch 18"><rect class="cls-2" x="27.9" y="175.79" width="837" height="489.2"/><path class="cls-3" d="M806.8,730h22V576.4h-22Z" transform="translate(-107.1 -64.91)"/></g><g id="patch_19" data-name="patch 19"><rect class="cls-2" x="27.9" y="175.79" width="837" height="489.2"/><path class="cls-4" d="M850.9,730h22V264h-22Z" transform="translate(-107.1 -64.91)"/></g><g id="patch_20" data-name="patch 20"><rect class="cls-2" x="27.9" y="175.79" width="837" height="489.2"/><path class="cls-3" d="M894.9,730h22V432.1h-22Z" transform="translate(-107.1 -64.91)"/></g><g id="patch_21" data-name="patch 21"><rect class="cls-2" x="27.9" y="175.79" width="837" height="489.2"/><path class="cls-4" d="M939,730h22V676H939Z" transform="translate(-107.1 -64.91)"/></g><rect class="cls-2" x="27.9" y="175.79" width="837" height="489.2"/><path class="cls-1" d="M135,730H972" transform="translate(-107.1 -64.91)"/><rect class="cls-2" x="27.9" y="175.79" width="837" height="489.2"/><rect class="cls-2" x="27.9" y="175.79" width="837" height="489.2"/><text class="cls-5" transform="translate(0 261.66)">40</text><text class="cls-5" transform="translate(0 283.26)">billion</text><text class="cls-5" transform="translate(0 370.21)">30</text><text class="cls-5" transform="translate(0 471.32)">20</text><text class="cls-5" transform="translate(0 572.79)">10</text><text class="cls-5" transform="translate(10.47 671.28)">0</text><text class="cls-6" transform="translate(734.13 688.16)">2016</text><text class="cls-6" transform="translate(821.4 686.55)">2018</text><text class="cls-6" transform="translate(557.16 685.79)">2012</text><text class="cls-6" transform="translate(380.44 686.88)">2008</text><text class="cls-6" transform="translate(206.82 684.55)">2004</text><text class="cls-6" transform="translate(72.07 683.96)">2001</text><image class="cls-7" width="200" height="240" transform="translate(407.32 577.08) scale(0.36)" xlink:href="../China_FDI/barack_obama_PNG37.png"/><image class="cls-7" width="334" height="346" transform="translate(763.88 300.3) scale(0.18)" xlink:href="../China_FDI/donald_trump_PNG51.png"/><image class="cls-7" width="289" height="373" transform="translate(182.66 512.06) scale(0.17)" xlink:href="../China_FDI/george-bush-face-png-9.png"/><text class="cls-6" transform="translate(62.82 121.67)">China </text><text class="cls-6" transform="translate(62.82 146.87)">Entered </text><text class="cls-6" transform="translate(62.82 172.07)">W<tspan class="cls-8" x="19.82" y="0">T</tspan><tspan x="32.27" y="0">O</tspan></text><text class="cls-6" transform="translate(825.41 99.44)"> </text><text class="cls-6" transform="translate(825.41 124.64)"><tspan class="cls-9">T</tspan><tspan x="12.05" y="0">rade </tspan></text><text class="cls-6" transform="translate(825.41 149.84)"><tspan class="cls-9">W</tspan><tspan x="19.04" y="0">ar</tspan></text><text class="cls-6" transform="translate(825.41 175.04)">Began</text><rect class="cls-2" x="735.3" y="177.09" width="72.7" height="31.3"/><text class="cls-6" transform="translate(735.3 192)">46.5</text><rect class="cls-2" x="828.5" y="590.49" width="72.7" height="31.3"/><text class="cls-6" transform="translate(828.55 605.36)">5.4</text><rect class="cls-2" x="164.1" y="5.29" width="600.8" height="160.5"/><text class="cls-10" transform="translate(164.1 30.89)">Chinese Investment in US (2000-2018)</text><line class="cls-11" x1="92.96" y1="197.61" x2="92.93" y2="664.79"/><line class="cls-12" x1="92.96" y1="205.76" x2="92.93" y2="664.79"/><path d="M200.05,272.46l3.6,2.19.09-.12-2.34-5.87-1.35-6.14-1.35,6.14-2.33,5.87.06.12Z" transform="translate(-107.1 -64.91)"/><line class="cls-11" x1="831.1" y1="199" x2="831.08" y2="666.18"/><line class="cls-12" x1="831.1" y1="207.15" x2="831.08" y2="666.18"/><path d="M938.2,273.85l3.6,2.2.08-.13-2.33-5.87-1.35-6.14-1.35,6.14-2.34,5.87.06.13Z" transform="translate(-107.1 -64.91)"/></svg>