<svg id="Layer_1" data-name="Layer 1" xmlns="http://www.w3.org/2000/svg" viewBox="0 0 1561 307.47"><defs><style>.cls-1{fill:#c1c0bc;}.cls-2{fill:#f8bfd8;}.cls-3{fill:#2b5d99;}.cls-4{fill:#f90b28;}.cls-14,.cls-5{font-size:18px;font-family:MyriadPro-Regular, Myriad Pro;}.cls-6{letter-spacing:-0.03em;}.cls-7{fill:#dbd9d2;}.cls-8{fill:#ef0f20;}.cls-9{letter-spacing:-0.03em;}.cls-10{letter-spacing:0.01em;}.cls-11{letter-spacing:0em;}.cls-12{letter-spacing:-0.01em;}.cls-13{letter-spacing:0em;}.cls-14{letter-spacing:0em;}.cls-15{letter-spacing:-0.01em;}.cls-16{letter-spacing:-0.01em;}.cls-17{letter-spacing:0em;}.cls-18{letter-spacing:0em;}.cls-19{letter-spacing:0em;}</style></defs><title>Congress_and_governor</title><circle class="cls-1" cx="339.05" cy="300.02" r="5.1"/><circle class="cls-1" cx="338.15" cy="287.35" r="5.1"/><circle class="cls-1" cx="335.45" cy="274.93" r="5.1"/><circle class="cls-2" cx="331.01" cy="263.03" r="5.1"/><circle class="cls-3" cx="324.92" cy="251.87" r="5.1"/><circle class="cls-4" cx="317.3" cy="241.7" r="5.1"/><circle class="cls-4" cx="308.32" cy="232.72" r="5.1"/><circle class="cls-4" cx="298.15" cy="225.1" r="5.1"/><circle class="cls-4" cx="286.99" cy="219.01" r="5.1"/><circle class="cls-4" cx="275.09" cy="214.57" r="5.1"/><circle class="cls-4" cx="262.67" cy="211.87" r="5.1"/><circle class="cls-4" cx="250" cy="210.97" r="5.1"/><circle class="cls-4" cx="237.33" cy="211.87" r="5.1"/><circle class="cls-4" cx="224.91" cy="214.57" r="5.1"/><circle class="cls-4" cx="213.01" cy="219.01" r="5.1"/><circle class="cls-4" cx="201.85" cy="225.1" r="5.1"/><circle class="cls-4" cx="191.68" cy="232.72" r="5.1"/><circle class="cls-4" cx="182.7" cy="241.7" r="5.1"/><circle class="cls-4" cx="175.08" cy="251.87" r="5.1"/><circle class="cls-4" cx="168.99" cy="263.03" r="5.1"/><circle class="cls-1" cx="164.55" cy="274.93" r="5.1"/><circle class="cls-1" cx="161.85" cy="287.35" r="5.1"/><circle class="cls-1" cx="160.95" cy="300.02" r="5.1"/><circle class="cls-1" cx="354.64" cy="300.02" r="5.1"/><circle class="cls-1" cx="353.81" cy="286.91" r="5.1"/><circle class="cls-1" cx="351.35" cy="274" r="5.1"/><circle class="cls-1" cx="347.29" cy="261.5" r="5.1"/><circle class="cls-1" cx="341.7" cy="249.61" r="5.1"/><circle class="cls-1" cx="334.65" cy="238.51" r="5.1"/><circle class="cls-1" cx="326.28" cy="228.39" r="5.1"/><circle class="cls-1" cx="316.7" cy="219.39" r="5.1"/><circle class="cls-1" cx="306.07" cy="211.67" r="5.1"/><circle class="cls-1" cx="294.55" cy="205.34" r="5.1"/><circle class="cls-1" cx="282.34" cy="200.5" r="5.1"/><circle class="cls-1" cx="269.61" cy="197.23" r="5.1"/><circle class="cls-1" cx="256.57" cy="195.59" r="5.1"/><circle class="cls-1" cx="243.43" cy="195.59" r="5.1"/><circle class="cls-1" cx="230.39" cy="197.23" r="5.1"/><circle class="cls-1" cx="217.66" cy="200.5" r="5.1"/><circle class="cls-1" cx="205.45" cy="205.34" r="5.1"/><circle class="cls-1" cx="193.93" cy="211.67" r="5.1"/><circle class="cls-1" cx="183.3" cy="219.39" r="5.1"/><circle class="cls-1" cx="173.72" cy="228.39" r="5.1"/><circle class="cls-1" cx="165.35" cy="238.51" r="5.1"/><circle class="cls-1" cx="158.3" cy="249.61" r="5.1"/><circle class="cls-1" cx="152.71" cy="261.5" r="5.1"/><circle class="cls-1" cx="148.65" cy="274" r="5.1"/><circle class="cls-1" cx="146.19" cy="286.91" r="5.1"/><circle class="cls-1" cx="145.36" cy="300.02" r="5.1"/><circle class="cls-1" cx="370.22" cy="300.02" r="5.1"/><circle class="cls-1" cx="369.52" cy="287.02" r="5.1"/><circle class="cls-1" cx="367.41" cy="274.18" r="5.1"/><circle class="cls-1" cx="363.93" cy="261.63" r="5.1"/><circle class="cls-1" cx="359.11" cy="249.54" r="5.1"/><circle class="cls-1" cx="353.01" cy="238.04" r="5.1"/><circle class="cls-1" cx="345.71" cy="227.26" r="5.1"/><circle class="cls-1" cx="337.28" cy="217.34" r="5.1"/><circle class="cls-1" cx="327.83" cy="208.39" r="5.1"/><circle class="cls-1" cx="317.47" cy="200.51" r="5.1"/><circle class="cls-1" cx="306.31" cy="193.8" r="5.1"/><circle class="cls-1" cx="294.5" cy="188.34" r="5.1"/><circle class="cls-1" cx="282.16" cy="184.18" r="5.1"/><circle class="cls-1" cx="269.45" cy="181.38" r="5.1"/><circle class="cls-1" cx="256.51" cy="179.97" r="5.1"/><circle class="cls-1" cx="243.49" cy="179.97" r="5.1"/><circle class="cls-1" cx="230.55" cy="181.38" r="5.1"/><circle class="cls-1" cx="217.84" cy="184.18" r="5.1"/><circle class="cls-1" cx="205.5" cy="188.34" r="5.1"/><circle class="cls-1" cx="193.69" cy="193.8" r="5.1"/><circle class="cls-1" cx="182.53" cy="200.51" r="5.1"/><circle class="cls-1" cx="172.17" cy="208.39" r="5.1"/><circle class="cls-1" cx="162.72" cy="217.34" r="5.1"/><circle class="cls-1" cx="154.29" cy="227.26" r="5.1"/><circle class="cls-1" cx="146.99" cy="238.04" r="5.1"/><circle class="cls-1" cx="140.89" cy="249.54" r="5.1"/><circle class="cls-1" cx="136.07" cy="261.63" r="5.1"/><circle class="cls-1" cx="132.59" cy="274.18" r="5.1"/><circle class="cls-1" cx="130.48" cy="287.02" r="5.1"/><circle class="cls-1" cx="129.78" cy="300.02" r="5.1"/><circle class="cls-1" cx="385.81" cy="300.02" r="5.1"/><circle class="cls-1" cx="385.11" cy="286.28" r="5.1"/><circle class="cls-1" cx="383.03" cy="272.68" r="5.1"/><circle class="cls-1" cx="379.58" cy="259.36" r="5.1"/><circle class="cls-1" cx="374.8" cy="246.46" r="5.1"/><circle class="cls-1" cx="368.74" cy="234.11" r="5.1"/><circle class="cls-1" cx="361.47" cy="222.44" r="5.1"/><circle class="cls-1" cx="353.05" cy="211.56" r="5.1"/><circle class="cls-1" cx="343.57" cy="201.59" r="5.1"/><circle class="cls-1" cx="333.13" cy="192.63" r="5.1"/><circle class="cls-1" cx="321.84" cy="184.77" r="5.1"/><circle class="cls-1" cx="309.81" cy="178.09" r="5.1"/><circle class="cls-1" cx="297.17" cy="172.67" r="5.1"/><circle class="cls-1" cx="284.04" cy="168.55" r="5.1"/><circle class="cls-1" cx="270.57" cy="165.78" r="5.1"/><circle class="cls-1" cx="256.88" cy="164.39" r="5.1"/><circle class="cls-1" cx="243.12" cy="164.39" r="5.1"/><circle class="cls-1" cx="229.43" cy="165.78" r="5.1"/><circle class="cls-1" cx="215.96" cy="168.55" r="5.1"/><circle class="cls-1" cx="202.83" cy="172.67" r="5.1"/><circle class="cls-1" cx="190.19" cy="178.09" r="5.1"/><circle class="cls-1" cx="178.16" cy="184.77" r="5.1"/><circle class="cls-1" cx="166.87" cy="192.63" r="5.1"/><circle class="cls-1" cx="156.43" cy="201.59" r="5.1"/><circle class="cls-1" cx="146.95" cy="211.56" r="5.1"/><circle class="cls-1" cx="138.53" cy="222.44" r="5.1"/><circle class="cls-1" cx="131.26" cy="234.11" r="5.1"/><circle class="cls-1" cx="125.2" cy="246.46" r="5.1"/><circle class="cls-1" cx="120.42" cy="259.36" r="5.1"/><circle class="cls-1" cx="116.97" cy="272.68" r="5.1"/><circle class="cls-1" cx="114.89" cy="286.28" r="5.1"/><circle class="cls-1" cx="114.19" cy="300.02" r="5.1"/><circle class="cls-1" cx="401.39" cy="300.02" r="5.1"/><circle class="cls-1" cx="400.78" cy="286.45" r="5.1"/><circle class="cls-1" cx="398.96" cy="272.99" r="5.1"/><circle class="cls-1" cx="395.94" cy="259.74" r="5.1"/><circle class="cls-1" cx="391.74" cy="246.82" r="5.1"/><circle class="cls-1" cx="386.4" cy="234.33" r="5.1"/><circle class="cls-1" cx="379.96" cy="222.37" r="5.1"/><circle class="cls-1" cx="372.48" cy="211.03" r="5.1"/><circle class="cls-1" cx="364.01" cy="200.41" r="5.1"/><circle class="cls-1" cx="354.62" cy="190.59" r="5.1"/><circle class="cls-1" cx="344.39" cy="181.66" r="5.1"/><circle class="cls-1" cx="333.4" cy="173.67" r="5.1"/><circle class="cls-1" cx="321.74" cy="166.7" r="5.1"/><circle class="cls-1" cx="309.5" cy="160.81" r="5.1"/><circle class="cls-1" cx="296.78" cy="156.04" r="5.1"/><circle class="cls-1" cx="283.69" cy="152.42" r="5.1"/><circle class="cls-1" cx="270.32" cy="150" r="5.1"/><circle class="cls-1" cx="256.79" cy="148.78" r="5.1"/><circle class="cls-1" cx="243.21" cy="148.78" r="5.1"/><circle class="cls-1" cx="229.68" cy="150" r="5.1"/><circle class="cls-1" cx="216.31" cy="152.42" r="5.1"/><circle class="cls-1" cx="203.22" cy="156.04" r="5.1"/><circle class="cls-1" cx="190.5" cy="160.81" r="5.1"/><circle class="cls-1" cx="178.26" cy="166.7" r="5.1"/><circle class="cls-1" cx="166.6" cy="173.67" r="5.1"/><circle class="cls-1" cx="155.61" cy="181.66" r="5.1"/><circle class="cls-1" cx="145.38" cy="190.59" r="5.1"/><circle class="cls-1" cx="135.99" cy="200.41" r="5.1"/><circle class="cls-1" cx="127.52" cy="211.03" r="5.1"/><circle class="cls-1" cx="120.04" cy="222.37" r="5.1"/><circle class="cls-1" cx="113.6" cy="234.33" r="5.1"/><circle class="cls-1" cx="108.26" cy="246.82" r="5.1"/><circle class="cls-1" cx="104.06" cy="259.74" r="5.1"/><circle class="cls-1" cx="101.04" cy="272.99" r="5.1"/><circle class="cls-1" cx="99.22" cy="286.45" r="5.1"/><circle class="cls-1" cx="98.61" cy="300.02" r="5.1"/><circle class="cls-1" cx="416.98" cy="300.02" r="5.1"/><circle class="cls-1" cx="416.38" cy="285.86" r="5.1"/><circle class="cls-1" cx="414.58" cy="271.8" r="5.1"/><circle class="cls-1" cx="411.59" cy="257.95" r="5.1"/><circle class="cls-1" cx="407.44" cy="244.39" r="5.1"/><circle class="cls-1" cx="402.15" cy="231.24" r="5.1"/><circle class="cls-1" cx="395.77" cy="218.59" r="5.1"/><circle class="cls-1" cx="388.34" cy="206.52" r="5.1"/><circle class="cls-1" cx="379.91" cy="195.12" r="5.1"/><circle class="cls-1" cx="370.55" cy="184.48" r="5.1"/><circle class="cls-1" cx="360.32" cy="174.68" r="5.1"/><circle class="cls-1" cx="349.29" cy="165.77" r="5.1"/><circle class="cls-1" cx="337.55" cy="157.83" r="5.1"/><circle class="cls-1" cx="325.17" cy="150.92" r="5.1"/><circle class="cls-1" cx="312.26" cy="145.08" r="5.1"/><circle class="cls-1" cx="298.89" cy="140.36" r="5.1"/><circle class="cls-1" cx="285.18" cy="136.79" r="5.1"/><circle class="cls-1" cx="271.21" cy="134.4" r="5.1"/><circle class="cls-1" cx="257.09" cy="133.19" r="5.1"/><circle class="cls-1" cx="242.91" cy="133.19" r="5.1"/><circle class="cls-1" cx="228.79" cy="134.4" r="5.1"/><circle class="cls-1" cx="214.82" cy="136.79" r="5.1"/><circle class="cls-1" cx="201.11" cy="140.36" r="5.1"/><circle class="cls-1" cx="187.74" cy="145.08" r="5.1"/><circle class="cls-1" cx="174.83" cy="150.92" r="5.1"/><circle class="cls-1" cx="162.45" cy="157.83" r="5.1"/><circle class="cls-1" cx="150.71" cy="165.77" r="5.1"/><circle class="cls-1" cx="139.68" cy="174.68" r="5.1"/><circle class="cls-1" cx="129.45" cy="184.48" r="5.1"/><circle class="cls-1" cx="120.09" cy="195.12" r="5.1"/><circle class="cls-1" cx="111.66" cy="206.52" r="5.1"/><circle class="cls-1" cx="104.23" cy="218.59" r="5.1"/><circle class="cls-1" cx="97.85" cy="231.24" r="5.1"/><circle class="cls-1" cx="92.56" cy="244.39" r="5.1"/><circle class="cls-1" cx="88.41" cy="257.95" r="5.1"/><circle class="cls-1" cx="85.42" cy="271.8" r="5.1"/><circle class="cls-1" cx="83.62" cy="285.86" r="5.1"/><circle class="cls-1" cx="83.02" cy="300.02" r="5.1"/><circle class="cls-1" cx="432.56" cy="300.02" r="5.1"/><circle class="cls-1" cx="432.03" cy="286.05" r="5.1"/><circle class="cls-1" cx="430.42" cy="272.15" r="5.1"/><circle class="cls-1" cx="427.76" cy="258.42" r="5.1"/><circle class="cls-1" cx="424.05" cy="244.94" r="5.1"/><circle class="cls-1" cx="419.33" cy="231.78" r="5.1"/><circle class="cls-1" cx="413.61" cy="219.01" r="5.1"/><circle class="cls-1" cx="406.92" cy="206.73" r="5.1"/><circle class="cls-1" cx="399.32" cy="194.99" r="5.1"/><circle class="cls-1" cx="390.84" cy="183.87" r="5.1"/><circle class="cls-1" cx="381.54" cy="173.43" r="5.1"/><circle class="cls-1" cx="371.46" cy="163.73" r="5.1"/><circle class="cls-1" cx="360.67" cy="154.83" r="5.1"/><circle class="cls-1" cx="349.23" cy="146.78" r="5.1"/><circle class="cls-1" cx="337.21" cy="139.64" r="5.1"/><circle class="cls-1" cx="324.68" cy="133.43" r="5.1"/><circle class="cls-1" cx="311.71" cy="128.2" r="5.1"/><circle class="cls-1" cx="298.38" cy="123.98" r="5.1"/><circle class="cls-1" cx="284.76" cy="120.8" r="5.1"/><circle class="cls-1" cx="270.94" cy="118.66" r="5.1"/><circle class="cls-1" cx="256.99" cy="117.59" r="5.1"/><circle class="cls-1" cx="243.01" cy="117.59" r="5.1"/><circle class="cls-1" cx="229.06" cy="118.66" r="5.1"/><circle class="cls-1" cx="215.24" cy="120.8" r="5.1"/><circle class="cls-1" cx="201.62" cy="123.98" r="5.1"/><circle class="cls-1" cx="188.29" cy="128.2" r="5.1"/><circle class="cls-1" cx="175.32" cy="133.43" r="5.1"/><circle class="cls-1" cx="162.79" cy="139.64" r="5.1"/><circle class="cls-1" cx="150.77" cy="146.78" r="5.1"/><circle class="cls-1" cx="139.33" cy="154.83" r="5.1"/><circle class="cls-1" cx="128.54" cy="163.73" r="5.1"/><circle class="cls-1" cx="118.46" cy="173.43" r="5.1"/><circle class="cls-1" cx="109.16" cy="183.87" r="5.1"/><circle class="cls-1" cx="100.68" cy="194.99" r="5.1"/><circle class="cls-1" cx="93.08" cy="206.73" r="5.1"/><circle class="cls-1" cx="86.39" cy="219.01" r="5.1"/><circle class="cls-1" cx="80.67" cy="231.78" r="5.1"/><circle class="cls-1" cx="75.95" cy="244.94" r="5.1"/><circle class="cls-1" cx="72.24" cy="258.42" r="5.1"/><circle class="cls-1" cx="69.58" cy="272.15" r="5.1"/><circle class="cls-1" cx="67.97" cy="286.05" r="5.1"/><circle class="cls-1" cx="67.44" cy="300.02" r="5.1"/><circle class="cls-1" cx="448.15" cy="300.02" r="5.1"/><circle class="cls-1" cx="447.66" cy="286.2" r="5.1"/><circle class="cls-1" cx="446.22" cy="272.44" r="5.1"/><circle class="cls-1" cx="443.82" cy="258.82" r="5.1"/><circle class="cls-1" cx="440.47" cy="245.4" r="5.1"/><circle class="cls-1" cx="436.2" cy="232.25" r="5.1"/><circle class="cls-1" cx="431.02" cy="219.43" r="5.1"/><circle class="cls-1" cx="424.95" cy="207" r="5.1"/><circle class="cls-1" cx="418.04" cy="195.02" r="5.1"/><circle class="cls-1" cx="410.3" cy="183.55" r="5.1"/><circle class="cls-1" cx="401.79" cy="172.65" r="5.1"/><circle class="cls-1" cx="392.53" cy="162.38" r="5.1"/><circle class="cls-1" cx="382.59" cy="152.77" r="5.1"/><circle class="cls-1" cx="371.99" cy="143.88" r="5.1"/><circle class="cls-1" cx="360.8" cy="135.75" r="5.1"/><circle class="cls-1" cx="349.07" cy="128.42" r="5.1"/><circle class="cls-1" cx="336.86" cy="121.93" r="5.1"/><circle class="cls-1" cx="324.23" cy="116.3" r="5.1"/><circle class="cls-1" cx="311.23" cy="111.57" r="5.1"/><circle class="cls-1" cx="297.94" cy="107.76" r="5.1"/><circle class="cls-1" cx="284.41" cy="104.88" r="5.1"/><circle class="cls-1" cx="270.71" cy="102.96" r="5.1"/><circle class="cls-1" cx="256.92" cy="101.99" r="5.1"/><circle class="cls-1" cx="243.08" cy="101.99" r="5.1"/><circle class="cls-1" cx="229.29" cy="102.96" r="5.1"/><circle class="cls-1" cx="215.59" cy="104.88" r="5.1"/><circle class="cls-1" cx="202.06" cy="107.76" r="5.1"/><circle class="cls-1" cx="188.77" cy="111.57" r="5.1"/><circle class="cls-1" cx="175.77" cy="116.3" r="5.1"/><circle class="cls-1" cx="163.14" cy="121.93" r="5.1"/><circle class="cls-1" cx="150.93" cy="128.42" r="5.1"/><circle class="cls-1" cx="139.2" cy="135.75" r="5.1"/><circle class="cls-1" cx="128.01" cy="143.88" r="5.1"/><circle class="cls-1" cx="117.41" cy="152.77" r="5.1"/><circle class="cls-1" cx="107.47" cy="162.38" r="5.1"/><circle class="cls-1" cx="98.21" cy="172.65" r="5.1"/><circle class="cls-1" cx="89.7" cy="183.55" r="5.1"/><circle class="cls-1" cx="81.96" cy="195.02" r="5.1"/><circle class="cls-1" cx="75.05" cy="207" r="5.1"/><circle class="cls-1" cx="68.98" cy="219.43" r="5.1"/><circle class="cls-1" cx="63.8" cy="232.25" r="5.1"/><circle class="cls-1" cx="59.53" cy="245.4" r="5.1"/><circle class="cls-1" cx="56.18" cy="258.82" r="5.1"/><circle class="cls-1" cx="53.78" cy="272.44" r="5.1"/><circle class="cls-1" cx="52.34" cy="286.2" r="5.1"/><circle class="cls-1" cx="51.85" cy="300.02" r="5.1"/><circle class="cls-1" cx="463.73" cy="300.02" r="5.1"/><circle class="cls-1" cx="463.29" cy="286.33" r="5.1"/><circle class="cls-1" cx="461.98" cy="272.69" r="5.1"/><circle class="cls-1" cx="459.79" cy="259.16" r="5.1"/><circle class="cls-1" cx="456.74" cy="245.81" r="5.1"/><circle class="cls-1" cx="452.84" cy="232.67" r="5.1"/><circle class="cls-1" cx="448.11" cy="219.81" r="5.1"/><circle class="cls-1" cx="442.56" cy="207.29" r="5.1"/><circle class="cls-1" cx="436.23" cy="195.14" r="5.1"/><circle class="cls-1" cx="429.13" cy="183.42" r="5.1"/><circle class="cls-1" cx="421.29" cy="172.19" r="5.1"/><circle class="cls-1" cx="412.74" cy="161.47" r="5.1"/><circle class="cls-1" cx="403.53" cy="151.33" r="5.1"/><circle class="cls-1" cx="393.69" cy="141.8" r="5.1"/><circle class="cls-1" cx="383.26" cy="132.92" r="5.1"/><circle class="cls-1" cx="372.28" cy="124.72" r="5.1"/><circle class="cls-1" cx="360.8" cy="117.25" r="5.1"/><circle class="cls-1" cx="348.86" cy="110.53" r="5.1"/><circle class="cls-1" cx="336.51" cy="104.58" r="5.1"/><circle class="cls-1" cx="323.82" cy="99.44" r="5.1"/><circle class="cls-1" cx="310.81" cy="95.12" r="5.1"/><circle class="cls-1" cx="297.56" cy="91.65" r="5.1"/><circle class="cls-1" cx="284.11" cy="89.03" r="5.1"/><circle class="cls-1" cx="270.52" cy="87.28" r="5.1"/><circle class="cls-1" cx="256.85" cy="86.4" r="5.1"/><circle class="cls-1" cx="243.15" cy="86.4" r="5.1"/><circle class="cls-1" cx="229.48" cy="87.28" r="5.1"/><circle class="cls-1" cx="215.89" cy="89.03" r="5.1"/><circle class="cls-1" cx="202.44" cy="91.65" r="5.1"/><circle class="cls-1" cx="189.19" cy="95.12" r="5.1"/><circle class="cls-1" cx="176.18" cy="99.44" r="5.1"/><circle class="cls-1" cx="163.49" cy="104.58" r="5.1"/><circle class="cls-1" cx="151.14" cy="110.53" r="5.1"/><circle class="cls-1" cx="139.2" cy="117.25" r="5.1"/><circle class="cls-1" cx="127.72" cy="124.72" r="5.1"/><circle class="cls-1" cx="116.74" cy="132.92" r="5.1"/><circle class="cls-1" cx="106.31" cy="141.8" r="5.1"/><circle class="cls-1" cx="96.47" cy="151.33" r="5.1"/><circle class="cls-1" cx="87.26" cy="161.47" r="5.1"/><circle class="cls-1" cx="78.71" cy="172.19" r="5.1"/><circle class="cls-1" cx="70.87" cy="183.42" r="5.1"/><circle class="cls-1" cx="63.77" cy="195.14" r="5.1"/><circle class="cls-1" cx="57.44" cy="207.29" r="5.1"/><circle class="cls-1" cx="51.89" cy="219.81" r="5.1"/><circle class="cls-1" cx="47.16" cy="232.67" r="5.1"/><circle class="cls-1" cx="43.26" cy="245.81" r="5.1"/><circle class="cls-1" cx="40.21" cy="259.16" r="5.1"/><circle class="cls-1" cx="38.02" cy="272.69" r="5.1"/><circle class="cls-1" cx="36.71" cy="286.33" r="5.1"/><circle class="cls-1" cx="36.27" cy="300.02" r="5.1"/><circle class="cls-1" cx="479.32" cy="300.02" r="5.1"/><circle class="cls-1" cx="478.91" cy="286.44" r="5.1"/><circle class="cls-1" cx="477.71" cy="272.9" r="5.1"/><circle class="cls-1" cx="475.7" cy="259.46" r="5.1"/><circle class="cls-1" cx="472.9" cy="246.16" r="5.1"/><circle class="cls-1" cx="469.32" cy="233.05" r="5.1"/><circle class="cls-1" cx="464.96" cy="220.17" r="5.1"/><circle class="cls-1" cx="459.86" cy="207.58" r="5.1"/><circle class="cls-1" cx="454.01" cy="195.31" r="5.1"/><circle class="cls-1" cx="447.45" cy="183.41" r="5.1"/><circle class="cls-1" cx="440.2" cy="171.91" r="5.1"/><circle class="cls-1" cx="432.27" cy="160.87" r="5.1"/><circle class="cls-1" cx="423.71" cy="150.32" r="5.1"/><circle class="cls-1" cx="414.54" cy="140.29" r="5.1"/><circle class="cls-1" cx="404.78" cy="130.82" r="5.1"/><circle class="cls-1" cx="394.49" cy="121.95" r="5.1"/><circle class="cls-1" cx="383.69" cy="113.7" r="5.1"/><circle class="cls-1" cx="372.41" cy="106.11" r="5.1"/><circle class="cls-1" cx="360.71" cy="99.2" r="5.1"/><circle class="cls-1" cx="348.62" cy="92.99" r="5.1"/><circle class="cls-1" cx="336.18" cy="87.52" r="5.1"/><circle class="cls-1" cx="323.44" cy="82.78" r="5.1"/><circle class="cls-1" cx="310.44" cy="78.81" r="5.1"/><circle class="cls-1" cx="297.23" cy="75.62" r="5.1"/><circle class="cls-1" cx="283.86" cy="73.22" r="5.1"/><circle class="cls-1" cx="270.36" cy="71.61" r="5.1"/><circle class="cls-1" cx="256.8" cy="70.81" r="5.1"/><circle class="cls-1" cx="243.2" cy="70.81" r="5.1"/><circle class="cls-1" cx="229.64" cy="71.61" r="5.1"/><circle class="cls-1" cx="216.14" cy="73.22" r="5.1"/><circle class="cls-1" cx="202.77" cy="75.62" r="5.1"/><circle class="cls-1" cx="189.56" cy="78.81" r="5.1"/><circle class="cls-1" cx="176.56" cy="82.78" r="5.1"/><circle class="cls-1" cx="163.82" cy="87.52" r="5.1"/><circle class="cls-1" cx="151.38" cy="92.99" r="5.1"/><circle class="cls-1" cx="139.29" cy="99.2" r="5.1"/><circle class="cls-1" cx="127.59" cy="106.11" r="5.1"/><circle class="cls-1" cx="116.31" cy="113.7" r="5.1"/><circle class="cls-1" cx="105.51" cy="121.95" r="5.1"/><circle class="cls-1" cx="95.22" cy="130.82" r="5.1"/><circle class="cls-1" cx="85.46" cy="140.29" r="5.1"/><circle class="cls-1" cx="76.29" cy="150.32" r="5.1"/><circle class="cls-1" cx="67.73" cy="160.87" r="5.1"/><circle class="cls-1" cx="59.8" cy="171.91" r="5.1"/><circle class="cls-1" cx="52.55" cy="183.41" r="5.1"/><circle class="cls-1" cx="45.99" cy="195.31" r="5.1"/><circle class="cls-1" cx="40.14" cy="207.58" r="5.1"/><circle class="cls-1" cx="35.04" cy="220.17" r="5.1"/><circle class="cls-1" cx="30.68" cy="233.05" r="5.1"/><circle class="cls-1" cx="27.1" cy="246.16" r="5.1"/><circle class="cls-1" cx="24.3" cy="259.46" r="5.1"/><circle class="cls-1" cx="22.29" cy="272.9" r="5.1"/><circle class="cls-1" cx="21.09" cy="286.44" r="5.1"/><circle class="cls-1" cx="20.68" cy="300.02" r="5.1"/><circle class="cls-1" cx="494.9" cy="300.02" r="5.1"/><circle class="cls-1" cx="494.54" cy="286.76" r="5.1"/><circle class="cls-1" cx="493.46" cy="273.54" r="5.1"/><circle class="cls-1" cx="491.67" cy="260.4" r="5.1"/><circle class="cls-1" cx="489.17" cy="247.37" r="5.1"/><circle class="cls-1" cx="485.97" cy="234.5" r="5.1"/><circle class="cls-1" cx="482.08" cy="221.82" r="5.1"/><circle class="cls-1" cx="477.51" cy="209.37" r="5.1"/><circle class="cls-1" cx="472.27" cy="197.19" r="5.1"/><circle class="cls-1" cx="466.37" cy="185.31" r="5.1"/><circle class="cls-1" cx="459.84" cy="173.76" r="5.1"/><circle class="cls-1" cx="452.7" cy="162.59" r="5.1"/><circle class="cls-1" cx="444.96" cy="151.81" r="5.1"/><circle class="cls-1" cx="436.65" cy="141.48" r="5.1"/><circle class="cls-1" cx="427.8" cy="131.6" r="5.1"/><circle class="cls-1" cx="418.42" cy="122.22" r="5.1"/><circle class="cls-1" cx="408.54" cy="113.37" r="5.1"/><circle class="cls-1" cx="398.21" cy="105.06" r="5.1"/><circle class="cls-1" cx="387.43" cy="97.32" r="5.1"/><circle class="cls-1" cx="376.26" cy="90.18" r="5.1"/><circle class="cls-1" cx="364.71" cy="83.65" r="5.1"/><circle class="cls-1" cx="352.83" cy="77.76" r="5.1"/><circle class="cls-1" cx="340.65" cy="72.51" r="5.1"/><circle class="cls-1" cx="328.2" cy="67.94" r="5.1"/><circle class="cls-1" cx="315.52" cy="64.05" r="5.1"/><circle class="cls-1" cx="302.65" cy="60.85" r="5.1"/><circle class="cls-1" cx="289.62" cy="58.35" r="5.1"/><circle class="cls-1" cx="276.48" cy="56.56" r="5.1"/><circle class="cls-1" cx="263.26" cy="55.48" r="5.1"/><circle class="cls-1" cx="250" cy="55.12" r="5.1"/><circle class="cls-1" cx="236.74" cy="55.48" r="5.1"/><circle class="cls-1" cx="223.52" cy="56.56" r="5.1"/><circle class="cls-1" cx="210.38" cy="58.35" r="5.1"/><circle class="cls-1" cx="197.35" cy="60.85" r="5.1"/><circle class="cls-1" cx="184.48" cy="64.05" r="5.1"/><circle class="cls-1" cx="171.8" cy="67.94" r="5.1"/><circle class="cls-1" cx="159.35" cy="72.51" r="5.1"/><circle class="cls-1" cx="147.17" cy="77.76" r="5.1"/><circle class="cls-1" cx="135.29" cy="83.65" r="5.1"/><circle class="cls-1" cx="123.74" cy="90.18" r="5.1"/><circle class="cls-1" cx="112.57" cy="97.32" r="5.1"/><circle class="cls-1" cx="101.79" cy="105.06" r="5.1"/><circle class="cls-1" cx="91.46" cy="113.37" r="5.1"/><circle class="cls-1" cx="81.58" cy="122.22" r="5.1"/><circle class="cls-1" cx="72.2" cy="131.6" r="5.1"/><circle class="cls-1" cx="63.35" cy="141.48" r="5.1"/><circle class="cls-1" cx="55.04" cy="151.81" r="5.1"/><circle class="cls-1" cx="47.3" cy="162.59" r="5.1"/><circle class="cls-1" cx="40.16" cy="173.76" r="5.1"/><circle class="cls-1" cx="33.63" cy="185.31" r="5.1"/><circle class="cls-1" cx="27.73" cy="197.19" r="5.1"/><circle class="cls-1" cx="22.49" cy="209.37" r="5.1"/><circle class="cls-1" cx="17.92" cy="221.82" r="5.1"/><circle class="cls-1" cx="14.03" cy="234.5" r="5.1"/><circle class="cls-1" cx="10.83" cy="247.37" r="5.1"/><circle class="cls-1" cx="8.33" cy="260.4" r="5.1"/><circle class="cls-1" cx="6.54" cy="273.54" r="5.1"/><circle class="cls-1" cx="5.46" cy="286.76" r="5.1"/><circle class="cls-1" cx="5.1" cy="300.02" r="5.1"/><text class="cls-5" transform="translate(207 15.07)"><tspan class="cls-6">U</tspan><tspan x="11.16" y="0" xml:space="preserve">.S.  House</tspan></text><circle class="cls-7" cx="884.66" cy="296.77" r="10.7"/><circle class="cls-7" cx="878.65" cy="262.67" r="10.7"/><circle class="cls-7" cx="861.34" cy="232.68" r="10.7"/><circle class="cls-7" cx="834.81" cy="210.42" r="10.7"/><circle class="cls-7" cx="802.27" cy="198.58" r="10.7"/><circle class="cls-7" cx="767.64" cy="198.58" r="10.7"/><circle class="cls-7" cx="735.1" cy="210.42" r="10.7"/><circle class="cls-8" cx="708.58" cy="232.68" r="10.7"/><circle class="cls-8" cx="691.26" cy="262.67" r="10.7"/><circle class="cls-8" cx="685.25" cy="296.77" r="10.7"/><circle class="cls-7" cx="912.58" cy="296.77" r="10.7"/><circle class="cls-7" cx="908.87" cy="266.23" r="10.7"/><circle class="cls-7" cx="897.96" cy="237.46" r="10.7"/><circle class="cls-7" cx="880.49" cy="212.14" r="10.7"/><circle class="cls-7" cx="857.46" cy="191.74" r="10.7"/><circle class="cls-7" cx="830.21" cy="177.44" r="10.7"/><circle class="cls-7" cx="800.34" cy="170.08" r="10.7"/><circle class="cls-7" cx="769.57" cy="170.08" r="10.7"/><circle class="cls-7" cx="739.7" cy="177.44" r="10.7"/><circle class="cls-7" cx="712.46" cy="191.74" r="10.7"/><circle class="cls-7" cx="689.43" cy="212.14" r="10.7"/><circle class="cls-7" cx="671.95" cy="237.46" r="10.7"/><circle class="cls-7" cx="661.04" cy="266.23" r="10.7"/><circle class="cls-7" cx="657.33" cy="296.77" r="10.7"/><circle class="cls-7" cx="940.5" cy="296.77" r="10.7"/><circle class="cls-7" cx="936.6" cy="262.16" r="10.7"/><circle class="cls-7" cx="925.1" cy="229.29" r="10.7"/><circle class="cls-7" cx="906.57" cy="199.79" r="10.7"/><circle class="cls-7" cx="881.94" cy="175.16" r="10.7"/><circle class="cls-7" cx="852.44" cy="156.63" r="10.7"/><circle class="cls-7" cx="819.57" cy="145.13" r="10.7"/><circle class="cls-7" cx="784.96" cy="141.23" r="10.7"/><circle class="cls-7" cx="750.34" cy="145.13" r="10.7"/><circle class="cls-7" cx="717.47" cy="156.63" r="10.7"/><circle class="cls-7" cx="687.98" cy="175.16" r="10.7"/><circle class="cls-7" cx="663.35" cy="199.79" r="10.7"/><circle class="cls-7" cx="644.82" cy="229.29" r="10.7"/><circle class="cls-7" cx="633.31" cy="262.16" r="10.7"/><circle class="cls-7" cx="629.41" cy="296.77" r="10.7"/><circle class="cls-7" cx="968.42" cy="296.77" r="10.7"/><circle class="cls-7" cx="965.3" cy="263.06" r="10.7"/><circle class="cls-7" cx="956.03" cy="230.5" r="10.7"/><circle class="cls-7" cx="940.94" cy="200.19" r="10.7"/><circle class="cls-7" cx="920.54" cy="173.18" r="10.7"/><circle class="cls-7" cx="895.52" cy="150.37" r="10.7"/><circle class="cls-7" cx="866.73" cy="132.54" r="10.7"/><circle class="cls-7" cx="835.16" cy="120.31" r="10.7"/><circle class="cls-7" cx="801.88" cy="114.09" r="10.7"/><circle class="cls-7" cx="768.03" cy="114.09" r="10.7"/><circle class="cls-7" cx="734.75" cy="120.31" r="10.7"/><circle class="cls-7" cx="703.18" cy="132.54" r="10.7"/><circle class="cls-7" cx="674.39" cy="150.37" r="10.7"/><circle class="cls-7" cx="649.38" cy="173.18" r="10.7"/><circle class="cls-7" cx="628.97" cy="200.19" r="10.7"/><circle class="cls-7" cx="613.88" cy="230.5" r="10.7"/><circle class="cls-7" cx="604.62" cy="263.06" r="10.7"/><circle class="cls-7" cx="601.49" cy="296.77" r="10.7"/><circle class="cls-7" cx="996.34" cy="296.77" r="10.7"/><circle class="cls-7" cx="993.45" cy="261.98" r="10.7"/><circle class="cls-7" cx="984.88" cy="228.14" r="10.7"/><circle class="cls-7" cx="970.86" cy="196.17" r="10.7"/><circle class="cls-7" cx="951.77" cy="166.94" r="10.7"/><circle class="cls-7" cx="928.12" cy="141.26" r="10.7"/><circle class="cls-7" cx="900.57" cy="119.81" r="10.7"/><circle class="cls-7" cx="869.87" cy="103.2" r="10.7"/><circle class="cls-7" cx="836.85" cy="91.86" r="10.7"/><circle class="cls-7" cx="802.41" cy="86.11" r="10.7"/><circle class="cls-7" cx="767.5" cy="86.11" r="10.7"/><circle class="cls-7" cx="733.07" cy="91.86" r="10.7"/><circle class="cls-7" cx="700.05" cy="103.2" r="10.7"/><circle class="cls-7" cx="669.34" cy="119.81" r="10.7"/><circle class="cls-7" cx="641.79" cy="141.26" r="10.7"/><circle class="cls-7" cx="618.15" cy="166.94" r="10.7"/><circle class="cls-7" cx="599.05" cy="196.17" r="10.7"/><circle class="cls-7" cx="585.03" cy="228.14" r="10.7"/><circle class="cls-7" cx="576.46" cy="261.98" r="10.7"/><circle class="cls-7" cx="573.57" cy="296.77" r="10.7"/><circle class="cls-7" cx="1024.26" cy="296.77" r="10.7"/><circle class="cls-7" cx="1021.82" cy="262.72" r="10.7"/><circle class="cls-7" cx="1014.56" cy="229.36" r="10.7"/><circle class="cls-7" cx="1002.63" cy="197.37" r="10.7"/><circle class="cls-7" cx="986.27" cy="167.4" r="10.7"/><circle class="cls-7" cx="965.81" cy="140.07" r="10.7"/><circle class="cls-7" cx="941.66" cy="115.92" r="10.7"/><circle class="cls-7" cx="914.33" cy="95.46" r="10.7"/><circle class="cls-7" cx="884.37" cy="79.1" r="10.7"/><circle class="cls-7" cx="852.37" cy="67.17" r="10.7"/><circle class="cls-7" cx="819.01" cy="59.91" r="10.7"/><circle class="cls-7" cx="784.96" cy="57.47" r="10.7"/><circle class="cls-7" cx="750.9" cy="59.91" r="10.7"/><circle class="cls-7" cx="717.54" cy="67.17" r="10.7"/><circle class="cls-7" cx="685.55" cy="79.1" r="10.7"/><circle class="cls-7" cx="655.58" cy="95.46" r="10.7"/><circle class="cls-7" cx="628.25" cy="115.92" r="10.7"/><circle class="cls-7" cx="604.11" cy="140.07" r="10.7"/><circle class="cls-7" cx="583.64" cy="167.4" r="10.7"/><circle class="cls-7" cx="567.28" cy="197.37" r="10.7"/><circle class="cls-7" cx="555.35" cy="229.36" r="10.7"/><circle class="cls-7" cx="548.09" cy="262.72" r="10.7"/><circle class="cls-7" cx="545.66" cy="296.77" r="10.7"/><text class="cls-5" transform="translate(739.96 15.07)"><tspan class="cls-9">U</tspan><tspan x="11.16" y="0">.S. </tspan><tspan class="cls-10" x="31.3" y="0">S</tspan><tspan x="40.28" y="0">en</tspan><tspan class="cls-11" x="59.29" y="0">a</tspan><tspan class="cls-12" x="67.89" y="0">t</tspan><tspan class="cls-13" x="73.74" y="0">e</tspan></text><circle class="cls-1" cx="1363.93" cy="293.74" r="13.7"/><circle class="cls-1" cx="1348.43" cy="256.31" r="13.7"/><circle class="cls-1" cx="1311" cy="240.81" r="13.7"/><circle class="cls-1" cx="1273.57" cy="256.31" r="13.7"/><circle class="cls-4" cx="1258.07" cy="293.74" r="13.7"/><text class="cls-14" transform="translate(1275 15.07)">G<tspan class="cls-15" x="11.72" y="0">o</tspan><tspan class="cls-16" x="21.47" y="0">v</tspan><tspan class="cls-17" x="29.95" y="0">e</tspan><tspan class="cls-18" x="38.97" y="0">r</tspan><tspan class="cls-19" x="44.93" y="0">nor</tspan></text><circle class="cls-1" cx="1409.77" cy="293.74" r="13.7"/><circle class="cls-1" cx="1399.99" cy="250.88" r="13.7"/><circle class="cls-1" cx="1372.58" cy="216.52" r="13.7"/><circle class="cls-1" cx="1332.98" cy="197.44" r="13.7"/><circle class="cls-1" cx="1289.02" cy="197.44" r="13.7"/><circle class="cls-1" cx="1249.42" cy="216.52" r="13.7"/><circle class="cls-1" cx="1222.01" cy="250.88" r="13.7"/><circle class="cls-1" cx="1212.23" cy="293.74" r="13.7"/><circle class="cls-1" cx="1455.62" cy="293.74" r="13.7"/><circle class="cls-1" cx="1446.89" cy="244.28" r="13.7"/><circle class="cls-1" cx="1421.78" cy="200.78" r="13.7"/><circle class="cls-1" cx="1383.31" cy="168.5" r="13.7"/><circle class="cls-1" cx="1336.11" cy="151.32" r="13.7"/><circle class="cls-1" cx="1285.89" cy="151.32" r="13.7"/><circle class="cls-1" cx="1238.69" cy="168.5" r="13.7"/><circle class="cls-1" cx="1200.22" cy="200.78" r="13.7"/><circle class="cls-1" cx="1175.11" cy="244.28" r="13.7"/><circle class="cls-1" cx="1166.38" cy="293.74" r="13.7"/><circle class="cls-1" cx="1501.46" cy="293.74" r="13.7"/><circle class="cls-1" cx="1493.74" cy="240.08" r="13.7"/><circle class="cls-1" cx="1471.22" cy="190.77" r="13.7"/><circle class="cls-1" cx="1435.72" cy="149.8" r="13.7"/><circle class="cls-1" cx="1390.12" cy="120.49" r="13.7"/><circle class="cls-1" cx="1338.1" cy="105.22" r="13.7"/><circle class="cls-1" cx="1283.9" cy="105.22" r="13.7"/><circle class="cls-1" cx="1231.88" cy="120.49" r="13.7"/><circle class="cls-1" cx="1186.28" cy="149.8" r="13.7"/><circle class="cls-1" cx="1150.78" cy="190.77" r="13.7"/><circle class="cls-1" cx="1128.26" cy="240.08" r="13.7"/><circle class="cls-1" cx="1120.54" cy="293.74" r="13.7"/><circle class="cls-1" cx="1547.3" cy="293.74" r="13.7"/><circle class="cls-1" cx="1541.38" cy="241.16" r="13.7"/><circle class="cls-1" cx="1523.9" cy="191.21" r="13.7"/><circle class="cls-1" cx="1495.75" cy="146.41" r="13.7"/><circle class="cls-1" cx="1458.33" cy="108.99" r="13.7"/><circle class="cls-1" cx="1413.53" cy="80.84" r="13.7"/><circle class="cls-1" cx="1363.58" cy="63.36" r="13.7"/><circle class="cls-1" cx="1311" cy="57.44" r="13.7"/><circle class="cls-1" cx="1258.42" cy="63.36" r="13.7"/><circle class="cls-1" cx="1208.47" cy="80.84" r="13.7"/><circle class="cls-1" cx="1163.67" cy="108.99" r="13.7"/><circle class="cls-1" cx="1126.25" cy="146.41" r="13.7"/><circle class="cls-1" cx="1098.1" cy="191.21" r="13.7"/><circle class="cls-1" cx="1080.62" cy="241.16" r="13.7"/><circle class="cls-1" cx="1074.7" cy="293.74" r="13.7"/></svg>