<svg id="Layer_1" data-name="Layer 1" xmlns="http://www.w3.org/2000/svg" xmlns:xlink="http://www.w3.org/1999/xlink" viewBox="0 0 398.96 313.22"><defs><style>.cls-1{fill:none;}.cls-2{clip-path:url(#clip-path);}.cls-3{fill:#238b45;}.cls-4{fill:#66c2a4;}.cls-5{fill:#b2e2e2;}.cls-6{fill:#d53e4f;}.cls-7{font-size:10px;}.cls-7,.cls-8{font-family:ArialMT, Arial;}.cls-8{font-size:12px;}.cls-9{fill:#726f6f;stroke:#000;stroke-miterlimit:10;stroke-width:0.75px;}</style><clipPath id="clip-path" transform="translate(-34.23 -8.43)"><rect class="cls-1" x="54" y="85.79" width="334.8" height="217.44"/></clipPath></defs><title>race_house_1</title><g class="cls-2"><rect class="cls-3" x="61.62" y="144.77" width="83.7" height="150.03"/></g><g class="cls-2"><rect class="cls-3" x="229.02" y="165.9" width="83.7" height="128.9"/></g><g class="cls-2"><rect class="cls-4" x="61.62" y="125.75" width="83.7" height="19.02"/></g><g class="cls-2"><rect class="cls-4" x="229.02" y="127.86" width="83.7" height="38.04"/></g><g class="cls-2"><rect class="cls-5" x="61.62" y="100.39" width="83.7" height="25.36"/></g><g class="cls-2"><rect class="cls-5" x="229.02" y="102.5" width="83.7" height="25.36"/></g><g class="cls-2"><rect class="cls-6" x="61.62" y="94.05" width="83.7" height="6.34"/></g><g class="cls-2"><rect class="cls-6" x="229.02" y="89.83" width="83.7" height="12.68"/></g><text class="cls-7" transform="translate(46.96 309.97)">House of Representatives</text><text class="cls-7" transform="translate(243.35 309.97)">All Population</text><line x1="19.77" y1="252.54" x2="16.27" y2="252.54"/><line x1="19.77" y1="210.27" x2="16.27" y2="210.27"/><line x1="19.77" y1="168.01" x2="16.27" y2="168.01"/><line x1="19.77" y1="125.75" x2="16.27" y2="125.75"/><line x1="19.77" y1="83.49" x2="16.27" y2="83.49"/><text class="cls-8" transform="translate(93.68 118.03)">12%</text><text class="cls-7" transform="translate(261.94 119.01)">12%</text><text class="cls-7" transform="translate(261.94 152.76)">18%</text><text class="cls-7" transform="translate(261.43 223.76)">61%</text><text class="cls-7" transform="translate(94.92 223.4)">71%</text><text class="cls-8" transform="translate(99.65 139.57)">9%</text><text class="cls-7" transform="translate(96.81 41.24)">White </text><text class="cls-7" transform="translate(148.61 41.24)">Hispanic</text><text class="cls-7" transform="translate(209.1 41.24)">Black</text><text class="cls-7" transform="translate(256.95 41.24)">Asian</text><ellipse class="cls-5" cx="203.27" cy="37.32" rx="3.91" ry="3.66"/><ellipse class="cls-3" cx="89.35" cy="37.32" rx="3.91" ry="3.66"/><ellipse class="cls-4" cx="140.87" cy="37.32" rx="3.91" ry="3.66"/><ellipse class="cls-6" cx="250.44" cy="37.32" rx="3.91" ry="3.66"/><line class="cls-9" y1="295.37" x2="398.96" y2="295.34"/><text class="cls-8" transform="translate(62.9 10.3)">House Representatives VS. Population Ratios </text></svg>