<?xml version="1.0" encoding="utf-8"?>
<!-- Generator: Adobe Illustrator 23.0.4, SVG Export Plug-In . SVG Version: 6.00 Build 0)  -->
<svg version="1.1" id="Layer_1" xmlns="http://www.w3.org/2000/svg" xmlns:xlink="http://www.w3.org/1999/xlink" x="0px" y="0px"
	 viewBox="0 0 550.8 399.3" style="enable-background:new 0 0 550.8 399.3;" xml:space="preserve">
<style type="text/css">
	.st0{fill:#FFFFFF;}
	.st1{clip-path:url(#SVGID_2_);}
	.st2{clip-path:url(#SVGID_4_);fill:#1F77B4;}
	.st3{clip-path:url(#SVGID_4_);fill:none;stroke:#FFFFFF;stroke-width:0.75;stroke-linejoin:round;stroke-miterlimit:10;}
	.st4{clip-path:url(#SVGID_6_);fill:#FF7F0E;}
	.st5{clip-path:url(#SVGID_6_);fill:none;stroke:#FFFFFF;stroke-width:0.75;stroke-linejoin:round;stroke-miterlimit:10;}
	.st6{clip-path:url(#SVGID_8_);fill:#2CA02C;}
	.st7{clip-path:url(#SVGID_8_);fill:none;stroke:#FFFFFF;stroke-width:0.75;stroke-linejoin:round;stroke-miterlimit:10;}
	.st8{clip-path:url(#SVGID_10_);fill:#D62728;}
	.st9{clip-path:url(#SVGID_10_);fill:none;stroke:#FFFFFF;stroke-width:0.75;stroke-linejoin:round;stroke-miterlimit:10;}
	.st10{clip-path:url(#SVGID_12_);fill:#9467BD;}
	.st11{clip-path:url(#SVGID_12_);fill:none;stroke:#FFFFFF;stroke-width:0.75;stroke-linejoin:round;stroke-miterlimit:10;}
	.st12{fill:none;stroke:#000000;stroke-width:0.8;stroke-linejoin:round;stroke-miterlimit:10;}
	.st13{font-family:'ArialMT';}
	.st14{font-size:10px;}
	.st15{fill:none;stroke:#000000;stroke-width:0.8;stroke-linecap:square;stroke-miterlimit:10;}
	.st16{fill:none;}
	.st17{fill:none;stroke:#000000;stroke-miterlimit:10;}
	.st18{fill:#9E13D8;}
	.st19{font-family:'MyriadPro-Regular';}
	.st20{font-size:12px;}
	.st21{fill:#D47600;}
	.st22{fill:#197F45;}
	.st23{fill:#AA0017;}
	.st24{fill:#3131AF;}
	.st25{font-size:15px;}
	.st26{font-size:14px;}
</style>
<rect x="48.2" y="39.3" class="st0" width="484.9" height="360"/>
<rect x="108" y="50.1" class="st0" width="295.3" height="307.4"/>
<g>
	<defs>
		<rect id="SVGID_1_" x="108" y="50.1" width="295.3" height="307.4"/>
	</defs>
	<clipPath id="SVGID_2_">
		<use xlink:href="#SVGID_1_"  style="overflow:visible;"/>
	</clipPath>
	<g class="st1">
		<defs>
			<rect id="SVGID_3_" x="159.4" y="288" width="8.6" height="8.6"/>
		</defs>
		<clipPath id="SVGID_4_">
			<use xlink:href="#SVGID_3_"  style="overflow:visible;"/>
		</clipPath>
		<path class="st2" d="M163.7,295.8c0.9,0,1.8-0.4,2.5-1c0.7-0.7,1-1.6,1-2.5c0-0.9-0.4-1.8-1-2.5c-0.7-0.7-1.6-1-2.5-1
			s-1.8,0.4-2.5,1c-0.7,0.7-1,1.6-1,2.5c0,0.9,0.4,1.8,1,2.5C161.9,295.5,162.8,295.8,163.7,295.8z"/>
		<path class="st3" d="M163.7,295.8c0.9,0,1.8-0.4,2.5-1c0.7-0.7,1-1.6,1-2.5c0-0.9-0.4-1.8-1-2.5c-0.7-0.7-1.6-1-2.5-1
			s-1.8,0.4-2.5,1c-0.7,0.7-1,1.6-1,2.5c0,0.9,0.4,1.8,1,2.5C161.9,295.5,162.8,295.8,163.7,295.8z"/>
	</g>
	<g class="st1">
		<defs>
			<rect id="SVGID_5_" x="124.9" y="315.9" width="8.6" height="8.6"/>
		</defs>
		<clipPath id="SVGID_6_">
			<use xlink:href="#SVGID_5_"  style="overflow:visible;"/>
		</clipPath>
		<path class="st4" d="M129.2,323.8c0.9,0,1.8-0.4,2.5-1c0.7-0.7,1-1.6,1-2.5c0-0.9-0.4-1.8-1-2.5c-0.7-0.7-1.6-1-2.5-1
			s-1.8,0.4-2.5,1c-0.7,0.7-1,1.6-1,2.5c0,0.9,0.4,1.8,1,2.5C127.3,323.4,128.2,323.8,129.2,323.8z"/>
		<path class="st5" d="M129.2,323.8c0.9,0,1.8-0.4,2.5-1c0.7-0.7,1-1.6,1-2.5c0-0.9-0.4-1.8-1-2.5c-0.7-0.7-1.6-1-2.5-1
			s-1.8,0.4-2.5,1c-0.7,0.7-1,1.6-1,2.5c0,0.9,0.4,1.8,1,2.5C127.3,323.4,128.2,323.8,129.2,323.8z"/>
	</g>
	<g class="st1">
		<defs>
			<rect id="SVGID_7_" x="147.9" y="260.1" width="8.6" height="8.6"/>
		</defs>
		<clipPath id="SVGID_8_">
			<use xlink:href="#SVGID_7_"  style="overflow:visible;"/>
		</clipPath>
		<path class="st6" d="M152.2,267.9c0.9,0,1.8-0.4,2.5-1c0.7-0.7,1-1.6,1-2.5c0-0.9-0.4-1.8-1-2.5c-0.7-0.7-1.6-1-2.5-1
			s-1.8,0.4-2.5,1c-0.7,0.7-1,1.6-1,2.5c0,0.9,0.4,1.8,1,2.5C150.4,267.5,151.3,267.9,152.2,267.9z"/>
		<path class="st7" d="M152.2,267.9c0.9,0,1.8-0.4,2.5-1c0.7-0.7,1-1.6,1-2.5c0-0.9-0.4-1.8-1-2.5c-0.7-0.7-1.6-1-2.5-1
			s-1.8,0.4-2.5,1c-0.7,0.7-1,1.6-1,2.5c0,0.9,0.4,1.8,1,2.5C150.4,267.5,151.3,267.9,152.2,267.9z"/>
	</g>
	<g class="st1">
		<defs>
			<rect id="SVGID_9_" x="117.2" y="339.2" width="8.6" height="8.6"/>
		</defs>
		<clipPath id="SVGID_10_">
			<use xlink:href="#SVGID_9_"  style="overflow:visible;"/>
		</clipPath>
		<path class="st8" d="M121.5,347c0.9,0,1.8-0.4,2.5-1c0.7-0.7,1-1.6,1-2.5c0-0.9-0.4-1.8-1-2.5c-0.7-0.7-1.6-1-2.5-1
			s-1.8,0.4-2.5,1c-0.7,0.7-1,1.6-1,2.5c0,0.9,0.4,1.8,1,2.5C119.7,346.7,120.6,347,121.5,347z"/>
		<path class="st9" d="M121.5,347c0.9,0,1.8-0.4,2.5-1c0.7-0.7,1-1.6,1-2.5c0-0.9-0.4-1.8-1-2.5c-0.7-0.7-1.6-1-2.5-1
			s-1.8,0.4-2.5,1c-0.7,0.7-1,1.6-1,2.5c0,0.9,0.4,1.8,1,2.5C119.7,346.7,120.6,347,121.5,347z"/>
	</g>
	<g class="st1">
		<defs>
			<rect id="SVGID_11_" x="385.6" y="59.9" width="8.6" height="8.6"/>
		</defs>
		<clipPath id="SVGID_12_">
			<use xlink:href="#SVGID_11_"  style="overflow:visible;"/>
		</clipPath>
		<path class="st10" d="M389.9,67.7c0.9,0,1.8-0.4,2.5-1s1-1.6,1-2.5c0-0.9-0.4-1.8-1-2.5s-1.6-1-2.5-1s-1.8,0.4-2.5,1s-1,1.6-1,2.5
			c0,0.9,0.4,1.8,1,2.5S389,67.7,389.9,67.7z"/>
		<path class="st11" d="M389.9,67.7c0.9,0,1.8-0.4,2.5-1s1-1.6,1-2.5c0-0.9-0.4-1.8-1-2.5s-1.6-1-2.5-1s-1.8,0.4-2.5,1s-1,1.6-1,2.5
			c0,0.9,0.4,1.8,1,2.5S389,67.7,389.9,67.7z"/>
	</g>
</g>
<line x1="117.7" y1="357.5" x2="117.7" y2="361"/>
<line class="st12" x1="117.7" y1="357.5" x2="117.7" y2="361"/>
<text transform="matrix(1 0 0 1 114.5048 372.1242)" class="st13 st14">0%</text>
<line x1="156" y1="357.5" x2="156" y2="361"/>
<line class="st12" x1="156" y1="357.5" x2="156" y2="361"/>
<text transform="matrix(1 0 0 1 149.664 372.1242)" class="st13 st14">10</text>
<line x1="194.4" y1="357.5" x2="194.4" y2="361"/>
<line class="st12" x1="194.4" y1="357.5" x2="194.4" y2="361"/>
<text transform="matrix(1 0 0 1 188.0029 372.1242)" class="st13 st14">20</text>
<line x1="232.7" y1="357.5" x2="232.7" y2="361"/>
<line class="st12" x1="232.7" y1="357.5" x2="232.7" y2="361"/>
<text transform="matrix(1 0 0 1 226.3417 372.1242)" class="st13 st14">30</text>
<line x1="271" y1="357.5" x2="271" y2="361"/>
<line class="st12" x1="271" y1="357.5" x2="271" y2="361"/>
<text transform="matrix(1 0 0 1 264.6806 372.1242)" class="st13 st14">40</text>
<line x1="309.4" y1="357.5" x2="309.4" y2="361"/>
<line class="st12" x1="309.4" y1="357.5" x2="309.4" y2="361"/>
<text transform="matrix(1 0 0 1 303.02 372.1242)" class="st13 st14">50</text>
<line x1="347.7" y1="357.5" x2="347.7" y2="361"/>
<line class="st12" x1="347.7" y1="357.5" x2="347.7" y2="361"/>
<text transform="matrix(1 0 0 1 341.3588 372.1242)" class="st13 st14">60</text>
<line x1="386.1" y1="357.5" x2="386.1" y2="361"/>
<line class="st12" x1="386.1" y1="357.5" x2="386.1" y2="361"/>
<text transform="matrix(1 0 0 1 379.6977 372.1242)" class="st13 st14">70</text>
<line x1="108" y1="348.2" x2="104.5" y2="348.2"/>
<line class="st12" x1="108" y1="348.2" x2="104.5" y2="348.2"/>
<text transform="matrix(1 0 0 1 84.6869 351.9533)" class="st13 st14">0%</text>
<line x1="108" y1="301.6" x2="104.5" y2="301.6"/>
<line class="st12" x1="108" y1="301.6" x2="104.5" y2="301.6"/>
<text transform="matrix(1 0 0 1 83.3276 305.3967)" class="st13 st14">10</text>
<line x1="108" y1="255" x2="104.5" y2="255"/>
<line class="st12" x1="108" y1="255" x2="104.5" y2="255"/>
<text transform="matrix(1 0 0 1 83.3276 258.8401)" class="st13 st14">20</text>
<line x1="108" y1="208.5" x2="104.5" y2="208.5"/>
<line class="st12" x1="108" y1="208.5" x2="104.5" y2="208.5"/>
<text transform="matrix(1 0 0 1 83.3276 212.2829)" class="st13 st14">30</text>
<line x1="108" y1="161.9" x2="104.5" y2="161.9"/>
<line class="st12" x1="108" y1="161.9" x2="104.5" y2="161.9"/>
<text transform="matrix(1 0 0 1 83.3276 165.7263)" class="st13 st14">40</text>
<line x1="108" y1="115.4" x2="104.5" y2="115.4"/>
<line class="st12" x1="108" y1="115.4" x2="104.5" y2="115.4"/>
<text transform="matrix(1 0 0 1 83.3276 119.1692)" class="st13 st14">50</text>
<line x1="108" y1="68.8" x2="104.5" y2="68.8"/>
<line class="st12" x1="108" y1="68.8" x2="104.5" y2="68.8"/>
<text transform="matrix(1 0 0 1 83.3276 72.6125)" class="st13 st14">60</text>
<line class="st15" x1="108" y1="357.5" x2="108" y2="50.1"/>
<line class="st15" x1="108" y1="357.5" x2="403.4" y2="357.5"/>
<rect x="48.2" y="39.3" class="st16" width="484.9" height="360"/>
<path class="st16" d="M393.4,64.2c0,8.3,15.5,15.1,34.6,15.1"/>
<g>
	<g>
		<path class="st16" d="M205,273.4c-12.8-1.7-22.5-20.4-22.5-41.8s9.7-39.4,22.5-40.3c13.6-1,25.4,17.7,25.4,41.9
			S218.6,275.2,205,273.4z"/>
		<path class="st16" d="M225.9,233c0-19.9-9.6-35.5-20.9-34.9c-10.7,0.6-18.9,15.6-18.9,33.6s8.2,33.6,18.9,34.9
			C216.3,267.9,225.9,252.9,225.9,233z"/>
		<path class="st16" d="M205,259.7c-8.6-0.9-15.3-13.3-15.3-27.9s6.7-26.6,15.3-26.9c9-0.3,16.6,12.2,16.6,27.9S214,260.6,205,259.7
			z"/>
		<path class="st16" d="M217.3,232.7c0-11.7-5.6-21.1-12.3-20.9c-6.5,0.1-11.6,9.1-11.6,20.2c0,11,5.1,20.4,11.6,20.9
			C211.7,253.4,217.3,244.4,217.3,232.7z"/>
		<path class="st16" d="M205,246c-4.3-0.3-7.8-6.5-7.8-13.9c0-7.4,3.4-13.4,7.8-13.4c4.4,0,8.1,6.2,8.1,14S209.4,246.3,205,246z"/>
		<path class="st16" d="M209,232.4c0-3.8-1.8-6.9-4-7c-2.2,0-3.9,3-3.9,6.7c0,3.7,1.8,6.9,3.9,7C207.2,239.2,209,236.2,209,232.4z"
			/>
	</g>
	<g>
		<line class="st16" x1="205" y1="232.3" x2="205" y2="273.4"/>
		<line class="st16" x1="205" y1="232.3" x2="229.1" y2="246.5"/>
		<line class="st16" x1="205" y1="232.3" x2="219.5" y2="198.3"/>
		<line class="st16" x1="205" y1="232.3" x2="191.5" y2="199.7"/>
		<line class="st16" x1="205" y1="232.3" x2="183.5" y2="243.6"/>
	</g>
</g>
<g>
	<g>
		<g>
			<path class="st17" d="M386.7,66.3C380.9,61.6,367,68.9,354,83"/>
			<g>
				<path d="M355.2,81.7l4.2,0.7l0,0.1l-5.6,2.9c-1.7,1.2-3.4,2.5-5.1,3.7c1-1.8,2-3.7,3-5.5l2.1-6l0.1-0.1L355.2,81.7z"/>
			</g>
		</g>
	</g>
	<text transform="matrix(1 0 0 1 305.7874 102.3123)"><tspan x="0" y="0" class="st18 st19 st20">White:</tspan><tspan x="0" y="14.4" class="st18 st19 st20">61% in population</tspan><tspan x="0" y="28.8" class="st18 st19 st20">71% in the House</tspan></text>
</g>
<g>
	<g>
		<g>
			<path class="st17" d="M132.9,320.3c2,7.3,17.5,9.5,36.3,5.9"/>
			<g>
				<path d="M167.5,326.5l-2.9-3l0.1-0.1l6.2,1c2.1,0,4.2,0,6.3,0c-1.9,0.9-3.8,1.8-5.7,2.6l-5.2,3.6l-0.1,0L167.5,326.5z"/>
			</g>
		</g>
	</g>
	<text transform="matrix(1 0 0 1 178.6068 327.4222)" class="st21 st19 st20">Asian:  6% in population, 3% in the House</text>
</g>
<text transform="matrix(1 0 0 1 119.2859 256.4619)" class="st22 st19 st20">Hispanic</text>
<text transform="matrix(1 0 0 1 125.8039 347.7861)" class="st23 st19 st20">American Indians</text>
<text transform="matrix(1 0 0 1 172.8148 294.1533)" class="st24 st19 st20">Black</text>
<text transform="matrix(1 0 0 1 110.4051 26.8235)" class="st19 st25">House Representatives vs Population Ratios By Race</text>
<text transform="matrix(1 0 0 1 241.7175 388.4087)" class="st19 st26">House</text>
<text transform="matrix(1 0 0 1 15.2508 189.2197)" class="st19 st26">Population</text>
</svg>
