<?xml version="1.0" encoding="utf-8"?>
<!-- Generator: Adobe Illustrator 23.0.4, SVG Export Plug-In . SVG Version: 6.00 Build 0)  -->
<svg version="1.1" id="Layer_1" xmlns="http://www.w3.org/2000/svg" xmlns:xlink="http://www.w3.org/1999/xlink" x="0px" y="0px"
	 viewBox="0 0 451 372.2" style="enable-background:new 0 0 451 372.2;" xml:space="preserve">
<style type="text/css">
	.st0{fill:#FFFFFF;}
	.st1{fill:none;}
	.st2{fill:none;stroke:#000000;stroke-linejoin:round;}
	.st3{stroke:#000000;stroke-linejoin:round;}
	.st4{fill:none;stroke:#D3D3D3;stroke-width:0.5;stroke-linecap:square;stroke-linejoin:round;}
	.st5{stroke:#000000;stroke-width:0.8;stroke-linejoin:round;}
	.st6{fill:#5783C3;stroke:#2D79C4;stroke-linejoin:round;}
	.st7{fill:#EA1840;stroke:#E81831;stroke-linejoin:round;}
	.st8{fill:none;stroke:#000000;stroke-width:0.8;stroke-linecap:square;}
	.st9{fill:#231F20;}
	.st10{font-family:'ArialMT';}
	.st11{font-size:18px;}
	.st12{font-family:'Arial-BoldMT';}
	.st13{font-size:14px;}
	.st14{font-size:10px;}
</style>
<path class="st0" d="M0,372.2h451V123.7H0V372.2z"/>
<g id="patch_2">
	<path class="st0" d="M109,348.3h334.8V130.9H109V348.3z"/>
</g>
<g id="PathCollection_1">
	<rect x="109" y="130.9" class="st1" width="334.8" height="217.4"/>
	<g>
		<g>
			<path id="C0_0_729adfd827" class="st2" d="M410.9,314.5c0.8,0,1.6-0.3,2.1-0.9c0.6-0.6,0.9-1.3,0.9-2.1c0-0.8-0.3-1.6-0.9-2.1
				c-0.6-0.6-1.3-0.9-2.1-0.9s-1.6,0.3-2.1,0.9c-0.6,0.6-0.9,1.3-0.9,2.1c0,0.8,0.3,1.6,0.9,2.1
				C409.4,314.2,410.1,314.5,410.9,314.5z"/>
		</g>
	</g>
	<rect x="109" y="130.9" class="st1" width="334.8" height="217.4"/>
	<g>
		<g>
			<path class="st2" d="M410.9,338.5c0.8,0,1.6-0.3,2.1-0.9c0.6-0.6,0.9-1.3,0.9-2.1c0-0.8-0.3-1.6-0.9-2.1
				c-0.6-0.6-1.3-0.9-2.1-0.9s-1.6,0.3-2.1,0.9c-0.6,0.6-0.9,1.3-0.9,2.1c0,0.8,0.3,1.6,0.9,2.1S410.1,338.5,410.9,338.5z"/>
		</g>
	</g>
	<rect x="109" y="130.9" class="st1" width="334.8" height="217.4"/>
	<g>
		<g>
			<path class="st2" d="M391.3,290.5c0.8,0,1.6-0.3,2.1-0.9c0.6-0.6,0.9-1.3,0.9-2.1c0-0.8-0.3-1.6-0.9-2.1
				c-0.6-0.6-1.3-0.9-2.1-0.9s-1.6,0.3-2.1,0.9c-0.6,0.6-0.9,1.3-0.9,2.1c0,0.8,0.3,1.6,0.9,2.1
				C389.8,290.2,390.5,290.5,391.3,290.5z"/>
		</g>
	</g>
	<rect x="109" y="130.9" class="st1" width="334.8" height="217.4"/>
	<g>
		<g>
			<path class="st2" d="M332.6,266.6c0.8,0,1.6-0.3,2.1-0.9c0.6-0.6,0.9-1.3,0.9-2.1c0-0.8-0.3-1.6-0.9-2.1
				c-0.6-0.6-1.3-0.9-2.1-0.9s-1.6,0.3-2.1,0.9c-0.6,0.6-0.9,1.3-0.9,2.1c0,0.8,0.3,1.6,0.9,2.1
				C331.1,266.3,331.8,266.6,332.6,266.6z"/>
		</g>
	</g>
	<rect x="109" y="130.9" class="st1" width="334.8" height="217.4"/>
	<g>
		<g>
			<path class="st2" d="M278.8,242.6c0.8,0,1.6-0.3,2.1-0.9c0.6-0.6,0.9-1.3,0.9-2.1s-0.3-1.6-0.9-2.1c-0.6-0.6-1.3-0.9-2.1-0.9
				s-1.6,0.3-2.1,0.9c-0.6,0.6-0.9,1.3-0.9,2.1s0.3,1.6,0.9,2.1C277.3,242.3,278,242.6,278.8,242.6z"/>
		</g>
	</g>
	<rect x="109" y="130.9" class="st1" width="334.8" height="217.4"/>
	<g>
		<g>
			<path class="st2" d="M215.2,194.7c0.8,0,1.6-0.3,2.1-0.9s0.9-1.3,0.9-2.1s-0.3-1.6-0.9-2.1c-0.6-0.6-1.3-0.9-2.1-0.9
				s-1.6,0.3-2.1,0.9c-0.6,0.6-0.9,1.3-0.9,2.1s0.3,1.6,0.9,2.1S214.4,194.7,215.2,194.7z"/>
		</g>
	</g>
	<rect x="109" y="130.9" class="st1" width="334.8" height="217.4"/>
	<g>
		<g>
			<path class="st2" d="M215.2,218.7c0.8,0,1.6-0.3,2.1-0.9c0.6-0.6,0.9-1.3,0.9-2.1s-0.3-1.6-0.9-2.1s-1.3-0.9-2.1-0.9
				s-1.6,0.3-2.1,0.9s-0.9,1.3-0.9,2.1s0.3,1.6,0.9,2.1C213.6,218.3,214.4,218.7,215.2,218.7z"/>
		</g>
	</g>
	<rect x="109" y="130.9" class="st1" width="334.8" height="217.4"/>
	<g>
		<g>
			<path class="st2" d="M146.7,170.7c0.8,0,1.6-0.3,2.1-0.9s0.9-1.3,0.9-2.1s-0.3-1.6-0.9-2.1c-0.6-0.6-1.3-0.9-2.1-0.9
				s-1.6,0.3-2.1,0.9c-0.6,0.6-0.9,1.3-0.9,2.1s0.3,1.6,0.9,2.1S145.9,170.7,146.7,170.7z"/>
		</g>
	</g>
	<rect x="109" y="130.9" class="st1" width="334.8" height="217.4"/>
	<g>
		<g>
			<path class="st2" d="M127.1,146.8c0.8,0,1.6-0.3,2.1-0.9c0.6-0.6,0.9-1.3,0.9-2.1s-0.3-1.6-0.9-2.1c-0.6-0.6-1.3-0.9-2.1-0.9
				s-1.6,0.3-2.1,0.9c-0.6,0.6-0.9,1.3-0.9,2.1s0.3,1.6,0.9,2.1C125.6,146.5,126.3,146.8,127.1,146.8z"/>
		</g>
	</g>
</g>
<g id="PathCollection_2">
	<rect x="109" y="130.9" class="st1" width="334.8" height="217.4"/>
	<g>
		<g>
			<path class="st3" d="M381.6,266.6c0.8,0,1.6-0.3,2.1-0.9c0.6-0.6,0.9-1.3,0.9-2.1c0-0.8-0.3-1.6-0.9-2.1
				c-0.6-0.6-1.3-0.9-2.1-0.9s-1.6,0.3-2.1,0.9c-0.6,0.6-0.9,1.3-0.9,2.1c0,0.8,0.3,1.6,0.9,2.1C380,266.3,380.8,266.6,381.6,266.6z
				"/>
		</g>
		<g>
			<path class="st3" d="M391.3,242.6c0.8,0,1.6-0.3,2.1-0.9c0.6-0.6,0.9-1.3,0.9-2.1s-0.3-1.6-0.9-2.1c-0.6-0.6-1.3-0.9-2.1-0.9
				s-1.6,0.3-2.1,0.9c-0.6,0.6-0.9,1.3-0.9,2.1s0.3,1.6,0.9,2.1C389.8,242.3,390.5,242.6,391.3,242.6z"/>
		</g>
		<g>
			<path class="st3" d="M244.6,194.7c0.8,0,1.6-0.3,2.1-0.9s0.9-1.3,0.9-2.1s-0.3-1.6-0.9-2.1c-0.6-0.6-1.3-0.9-2.1-0.9
				s-1.6,0.3-2.1,0.9c-0.6,0.6-0.9,1.3-0.9,2.1s0.3,1.6,0.9,2.1S243.8,194.7,244.6,194.7z"/>
		</g>
		<g>
			<path class="st3" d="M278.8,218.7c0.8,0,1.6-0.3,2.1-0.9c0.6-0.6,0.9-1.3,0.9-2.1s-0.3-1.6-0.9-2.1c-0.6-0.6-1.3-0.9-2.1-0.9
				s-1.6,0.3-2.1,0.9c-0.6,0.6-0.9,1.3-0.9,2.1s0.3,1.6,0.9,2.1S278,218.7,278.8,218.7z"/>
		</g>
		<g>
			<path class="st3" d="M386.5,170.7c0.8,0,1.6-0.3,2.1-0.9c0.6-0.6,0.9-1.3,0.9-2.1s-0.3-1.6-0.9-2.1c-0.6-0.6-1.3-0.9-2.1-0.9
				s-1.6,0.3-2.1,0.9c-0.6,0.6-0.9,1.3-0.9,2.1s0.3,1.6,0.9,2.1C384.9,170.4,385.7,170.7,386.5,170.7z"/>
		</g>
		<g>
			<path class="st3" d="M215.2,146.8c0.8,0,1.6-0.3,2.1-0.9s0.9-1.3,0.9-2.1s-0.3-1.6-0.9-2.1c-0.6-0.6-1.3-0.9-2.1-0.9
				s-1.6,0.3-2.1,0.9c-0.6,0.6-0.9,1.3-0.9,2.1s0.3,1.6,0.9,2.1S214.4,146.8,215.2,146.8z"/>
		</g>
	</g>
</g>
<g id="matplotlib.axis_1">
	<g id="xtick_1">
		<g id="line2d_1">
			<rect x="109" y="130.9" class="st1" width="334.8" height="217.4"/>
			<path class="st4" d="M132,348.3V130.9"/>
		</g>
		<g id="line2d_2">
			<g>
				<g>
					<path id="mdc98d13ddb" class="st5" d="M132,348.3v3.5"/>
				</g>
			</g>
		</g>
		<g id="text_1">
			<g transform="translate(119.308798 239.238438)scale(0.1 -0.1)">
				<g>
					<path id="DejaVuSans-49" d="M12.4-1228.7h16.1v55.6l-17.5-3.5v9l17.4,3.5h9.9v-64.6h16.1v-8.3h-42
						C12.4-1237,12.4-1228.7,12.4-1228.7z"/>
				</g>
				<g>
					<path id="DejaVuSans-57" d="M74.6-1235.5v9c2.5-1.2,5-2.1,7.5-2.7s5-0.9,7.5-0.9c6.5,0,11.5,2.2,14.9,6.6s5.4,11,5.9,20
						c-1.9-2.8-4.3-5-7.2-6.5c-2.9-1.5-6.1-2.2-9.6-2.2c-7.3,0-13.1,2.2-17.3,6.6c-4.2,4.4-6.4,10.5-6.4,18.1c0,7.5,2.2,13.5,6.6,18
						s10.3,6.8,17.7,6.8c8.4,0,14.9-3.2,19.3-9.7s6.7-15.8,6.7-28.1c0-11.5-2.7-20.7-8.2-27.5c-5.4-6.9-12.8-10.3-22-10.3
						c-2.5,0-5,0.2-7.5,0.7C80-1237.2,77.3-1236.5,74.6-1235.5z M94.2-1204.6c4.4,0,7.9,1.5,10.5,4.5s3.9,7.2,3.9,12.5
						c0,5.2-1.3,9.4-3.9,12.4s-6.1,4.6-10.5,4.6s-7.9-1.5-10.5-4.6c-2.6-3-3.9-7.2-3.9-12.4c0-5.3,1.3-9.4,3.9-12.5
						C86.3-1203.1,89.8-1204.6,94.2-1204.6z"/>
				</g>
				<g>
					<path id="DejaVuSans-54" d="M160.3-1196.6c-4.4,0-7.9-1.5-10.5-4.5s-3.9-7.2-3.9-12.4c0-5.2,1.3-9.4,3.9-12.4
						c2.6-3,6.1-4.6,10.5-4.6s7.9,1.5,10.5,4.6s3.9,7.2,3.9,12.4c0,5.3-1.3,9.4-3.9,12.4C168.2-1198.1,164.7-1196.6,160.3-1196.6z
						 M179.8-1165.7v-9c-2.5,1.2-5,2.1-7.5,2.7s-5,0.9-7.5,0.9c-6.5,0-11.5-2.2-14.9-6.6s-5.4-11-5.9-19.9c1.9,2.8,4.3,5,7.2,6.5
						s6.1,2.3,9.6,2.3c7.3,0,13.1-2.2,17.4-6.7c4.2-4.4,6.4-10.5,6.4-18.1c0-7.5-2.2-13.5-6.6-18c-4.4-4.5-10.3-6.8-17.7-6.8
						c-8.4,0-14.9,3.2-19.3,9.7c-4.5,6.5-6.7,15.8-6.7,28.1c0,11.5,2.7,20.7,8.2,27.6s12.8,10.3,22,10.3c2.5,0,5-0.2,7.5-0.7
						C174.5-1164,177.1-1164.7,179.8-1165.7z"/>
				</g>
				<g>
					<path id="DejaVuSans-48" d="M222.7-1170.6c-5.1,0-8.9-2.5-11.5-7.5s-3.8-12.5-3.8-22.5s1.3-17.5,3.8-22.5
						c2.6-5,6.4-7.5,11.5-7.5s8.9,2.5,11.5,7.5s3.8,12.5,3.8,22.5s-1.3,17.5-3.8,22.5C231.6-1173.1,227.8-1170.6,222.7-1170.6z
						 M222.7-1162.8c8.2,0,14.4-3.2,18.7-9.7s6.5-15.8,6.5-28.1c0-12.3-2.2-21.6-6.5-28.1s-10.6-9.7-18.7-9.7
						c-8.2,0-14.4,3.2-18.7,9.7s-6.5,15.8-6.5,28.1c0,12.3,2.2,21.7,6.5,28.1C208.2-1166,214.5-1162.8,222.7-1162.8z"/>
				</g>
			</g>
		</g>
	</g>
	<g id="xtick_2">
		<g id="line2d_3">
			<rect x="109" y="130.9" class="st1" width="334.8" height="217.4"/>
			<path class="st4" d="M181,348.3V130.9"/>
		</g>
		<g id="line2d_4">
			<g>
				<g>
					<path class="st5" d="M181,348.3v3.5"/>
				</g>
			</g>
		</g>
		<g id="text_2">
			<g transform="translate(168.235223 239.238438)scale(0.1 -0.1)">
				<g>
					<path d="M12.4-1228.7h16.1v55.6l-17.5-3.5v9l17.4,3.5h9.9v-64.6h16.1v-8.3h-42C12.4-1237,12.4-1228.7,12.4-1228.7z"/>
				</g>
				<g>
					<path d="M74.6-1235.5v9c2.5-1.2,5-2.1,7.5-2.7s5-0.9,7.5-0.9c6.5,0,11.5,2.2,14.9,6.6s5.4,11,5.9,20c-1.9-2.8-4.3-5-7.2-6.5
						c-2.9-1.5-6.1-2.2-9.6-2.2c-7.3,0-13.1,2.2-17.3,6.6c-4.2,4.4-6.4,10.5-6.4,18.1c0,7.5,2.2,13.5,6.6,18s10.3,6.8,17.7,6.8
						c8.4,0,14.9-3.2,19.3-9.7s6.7-15.8,6.7-28.1c0-11.5-2.7-20.7-8.2-27.5c-5.4-6.9-12.8-10.3-22-10.3c-2.5,0-5,0.2-7.5,0.7
						C80-1237.2,77.3-1236.5,74.6-1235.5z M94.2-1204.6c4.4,0,7.9,1.5,10.5,4.5s3.9,7.2,3.9,12.5c0,5.2-1.3,9.4-3.9,12.4
						s-6.1,4.6-10.5,4.6s-7.9-1.5-10.5-4.6c-2.6-3-3.9-7.2-3.9-12.4c0-5.3,1.3-9.4,3.9-12.5C86.3-1203.1,89.8-1204.6,94.2-1204.6z"
						/>
				</g>
				<g>
					<path id="DejaVuSans-55" d="M135.4-1164.1h46.9v-4.2l-26.5-68.7h-10.3l24.9,64.6h-35C135.4-1172.4,135.4-1164.1,135.4-1164.1z"
						/>
				</g>
				<g>
					<path d="M222.7-1170.6c-5.1,0-8.9-2.5-11.5-7.5s-3.8-12.5-3.8-22.5s1.3-17.5,3.8-22.5c2.6-5,6.4-7.5,11.5-7.5s8.9,2.5,11.5,7.5
						s3.8,12.5,3.8,22.5s-1.3,17.5-3.8,22.5C231.6-1173.1,227.8-1170.6,222.7-1170.6z M222.7-1162.8c8.2,0,14.4-3.2,18.7-9.7
						s6.5-15.8,6.5-28.1c0-12.3-2.2-21.6-6.5-28.1s-10.6-9.7-18.7-9.7c-8.2,0-14.4,3.2-18.7,9.7s-6.5,15.8-6.5,28.1
						c0,12.3,2.2,21.7,6.5,28.1C208.2-1166,214.5-1162.8,222.7-1162.8z"/>
				</g>
			</g>
		</g>
	</g>
	<g id="xtick_3">
		<g id="line2d_5">
			<rect x="109" y="130.9" class="st1" width="334.8" height="217.4"/>
			<path class="st4" d="M229.9,348.3V130.9"/>
		</g>
		<g id="line2d_6">
			<g>
				<g>
					<path class="st5" d="M229.9,348.3v3.5"/>
				</g>
			</g>
		</g>
		<g id="text_3">
			<g transform="translate(217.161648 239.238438)scale(0.1 -0.1)">
				<g>
					<path d="M12.4-1228.7h16.1v55.6l-17.5-3.5v9l17.4,3.5h9.9v-64.6h16.1v-8.3h-42C12.4-1237,12.4-1228.7,12.4-1228.7z"/>
				</g>
				<g>
					<path d="M74.6-1235.5v9c2.5-1.2,5-2.1,7.5-2.7s5-0.9,7.5-0.9c6.5,0,11.5,2.2,14.9,6.6s5.4,11,5.9,20c-1.9-2.8-4.3-5-7.2-6.5
						c-2.9-1.5-6.1-2.2-9.6-2.2c-7.3,0-13.1,2.2-17.3,6.6c-4.2,4.4-6.4,10.5-6.4,18.1c0,7.5,2.2,13.5,6.6,18s10.3,6.8,17.7,6.8
						c8.4,0,14.9-3.2,19.3-9.7s6.7-15.8,6.7-28.1c0-11.5-2.7-20.7-8.2-27.5c-5.4-6.9-12.8-10.3-22-10.3c-2.5,0-5,0.2-7.5,0.7
						C80-1237.2,77.3-1236.5,74.6-1235.5z M94.2-1204.6c4.4,0,7.9,1.5,10.5,4.5s3.9,7.2,3.9,12.5c0,5.2-1.3,9.4-3.9,12.4
						s-6.1,4.6-10.5,4.6s-7.9-1.5-10.5-4.6c-2.6-3-3.9-7.2-3.9-12.4c0-5.3,1.3-9.4,3.9-12.5C86.3-1203.1,89.8-1204.6,94.2-1204.6z"
						/>
				</g>
				<g>
					<path id="DejaVuSans-56" d="M159-1202.4c-4.7,0-8.4-1.3-11.1-3.8c-2.7-2.5-4-6-4-10.3c0-4.4,1.3-7.8,4-10.4
						c2.7-2.5,6.4-3.8,11.1-3.8s8.4,1.3,11.1,3.8c2.7,2.5,4.1,6,4.1,10.3c0,4.4-1.3,7.8-4,10.3
						C167.5-1203.6,163.8-1202.4,159-1202.4z M149.2-1198.2c-4.2,1-7.5,3-9.9,5.9s-3.5,6.4-3.5,10.6c0,5.8,2.1,10.4,6.2,13.8
						c4.2,3.4,9.8,5.1,17.1,5.1s13-1.7,17.1-5.1s6.2-8,6.2-13.8c0-4.2-1.2-7.7-3.5-10.6c-2.4-2.9-5.6-4.9-9.8-5.9
						c4.8-1.1,8.4-3.3,11.1-6.5c2.7-3.2,4-7.2,4-11.8c0-7.1-2.2-12.5-6.5-16.3s-10.5-5.7-18.5-5.7s-14.2,1.9-18.5,5.7
						c-4.3,3.8-6.5,9.2-6.5,16.3c0,4.6,1.3,8.6,4,11.8C140.7-1201.5,144.4-1199.3,149.2-1198.2z M145.6-1182.6
						c0-3.8,1.2-6.7,3.5-8.8c2.4-2.1,5.7-3.2,9.9-3.2s7.6,1.1,9.9,3.2c2.4,2.1,3.6,5.1,3.6,8.8c0,3.8-1.2,6.7-3.6,8.8
						c-2.4,2.1-5.7,3.2-9.9,3.2c-4.3,0-7.6-1.1-9.9-3.2C146.7-1175.9,145.6-1178.8,145.6-1182.6z"/>
				</g>
				<g>
					<path d="M222.7-1170.6c-5.1,0-8.9-2.5-11.5-7.5s-3.8-12.5-3.8-22.5s1.3-17.5,3.8-22.5c2.6-5,6.4-7.5,11.5-7.5s8.9,2.5,11.5,7.5
						s3.8,12.5,3.8,22.5s-1.3,17.5-3.8,22.5C231.6-1173.1,227.8-1170.6,222.7-1170.6z M222.7-1162.8c8.2,0,14.4-3.2,18.7-9.7
						s6.5-15.8,6.5-28.1c0-12.3-2.2-21.6-6.5-28.1s-10.6-9.7-18.7-9.7c-8.2,0-14.4,3.2-18.7,9.7s-6.5,15.8-6.5,28.1
						c0,12.3,2.2,21.7,6.5,28.1C208.2-1166,214.5-1162.8,222.7-1162.8z"/>
				</g>
			</g>
		</g>
	</g>
	<g id="xtick_4">
		<g id="line2d_7">
			<rect x="109" y="130.9" class="st1" width="334.8" height="217.4"/>
			<path class="st4" d="M278.8,348.3V130.9"/>
		</g>
		<g id="line2d_8">
			<g>
				<g>
					<path class="st5" d="M278.8,348.3v3.5"/>
				</g>
			</g>
		</g>
		<g id="text_4">
			<g transform="translate(266.088074 239.238438)scale(0.1 -0.1)">
				<g>
					<path d="M12.4-1228.7h16.1v55.6l-17.5-3.5v9l17.4,3.5h9.9v-64.6h16.1v-8.3h-42C12.4-1237,12.4-1228.7,12.4-1228.7z"/>
				</g>
				<g>
					<path d="M74.6-1235.5v9c2.5-1.2,5-2.1,7.5-2.7s5-0.9,7.5-0.9c6.5,0,11.5,2.2,14.9,6.6s5.4,11,5.9,20c-1.9-2.8-4.3-5-7.2-6.5
						c-2.9-1.5-6.1-2.2-9.6-2.2c-7.3,0-13.1,2.2-17.3,6.6c-4.2,4.4-6.4,10.5-6.4,18.1c0,7.5,2.2,13.5,6.6,18s10.3,6.8,17.7,6.8
						c8.4,0,14.9-3.2,19.3-9.7s6.7-15.8,6.7-28.1c0-11.5-2.7-20.7-8.2-27.5c-5.4-6.9-12.8-10.3-22-10.3c-2.5,0-5,0.2-7.5,0.7
						C80-1237.2,77.3-1236.5,74.6-1235.5z M94.2-1204.6c4.4,0,7.9,1.5,10.5,4.5s3.9,7.2,3.9,12.5c0,5.2-1.3,9.4-3.9,12.4
						s-6.1,4.6-10.5,4.6s-7.9-1.5-10.5-4.6c-2.6-3-3.9-7.2-3.9-12.4c0-5.3,1.3-9.4,3.9-12.5C86.3-1203.1,89.8-1204.6,94.2-1204.6z"
						/>
				</g>
				<g>
					<path d="M138.2-1235.5v9c2.5-1.2,5-2.1,7.5-2.7s5-0.9,7.5-0.9c6.5,0,11.5,2.2,14.9,6.6s5.4,11,5.9,20c-1.9-2.8-4.3-5-7.2-6.5
						s-6.1-2.2-9.6-2.2c-7.3,0-13.1,2.2-17.3,6.6s-6.4,10.5-6.4,18.1c0,7.5,2.2,13.5,6.6,18c4.4,4.5,10.3,6.8,17.7,6.8
						c8.4,0,14.9-3.2,19.3-9.7c4.4-6.5,6.7-15.8,6.7-28.1c0-11.5-2.7-20.7-8.2-27.5c-5.4-6.9-12.8-10.3-22-10.3
						c-2.5,0-5,0.2-7.5,0.7C143.6-1237.2,141-1236.5,138.2-1235.5z M157.9-1204.6c4.4,0,7.9,1.5,10.5,4.5s3.9,7.2,3.9,12.5
						c0,5.2-1.3,9.4-3.9,12.4c-2.6,3-6.1,4.6-10.5,4.6s-7.9-1.5-10.5-4.6c-2.6-3-3.9-7.2-3.9-12.4c0-5.3,1.3-9.4,3.9-12.5
						C149.9-1203.1,153.4-1204.6,157.9-1204.6z"/>
				</g>
				<g>
					<path d="M222.7-1170.6c-5.1,0-8.9-2.5-11.5-7.5s-3.8-12.5-3.8-22.5s1.3-17.5,3.8-22.5c2.6-5,6.4-7.5,11.5-7.5s8.9,2.5,11.5,7.5
						s3.8,12.5,3.8,22.5s-1.3,17.5-3.8,22.5C231.6-1173.1,227.8-1170.6,222.7-1170.6z M222.7-1162.8c8.2,0,14.4-3.2,18.7-9.7
						s6.5-15.8,6.5-28.1c0-12.3-2.2-21.6-6.5-28.1s-10.6-9.7-18.7-9.7c-8.2,0-14.4,3.2-18.7,9.7s-6.5,15.8-6.5,28.1
						c0,12.3,2.2,21.7,6.5,28.1C208.2-1166,214.5-1162.8,222.7-1162.8z"/>
				</g>
			</g>
		</g>
	</g>
	<g id="xtick_5">
		<g id="line2d_9">
			<rect x="109" y="130.9" class="st1" width="334.8" height="217.4"/>
			<path class="st4" d="M327.7,348.3V130.9"/>
		</g>
		<g id="line2d_10">
			<g>
				<g>
					<path class="st5" d="M327.7,348.3v3.5"/>
				</g>
			</g>
		</g>
		<g id="text_5">
			<g transform="translate(315.014499 239.238438)scale(0.1 -0.1)">
				<g>
					<path id="DejaVuSans-50" d="M19.2-1228.7h34.4v-8.3H7.3v8.3c3.7,3.9,8.8,9.1,15.3,15.6s10.5,10.7,12.2,12.6
						c3.2,3.5,5.4,6.5,6.6,9c1.3,2.5,1.9,4.9,1.9,7.2c0,3.9-1.4,7-4.1,9.5c-2.7,2.4-6.3,3.7-10.6,3.7c-3.1,0-6.4-0.5-9.8-1.6
						s-7.1-2.7-11-4.9v10c4,1.6,7.7,2.8,11.1,3.6c3.5,0.8,6.6,1.2,9.5,1.2c7.6,0,13.6-1.9,18.1-5.7c4.5-3.8,6.7-8.8,6.7-15.1
						c0-3-0.6-5.8-1.7-8.5c-1.1-2.7-3.2-5.8-6.1-9.5c-0.8-0.9-3.4-3.7-7.8-8.2C33.3-1214.3,27.1-1220.6,19.2-1228.7z"/>
				</g>
				<g>
					<path d="M95.4-1170.6c-5.1,0-8.9-2.5-11.5-7.5s-3.8-12.5-3.8-22.5s1.3-17.5,3.8-22.5c2.6-5,6.4-7.5,11.5-7.5s8.9,2.5,11.5,7.5
						s3.8,12.5,3.8,22.5s-1.3,17.5-3.8,22.5S100.5-1170.6,95.4-1170.6z M95.4-1162.8c8.2,0,14.4-3.2,18.7-9.7s6.5-15.8,6.5-28.1
						c0-12.3-2.2-21.6-6.5-28.1s-10.6-9.7-18.7-9.7c-8.2,0-14.4,3.2-18.7,9.7c-4.3,6.5-6.5,15.8-6.5,28.1c0,12.3,2.2,21.7,6.5,28.1
						C81-1166,87.2-1162.8,95.4-1162.8z"/>
				</g>
				<g>
					<path d="M159-1170.6c-5.1,0-8.9-2.5-11.5-7.5s-3.8-12.5-3.8-22.5s1.3-17.5,3.8-22.5c2.6-5,6.4-7.5,11.5-7.5s8.9,2.5,11.5,7.5
						s3.8,12.5,3.8,22.5s-1.3,17.5-3.8,22.5S164.1-1170.6,159-1170.6z M159-1162.8c8.2,0,14.4-3.2,18.7-9.7s6.5-15.8,6.5-28.1
						c0-12.3-2.2-21.6-6.5-28.1s-10.6-9.7-18.7-9.7c-8.2,0-14.4,3.2-18.7,9.7s-6.5,15.8-6.5,28.1c0,12.3,2.2,21.7,6.5,28.1
						C144.6-1166,150.9-1162.8,159-1162.8z"/>
				</g>
				<g>
					<path d="M222.7-1170.6c-5.1,0-8.9-2.5-11.5-7.5s-3.8-12.5-3.8-22.5s1.3-17.5,3.8-22.5c2.6-5,6.4-7.5,11.5-7.5s8.9,2.5,11.5,7.5
						s3.8,12.5,3.8,22.5s-1.3,17.5-3.8,22.5C231.6-1173.1,227.8-1170.6,222.7-1170.6z M222.7-1162.8c8.2,0,14.4-3.2,18.7-9.7
						s6.5-15.8,6.5-28.1c0-12.3-2.2-21.6-6.5-28.1s-10.6-9.7-18.7-9.7c-8.2,0-14.4,3.2-18.7,9.7s-6.5,15.8-6.5,28.1
						c0,12.3,2.2,21.7,6.5,28.1C208.2-1166,214.5-1162.8,222.7-1162.8z"/>
				</g>
			</g>
		</g>
	</g>
	<g id="xtick_6">
		<g id="line2d_11">
			<rect x="109" y="130.9" class="st1" width="334.8" height="217.4"/>
			<path class="st4" d="M376.7,348.3V130.9"/>
		</g>
		<g id="line2d_12">
			<g>
				<g>
					<path class="st5" d="M376.7,348.3v3.5"/>
				</g>
			</g>
		</g>
		<g id="text_6">
			<g transform="translate(363.940924 239.238438)scale(0.1 -0.1)">
				<g>
					<path d="M19.2-1228.7h34.4v-8.3H7.3v8.3c3.7,3.9,8.8,9.1,15.3,15.6s10.5,10.7,12.2,12.6c3.2,3.5,5.4,6.5,6.6,9
						c1.3,2.5,1.9,4.9,1.9,7.2c0,3.9-1.4,7-4.1,9.5c-2.7,2.4-6.3,3.7-10.6,3.7c-3.1,0-6.4-0.5-9.8-1.6s-7.1-2.7-11-4.9v10
						c4,1.6,7.7,2.8,11.1,3.6c3.5,0.8,6.6,1.2,9.5,1.2c7.6,0,13.6-1.9,18.1-5.7c4.5-3.8,6.7-8.8,6.7-15.1c0-3-0.6-5.8-1.7-8.5
						c-1.1-2.7-3.2-5.8-6.1-9.5c-0.8-0.9-3.4-3.7-7.8-8.2C33.3-1214.3,27.1-1220.6,19.2-1228.7z"/>
				</g>
				<g>
					<path d="M95.4-1170.6c-5.1,0-8.9-2.5-11.5-7.5s-3.8-12.5-3.8-22.5s1.3-17.5,3.8-22.5c2.6-5,6.4-7.5,11.5-7.5s8.9,2.5,11.5,7.5
						s3.8,12.5,3.8,22.5s-1.3,17.5-3.8,22.5S100.5-1170.6,95.4-1170.6z M95.4-1162.8c8.2,0,14.4-3.2,18.7-9.7s6.5-15.8,6.5-28.1
						c0-12.3-2.2-21.6-6.5-28.1s-10.6-9.7-18.7-9.7c-8.2,0-14.4,3.2-18.7,9.7c-4.3,6.5-6.5,15.8-6.5,28.1c0,12.3,2.2,21.7,6.5,28.1
						C81-1166,87.2-1162.8,95.4-1162.8z"/>
				</g>
				<g>
					<path d="M139.7-1228.7h16.1v55.6l-17.5-3.5v9l17.4,3.5h9.9v-64.6h16.1v-8.3h-42V-1228.7z"/>
				</g>
				<g>
					<path d="M222.7-1170.6c-5.1,0-8.9-2.5-11.5-7.5s-3.8-12.5-3.8-22.5s1.3-17.5,3.8-22.5c2.6-5,6.4-7.5,11.5-7.5s8.9,2.5,11.5,7.5
						s3.8,12.5,3.8,22.5s-1.3,17.5-3.8,22.5C231.6-1173.1,227.8-1170.6,222.7-1170.6z M222.7-1162.8c8.2,0,14.4-3.2,18.7-9.7
						s6.5-15.8,6.5-28.1c0-12.3-2.2-21.6-6.5-28.1s-10.6-9.7-18.7-9.7c-8.2,0-14.4,3.2-18.7,9.7s-6.5,15.8-6.5,28.1
						c0,12.3,2.2,21.7,6.5,28.1C208.2-1166,214.5-1162.8,222.7-1162.8z"/>
				</g>
			</g>
		</g>
	</g>
	<g id="xtick_7">
		<g id="line2d_13">
			<rect x="109" y="130.9" class="st1" width="334.8" height="217.4"/>
			<path class="st4" d="M425.6,348.3V130.9"/>
		</g>
		<g id="line2d_14">
			<g>
				<g>
					<path class="st5" d="M425.6,348.3v3.5"/>
				</g>
			</g>
		</g>
		<g id="text_7">
			<g transform="translate(412.867349 239.238438)scale(0.1 -0.1)">
				<g>
					<path d="M19.2-1228.7h34.4v-8.3H7.3v8.3c3.7,3.9,8.8,9.1,15.3,15.6s10.5,10.7,12.2,12.6c3.2,3.5,5.4,6.5,6.6,9
						c1.3,2.5,1.9,4.9,1.9,7.2c0,3.9-1.4,7-4.1,9.5c-2.7,2.4-6.3,3.7-10.6,3.7c-3.1,0-6.4-0.5-9.8-1.6s-7.1-2.7-11-4.9v10
						c4,1.6,7.7,2.8,11.1,3.6c3.5,0.8,6.6,1.2,9.5,1.2c7.6,0,13.6-1.9,18.1-5.7c4.5-3.8,6.7-8.8,6.7-15.1c0-3-0.6-5.8-1.7-8.5
						c-1.1-2.7-3.2-5.8-6.1-9.5c-0.8-0.9-3.4-3.7-7.8-8.2C33.3-1214.3,27.1-1220.6,19.2-1228.7z"/>
				</g>
				<g>
					<path d="M95.4-1170.6c-5.1,0-8.9-2.5-11.5-7.5s-3.8-12.5-3.8-22.5s1.3-17.5,3.8-22.5c2.6-5,6.4-7.5,11.5-7.5s8.9,2.5,11.5,7.5
						s3.8,12.5,3.8,22.5s-1.3,17.5-3.8,22.5S100.5-1170.6,95.4-1170.6z M95.4-1162.8c8.2,0,14.4-3.2,18.7-9.7s6.5-15.8,6.5-28.1
						c0-12.3-2.2-21.6-6.5-28.1s-10.6-9.7-18.7-9.7c-8.2,0-14.4,3.2-18.7,9.7c-4.3,6.5-6.5,15.8-6.5,28.1c0,12.3,2.2,21.7,6.5,28.1
						C81-1166,87.2-1162.8,95.4-1162.8z"/>
				</g>
				<g>
					<path d="M146.4-1228.7h34.4v-8.3h-46.3v8.3c3.7,3.9,8.8,9.1,15.3,15.6s10.5,10.7,12.2,12.6c3.2,3.5,5.4,6.5,6.6,9
						c1.3,2.5,1.9,4.9,1.9,7.2c0,3.9-1.4,7-4.1,9.5c-2.7,2.4-6.3,3.7-10.6,3.7c-3.1,0-6.4-0.5-9.8-1.6c-3.4-1.1-7.1-2.7-11-4.9v10
						c4,1.6,7.7,2.8,11.1,3.6c3.5,0.8,6.6,1.2,9.5,1.2c7.6,0,13.6-1.9,18.1-5.7c4.5-3.8,6.7-8.8,6.7-15.1c0-3-0.6-5.8-1.7-8.5
						c-1.1-2.7-3.2-5.8-6.1-9.5c-0.8-0.9-3.4-3.7-7.8-8.2C160.5-1214.3,154.4-1220.6,146.4-1228.7z"/>
				</g>
				<g>
					<path d="M222.7-1170.6c-5.1,0-8.9-2.5-11.5-7.5s-3.8-12.5-3.8-22.5s1.3-17.5,3.8-22.5c2.6-5,6.4-7.5,11.5-7.5s8.9,2.5,11.5,7.5
						s3.8,12.5,3.8,22.5s-1.3,17.5-3.8,22.5C231.6-1173.1,227.8-1170.6,222.7-1170.6z M222.7-1162.8c8.2,0,14.4-3.2,18.7-9.7
						s6.5-15.8,6.5-28.1c0-12.3-2.2-21.6-6.5-28.1s-10.6-9.7-18.7-9.7c-8.2,0-14.4,3.2-18.7,9.7s-6.5,15.8-6.5,28.1
						c0,12.3,2.2,21.7,6.5,28.1C208.2-1166,214.5-1162.8,222.7-1162.8z"/>
				</g>
			</g>
		</g>
	</g>
</g>
<g id="ytick_1">
	<g id="text_8">
		<g transform="translate(7.2 191.598502)scale(0.1 -0.1)">
			<g>
				<path id="DejaVuSans-84" d="M-0.3-1164.1h61.7v-8.3H35.5v-64.6h-9.9v64.6H-0.3V-1164.1z"/>
			</g>
			<g>
				<path id="DejaVuSans-97" d="M95.1-1209.5c-7.3,0-12.3-0.8-15.1-2.5s-4.2-4.5-4.2-8.5c0-3.2,1.1-5.7,3.2-7.6s5-2.8,8.6-2.8
					c5,0,9,1.8,12,5.3s4.5,8.2,4.5,14.1v2H95.1z M113-1205.8v-31.2h-9v8.3c-2.1-3.3-4.6-5.8-7.7-7.3c-3.1-1.6-6.8-2.4-11.2-2.4
					c-5.6,0-10,1.6-13.4,4.7c-3.3,3.1-5,7.4-5,12.6c0,6.1,2.1,10.8,6.2,13.9s10.3,4.7,18.4,4.7h12.6v0.9c0,4.1-1.4,7.3-4.1,9.6
					c-2.7,2.3-6.5,3.4-11.5,3.4c-3.1,0-6.2-0.4-9.1-1.1c-3-0.8-5.8-1.9-8.5-3.4v8.3c3.3,1.3,6.5,2.2,9.6,2.8c3.1,0.6,6.1,1,9,1
					c7.9,0,13.8-2.1,17.7-6.2C111.1-1191.3,113-1197.5,113-1205.8z"/>
			</g>
			<g>
				<path id="DejaVuSans-109" d="M174.1-1192.8c2.2,4,4.9,7,8.1,8.9c3.1,1.9,6.8,2.9,11,2.9c5.7,0,10.1-2,13.2-6
					c3.1-4,4.6-9.6,4.6-17v-33h-9v32.7c0,5.2-0.9,9.1-2.8,11.7c-1.9,2.5-4.7,3.8-8.5,3.8c-4.7,0-8.3-1.5-11-4.6s-4-7.3-4-12.6v-30.9
					h-9v32.7c0,5.3-0.9,9.2-2.8,11.7c-1.9,2.5-4.7,3.8-8.6,3.8c-4.6,0-8.2-1.6-11-4.7c-2.7-3.1-4-7.3-4-12.6v-30.9h-9v54.7h9v-8.5
					c2.1,3.4,4.5,5.8,7.4,7.4s6.3,2.4,10.2,2.4c4,0,7.4-1,10.1-3C170.7-1186,172.8-1189,174.1-1192.8z"/>
			</g>
			<g>
				<path d="M271.5-1192.8c2.2,4,4.9,7,8.1,8.9c3.1,1.9,6.8,2.9,11,2.9c5.7,0,10.1-2,13.2-6s4.6-9.6,4.6-17v-33h-9v32.7
					c0,5.2-0.9,9.1-2.8,11.7c-1.9,2.5-4.7,3.8-8.5,3.8c-4.7,0-8.3-1.5-11-4.6s-4-7.3-4-12.6v-30.9h-9v32.7c0,5.3-0.9,9.2-2.8,11.7
					s-4.7,3.8-8.6,3.8c-4.6,0-8.2-1.6-11-4.7c-2.7-3.1-4-7.3-4-12.6v-30.9h-9v54.7h9v-8.5c2.1,3.4,4.5,5.8,7.4,7.4s6.3,2.4,10.2,2.4
					c4,0,7.4-1,10.1-3C268.1-1186,270.2-1189,271.5-1192.8z"/>
			</g>
			<g>
				<path id="DejaVuSans-121" d="M349.1-1242.1c-2.5-6.5-5-10.8-7.4-12.7c-2.4-2-5.6-3-9.7-3h-7.2v7.5h5.3c2.5,0,4.4,0.6,5.8,1.8
					c1.4,1.2,2.9,3.9,4.5,8.3l1.6,4.1l-22.1,53.8h9.5l17.1-42.8l17.1,42.8h9.5L349.1-1242.1z"/>
			</g>
			<g>
				<path id="DejaVuSans-32" d="M376.1-1237"/>
			</g>
			<g>
				<path id="DejaVuSans-68" d="M427.6-1172.2v-56.7h11.9c10.1,0,17.4,2.3,22.1,6.8c4.7,4.6,7,11.8,7,21.6c0,9.8-2.3,16.9-7,21.5
					c-4.7,4.5-12,6.8-22.1,6.8L427.6-1172.2L427.6-1172.2z M417.7-1164.1H438c14.1,0,24.5-2.9,31.1-8.8s9.9-15.1,9.9-27.6
					c0-12.6-3.3-21.8-10-27.7c-6.6-5.9-17-8.8-31-8.8h-20.3V-1164.1z"/>
			</g>
			<g>
				<path id="DejaVuSans-117" d="M493.4-1215.4v33.1h9v-32.8c0-5.2,1-9.1,3-11.7s5.1-3.9,9.1-3.9c4.8,0,8.7,1.5,11.5,4.6
					s4.2,7.3,4.2,12.7v31h9v-54.7h-9v8.4c-2.2-3.3-4.7-5.8-7.6-7.4c-2.9-1.6-6.2-2.4-10-2.4c-6.3,0-11.1,2-14.3,5.9
					C495-1228.7,493.4-1222.9,493.4-1215.4z"/>
			</g>
			<g>
				<path id="DejaVuSans-99" d="M597.1-1184.4v-8.4c-2.5,1.4-5.1,2.5-7.6,3.2c-2.6,0.7-5.1,1-7.7,1c-5.8,0-10.4-1.8-13.6-5.5
					c-3.2-3.7-4.8-8.9-4.8-15.5c0-6.7,1.6-11.9,4.8-15.6s7.8-5.5,13.6-5.5c2.6,0,5.2,0.3,7.7,1c2.6,0.7,5.1,1.8,7.6,3.2v-8.3
					c-2.5-1.2-5.1-2-7.8-2.6s-5.5-0.9-8.6-0.9c-8.2,0-14.8,2.6-19.6,7.8c-4.8,5.2-7.3,12.2-7.3,21c0,8.9,2.4,15.9,7.3,21
					c4.9,5.1,11.6,7.7,20.2,7.7c2.8,0,5.5-0.3,8.1-0.9C592-1182.4,594.6-1183.3,597.1-1184.4z"/>
			</g>
			<g>
				<path id="DejaVuSans-107" d="M612.3-1161h9v-44.9l26.8,23.6h11.5l-29-25.6l30.2-29.1h-11.7l-27.8,26.7v-26.7h-9V-1161z"/>
			</g>
			<g>
				<path id="DejaVuSans-119" d="M665.4-1182.3h9l11.2-42.7l11.2,42.7h10.6l11.2-42.7l11.2,42.7h9l-14.3-54.7h-10.6l-11.8,44.8
					l-11.8-44.8h-10.6L665.4-1182.3z"/>
			</g>
			<g>
				<path id="DejaVuSans-111" d="M773.6-1188.6c-4.8,0-8.6-1.9-11.4-5.6c-2.8-3.8-4.2-8.9-4.2-15.5c0-6.5,1.4-11.7,4.2-15.5
					s6.6-5.6,11.5-5.6c4.8,0,8.6,1.9,11.4,5.7c2.8,3.8,4.2,8.9,4.2,15.4s-1.4,11.6-4.2,15.4C782.2-1190.5,778.4-1188.6,773.6-1188.6
					z M773.6-1181c7.8,0,13.9-2.5,18.4-7.6s6.7-12.1,6.7-21.1c0-8.9-2.2-16-6.7-21.1s-10.6-7.6-18.4-7.6c-7.8,0-14,2.5-18.4,7.6
					s-6.7,12.1-6.7,21.1s2.2,16,6.7,21.1C759.6-1183.5,765.7-1181,773.6-1181z"/>
			</g>
			<g>
				<path id="DejaVuSans-114" d="M845.3-1190.7c-1,0.6-2.1,1-3.3,1.3s-2.5,0.4-3.9,0.4c-5.1,0-9-1.7-11.7-5s-4.1-8-4.1-14.2v-28.8
					h-9v54.7h9v-8.5c1.9,3.3,4.4,5.8,7.4,7.4s6.7,2.4,11,2.4c0.6,0,1.3,0,2-0.1c0.8-0.1,1.6-0.2,2.5-0.4L845.3-1190.7z"/>
			</g>
			<g>
				<path id="DejaVuSans-116" d="M863.6-1166.8v-15.5h18.5v-7h-18.5v-29.7c0-4.5,0.6-7.3,1.8-8.6c1.2-1.3,3.7-1.9,7.5-1.9h9.2v-7.5
					h-9.2c-6.9,0-11.7,1.3-14.4,3.9c-2.6,2.6-4,7.3-4,14.1v29.7h-6.6v7h6.6v15.5H863.6z"/>
			</g>
			<g>
				<path id="DejaVuSans-104" d="M939.4-1204v-33h-9v32.7c0,5.2-1,9-3,11.6s-5,3.9-9.1,3.9c-4.9,0-8.7-1.5-11.5-4.6
					s-4.2-7.3-4.2-12.6v-30.9h-9v76h9v-29.8c2.2,3.3,4.7,5.8,7.6,7.4c2.9,1.6,6.3,2.4,10.1,2.4c6.3,0,11-1.9,14.2-5.8
					C937.7-1190.7,939.4-1196.4,939.4-1204z"/>
			</g>
		</g>
	</g>
</g>
<g id="ytick_2">
	<g id="text_9">
		<g transform="translate(31.4875 215.558263)scale(0.1 -0.1)">
			<g>
				<path id="DejaVuSans-75" d="M9.8-1164.1h9.9v-30.8l32.7,30.8h12.7l-36.2-34l38.8-38.9h-13l-35,35.1v-35.1H9.8V-1164.1z"/>
			</g>
			<g>
				<path d="M99.8-1209.5c-7.3,0-12.3-0.8-15.1-2.5c-2.8-1.7-4.2-4.5-4.2-8.5c0-3.2,1.1-5.7,3.2-7.6s5-2.8,8.6-2.8c5,0,9,1.8,12,5.3
					s4.5,8.2,4.5,14.1v2H99.8z M117.8-1205.8v-31.2h-9v8.3c-2.1-3.3-4.6-5.8-7.7-7.3c-3.1-1.6-6.8-2.4-11.2-2.4
					c-5.6,0-10,1.6-13.4,4.7c-3.3,3.1-5,7.4-5,12.6c0,6.1,2.1,10.8,6.2,13.9s10.3,4.7,18.4,4.7h12.6v0.9c0,4.1-1.4,7.3-4.1,9.6
					c-2.7,2.3-6.5,3.4-11.5,3.4c-3.1,0-6.2-0.4-9.1-1.1c-3-0.8-5.8-1.9-8.5-3.4v8.3c3.3,1.3,6.5,2.2,9.6,2.8c3.1,0.6,6.1,1,9,1
					c7.9,0,13.8-2.1,17.7-6.2C115.8-1191.3,117.8-1197.5,117.8-1205.8z"/>
			</g>
			<g>
				<path d="M178.8-1192.8c2.2,4,4.9,7,8.1,8.9c3.1,1.9,6.8,2.9,11,2.9c5.7,0,10.1-2,13.2-6c3.1-4,4.6-9.6,4.6-17v-33h-9v32.7
					c0,5.2-0.9,9.1-2.8,11.7c-1.9,2.5-4.7,3.8-8.5,3.8c-4.7,0-8.3-1.5-11-4.6s-4-7.3-4-12.6v-30.9h-9v32.7c0,5.3-0.9,9.2-2.8,11.7
					c-1.9,2.5-4.7,3.8-8.6,3.8c-4.6,0-8.2-1.6-11-4.7c-2.7-3.1-4-7.3-4-12.6v-30.9h-9v54.7h9v-8.5c2.1,3.4,4.5,5.8,7.4,7.4
					s6.3,2.4,10.2,2.4c4,0,7.4-1,10.1-3C175.4-1186,177.5-1189,178.8-1192.8z"/>
			</g>
			<g>
				<path d="M258.5-1209.5c-7.3,0-12.3-0.8-15.1-2.5s-4.2-4.5-4.2-8.5c0-3.2,1.1-5.7,3.2-7.6c2.1-1.9,5-2.8,8.6-2.8
					c5,0,9,1.8,12,5.3s4.5,8.2,4.5,14.1v2H258.5z M276.5-1205.8v-31.2h-9v8.3c-2.1-3.3-4.6-5.8-7.7-7.3c-3.1-1.6-6.8-2.4-11.2-2.4
					c-5.6,0-10,1.6-13.4,4.7c-3.3,3.1-5,7.4-5,12.6c0,6.1,2.1,10.8,6.2,13.9c4.1,3.1,10.3,4.7,18.4,4.7h12.6v0.9
					c0,4.1-1.4,7.3-4.1,9.6c-2.7,2.3-6.5,3.4-11.5,3.4c-3.1,0-6.2-0.4-9.1-1.1c-3-0.8-5.8-1.9-8.5-3.4v8.3c3.3,1.3,6.5,2.2,9.6,2.8
					c3.1,0.6,6.1,1,9,1c7.9,0,13.8-2.1,17.7-6.2C274.5-1191.3,276.5-1197.5,276.5-1205.8z"/>
			</g>
			<g>
				<path id="DejaVuSans-108" d="M295-1161h9v-76h-9V-1161z"/>
			</g>
			<g>
				<path d="M347.6-1209.5c-7.3,0-12.3-0.8-15.1-2.5c-2.8-1.7-4.2-4.5-4.2-8.5c0-3.2,1.1-5.7,3.2-7.6s5-2.8,8.6-2.8
					c5,0,9,1.8,12,5.3s4.5,8.2,4.5,14.1v2H347.6z M365.5-1205.8v-31.2h-9v8.3c-2.1-3.3-4.6-5.8-7.7-7.3c-3.1-1.6-6.8-2.4-11.2-2.4
					c-5.6,0-10,1.6-13.4,4.7c-3.3,3.1-5,7.4-5,12.6c0,6.1,2.1,10.8,6.2,13.9s10.3,4.7,18.4,4.7h12.6v0.9c0,4.1-1.4,7.3-4.1,9.6
					c-2.7,2.3-6.5,3.4-11.5,3.4c-3.1,0-6.2-0.4-9.1-1.1c-3-0.8-5.8-1.9-8.5-3.4v8.3c3.3,1.3,6.5,2.2,9.6,2.8c3.1,0.6,6.1,1,9,1
					c7.9,0,13.8-2.1,17.7-6.2C363.6-1191.3,365.5-1197.5,365.5-1205.8z"/>
			</g>
			<g>
				<path d="M374.6-1237"/>
			</g>
			<g>
				<path id="DejaVuSans-72" d="M416.2-1164.1h9.9v-29.9h35.8v29.9h9.9v-72.9h-9.9v34.7h-35.8v-34.7h-9.9V-1164.1z"/>
			</g>
			<g>
				<path d="M515.9-1209.5c-7.3,0-12.3-0.8-15.1-2.5c-2.8-1.7-4.2-4.5-4.2-8.5c0-3.2,1.1-5.7,3.2-7.6s5-2.8,8.6-2.8
					c5,0,9,1.8,12,5.3s4.5,8.2,4.5,14.1v2H515.9z M533.8-1205.8v-31.2h-9v8.3c-2.1-3.3-4.6-5.8-7.7-7.3c-3.1-1.6-6.8-2.4-11.2-2.4
					c-5.6,0-10,1.6-13.4,4.7c-3.3,3.1-5,7.4-5,12.6c0,6.1,2.1,10.8,6.2,13.9s10.3,4.7,18.4,4.7h12.6v0.9c0,4.1-1.4,7.3-4.1,9.6
					c-2.7,2.3-6.5,3.4-11.5,3.4c-3.1,0-6.2-0.4-9.1-1.1c-3-0.8-5.8-1.9-8.5-3.4v8.3c3.3,1.3,6.5,2.2,9.6,2.8c3.1,0.6,6.1,1,9,1
					c7.9,0,13.8-2.1,17.7-6.2C531.8-1191.3,533.8-1197.5,533.8-1205.8z"/>
			</g>
			<g>
				<path d="M584-1190.7c-1,0.6-2.1,1-3.3,1.3s-2.5,0.4-3.9,0.4c-5.1,0-9-1.7-11.7-5s-4.1-8-4.1-14.2v-28.8h-9v54.7h9v-8.5
					c1.9,3.3,4.4,5.8,7.4,7.4s6.7,2.4,11,2.4c0.6,0,1.3,0,2-0.1c0.8-0.1,1.6-0.2,2.5-0.4L584-1190.7z"/>
			</g>
			<g>
				<path d="M625.1-1190.7c-1,0.6-2.1,1-3.3,1.3s-2.5,0.4-3.9,0.4c-5.1,0-9-1.7-11.7-5s-4.1-8-4.1-14.2v-28.8h-9v54.7h9v-8.5
					c1.9,3.3,4.4,5.8,7.4,7.4s6.7,2.4,11,2.4c0.6,0,1.3,0,2-0.1c0.8-0.1,1.6-0.2,2.5-0.4L625.1-1190.7z"/>
			</g>
			<g>
				<path id="DejaVuSans-105" d="M634.5-1182.3h9v-54.7h-9V-1182.3z M634.5-1161h9v-11.4h-9V-1161z"/>
			</g>
			<g>
				<path id="DejaVuSans-115" d="M697.1-1183.9v-8.5c-2.5,1.3-5.2,2.3-7.9,2.9c-2.7,0.7-5.6,1-8.5,1c-4.5,0-7.8-0.7-10-2
					c-2.2-1.4-3.3-3.4-3.3-6.2c0-2.1,0.8-3.7,2.4-4.9s4.8-2.3,9.6-3.4l3.1-0.7c6.4-1.4,10.9-3.3,13.6-5.8c2.7-2.5,4-6,4-10.4
					c0-5.1-2-9.1-6-12.1s-9.5-4.4-16.6-4.4c-2.9,0-6,0.3-9.2,0.9s-6.5,1.4-10,2.6v9.3c3.3-1.7,6.6-3,9.8-3.9s6.4-1.3,9.6-1.3
					c4.2,0,7.5,0.7,9.8,2.2c2.3,1.4,3.4,3.5,3.4,6.1c0,2.4-0.8,4.3-2.5,5.6c-1.6,1.3-5.2,2.6-10.8,3.8l-3.1,0.7
					c-5.6,1.2-9.6,3-12.1,5.4s-3.7,5.8-3.7,10c0,5.1,1.8,9.1,5.5,11.9c3.6,2.8,8.8,4.2,15.5,4.2c3.3,0,6.4-0.2,9.4-0.7
					C692-1182.2,694.7-1182.9,697.1-1183.9z"/>
			</g>
		</g>
	</g>
</g>
<g id="ytick_3">
	<g id="text_10">
		<g transform="translate(36.885937 167.638741)scale(0.1 -0.1)">
			<g>
				<path id="DejaVuSans-77" d="M9.8-1164.1h14.7l18.6-49.6l18.7,49.6h14.7v-72.9h-9.6v64l-18.8-50h-9.9l-18.8,50v-64H9.8V-1164.1z"
					/>
			</g>
			<g>
				<path d="M120.6-1209.5c-7.3,0-12.3-0.8-15.1-2.5s-4.2-4.5-4.2-8.5c0-3.2,1.1-5.7,3.2-7.6s5-2.8,8.6-2.8c5,0,9,1.8,12,5.3
					c3,3.5,4.5,8.2,4.5,14.1v2H120.6z M138.5-1205.8v-31.2h-9v8.3c-2.1-3.3-4.6-5.8-7.7-7.3c-3.1-1.6-6.8-2.4-11.2-2.4
					c-5.6,0-10,1.6-13.4,4.7c-3.3,3.1-5,7.4-5,12.6c0,6.1,2.1,10.8,6.2,13.9s10.3,4.7,18.4,4.7h12.6v0.9c0,4.1-1.4,7.3-4.1,9.6
					c-2.7,2.3-6.5,3.4-11.5,3.4c-3.1,0-6.2-0.4-9.1-1.1c-3-0.8-5.8-1.9-8.5-3.4v8.3c3.3,1.3,6.5,2.2,9.6,2.8c3.1,0.6,6.1,1,9,1
					c7.9,0,13.8-2.1,17.7-6.2C136.5-1191.3,138.5-1197.5,138.5-1205.8z"/>
			</g>
			<g>
				<path id="DejaVuSans-122" d="M153.1-1182.3h42.7v-8.2l-33.8-39.3h33.8v-7.2h-43.9v8.2l33.8,39.3h-32.6V-1182.3z"/>
			</g>
			<g>
				<path d="M209.5-1182.3h9v-54.7h-9V-1182.3z M209.5-1161h9v-11.4h-9V-1161z"/>
			</g>
			<g>
				<path id="DejaVuSans-101" d="M284-1207.4v-4.4h-41.3c0.4-6.2,2.3-10.9,5.6-14.1s8-4.9,13.9-4.9c3.4,0,6.8,0.4,10,1.3
					s6.5,2.1,9.7,3.8v-8.5c-3.2-1.4-6.5-2.4-9.9-3.1s-6.8-1.1-10.3-1.1c-8.7,0-15.6,2.5-20.7,7.6c-5.1,5.1-7.6,12-7.6,20.6
					c0,8.9,2.4,16,7.2,21.3s11.4,7.9,19.6,7.9c7.4,0,13.2-2.4,17.5-7.1C281.9-1192.8,284-1199.3,284-1207.4z M275.1-1204.8
					c-0.1,4.9-1.4,8.8-4.1,11.8c-2.7,2.9-6.2,4.4-10.7,4.4c-5,0-9-1.4-12-4.2c-3-2.8-4.7-6.8-5.2-12L275.1-1204.8z"/>
			</g>
			<g>
				<path d="M289.4-1237"/>
			</g>
			<g>
				<path d="M331-1164.1h9.9v-29.9h35.8v29.9h9.9v-72.9h-9.9v34.7h-35.8v-34.7H331V-1164.1z"/>
			</g>
			<g>
				<path d="M405.8-1182.3h9v-54.7h-9V-1182.3z M405.8-1161h9v-11.4h-9V-1161z"/>
			</g>
			<g>
				<path d="M465.2-1190.7c-1,0.6-2.1,1-3.3,1.3c-1.2,0.3-2.5,0.4-3.9,0.4c-5.1,0-9-1.7-11.7-5s-4.1-8-4.1-14.2v-28.8h-9v54.7h9
					v-8.5c1.9,3.3,4.4,5.8,7.4,7.4s6.7,2.4,11,2.4c0.6,0,1.3,0,2-0.1c0.8-0.1,1.6-0.2,2.5-0.4L465.2-1190.7z"/>
			</g>
			<g>
				<path d="M495.8-1188.6c-4.8,0-8.6-1.9-11.4-5.6c-2.8-3.8-4.2-8.9-4.2-15.5c0-6.5,1.4-11.7,4.2-15.5c2.8-3.8,6.6-5.6,11.5-5.6
					c4.8,0,8.6,1.9,11.4,5.7c2.8,3.8,4.2,8.9,4.2,15.4s-1.4,11.6-4.2,15.4C504.4-1190.5,500.6-1188.6,495.8-1188.6z M495.8-1181
					c7.8,0,13.9-2.5,18.4-7.6c4.5-5.1,6.7-12.1,6.7-21.1c0-8.9-2.2-16-6.7-21.1s-10.6-7.6-18.4-7.6s-14,2.5-18.4,7.6
					s-6.7,12.1-6.7,21.1s2.2,16,6.7,21.1C481.8-1183.5,488-1181,495.8-1181z"/>
			</g>
			<g>
				<path id="DejaVuSans-110" d="M581.3-1204v-33h-9v32.7c0,5.2-1,9-3,11.6s-5,3.9-9.1,3.9c-4.9,0-8.7-1.5-11.5-4.6
					s-4.2-7.3-4.2-12.6v-30.9h-9v54.7h9v-8.5c2.2,3.3,4.7,5.8,7.6,7.4c2.9,1.6,6.3,2.4,10.1,2.4c6.3,0,11-1.9,14.2-5.8
					C579.7-1190.7,581.3-1196.4,581.3-1204z"/>
			</g>
			<g>
				<path d="M620.4-1188.6c-4.8,0-8.6-1.9-11.4-5.6c-2.8-3.8-4.2-8.9-4.2-15.5c0-6.5,1.4-11.7,4.2-15.5s6.6-5.6,11.5-5.6
					c4.8,0,8.6,1.9,11.4,5.7c2.8,3.8,4.2,8.9,4.2,15.4s-1.4,11.6-4.2,15.4C629-1190.5,625.2-1188.6,620.4-1188.6z M620.4-1181
					c7.8,0,13.9-2.5,18.4-7.6s6.7-12.1,6.7-21.1c0-8.9-2.2-16-6.7-21.1s-10.6-7.6-18.4-7.6c-7.8,0-14,2.5-18.4,7.6
					s-6.7,12.1-6.7,21.1s2.2,16,6.7,21.1C606.4-1183.5,612.5-1181,620.4-1181z"/>
			</g>
		</g>
	</g>
</g>
<g id="ytick_4">
	<g id="text_11">
		<g transform="translate(43.729687 143.67898)scale(0.1 -0.1)">
			<g>
				<path id="DejaVuSans-74" d="M9.8-1164.1h9.9v-67.8c0-8.8-1.7-15.2-5-19.1s-8.7-6-16.1-6h-3.8v8.3h3.1c4.4,0,7.4,1.2,9.2,3.7
					c1.8,2.4,2.7,6.8,2.7,13.1V-1164.1z"/>
			</g>
			<g>
				<path d="M60.1-1188.6c-4.8,0-8.6-1.9-11.4-5.6c-2.8-3.8-4.2-8.9-4.2-15.5c0-6.5,1.4-11.7,4.2-15.5c2.8-3.8,6.6-5.6,11.5-5.6
					c4.8,0,8.6,1.9,11.4,5.7c2.8,3.8,4.2,8.9,4.2,15.4s-1.4,11.6-4.2,15.4C68.7-1190.5,64.9-1188.6,60.1-1188.6z M60.1-1181
					c7.8,0,13.9-2.5,18.4-7.6s6.7-12.1,6.7-21.1c0-8.9-2.2-16-6.7-21.1s-10.6-7.6-18.4-7.6s-14,2.5-18.4,7.6s-6.7,12.1-6.7,21.1
					s2.2,16,6.7,21.1C46.1-1183.5,52.3-1181,60.1-1181z"/>
			</g>
			<g>
				<path d="M145.6-1204v-33h-9v32.7c0,5.2-1,9-3,11.6s-5,3.9-9.1,3.9c-4.9,0-8.7-1.5-11.5-4.6s-4.2-7.3-4.2-12.6v-30.9h-9v76h9
					v-29.8c2.2,3.3,4.7,5.8,7.6,7.4s6.3,2.4,10.1,2.4c6.3,0,11-1.9,14.2-5.8C143.9-1190.7,145.6-1196.4,145.6-1204z"/>
			</g>
			<g>
				<path d="M208.9-1204v-33h-9v32.7c0,5.2-1,9-3,11.6s-5,3.9-9.1,3.9c-4.9,0-8.7-1.5-11.5-4.6s-4.2-7.3-4.2-12.6v-30.9h-9v54.7h9
					v-8.5c2.2,3.3,4.7,5.8,7.6,7.4c2.9,1.6,6.3,2.4,10.1,2.4c6.3,0,11-1.9,14.2-5.8C207.3-1190.7,208.9-1196.4,208.9-1204z"/>
			</g>
			<g>
				<path d="M217.4-1237"/>
			</g>
			<g>
				<path id="DejaVuSans-69" d="M259-1164.1h46.1v-8.3h-36.2v-21.6h34.7v-8.3h-34.7v-26.4H306v-8.3h-47V-1164.1z"/>
			</g>
			<g>
				<path d="M367.3-1204v-33h-9v32.7c0,5.2-1,9-3,11.6s-5,3.9-9.1,3.9c-4.9,0-8.7-1.5-11.5-4.6s-4.2-7.3-4.2-12.6v-30.9h-9v54.7h9
					v-8.5c2.2,3.3,4.7,5.8,7.6,7.4s6.3,2.4,10.1,2.4c6.3,0,11-1.9,14.2-5.8C365.7-1190.7,367.3-1196.4,367.3-1204z"/>
			</g>
			<g>
				<path d="M420.1-1183.9v-8.5c-2.5,1.3-5.2,2.3-7.9,2.9c-2.7,0.7-5.6,1-8.5,1c-4.5,0-7.8-0.7-10-2c-2.2-1.4-3.3-3.4-3.3-6.2
					c0-2.1,0.8-3.7,2.4-4.9s4.8-2.3,9.6-3.4l3.1-0.7c6.4-1.4,10.9-3.3,13.6-5.8s4-6,4-10.4c0-5.1-2-9.1-6-12.1s-9.5-4.4-16.6-4.4
					c-2.9,0-6,0.3-9.2,0.9s-6.5,1.4-10,2.6v9.3c3.3-1.7,6.6-3,9.8-3.9c3.2-0.9,6.4-1.3,9.6-1.3c4.2,0,7.5,0.7,9.8,2.2
					c2.3,1.4,3.4,3.5,3.4,6.1c0,2.4-0.8,4.3-2.5,5.6c-1.6,1.3-5.2,2.6-10.8,3.8l-3.1,0.7c-5.6,1.2-9.6,3-12.1,5.4s-3.7,5.8-3.7,10
					c0,5.1,1.8,9.1,5.5,11.9c3.6,2.8,8.8,4.2,15.5,4.2c3.3,0,6.4-0.2,9.4-0.7C414.9-1182.2,417.6-1182.9,420.1-1183.9z"/>
			</g>
			<g>
				<path d="M437.3-1182.3h9v-54.7h-9V-1182.3z M437.3-1161h9v-11.4h-9V-1161z"/>
			</g>
			<g>
				<path id="DejaVuSans-103" d="M501.1-1209c0,6.5-1.3,11.6-4,15.1c-2.7,3.6-6.4,5.4-11.3,5.4c-4.8,0-8.6-1.8-11.2-5.4
					c-2.7-3.6-4-8.6-4-15.1s1.3-11.5,4-15.1s6.4-5.4,11.2-5.4c4.9,0,8.6,1.8,11.3,5.4C499.7-1220.5,501.1-1215.5,501.1-1209z
					 M510.1-1230.2c0-9.3-2.1-16.2-6.2-20.8c-4.1-4.5-10.5-6.8-19-6.8c-3.2,0-6.1,0.2-8.9,0.7s-5.5,1.2-8.2,2.2v8.7
					c2.6-1.4,5.2-2.5,7.8-3.2c2.6-0.7,5.2-1,7.9-1c5.9,0,10.3,1.5,13.2,4.6c2.9,3.1,4.4,7.7,4.4,13.9v4.5c-1.9-3.2-4.2-5.6-7.1-7.2
					s-6.4-2.4-10.4-2.4c-6.7,0-12.1,2.6-16.2,7.7s-6.2,11.9-6.2,20.3c0,8.5,2.1,15.2,6.2,20.3c4.1,5.1,9.5,7.7,16.2,7.7
					c4,0,7.5-0.8,10.4-2.4s5.3-4,7.1-7.2v8.3h9C510.1-1182.3,510.1-1230.2,510.1-1230.2z"/>
			</g>
			<g>
				<path d="M574-1204v-33h-9v32.7c0,5.2-1,9-3,11.6s-5,3.9-9.1,3.9c-4.9,0-8.7-1.5-11.5-4.6s-4.2-7.3-4.2-12.6v-30.9h-9v54.7h9
					v-8.5c2.2,3.3,4.7,5.8,7.6,7.4c2.9,1.6,6.3,2.4,10.1,2.4c6.3,0,11-1.9,14.2-5.8C572.4-1190.7,574-1196.4,574-1204z"/>
			</g>
		</g>
	</g>
</g>
<g id="ytick_5">
	<g id="text_12">
		<g transform="translate(36.253125 119.719219)scale(0.1 -0.1)">
			<g>
				<path d="M19.7-1172.2v-56.7h11.9c10.1,0,17.4,2.3,22.1,6.8c4.7,4.6,7,11.8,7,21.6c0,9.8-2.3,16.9-7,21.5
					c-4.7,4.5-12,6.8-22.1,6.8L19.7-1172.2L19.7-1172.2z M9.8-1164.1h20.3c14.1,0,24.5-2.9,31.1-8.8s9.9-15.1,9.9-27.6
					c0-12.6-3.3-21.8-10-27.7c-6.6-5.9-17-8.8-31-8.8H9.8V-1164.1z"/>
			</g>
			<g>
				<path d="M111.3-1209.5c-7.3,0-12.3-0.8-15.1-2.5s-4.2-4.5-4.2-8.5c0-3.2,1.1-5.7,3.2-7.6c2.1-1.9,5-2.8,8.6-2.8
					c5,0,9,1.8,12,5.3s4.5,8.2,4.5,14.1v2H111.3z M129.2-1205.8v-31.2h-9v8.3c-2.1-3.3-4.6-5.8-7.7-7.3c-3.1-1.6-6.8-2.4-11.2-2.4
					c-5.6,0-10,1.6-13.4,4.7c-3.3,3.1-5,7.4-5,12.6c0,6.1,2.1,10.8,6.2,13.9s10.3,4.7,18.4,4.7h12.6v0.9c0,4.1-1.4,7.3-4.1,9.6
					c-2.7,2.3-6.5,3.4-11.5,3.4c-3.1,0-6.2-0.4-9.1-1.1c-3-0.8-5.8-1.9-8.5-3.4v8.3c3.3,1.3,6.5,2.2,9.6,2.8c3.1,0.6,6.1,1,9,1
					c7.9,0,13.8-2.1,17.7-6.2C127.3-1191.3,129.2-1197.5,129.2-1205.8z"/>
			</g>
			<g>
				<path d="M193.2-1204v-33h-9v32.7c0,5.2-1,9-3,11.6s-5,3.9-9.1,3.9c-4.9,0-8.7-1.5-11.5-4.6s-4.2-7.3-4.2-12.6v-30.9h-9v54.7h9
					v-8.5c2.2,3.3,4.7,5.8,7.6,7.4c2.9,1.6,6.3,2.4,10.1,2.4c6.3,0,11-1.9,14.2-5.8C191.6-1190.7,193.2-1196.4,193.2-1204z"/>
			</g>
			<g>
				<path d="M211.1-1182.3h9v-54.7h-9V-1182.3z M211.1-1161h9v-11.4h-9V-1161z"/>
			</g>
			<g>
				<path d="M285.6-1207.4v-4.4h-41.3c0.4-6.2,2.3-10.9,5.6-14.1s8-4.9,13.9-4.9c3.4,0,6.8,0.4,10,1.3c3.2,0.8,6.5,2.1,9.7,3.8v-8.5
					c-3.2-1.4-6.5-2.4-9.9-3.1s-6.8-1.1-10.3-1.1c-8.7,0-15.6,2.5-20.7,7.6c-5.1,5.1-7.6,12-7.6,20.6c0,8.9,2.4,16,7.2,21.3
					s11.4,7.9,19.6,7.9c7.4,0,13.2-2.4,17.5-7.1C283.5-1192.8,285.6-1199.3,285.6-1207.4z M276.7-1204.8c-0.1,4.9-1.4,8.8-4.1,11.8
					c-2.7,2.9-6.2,4.4-10.7,4.4c-5,0-9-1.4-12-4.2c-3-2.8-4.7-6.8-5.2-12L276.7-1204.8z"/>
			</g>
			<g>
				<path d="M300.4-1161h9v-76h-9V-1161z"/>
			</g>
			<g>
				<path d="M318.8-1237"/>
			</g>
			<g>
				<path id="DejaVuSans-65" d="M384.7-1173.8l-13.4-36.3h26.8L384.7-1173.8z M379.1-1164.1h11.2l27.8-72.9h-10.2l-6.6,18.7h-32.9
					l-6.6-18.7h-10.4L379.1-1164.1z"/>
			</g>
			<g>
				<path d="M428-1161h9v-44.9l26.8,23.6h11.5l-29-25.6l30.2-29.1h-11.7l-27.8,26.7v-26.7h-9V-1161z"/>
			</g>
			<g>
				<path d="M511.1-1209.5c-7.3,0-12.3-0.8-15.1-2.5c-2.8-1.7-4.2-4.5-4.2-8.5c0-3.2,1.1-5.7,3.2-7.6s5-2.8,8.6-2.8
					c5,0,9,1.8,12,5.3s4.5,8.2,4.5,14.1v2H511.1z M529-1205.8v-31.2h-9v8.3c-2.1-3.3-4.6-5.8-7.7-7.3c-3.1-1.6-6.8-2.4-11.2-2.4
					c-5.6,0-10,1.6-13.4,4.7c-3.3,3.1-5,7.4-5,12.6c0,6.1,2.1,10.8,6.2,13.9s10.3,4.7,18.4,4.7h12.6v0.9c0,4.1-1.4,7.3-4.1,9.6
					c-2.7,2.3-6.5,3.4-11.5,3.4c-3.1,0-6.2-0.4-9.1-1.1c-3-0.8-5.8-1.9-8.5-3.4v8.3c3.3,1.3,6.5,2.2,9.6,2.8c3.1,0.6,6.1,1,9,1
					c7.9,0,13.8-2.1,17.7-6.2C527.1-1191.3,529-1197.5,529-1205.8z"/>
			</g>
			<g>
				<path d="M547.2-1161h9v-44.9l26.8,23.6h11.5l-29-25.6l30.2-29.1H584l-27.8,26.7v-26.7h-9V-1161z"/>
			</g>
			<g>
				<path d="M630.3-1209.5c-7.3,0-12.3-0.8-15.1-2.5s-4.2-4.5-4.2-8.5c0-3.2,1.1-5.7,3.2-7.6c2.1-1.9,5-2.8,8.6-2.8
					c5,0,9,1.8,12,5.3s4.5,8.2,4.5,14.1v2H630.3z M648.2-1205.8v-31.2h-9v8.3c-2.1-3.3-4.6-5.8-7.7-7.3c-3.1-1.6-6.8-2.4-11.2-2.4
					c-5.6,0-10,1.6-13.4,4.7c-3.3,3.1-5,7.4-5,12.6c0,6.1,2.1,10.8,6.2,13.9c4.1,3.1,10.3,4.7,18.4,4.7h12.6v0.9
					c0,4.1-1.4,7.3-4.1,9.6c-2.7,2.3-6.5,3.4-11.5,3.4c-3.1,0-6.2-0.4-9.1-1.1c-3-0.8-5.8-1.9-8.5-3.4v8.3c3.3,1.3,6.5,2.2,9.6,2.8
					c3.1,0.6,6.1,1,9,1c7.9,0,13.8-2.1,17.7-6.2C646.3-1191.3,648.2-1197.5,648.2-1205.8z"/>
			</g>
		</g>
	</g>
</g>
<g id="ytick_6">
	<g id="text_13">
		<g transform="translate(28.051562 71.799697)scale(0.1 -0.1)">
			<g>
				<path id="DejaVuSans-83" d="M53.5-1166.5v-9.6c-3.7,1.8-7.3,3.1-10.6,4s-6.5,1.3-9.6,1.3c-5.4,0-9.5-1-12.4-3.1s-4.4-5-4.4-8.9
					c0-3.2,1-5.7,2.9-7.3c1.9-1.6,5.6-3,11-4l6-1.2c7.4-1.4,12.8-3.9,16.3-7.4s5.2-8.3,5.2-14.2c0-7.1-2.4-12.4-7.1-16.1
					c-4.7-3.6-11.7-5.5-20.8-5.5c-3.4,0-7.1,0.4-11,1.2c-3.9,0.8-7.9,1.9-12.1,3.5v10.2c4-2.2,7.9-3.9,11.8-5.1
					c3.8-1.1,7.6-1.7,11.3-1.7c5.6,0,10,1.1,13,3.3c3.1,2.2,4.6,5.4,4.6,9.5c0,3.6-1.1,6.4-3.3,8.4s-5.8,3.5-10.8,4.5l-6,1.2
					c-7.4,1.5-12.7,3.8-16,6.9s-4.9,7.5-4.9,13c0,6.4,2.3,11.5,6.8,15.2s10.8,5.6,18.8,5.6c3.4,0,6.9-0.3,10.5-0.9
					C46.2-1164.3,49.8-1165.3,53.5-1166.5z"/>
			</g>
			<g>
				<path id="DejaVuSans-46" d="M74.2-1224.6h10.3v-12.4H74.2V-1224.6z"/>
			</g>
			<g>
				<path d="M95.3-1237"/>
			</g>
			<g>
				<path id="DejaVuSans-73" d="M136.9-1164.1h9.9v-72.9h-9.9V-1164.1z"/>
			</g>
			<g>
				<path d="M167.2-1224.6h10.3v-12.4h-10.3V-1224.6z"/>
			</g>
			<g>
				<path d="M188.3-1237"/>
			</g>
			<g>
				<path d="M229.9-1164.1h9.9v-29.9h35.8v29.9h9.9v-72.9h-9.9v34.7h-35.8v-34.7h-9.9C229.9-1237,229.9-1164.1,229.9-1164.1z"/>
			</g>
			<g>
				<path d="M329.6-1209.5c-7.3,0-12.3-0.8-15.1-2.5c-2.8-1.7-4.2-4.5-4.2-8.5c0-3.2,1.1-5.7,3.2-7.6s5-2.8,8.6-2.8
					c5,0,9,1.8,12,5.3s4.5,8.2,4.5,14.1v2H329.6z M347.5-1205.8v-31.2h-9v8.3c-2.1-3.3-4.6-5.8-7.7-7.3c-3.1-1.6-6.8-2.4-11.2-2.4
					c-5.6,0-10,1.6-13.4,4.7c-3.3,3.1-5,7.4-5,12.6c0,6.1,2.1,10.8,6.2,13.9s10.3,4.7,18.4,4.7h12.6v0.9c0,4.1-1.4,7.3-4.1,9.6
					c-2.7,2.3-6.5,3.4-11.5,3.4c-3.1,0-6.2-0.4-9.1-1.1c-3-0.8-5.8-1.9-8.5-3.4v8.3c3.3,1.3,6.5,2.2,9.6,2.8c3.1,0.6,6.1,1,9,1
					c7.9,0,13.8-2.1,17.7-6.2C345.6-1191.3,347.5-1197.5,347.5-1205.8z"/>
			</g>
			<g>
				<path d="M388.8-1242.1c-2.5-6.5-5-10.8-7.4-12.7c-2.4-2-5.6-3-9.7-3h-7.2v7.5h5.3c2.5,0,4.4,0.6,5.8,1.8
					c1.4,1.2,2.9,3.9,4.5,8.3l1.6,4.1l-22.1,53.8h9.5l17.1-42.8l17.1,42.8h9.5L388.8-1242.1z"/>
			</g>
			<g>
				<path d="M450.1-1209.5c-7.3,0-12.3-0.8-15.1-2.5c-2.8-1.7-4.2-4.5-4.2-8.5c0-3.2,1.1-5.7,3.2-7.6s5-2.8,8.6-2.8
					c5,0,9,1.8,12,5.3s4.5,8.2,4.5,14.1v2H450.1z M468-1205.8v-31.2h-9v8.3c-2.1-3.3-4.6-5.8-7.7-7.3c-3.1-1.6-6.8-2.4-11.2-2.4
					c-5.6,0-10,1.6-13.4,4.7c-3.3,3.1-5,7.4-5,12.6c0,6.1,2.1,10.8,6.2,13.9s10.3,4.7,18.4,4.7H459v0.9c0,4.1-1.4,7.3-4.1,9.6
					c-2.7,2.3-6.5,3.4-11.5,3.4c-3.1,0-6.2-0.4-9.1-1.1c-3-0.8-5.8-1.9-8.5-3.4v8.3c3.3,1.3,6.5,2.2,9.6,2.8c3.1,0.6,6.1,1,9,1
					c7.9,0,13.8-2.1,17.7-6.2C466-1191.3,468-1197.5,468-1205.8z"/>
			</g>
			<g>
				<path d="M486.1-1161h9v-44.9l26.8,23.6h11.5l-29-25.6l30.2-29.1H523l-27.8,26.7v-26.7h-9v76H486.1z"/>
			</g>
			<g>
				<path d="M569.2-1209.5c-7.3,0-12.3-0.8-15.1-2.5s-4.2-4.5-4.2-8.5c0-3.2,1.1-5.7,3.2-7.6c2.1-1.9,5-2.8,8.6-2.8
					c5,0,9,1.8,12,5.3s4.5,8.2,4.5,14.1v2H569.2z M587.1-1205.8v-31.2h-9v8.3c-2.1-3.3-4.6-5.8-7.7-7.3c-3.1-1.6-6.8-2.4-11.2-2.4
					c-5.6,0-10,1.6-13.4,4.7c-3.3,3.1-5,7.4-5,12.6c0,6.1,2.1,10.8,6.2,13.9c4.1,3.1,10.3,4.7,18.4,4.7H578v0.9
					c0,4.1-1.4,7.3-4.1,9.6c-2.7,2.3-6.5,3.4-11.5,3.4c-3.1,0-6.2-0.4-9.1-1.1c-3-0.8-5.8-1.9-8.5-3.4v8.3c3.3,1.3,6.5,2.2,9.6,2.8
					c3.1,0.6,6.1,1,9,1c7.9,0,13.8-2.1,17.7-6.2C585.2-1191.3,587.1-1197.5,587.1-1205.8z"/>
			</g>
			<g>
				<path d="M600.4-1182.3h9l11.2-42.7l11.2,42.7h10.6l11.2-42.7l11.2,42.7h9l-14.3-54.7h-10.6l-11.8,44.8l-11.8-44.8h-10.6
					L600.4-1182.3z"/>
			</g>
			<g>
				<path d="M712.3-1209.5c-7.3,0-12.3-0.8-15.1-2.5s-4.2-4.5-4.2-8.5c0-3.2,1.1-5.7,3.2-7.6c2.1-1.9,5-2.8,8.6-2.8
					c5,0,9,1.8,12,5.3s4.5,8.2,4.5,14.1v2H712.3z M730.2-1205.8v-31.2h-9v8.3c-2.1-3.3-4.6-5.8-7.7-7.3c-3.1-1.6-6.8-2.4-11.2-2.4
					c-5.6,0-10,1.6-13.4,4.7c-3.3,3.1-5,7.4-5,12.6c0,6.1,2.1,10.8,6.2,13.9c4.1,3.1,10.3,4.7,18.4,4.7h12.6v0.9
					c0,4.1-1.4,7.3-4.1,9.6c-2.7,2.3-6.5,3.4-11.5,3.4c-3.1,0-6.2-0.4-9.1-1.1c-3-0.8-5.8-1.9-8.5-3.4v8.3c3.3,1.3,6.5,2.2,9.6,2.8
					c3.1,0.6,6.1,1,9,1c7.9,0,13.8-2.1,17.7-6.2C728.3-1191.3,730.2-1197.5,730.2-1205.8z"/>
			</g>
		</g>
	</g>
</g>
<g id="ytick_7">
	<g id="text_14">
		<g transform="translate(14.910937 95.759458)scale(0.1 -0.1)">
			<g>
				<path d="M53.5-1166.5v-9.6c-3.7,1.8-7.3,3.1-10.6,4s-6.5,1.3-9.6,1.3c-5.4,0-9.5-1-12.4-3.1s-4.4-5-4.4-8.9c0-3.2,1-5.7,2.9-7.3
					c1.9-1.6,5.6-3,11-4l6-1.2c7.4-1.4,12.8-3.9,16.3-7.4s5.2-8.3,5.2-14.2c0-7.1-2.4-12.4-7.1-16.1c-4.7-3.6-11.7-5.5-20.8-5.5
					c-3.4,0-7.1,0.4-11,1.2c-3.9,0.8-7.9,1.9-12.1,3.5v10.2c4-2.2,7.9-3.9,11.8-5.1c3.8-1.1,7.6-1.7,11.3-1.7c5.6,0,10,1.1,13,3.3
					c3.1,2.2,4.6,5.4,4.6,9.5c0,3.6-1.1,6.4-3.3,8.4s-5.8,3.5-10.8,4.5l-6,1.2c-7.4,1.5-12.7,3.8-16,6.9s-4.9,7.5-4.9,13
					c0,6.4,2.3,11.5,6.8,15.2s10.8,5.6,18.8,5.6c3.4,0,6.9-0.3,10.5-0.9C46.2-1164.3,49.8-1165.3,53.5-1166.5z"/>
			</g>
			<g>
				<path id="DejaVuSans-112" d="M81.6-1228.8v-29h-9v75.5h9v-8.3c1.9,3.2,4.3,5.7,7.2,7.2c2.9,1.6,6.3,2.4,10.3,2.4
					c6.6,0,12-2.6,16.2-7.9c4.2-5.3,6.2-12.2,6.2-20.8s-2.1-15.5-6.2-20.8s-9.5-7.9-16.2-7.9c-4,0-7.4,0.8-10.3,2.4
					C85.9-1234.5,83.5-1232,81.6-1228.8z M112.2-1209.7c0,6.6-1.4,11.8-4.1,15.5c-2.7,3.8-6.5,5.6-11.2,5.6c-4.8,0-8.5-1.9-11.2-5.6
					c-2.7-3.8-4.1-8.9-4.1-15.5s1.4-11.8,4.1-15.5c2.7-3.8,6.5-5.6,11.2-5.6c4.8,0,8.5,1.9,11.2,5.6
					C110.8-1221.5,112.2-1216.3,112.2-1209.7z"/>
			</g>
			<g>
				<path d="M161.2-1209.5c-7.3,0-12.3-0.8-15.1-2.5s-4.2-4.5-4.2-8.5c0-3.2,1.1-5.7,3.2-7.6c2.1-1.9,5-2.8,8.6-2.8
					c5,0,9,1.8,12,5.3s4.5,8.2,4.5,14.1v2H161.2z M179.2-1205.8v-31.2h-9v8.3c-2.1-3.3-4.6-5.8-7.7-7.3c-3.1-1.6-6.8-2.4-11.2-2.4
					c-5.6,0-10,1.6-13.4,4.7c-3.3,3.1-5,7.4-5,12.6c0,6.1,2.1,10.8,6.2,13.9c4.1,3.1,10.3,4.7,18.4,4.7h12.6v0.9
					c0,4.1-1.4,7.3-4.1,9.6c-2.7,2.3-6.5,3.4-11.5,3.4c-3.1,0-6.2-0.4-9.1-1.1c-3-0.8-5.8-1.9-8.5-3.4v8.3c3.3,1.3,6.5,2.2,9.6,2.8
					c3.1,0.6,6.1,1,9,1c7.9,0,13.8-2.1,17.7-6.2C177.2-1191.3,179.2-1197.5,179.2-1205.8z"/>
			</g>
			<g>
				<path d="M229.3-1190.7c-1,0.6-2.1,1-3.3,1.3s-2.5,0.4-3.9,0.4c-5.1,0-9-1.7-11.7-5s-4.1-8-4.1-14.2v-28.8h-9v54.7h9v-8.5
					c1.9,3.3,4.4,5.8,7.4,7.4s6.7,2.4,11,2.4c0.6,0,1.3,0,2-0.1c0.8-0.1,1.6-0.2,2.5-0.4L229.3-1190.7z"/>
			</g>
			<g>
				<path d="M238.4-1161h9v-44.9l26.8,23.6h11.5l-29-25.6L287-1237h-11.7l-27.8,26.7v-26.7h-9L238.4-1161L238.4-1161z"/>
			</g>
			<g>
				<path d="M287.3-1237"/>
			</g>
			<g>
				<path d="M328.9-1164.1h14.7l18.6-49.6l18.7,49.6h14.7v-72.9H386v64l-18.8-50h-9.9l-18.8,50v-64h-9.6
					C328.9-1237,328.9-1164.1,328.9-1164.1z"/>
			</g>
			<g>
				<path d="M439.6-1209.5c-7.3,0-12.3-0.8-15.1-2.5c-2.8-1.7-4.2-4.5-4.2-8.5c0-3.2,1.1-5.7,3.2-7.6s5-2.8,8.6-2.8
					c5,0,9,1.8,12,5.3s4.5,8.2,4.5,14.1v2H439.6z M457.5-1205.8v-31.2h-9v8.3c-2.1-3.3-4.6-5.8-7.7-7.3c-3.1-1.6-6.8-2.4-11.2-2.4
					c-5.6,0-10,1.6-13.4,4.7c-3.3,3.1-5,7.4-5,12.6c0,6.1,2.1,10.8,6.2,13.9s10.3,4.7,18.4,4.7h12.6v0.9c0,4.1-1.4,7.3-4.1,9.6
					c-2.7,2.3-6.5,3.4-11.5,3.4c-3.1,0-6.2-0.4-9.1-1.1c-3-0.8-5.8-1.9-8.5-3.4v8.3c3.3,1.3,6.5,2.2,9.6,2.8c3.1,0.6,6.1,1,9,1
					c7.9,0,13.8-2.1,17.7-6.2C455.6-1191.3,457.5-1197.5,457.5-1205.8z"/>
			</g>
			<g>
				<path d="M484.9-1166.8v-15.5h18.5v-7h-18.5v-29.7c0-4.5,0.6-7.3,1.8-8.6c1.2-1.3,3.7-1.9,7.5-1.9h9.2v-7.5h-9.2
					c-6.9,0-11.7,1.3-14.4,3.9c-2.6,2.6-4,7.3-4,14.1v29.7h-6.6v7h6.6v15.5H484.9z"/>
			</g>
			<g>
				<path d="M550.1-1183.9v-8.5c-2.5,1.3-5.2,2.3-7.9,2.9c-2.7,0.7-5.6,1-8.5,1c-4.5,0-7.8-0.7-10-2c-2.2-1.4-3.3-3.4-3.3-6.2
					c0-2.1,0.8-3.7,2.4-4.9s4.8-2.3,9.6-3.4l3.1-0.7c6.4-1.4,10.9-3.3,13.6-5.8c2.7-2.5,4-6,4-10.4c0-5.1-2-9.1-6-12.1
					s-9.5-4.4-16.6-4.4c-2.9,0-6,0.3-9.2,0.9s-6.5,1.4-10,2.6v9.3c3.3-1.7,6.6-3,9.8-3.9s6.4-1.3,9.6-1.3c4.2,0,7.5,0.7,9.8,2.2
					c2.3,1.4,3.4,3.5,3.4,6.1c0,2.4-0.8,4.3-2.5,5.6c-1.6,1.3-5.2,2.6-10.8,3.8l-3.1,0.7c-5.6,1.2-9.6,3-12.1,5.4s-3.7,5.8-3.7,10
					c0,5.1,1.8,9.1,5.5,11.9c3.6,2.8,8.8,4.2,15.5,4.2c3.3,0,6.4-0.2,9.4-0.7C544.9-1182.2,547.6-1182.9,550.1-1183.9z"/>
			</g>
			<g>
				<path d="M566.4-1215.4v33.1h9v-32.8c0-5.2,1-9.1,3-11.7s5.1-3.9,9.1-3.9c4.8,0,8.7,1.5,11.5,4.6s4.2,7.3,4.2,12.7v31h9v-54.7h-9
					v8.4c-2.2-3.3-4.7-5.8-7.6-7.4c-2.9-1.6-6.2-2.4-10-2.4c-6.3,0-11.1,2-14.3,5.9C568-1228.7,566.4-1222.9,566.4-1215.4z"/>
			</g>
			<g>
				<path d="M676.2-1204v-33h-9v32.7c0,5.2-1,9-3,11.6s-5,3.9-9.1,3.9c-4.9,0-8.7-1.5-11.5-4.6s-4.2-7.3-4.2-12.6v-30.9h-9v54.7h9
					v-8.5c2.2,3.3,4.7,5.8,7.6,7.4c2.9,1.6,6.3,2.4,10.1,2.4c6.3,0,11-1.9,14.2-5.8C674.6-1190.7,676.2-1196.4,676.2-1204z"/>
			</g>
			<g>
				<path d="M718.9-1209.5c-7.3,0-12.3-0.8-15.1-2.5s-4.2-4.5-4.2-8.5c0-3.2,1.1-5.7,3.2-7.6c2.1-1.9,5-2.8,8.6-2.8
					c5,0,9,1.8,12,5.3s4.5,8.2,4.5,14.1v2H718.9z M736.9-1205.8v-31.2h-9v8.3c-2.1-3.3-4.6-5.8-7.7-7.3c-3.1-1.6-6.8-2.4-11.2-2.4
					c-5.6,0-10,1.6-13.4,4.7c-3.3,3.1-5,7.4-5,12.6c0,6.1,2.1,10.8,6.2,13.9c4.1,3.1,10.3,4.7,18.4,4.7h12.6v0.9
					c0,4.1-1.4,7.3-4.1,9.6c-2.7,2.3-6.5,3.4-11.5,3.4c-3.1,0-6.2-0.4-9.1-1.1c-3-0.8-5.8-1.9-8.5-3.4v8.3c3.3,1.3,6.5,2.2,9.6,2.8
					c3.1,0.6,6.1,1,9,1c7.9,0,13.8-2.1,17.7-6.2C734.9-1191.3,736.9-1197.5,736.9-1205.8z"/>
			</g>
			<g>
				<path d="M791.4-1209c0,6.5-1.3,11.6-4,15.1c-2.7,3.6-6.4,5.4-11.3,5.4c-4.8,0-8.6-1.8-11.2-5.4c-2.7-3.6-4-8.6-4-15.1
					s1.3-11.5,4-15.1s6.4-5.4,11.2-5.4c4.9,0,8.6,1.8,11.3,5.4C790-1220.5,791.4-1215.5,791.4-1209z M800.3-1230.2
					c0-9.3-2.1-16.2-6.2-20.8c-4.1-4.5-10.5-6.8-19-6.8c-3.2,0-6.1,0.2-8.9,0.7c-2.8,0.5-5.5,1.2-8.2,2.2v8.7
					c2.6-1.4,5.2-2.5,7.8-3.2s5.2-1,7.9-1c5.9,0,10.3,1.5,13.2,4.6s4.4,7.7,4.4,13.9v4.5c-1.9-3.2-4.2-5.6-7.1-7.2
					c-2.9-1.6-6.4-2.4-10.4-2.4c-6.7,0-12.1,2.6-16.2,7.7c-4.1,5.1-6.2,11.9-6.2,20.3c0,8.5,2.1,15.2,6.2,20.3
					c4.1,5.1,9.5,7.7,16.2,7.7c4,0,7.5-0.8,10.4-2.4s5.3-4,7.1-7.2v8.3h9V-1230.2z"/>
			</g>
			<g>
				<path d="M843.7-1209.5c-7.3,0-12.3-0.8-15.1-2.5s-4.2-4.5-4.2-8.5c0-3.2,1.1-5.7,3.2-7.6c2.1-1.9,5-2.8,8.6-2.8
					c5,0,9,1.8,12,5.3s4.5,8.2,4.5,14.1v2H843.7z M861.6-1205.8v-31.2h-9v8.3c-2.1-3.3-4.6-5.8-7.7-7.3c-3.1-1.6-6.8-2.4-11.2-2.4
					c-5.6,0-10,1.6-13.4,4.7c-3.3,3.1-5,7.4-5,12.6c0,6.1,2.1,10.8,6.2,13.9c4.1,3.1,10.3,4.7,18.4,4.7h12.6v0.9
					c0,4.1-1.4,7.3-4.1,9.6c-2.7,2.3-6.5,3.4-11.5,3.4c-3.1,0-6.2-0.4-9.1-1.1c-3-0.8-5.8-1.9-8.5-3.4v8.3c3.3,1.3,6.5,2.2,9.6,2.8
					c3.1,0.6,6.1,1,9,1c7.9,0,13.8-2.1,17.7-6.2C859.7-1191.3,861.6-1197.5,861.6-1205.8z"/>
			</g>
		</g>
	</g>
</g>
<g id="ytick_8">
	<g id="text_15">
		<g transform="translate(33.1125 47.839936)scale(0.1 -0.1)">
			<g>
				<path d="M19.7-1172.2v-56.7h11.9c10.1,0,17.4,2.3,22.1,6.8c4.7,4.6,7,11.8,7,21.6c0,9.8-2.3,16.9-7,21.5
					c-4.7,4.5-12,6.8-22.1,6.8L19.7-1172.2L19.7-1172.2z M9.8-1164.1h20.3c14.1,0,24.5-2.9,31.1-8.8s9.9-15.1,9.9-27.6
					c0-12.6-3.3-21.8-10-27.7c-6.6-5.9-17-8.8-31-8.8H9.8V-1164.1z"/>
			</g>
			<g>
				<path d="M111.3-1209.5c-7.3,0-12.3-0.8-15.1-2.5s-4.2-4.5-4.2-8.5c0-3.2,1.1-5.7,3.2-7.6c2.1-1.9,5-2.8,8.6-2.8
					c5,0,9,1.8,12,5.3s4.5,8.2,4.5,14.1v2H111.3z M129.2-1205.8v-31.2h-9v8.3c-2.1-3.3-4.6-5.8-7.7-7.3c-3.1-1.6-6.8-2.4-11.2-2.4
					c-5.6,0-10,1.6-13.4,4.7c-3.3,3.1-5,7.4-5,12.6c0,6.1,2.1,10.8,6.2,13.9s10.3,4.7,18.4,4.7h12.6v0.9c0,4.1-1.4,7.3-4.1,9.6
					c-2.7,2.3-6.5,3.4-11.5,3.4c-3.1,0-6.2-0.4-9.1-1.1c-3-0.8-5.8-1.9-8.5-3.4v8.3c3.3,1.3,6.5,2.2,9.6,2.8c3.1,0.6,6.1,1,9,1
					c7.9,0,13.8-2.1,17.7-6.2C127.3-1191.3,129.2-1197.5,129.2-1205.8z"/>
			</g>
			<g>
				<path d="M193.2-1204v-33h-9v32.7c0,5.2-1,9-3,11.6s-5,3.9-9.1,3.9c-4.9,0-8.7-1.5-11.5-4.6s-4.2-7.3-4.2-12.6v-30.9h-9v54.7h9
					v-8.5c2.2,3.3,4.7,5.8,7.6,7.4c2.9,1.6,6.3,2.4,10.1,2.4c6.3,0,11-1.9,14.2-5.8C191.6-1190.7,193.2-1196.4,193.2-1204z"/>
			</g>
			<g>
				<path d="M211.1-1182.3h9v-54.7h-9V-1182.3z M211.1-1161h9v-11.4h-9V-1161z"/>
			</g>
			<g>
				<path d="M285.6-1207.4v-4.4h-41.3c0.4-6.2,2.3-10.9,5.6-14.1s8-4.9,13.9-4.9c3.4,0,6.8,0.4,10,1.3c3.2,0.8,6.5,2.1,9.7,3.8v-8.5
					c-3.2-1.4-6.5-2.4-9.9-3.1s-6.8-1.1-10.3-1.1c-8.7,0-15.6,2.5-20.7,7.6c-5.1,5.1-7.6,12-7.6,20.6c0,8.9,2.4,16,7.2,21.3
					s11.4,7.9,19.6,7.9c7.4,0,13.2-2.4,17.5-7.1C283.5-1192.8,285.6-1199.3,285.6-1207.4z M276.7-1204.8c-0.1,4.9-1.4,8.8-4.1,11.8
					c-2.7,2.9-6.2,4.4-10.7,4.4c-5,0-9-1.4-12-4.2c-3-2.8-4.7-6.8-5.2-12L276.7-1204.8z"/>
			</g>
			<g>
				<path d="M300.4-1161h9v-76h-9V-1161z"/>
			</g>
			<g>
				<path d="M318.8-1237"/>
			</g>
			<g>
				<path d="M360.3-1164.1h9.9v-72.9h-9.9V-1164.1z"/>
			</g>
			<g>
				<path d="M434.9-1204v-33h-9v32.7c0,5.2-1,9-3,11.6s-5,3.9-9.1,3.9c-4.9,0-8.7-1.5-11.5-4.6s-4.2-7.3-4.2-12.6v-30.9h-9v54.7h9
					v-8.5c2.2,3.3,4.7,5.8,7.6,7.4s6.3,2.4,10.1,2.4c6.3,0,11-1.9,14.2-5.8C433.3-1190.7,434.9-1196.4,434.9-1204z"/>
			</g>
			<g>
				<path d="M474-1188.6c-4.8,0-8.6-1.9-11.4-5.6c-2.8-3.8-4.2-8.9-4.2-15.5c0-6.5,1.4-11.7,4.2-15.5c2.8-3.8,6.6-5.6,11.5-5.6
					c4.8,0,8.6,1.9,11.4,5.7c2.8,3.8,4.2,8.9,4.2,15.4s-1.4,11.6-4.2,15.4C482.6-1190.5,478.8-1188.6,474-1188.6z M474-1181
					c7.8,0,13.9-2.5,18.4-7.6s6.7-12.1,6.7-21.1c0-8.9-2.2-16-6.7-21.1s-10.6-7.6-18.4-7.6s-14,2.5-18.4,7.6s-6.7,12.1-6.7,21.1
					s2.2,16,6.7,21.1C460-1183.5,466.2-1181,474-1181z"/>
			</g>
			<g>
				<path d="M513.1-1215.4v33.1h9v-32.8c0-5.2,1-9.1,3-11.7s5.1-3.9,9.1-3.9c4.8,0,8.7,1.5,11.5,4.6s4.2,7.3,4.2,12.7v31h9v-54.7h-9
					v8.4c-2.2-3.3-4.7-5.8-7.6-7.4c-2.9-1.6-6.2-2.4-10-2.4c-6.3,0-11.1,2-14.3,5.9C514.7-1228.7,513.1-1222.9,513.1-1215.4z"/>
			</g>
			<g>
				<path d="M600.1-1242.1c-2.5-6.5-5-10.8-7.4-12.7c-2.4-2-5.6-3-9.7-3h-7.2v7.5h5.3c2.5,0,4.4,0.6,5.8,1.8
					c1.4,1.2,2.9,3.9,4.5,8.3l1.6,4.1l-22.1,53.8h9.5l17.1-42.8l17.1,42.8h9.5L600.1-1242.1z"/>
			</g>
			<g>
				<path d="M683.4-1207.4v-4.4H642c0.4-6.2,2.3-10.9,5.6-14.1s8-4.9,13.9-4.9c3.4,0,6.8,0.4,10,1.3c3.2,0.8,6.5,2.1,9.7,3.8v-8.5
					c-3.2-1.4-6.5-2.4-9.9-3.1s-6.8-1.1-10.3-1.1c-8.7,0-15.6,2.5-20.7,7.6c-5.1,5.1-7.6,12-7.6,20.6c0,8.9,2.4,16,7.2,21.3
					s11.4,7.9,19.6,7.9c7.4,0,13.2-2.4,17.5-7.1C681.2-1192.8,683.4-1199.3,683.4-1207.4z M674.4-1204.8c-0.1,4.9-1.4,8.8-4.1,11.8
					c-2.7,2.9-6.2,4.4-10.7,4.4c-5,0-9-1.4-12-4.2c-3-2.8-4.7-6.8-5.2-12L674.4-1204.8z"/>
			</g>
		</g>
	</g>
</g>
<g id="ytick_9">
	<g id="text_16">
		<g transform="translate(43.973437 23.880175)scale(0.1 -0.1)">
			<g>
				<path d="M9.8-1164.1h9.9v-29.9h35.8v29.9h9.9v-72.9h-9.9v34.7H19.7v-34.7H9.8V-1164.1z"/>
			</g>
			<g>
				<path d="M84.6-1182.3h9v-54.7h-9V-1182.3z M84.6-1161h9v-11.4h-9V-1161z"/>
			</g>
			<g>
				<path d="M144.1-1190.7c-1,0.6-2.1,1-3.3,1.3s-2.5,0.4-3.9,0.4c-5.1,0-9-1.7-11.7-5s-4.1-8-4.1-14.2v-28.8h-9v54.7h9v-8.5
					c1.9,3.3,4.4,5.8,7.4,7.4c3,1.6,6.7,2.4,11,2.4c0.6,0,1.3,0,2-0.1c0.8-0.1,1.6-0.2,2.5-0.4L144.1-1190.7z"/>
			</g>
			<g>
				<path d="M178.4-1209.5c-7.3,0-12.3-0.8-15.1-2.5s-4.2-4.5-4.2-8.5c0-3.2,1.1-5.7,3.2-7.6c2.1-1.9,5-2.8,8.6-2.8
					c5,0,9,1.8,12,5.3s4.5,8.2,4.5,14.1v2H178.4z M196.3-1205.8v-31.2h-9v8.3c-2.1-3.3-4.6-5.8-7.7-7.3c-3.1-1.6-6.8-2.4-11.2-2.4
					c-5.6,0-10,1.6-13.4,4.7c-3.3,3.1-5,7.4-5,12.6c0,6.1,2.1,10.8,6.2,13.9c4.1,3.1,10.3,4.7,18.4,4.7h12.6v0.9
					c0,4.1-1.4,7.3-4.1,9.6c-2.7,2.3-6.5,3.4-11.5,3.4c-3.1,0-6.2-0.4-9.1-1.1c-3-0.8-5.8-1.9-8.5-3.4v8.3c3.3,1.3,6.5,2.2,9.6,2.8
					c3.1,0.6,6.1,1,9,1c7.9,0,13.8-2.1,17.7-6.2C194.3-1191.3,196.3-1197.5,196.3-1205.8z"/>
			</g>
			<g>
				<path d="M257.4-1192.8c2.2,4,4.9,7,8.1,8.9c3.1,1.9,6.8,2.9,11,2.9c5.7,0,10.1-2,13.2-6s4.6-9.6,4.6-17v-33h-9v32.7
					c0,5.2-0.9,9.1-2.8,11.7c-1.9,2.5-4.7,3.8-8.5,3.8c-4.7,0-8.3-1.5-11-4.6s-4-7.3-4-12.6v-30.9h-9v32.7c0,5.3-0.9,9.2-2.8,11.7
					c-1.9,2.5-4.7,3.8-8.6,3.8c-4.6,0-8.2-1.6-11-4.7c-2.7-3.1-4-7.3-4-12.6v-30.9h-9v54.7h9v-8.5c2.1,3.4,4.5,5.8,7.4,7.4
					s6.3,2.4,10.2,2.4c4,0,7.4-1,10.1-3C254-1186,256-1189,257.4-1192.8z"/>
			</g>
			<g>
				<path d="M302.8-1237"/>
			</g>
			<g>
				<path id="DejaVuSans-70" d="M344.4-1164.1h41.9v-8.3h-32v-21.5h28.9v-8.3h-28.9v-34.8h-9.9V-1164.1z"/>
			</g>
			<g>
				<path d="M422.7-1188.6c-4.8,0-8.6-1.9-11.4-5.6c-2.8-3.8-4.2-8.9-4.2-15.5c0-6.5,1.4-11.7,4.2-15.5c2.8-3.8,6.6-5.6,11.5-5.6
					c4.8,0,8.6,1.9,11.4,5.7c2.8,3.8,4.2,8.9,4.2,15.4s-1.4,11.6-4.2,15.4C431.2-1190.5,427.4-1188.6,422.7-1188.6z M422.7-1181
					c7.8,0,13.9-2.5,18.4-7.6s6.7-12.1,6.7-21.1c0-8.9-2.2-16-6.7-21.1s-10.6-7.6-18.4-7.6s-14,2.5-18.4,7.6s-6.7,12.1-6.7,21.1
					s2.2,16,6.7,21.1C408.7-1183.5,414.8-1181,422.7-1181z"/>
			</g>
			<g>
				<path d="M508.1-1204v-33h-9v32.7c0,5.2-1,9-3,11.6s-5,3.9-9.1,3.9c-4.9,0-8.7-1.5-11.5-4.6s-4.2-7.3-4.2-12.6v-30.9h-9v54.7h9
					v-8.5c2.2,3.3,4.7,5.8,7.6,7.4s6.3,2.4,10.1,2.4c6.3,0,11-1.9,14.2-5.8C506.5-1190.7,508.1-1196.4,508.1-1204z"/>
			</g>
			<g>
				<path d="M562-1209c0,6.5-1.3,11.6-4,15.1c-2.7,3.6-6.4,5.4-11.3,5.4c-4.8,0-8.6-1.8-11.2-5.4c-2.7-3.6-4-8.6-4-15.1
					s1.3-11.5,4-15.1s6.4-5.4,11.2-5.4c4.9,0,8.6,1.8,11.3,5.4S562-1215.5,562-1209z M571-1230.2c0-9.3-2.1-16.2-6.2-20.8
					c-4.1-4.5-10.5-6.8-19-6.8c-3.2,0-6.1,0.2-8.9,0.7c-2.8,0.5-5.5,1.2-8.2,2.2v8.7c2.6-1.4,5.2-2.5,7.8-3.2s5.2-1,7.9-1
					c5.9,0,10.3,1.5,13.2,4.6s4.4,7.7,4.4,13.9v4.5c-1.9-3.2-4.2-5.6-7.1-7.2s-6.4-2.4-10.4-2.4c-6.7,0-12.1,2.6-16.2,7.7
					c-4.1,5.1-6.2,11.9-6.2,20.3c0,8.5,2.1,15.2,6.2,20.3c4.1,5.1,9.5,7.7,16.2,7.7c4,0,7.5-0.8,10.4-2.4s5.3-4,7.1-7.2v8.3h9
					V-1230.2z"/>
			</g>
		</g>
	</g>
</g>
<g id="LineCollection_1">
	<rect x="109" y="130.9" class="st1" width="334.8" height="217.4"/>
	<path class="st6" d="M410.9,311.5h14.7"/>
	<rect x="109" y="130.9" class="st1" width="334.8" height="217.4"/>
	<path class="st6" d="M410.9,335.5h14.7"/>
	<rect x="109" y="130.9" class="st1" width="334.8" height="217.4"/>
	<path class="st6" d="M391.3,287.5h34.2"/>
	<rect x="109" y="130.9" class="st1" width="334.8" height="217.4"/>
	<path class="st7" d="M332.6,263.6h48.9"/>
	<rect x="109" y="130.9" class="st1" width="334.8" height="217.4"/>
	<path class="st6" d="M278.8,239.6h112.5"/>
	<rect x="109" y="130.9" class="st1" width="334.8" height="217.4"/>
	<path class="st7" d="M215.2,191.7h29.4"/>
	<rect x="109" y="130.9" class="st1" width="334.8" height="217.4"/>
	<path class="st6" d="M215.2,215.7h63.6"/>
	<rect x="109" y="130.9" class="st1" width="334.8" height="217.4"/>
	<path class="st6" d="M146.7,167.7h239.7"/>
	<rect x="109" y="130.9" class="st1" width="334.8" height="217.4"/>
	<path class="st7" d="M127.1,143.8h88.1"/>
</g>
<g id="patch_5">
	<path class="st8" d="M109,348.3h334.8"/>
</g>
<rect x="73.1" y="53.1" class="st1" width="342.6" height="18.8"/>
<text transform="matrix(1 0 0 1 73.133 66.0068)" class="st9 st10 st11">Aisan American Senators in U.S. History</text>
<g>
	<g>
		<g>
			<path class="st2" d="M123.8,92.9c0.8,0,1.6-0.3,2.1-0.9c0.6-0.6,0.9-1.3,0.9-2.1s-0.3-1.6-0.9-2.1c-0.6-0.6-1.3-0.9-2.1-0.9
				s-1.6,0.3-2.1,0.9c-0.6,0.6-0.9,1.3-0.9,2.1s0.3,1.6,0.9,2.1C122.3,92.6,123.1,92.9,123.8,92.9z"/>
		</g>
	</g>
	<path class="st3" d="M191.1,92.9c0.8,0,1.6-0.3,2.1-0.9c0.6-0.6,0.9-1.3,0.9-2.1s-0.3-1.6-0.9-2.1c-0.6-0.6-1.3-0.9-2.1-0.9
		s-1.6,0.3-2.1,0.9c-0.6,0.6-0.9,1.3-0.9,2.1s0.3,1.6,0.9,2.1C189.6,92.6,190.3,92.9,191.1,92.9z"/>
	<text transform="matrix(1 0 0 1 68.0897 97.3039)" class="st12 st13">*</text>
	<g id="ytick_9_1_">
		<text transform="matrix(1 0 0 1 77.076 92.6005)" class="st10 st14">female</text>
	</g>
	<path class="st6" d="M251.4,89.9h14.7"/>
	<path class="st7" d="M329.5,89.9h14.7"/>
	<text transform="matrix(1 0 0 1 270.0405 92.6005)" class="st10 st14">Democratic</text>
	<text transform="matrix(1 0 0 1 346.9703 92.6008)" class="st10 st14">Republican</text>
	<text transform="matrix(1 0 0 1 130.4594 92.6009)" class="st10 st14">start date</text>
	<text transform="matrix(1 0 0 1 198.9537 92.6005)" class="st10 st14">end date</text>
</g>
<text transform="matrix(1 0 0 1 24.4927 343.325)" class="st12 st13">*</text>
<text transform="matrix(1 0 0 1 0.9267 320.2385)" class="st12 st13">*</text>
<text transform="matrix(1 0 0 1 29.1072 295.4987)" class="st12 st13">*</text>
</svg>
