<?xml version="1.0" encoding="utf-8"?>
<!-- Generator: Adobe Illustrator 23.0.4, SVG Export Plug-In . SVG Version: 6.00 Build 0)  -->
<svg version="1.1" id="Layer_1" xmlns="http://www.w3.org/2000/svg" xmlns:xlink="http://www.w3.org/1999/xlink" x="0px" y="0px"
	 viewBox="0 0 486.5 343" style="enable-background:new 0 0 486.5 343;" xml:space="preserve">
<style type="text/css">
	.st0{fill:none;}
	.st1{fill:none;stroke:#000000;stroke-linejoin:round;}
	.st2{stroke:#000000;stroke-linejoin:round;}
	.st3{fill:none;stroke:#D3D3D3;stroke-width:0.5;stroke-linecap:square;stroke-linejoin:round;}
	.st4{stroke:#000000;stroke-width:0.8;stroke-linejoin:round;}
	.st5{fill:#5783C3;stroke:#2D79C4;stroke-linejoin:round;}
	.st6{fill:#EA1840;stroke:#E81831;stroke-linejoin:round;}
	.st7{fill:none;stroke:#000000;stroke-width:0.8;stroke-linecap:square;}
	.st8{fill:#231F20;}
	.st9{font-family:'ArialMT';}
	.st10{font-size:18px;}
	.st11{font-family:'Arial-BoldMT';}
	.st12{font-size:14px;}
	.st13{font-size:10px;}
</style>
<rect x="122.9" y="101.7" class="st0" width="334.8" height="217.4"/>
<g>
	<path id="C0_0_b9393eeb78" class="st1" d="M141.1,309.3c0.8,0,1.6-0.3,2.1-0.9c0.6-0.6,0.9-1.3,0.9-2.1c0-0.8-0.3-1.6-0.9-2.1
		c-0.6-0.6-1.3-0.9-2.1-0.9s-1.6,0.3-2.1,0.9c-0.6,0.6-0.9,1.3-0.9,2.1c0,0.8,0.3,1.6,0.9,2.1C139.5,309,140.3,309.3,141.1,309.3z"
		/>
</g>
<rect x="122.9" y="101.7" class="st0" width="334.8" height="217.4"/>
<g>
	<g>
		<path class="st1" d="M160.7,285.3c0.8,0,1.6-0.3,2.1-0.9c0.6-0.6,0.9-1.3,0.9-2.1c0-0.8-0.3-1.6-0.9-2.1s-1.3-0.9-2.1-0.9
			s-1.6,0.3-2.1,0.9c-0.6,0.6-0.9,1.3-0.9,2.1c0,0.8,0.3,1.6,0.9,2.1C159.1,285,159.9,285.3,160.7,285.3z"/>
	</g>
</g>
<g>
	<g>
		<path class="st1" d="M150.4,74.3c0.8,0,1.6-0.3,2.1-0.9c0.6-0.6,0.9-1.3,0.9-2.1s-0.3-1.6-0.9-2.1c-0.6-0.6-1.3-0.9-2.1-0.9
			s-1.6,0.3-2.1,0.9c-0.6,0.6-0.9,1.3-0.9,2.1s0.3,1.6,0.9,2.1C148.8,74,149.6,74.3,150.4,74.3z"/>
	</g>
</g>
<rect x="122.9" y="101.7" class="st0" width="334.8" height="217.4"/>
<g>
	<g>
		<path class="st1" d="M229.2,261.4c0.8,0,1.6-0.3,2.1-0.9c0.6-0.6,0.9-1.3,0.9-2.1c0-0.8-0.3-1.6-0.9-2.1c-0.6-0.6-1.3-0.9-2.1-0.9
			s-1.6,0.3-2.1,0.9c-0.6,0.6-0.9,1.3-0.9,2.1c0,0.8,0.3,1.6,0.9,2.1C227.6,261,228.4,261.4,229.2,261.4z"/>
	</g>
</g>
<rect x="122.9" y="101.7" class="st0" width="334.8" height="217.4"/>
<g>
	<g>
		<path class="st1" d="M229.2,237.4c0.8,0,1.6-0.3,2.1-0.9c0.6-0.6,0.9-1.3,0.9-2.1s-0.3-1.6-0.9-2.1s-1.3-0.9-2.1-0.9
			s-1.6,0.3-2.1,0.9c-0.6,0.6-0.9,1.3-0.9,2.1s0.3,1.6,0.9,2.1C227.6,237.1,228.4,237.4,229.2,237.4z"/>
	</g>
</g>
<rect x="122.9" y="101.7" class="st0" width="334.8" height="217.4"/>
<g>
	<path class="st1" d="M292.8,213.4c0.8,0,1.6-0.3,2.1-0.9c0.6-0.6,0.9-1.3,0.9-2.1s-0.3-1.6-0.9-2.1s-1.3-0.9-2.1-0.9
		c-0.8,0-1.6,0.3-2.1,0.9s-0.9,1.3-0.9,2.1s0.3,1.6,0.9,2.1C291.2,213.1,292,213.4,292.8,213.4z"/>
</g>
<rect x="122.9" y="101.7" class="st0" width="334.8" height="217.4"/>
<path class="st1" d="M346.6,189.5c0.8,0,1.6-0.3,2.1-0.9c0.6-0.6,0.9-1.3,0.9-2.1s-0.3-1.6-0.9-2.1s-1.3-0.9-2.1-0.9
	c-0.8,0-1.6,0.3-2.1,0.9s-0.9,1.3-0.9,2.1s0.3,1.6,0.9,2.1C345,189.2,345.8,189.5,346.6,189.5z"/>
<rect x="122.9" y="101.7" class="st0" width="334.8" height="217.4"/>
<g>
	<g>
		<path class="st1" d="M405.3,165.5c0.8,0,1.6-0.3,2.1-0.9s0.9-1.3,0.9-2.1s-0.3-1.6-0.9-2.1c-0.6-0.6-1.3-0.9-2.1-0.9
			c-0.8,0-1.6,0.3-2.1,0.9c-0.6,0.6-0.9,1.3-0.9,2.1s0.3,1.6,0.9,2.1S404.5,165.5,405.3,165.5z"/>
	</g>
</g>
<rect x="122.9" y="101.7" class="st0" width="334.8" height="217.4"/>
<g>
	<g>
		<path class="st1" d="M424.9,141.6c0.8,0,1.6-0.3,2.1-0.9s0.9-1.3,0.9-2.1s-0.3-1.6-0.9-2.1c-0.6-0.6-1.3-0.9-2.1-0.9
			c-0.8,0-1.6,0.3-2.1,0.9c-0.6,0.6-0.9,1.3-0.9,2.1s0.3,1.6,0.9,2.1S424.1,141.6,424.9,141.6z"/>
	</g>
</g>
<rect x="122.9" y="101.7" class="st0" width="334.8" height="217.4"/>
<g>
	<g>
		<path class="st1" d="M424.9,117.6c0.8,0,1.6-0.3,2.1-0.9c0.6-0.6,0.9-1.3,0.9-2.1s-0.3-1.6-0.9-2.1c-0.6-0.6-1.3-0.9-2.1-0.9
			c-0.8,0-1.6,0.3-2.1,0.9c-0.6,0.6-0.9,1.3-0.9,2.1s0.3,1.6,0.9,2.1C423.3,117.3,424.1,117.6,424.9,117.6z"/>
	</g>
</g>
<rect x="122.9" y="101.7" class="st0" width="334.8" height="217.4"/>
<path id="mb3d0daa4fc" class="st2" d="M229.2,309.3c0.8,0,1.6-0.3,2.1-0.9c0.6-0.6,0.9-1.3,0.9-2.1c0-0.8-0.3-1.6-0.9-2.1
	c-0.6-0.6-1.3-0.9-2.1-0.9s-1.6,0.3-2.1,0.9c-0.6,0.6-0.9,1.3-0.9,2.1c0,0.8,0.3,1.6,0.9,2.1C227.6,309,228.4,309.3,229.2,309.3z"/>
<path class="st2" d="M400.4,285.3c0.8,0,1.6-0.3,2.1-0.9c0.6-0.6,0.9-1.3,0.9-2.1c0-0.8-0.3-1.6-0.9-2.1s-1.3-0.9-2.1-0.9
	c-0.8,0-1.6,0.3-2.1,0.9s-0.9,1.3-0.9,2.1c0,0.8,0.3,1.6,0.9,2.1C398.8,285,399.6,285.3,400.4,285.3z"/>
<path class="st2" d="M258.5,261.4c0.8,0,1.6-0.3,2.1-0.9c0.6-0.6,0.9-1.3,0.9-2.1c0-0.8-0.3-1.6-0.9-2.1c-0.6-0.6-1.3-0.9-2.1-0.9
	c-0.8,0-1.6,0.3-2.1,0.9c-0.6,0.6-0.9,1.3-0.9,2.1c0,0.8,0.3,1.6,0.9,2.1C257,261,257.7,261.4,258.5,261.4z"/>
<path class="st2" d="M292.8,237.4c0.8,0,1.6-0.3,2.1-0.9c0.6-0.6,0.9-1.3,0.9-2.1s-0.3-1.6-0.9-2.1s-1.3-0.9-2.1-0.9
	c-0.8,0-1.6,0.3-2.1,0.9s-0.9,1.3-0.9,2.1s0.3,1.6,0.9,2.1C291.2,237.1,292,237.4,292.8,237.4z"/>
<path class="st2" d="M405.3,213.4c0.8,0,1.6-0.3,2.1-0.9c0.6-0.6,0.9-1.3,0.9-2.1s-0.3-1.6-0.9-2.1s-1.3-0.9-2.1-0.9
	c-0.8,0-1.6,0.3-2.1,0.9s-0.9,1.3-0.9,2.1s0.3,1.6,0.9,2.1C403.7,213.1,404.5,213.4,405.3,213.4z"/>
<path class="st2" d="M395.5,189.5c0.8,0,1.6-0.3,2.1-0.9c0.6-0.6,0.9-1.3,0.9-2.1s-0.3-1.6-0.9-2.1s-1.3-0.9-2.1-0.9
	c-0.8,0-1.6,0.3-2.1,0.9s-0.9,1.3-0.9,2.1s0.3,1.6,0.9,2.1C394,189.2,394.7,189.5,395.5,189.5z"/>
<path class="st2" d="M217.6,74.3c0.8,0,1.6-0.3,2.1-0.9c0.6-0.6,0.9-1.3,0.9-2.1s-0.3-1.6-0.9-2.1c-0.6-0.6-1.3-0.9-2.1-0.9
	c-0.8,0-1.6,0.3-2.1,0.9c-0.6,0.6-0.9,1.3-0.9,2.1s0.3,1.6,0.9,2.1C216.1,74,216.8,74.3,217.6,74.3z"/>
<g id="xtick_1">
	<g id="line2d_1">
		<rect x="122.9" y="101.7" class="st0" width="334.8" height="217.4"/>
		<path class="st3" d="M146,319.2V101.7"/>
	</g>
	<g id="line2d_2">
		<g>
			<g>
				<path id="m6602268db2" class="st4" d="M146,319.2v3.5"/>
			</g>
		</g>
	</g>
	<g id="text_1">
		<g transform="translate(119.308798 239.238438)scale(0.1 -0.1)">
			<g>
				<path id="DejaVuSans-49" d="M152-936.9h16.1v55.6l-17.5-3.5v9l17.4,3.5h9.9v-64.6h16.1v-8.3h-42V-936.9z"/>
			</g>
			<g>
				<path id="DejaVuSans-57" d="M214.2-943.7v9c2.5-1.2,5-2.1,7.5-2.7c2.5-0.6,5-0.9,7.5-0.9c6.5,0,11.5,2.2,14.9,6.6
					c3.4,4.4,5.4,11,5.9,20c-1.9-2.8-4.3-5-7.2-6.5c-2.9-1.5-6.1-2.2-9.6-2.2c-7.3,0-13.1,2.2-17.3,6.6c-4.2,4.4-6.4,10.5-6.4,18.1
					c0,7.5,2.2,13.5,6.6,18c4.4,4.5,10.3,6.8,17.7,6.8c8.4,0,14.9-3.2,19.3-9.7c4.4-6.5,6.7-15.8,6.7-28.1c0-11.5-2.7-20.7-8.2-27.5
					c-5.4-6.9-12.8-10.3-22-10.3c-2.5,0-5,0.2-7.5,0.7C219.5-945.4,216.9-944.7,214.2-943.7z M233.8-912.8c4.4,0,7.9,1.5,10.5,4.5
					c2.6,3,3.9,7.2,3.9,12.5c0,5.2-1.3,9.4-3.9,12.4c-2.6,3-6.1,4.6-10.5,4.6s-7.9-1.5-10.5-4.6c-2.6-3-3.9-7.2-3.9-12.4
					c0-5.3,1.3-9.4,3.9-12.5C225.9-911.3,229.4-912.8,233.8-912.8z"/>
			</g>
			<g>
				<path id="DejaVuSans-54" d="M299.8-904.8c-4.4,0-7.9-1.5-10.5-4.5c-2.6-3-3.9-7.2-3.9-12.4c0-5.2,1.3-9.4,3.9-12.4
					c2.6-3,6.1-4.6,10.5-4.6c4.4,0,7.9,1.5,10.5,4.6c2.6,3.1,3.9,7.2,3.9,12.4c0,5.3-1.3,9.4-3.9,12.4
					C307.8-906.3,304.2-904.8,299.8-904.8z M319.4-873.9v-9c-2.5,1.2-5,2.1-7.5,2.7c-2.5,0.6-5,0.9-7.5,0.9
					c-6.5,0-11.5-2.2-14.9-6.6c-3.4-4.4-5.4-11-5.9-19.9c1.9,2.8,4.3,5,7.2,6.5c2.9,1.5,6.1,2.3,9.6,2.3c7.3,0,13.1-2.2,17.4-6.7
					c4.2-4.4,6.4-10.5,6.4-18.1c0-7.5-2.2-13.5-6.6-18c-4.4-4.5-10.3-6.8-17.7-6.8c-8.4,0-14.9,3.2-19.3,9.7
					c-4.5,6.5-6.7,15.8-6.7,28.1c0,11.5,2.7,20.7,8.2,27.6c5.5,6.9,12.8,10.3,22,10.3c2.5,0,5-0.2,7.5-0.7
					C314-872.2,316.7-872.9,319.4-873.9z"/>
			</g>
			<g>
				<path id="DejaVuSans-48" d="M362.2-878.8c-5.1,0-8.9-2.5-11.5-7.5c-2.6-5-3.8-12.5-3.8-22.5c0-10,1.3-17.5,3.8-22.5
					c2.6-5,6.4-7.5,11.5-7.5c5.1,0,8.9,2.5,11.5,7.5c2.6,5,3.8,12.5,3.8,22.5c0,10-1.3,17.5-3.8,22.5
					C371.2-881.3,367.3-878.8,362.2-878.8z M362.2-871c8.2,0,14.4-3.2,18.7-9.7c4.3-6.5,6.5-15.8,6.5-28.1c0-12.3-2.2-21.6-6.5-28.1
					c-4.3-6.5-10.6-9.7-18.7-9.7c-8.2,0-14.4,3.2-18.7,9.7c-4.3,6.5-6.5,15.8-6.5,28.1c0,12.3,2.2,21.7,6.5,28.1
					C347.8-874.2,354-871,362.2-871z"/>
			</g>
		</g>
	</g>
</g>
<rect x="122.9" y="101.7" class="st0" width="334.8" height="217.4"/>
<path class="st3" d="M194.9,319.2V101.7"/>
<g>
	<g>
		<path class="st4" d="M194.9,319.2v3.5"/>
	</g>
</g>
<g transform="translate(168.235223 239.238438)scale(0.1 -0.1)">
	<g>
		<path d="M152-936.9h16.1v55.6l-17.5-3.5v9l17.4,3.5h9.9v-64.6h16.1v-8.3h-42V-936.9z"/>
	</g>
	<g>
		<path d="M214.2-943.7v9c2.5-1.2,5-2.1,7.5-2.7c2.5-0.6,5-0.9,7.5-0.9c6.5,0,11.5,2.2,14.9,6.6c3.4,4.4,5.4,11,5.9,20
			c-1.9-2.8-4.3-5-7.2-6.5c-2.9-1.5-6.1-2.2-9.6-2.2c-7.3,0-13.1,2.2-17.3,6.6c-4.2,4.4-6.4,10.5-6.4,18.1c0,7.5,2.2,13.5,6.6,18
			c4.4,4.5,10.3,6.8,17.7,6.8c8.4,0,14.9-3.2,19.3-9.7c4.4-6.5,6.7-15.8,6.7-28.1c0-11.5-2.7-20.7-8.2-27.5
			c-5.4-6.9-12.8-10.3-22-10.3c-2.5,0-5,0.2-7.5,0.7C219.5-945.4,216.9-944.7,214.2-943.7z M233.8-912.8c4.4,0,7.9,1.5,10.5,4.5
			c2.6,3,3.9,7.2,3.9,12.5c0,5.2-1.3,9.4-3.9,12.4c-2.6,3-6.1,4.6-10.5,4.6c-4.4,0-7.9-1.5-10.5-4.6c-2.6-3-3.9-7.2-3.9-12.4
			c0-5.3,1.3-9.4,3.9-12.5C225.9-911.3,229.4-912.8,233.8-912.8z"/>
	</g>
	<g>
		<path id="DejaVuSans-55" d="M275-872.3h46.9v-4.2l-26.5-68.7h-10.3l24.9,64.6h-35V-872.3z"/>
	</g>
	<g>
		<path d="M362.2-878.8c-5.1,0-8.9-2.5-11.5-7.5c-2.6-5-3.8-12.5-3.8-22.5c0-10,1.3-17.5,3.8-22.5c2.6-5,6.4-7.5,11.5-7.5
			c5.1,0,8.9,2.5,11.5,7.5c2.6,5,3.8,12.5,3.8,22.5c0,10-1.3,17.5-3.8,22.5C371.2-881.3,367.3-878.8,362.2-878.8z M362.2-871
			c8.2,0,14.4-3.2,18.7-9.7c4.3-6.5,6.5-15.8,6.5-28.1c0-12.3-2.2-21.6-6.5-28.1c-4.3-6.5-10.6-9.7-18.7-9.7
			c-8.2,0-14.4,3.2-18.7,9.7c-4.3,6.5-6.5,15.8-6.5,28.1c0,12.3,2.2,21.7,6.5,28.1C347.8-874.2,354-871,362.2-871z"/>
	</g>
</g>
<g id="xtick_3">
	<g id="line2d_5">
		<rect x="122.9" y="101.7" class="st0" width="334.8" height="217.4"/>
		<path class="st3" d="M243.8,319.2V101.7"/>
	</g>
	<g id="line2d_6">
		<g>
			<g>
				<path class="st4" d="M243.8,319.2v3.5"/>
			</g>
		</g>
	</g>
	<g id="text_3">
		<g transform="translate(217.161648 239.238438)scale(0.1 -0.1)">
			<g>
				<path d="M152-936.9h16.1v55.6l-17.5-3.5v9l17.4,3.5h9.9v-64.6h16.1v-8.3h-42V-936.9z"/>
			</g>
			<g>
				<path d="M214.2-943.7v9c2.5-1.2,5-2.1,7.5-2.7c2.5-0.6,5-0.9,7.5-0.9c6.5,0,11.5,2.2,14.9,6.6c3.4,4.4,5.4,11,5.9,20
					c-1.9-2.8-4.3-5-7.2-6.5c-2.9-1.5-6.1-2.2-9.6-2.2c-7.3,0-13.1,2.2-17.3,6.6c-4.2,4.4-6.4,10.5-6.4,18.1c0,7.5,2.2,13.5,6.6,18
					c4.4,4.5,10.3,6.8,17.7,6.8c8.4,0,14.9-3.2,19.3-9.7c4.4-6.5,6.7-15.8,6.7-28.1c0-11.5-2.7-20.7-8.2-27.5
					c-5.4-6.9-12.8-10.3-22-10.3c-2.5,0-5,0.2-7.5,0.7C219.5-945.4,216.9-944.7,214.2-943.7z M233.8-912.8c4.4,0,7.9,1.5,10.5,4.5
					c2.6,3,3.9,7.2,3.9,12.5c0,5.2-1.3,9.4-3.9,12.4c-2.6,3-6.1,4.6-10.5,4.6s-7.9-1.5-10.5-4.6c-2.6-3-3.9-7.2-3.9-12.4
					c0-5.3,1.3-9.4,3.9-12.5C225.9-911.3,229.4-912.8,233.8-912.8z"/>
			</g>
			<g>
				<path id="DejaVuSans-56" d="M298.6-910.6c-4.7,0-8.4-1.3-11.1-3.8c-2.7-2.5-4-6-4-10.3c0-4.4,1.3-7.8,4-10.4
					c2.7-2.5,6.4-3.8,11.1-3.8s8.4,1.3,11.1,3.8c2.7,2.5,4.1,6,4.1,10.3c0,4.4-1.3,7.8-4,10.3C307-911.8,303.3-910.6,298.6-910.6z
					 M288.7-906.4c-4.2,1-7.5,3-9.9,5.9c-2.4,2.9-3.5,6.4-3.5,10.6c0,5.8,2.1,10.4,6.2,13.8c4.2,3.4,9.8,5.1,17.1,5.1
					c7.3,0,13-1.7,17.1-5.1c4.1-3.4,6.2-8,6.2-13.8c0-4.2-1.2-7.7-3.5-10.6c-2.4-2.9-5.6-4.9-9.8-5.9c4.8-1.1,8.4-3.3,11.1-6.5
					c2.7-3.2,4-7.2,4-11.8c0-7.1-2.2-12.5-6.5-16.3c-4.3-3.8-10.5-5.7-18.5-5.7c-8,0-14.2,1.9-18.5,5.7c-4.3,3.8-6.5,9.2-6.5,16.3
					c0,4.6,1.3,8.6,4,11.8C280.3-909.7,284-907.5,288.7-906.4z M285.1-890.8c0-3.8,1.2-6.7,3.5-8.8c2.4-2.1,5.7-3.2,9.9-3.2
					c4.2,0,7.6,1.1,9.9,3.2c2.4,2.1,3.6,5.1,3.6,8.8c0,3.8-1.2,6.7-3.6,8.8c-2.4,2.1-5.7,3.2-9.9,3.2c-4.3,0-7.6-1.1-9.9-3.2
					C286.3-884.1,285.1-887,285.1-890.8z"/>
			</g>
			<g>
				<path d="M362.2-878.8c-5.1,0-8.9-2.5-11.5-7.5c-2.6-5-3.8-12.5-3.8-22.5c0-10,1.3-17.5,3.8-22.5c2.6-5,6.4-7.5,11.5-7.5
					c5.1,0,8.9,2.5,11.5,7.5c2.6,5,3.8,12.5,3.8,22.5c0,10-1.3,17.5-3.8,22.5C371.2-881.3,367.3-878.8,362.2-878.8z M362.2-871
					c8.2,0,14.4-3.2,18.7-9.7c4.3-6.5,6.5-15.8,6.5-28.1c0-12.3-2.2-21.6-6.5-28.1c-4.3-6.5-10.6-9.7-18.7-9.7
					c-8.2,0-14.4,3.2-18.7,9.7c-4.3,6.5-6.5,15.8-6.5,28.1c0,12.3,2.2,21.7,6.5,28.1C347.8-874.2,354-871,362.2-871z"/>
			</g>
		</g>
	</g>
</g>
<g id="xtick_4">
	<g id="line2d_7">
		<rect x="122.9" y="101.7" class="st0" width="334.8" height="217.4"/>
		<path class="st3" d="M292.8,319.2V101.7"/>
	</g>
	<g id="line2d_8">
		<g>
			<g>
				<path class="st4" d="M292.8,319.2v3.5"/>
			</g>
		</g>
	</g>
	<g id="text_4">
		<g transform="translate(266.088074 239.238438)scale(0.1 -0.1)">
			<g>
				<path d="M152-936.9h16.1v55.6l-17.5-3.5v9l17.4,3.5h9.9v-64.6h16.1v-8.3h-42V-936.9z"/>
			</g>
			<g>
				<path d="M214.2-943.7v9c2.5-1.2,5-2.1,7.5-2.7c2.5-0.6,5-0.9,7.5-0.9c6.5,0,11.5,2.2,14.9,6.6c3.4,4.4,5.4,11,5.9,20
					c-1.9-2.8-4.3-5-7.2-6.5c-2.9-1.5-6.1-2.2-9.6-2.2c-7.3,0-13.1,2.2-17.3,6.6c-4.2,4.4-6.4,10.5-6.4,18.1c0,7.5,2.2,13.5,6.6,18
					c4.4,4.5,10.3,6.8,17.7,6.8c8.4,0,14.9-3.2,19.3-9.7c4.4-6.5,6.7-15.8,6.7-28.1c0-11.5-2.7-20.7-8.2-27.5
					c-5.4-6.9-12.8-10.3-22-10.3c-2.5,0-5,0.2-7.5,0.7C219.5-945.4,216.9-944.7,214.2-943.7z M233.8-912.8c4.4,0,7.9,1.5,10.5,4.5
					c2.6,3,3.9,7.2,3.9,12.5c0,5.2-1.3,9.4-3.9,12.4c-2.6,3-6.1,4.6-10.5,4.6s-7.9-1.5-10.5-4.6c-2.6-3-3.9-7.2-3.9-12.4
					c0-5.3,1.3-9.4,3.9-12.5C225.9-911.3,229.4-912.8,233.8-912.8z"/>
			</g>
			<g>
				<path d="M277.8-943.7v9c2.5-1.2,5-2.1,7.5-2.7c2.5-0.6,5-0.9,7.5-0.9c6.5,0,11.5,2.2,14.9,6.6c3.4,4.4,5.4,11,5.9,20
					c-1.9-2.8-4.3-5-7.2-6.5c-2.9-1.5-6.1-2.2-9.6-2.2c-7.3,0-13.1,2.2-17.3,6.6c-4.2,4.4-6.4,10.5-6.4,18.1c0,7.5,2.2,13.5,6.6,18
					c4.4,4.5,10.3,6.8,17.7,6.8c8.4,0,14.9-3.2,19.3-9.7c4.4-6.5,6.7-15.8,6.7-28.1c0-11.5-2.7-20.7-8.2-27.5
					c-5.4-6.9-12.8-10.3-22-10.3c-2.5,0-5,0.2-7.5,0.7C283.2-945.4,280.5-944.7,277.8-943.7z M297.4-912.8c4.4,0,7.9,1.5,10.5,4.5
					c2.6,3,3.9,7.2,3.9,12.5c0,5.2-1.3,9.4-3.9,12.4c-2.6,3-6.1,4.6-10.5,4.6c-4.4,0-7.9-1.5-10.5-4.6c-2.6-3-3.9-7.2-3.9-12.4
					c0-5.3,1.3-9.4,3.9-12.5C289.5-911.3,293-912.8,297.4-912.8z"/>
			</g>
			<g>
				<path d="M362.2-878.8c-5.1,0-8.9-2.5-11.5-7.5c-2.6-5-3.8-12.5-3.8-22.5c0-10,1.3-17.5,3.8-22.5c2.6-5,6.4-7.5,11.5-7.5
					c5.1,0,8.9,2.5,11.5,7.5c2.6,5,3.8,12.5,3.8,22.5c0,10-1.3,17.5-3.8,22.5C371.2-881.3,367.3-878.8,362.2-878.8z M362.2-871
					c8.2,0,14.4-3.2,18.7-9.7c4.3-6.5,6.5-15.8,6.5-28.1c0-12.3-2.2-21.6-6.5-28.1c-4.3-6.5-10.6-9.7-18.7-9.7
					c-8.2,0-14.4,3.2-18.7,9.7c-4.3,6.5-6.5,15.8-6.5,28.1c0,12.3,2.2,21.7,6.5,28.1C347.8-874.2,354-871,362.2-871z"/>
			</g>
		</g>
	</g>
</g>
<g id="xtick_5">
	<g id="line2d_9">
		<rect x="122.9" y="101.7" class="st0" width="334.8" height="217.4"/>
		<path class="st3" d="M341.7,319.2V101.7"/>
	</g>
	<g id="line2d_10">
		<g>
			<g>
				<path class="st4" d="M341.7,319.2v3.5"/>
			</g>
		</g>
	</g>
	<g id="text_5">
		<g transform="translate(315.014499 239.238438)scale(0.1 -0.1)">
			<g>
				<path id="DejaVuSans-50" d="M158.7-936.9h34.4v-8.3h-46.3v8.3c3.7,3.9,8.8,9.1,15.3,15.6c6.5,6.5,10.5,10.7,12.2,12.6
					c3.2,3.5,5.4,6.5,6.6,9c1.3,2.5,1.9,4.9,1.9,7.2c0,3.9-1.4,7-4.1,9.5c-2.7,2.4-6.3,3.7-10.6,3.7c-3.1,0-6.4-0.5-9.8-1.6
					c-3.4-1.1-7.1-2.7-11-4.9v10c4,1.6,7.7,2.8,11.1,3.6c3.5,0.8,6.6,1.2,9.5,1.2c7.6,0,13.6-1.9,18.1-5.7c4.5-3.8,6.7-8.8,6.7-15.1
					c0-3-0.6-5.8-1.7-8.5c-1.1-2.7-3.2-5.8-6.1-9.5c-0.8-0.9-3.4-3.7-7.8-8.2C172.8-922.5,166.7-928.8,158.7-936.9z"/>
			</g>
			<g>
				<path d="M235-878.8c-5.1,0-8.9-2.5-11.5-7.5c-2.6-5-3.8-12.5-3.8-22.5c0-10,1.3-17.5,3.8-22.5c2.6-5,6.4-7.5,11.5-7.5
					c5.1,0,8.9,2.5,11.5,7.5c2.6,5,3.8,12.5,3.8,22.5c0,10-1.3,17.5-3.8,22.5C243.9-881.3,240.1-878.8,235-878.8z M235-871
					c8.2,0,14.4-3.2,18.7-9.7c4.3-6.5,6.5-15.8,6.5-28.1c0-12.3-2.2-21.6-6.5-28.1c-4.3-6.5-10.6-9.7-18.7-9.7
					c-8.2,0-14.4,3.2-18.7,9.7c-4.3,6.5-6.5,15.8-6.5,28.1c0,12.3,2.2,21.7,6.5,28.1C220.6-874.2,226.8-871,235-871z"/>
			</g>
			<g>
				<path d="M298.6-878.8c-5.1,0-8.9-2.5-11.5-7.5c-2.6-5-3.8-12.5-3.8-22.5c0-10,1.3-17.5,3.8-22.5c2.6-5,6.4-7.5,11.5-7.5
					c5.1,0,8.9,2.5,11.5,7.5c2.6,5,3.8,12.5,3.8,22.5c0,10-1.3,17.5-3.8,22.5C307.5-881.3,303.7-878.8,298.6-878.8z M298.6-871
					c8.2,0,14.4-3.2,18.7-9.7c4.3-6.5,6.5-15.8,6.5-28.1c0-12.3-2.2-21.6-6.5-28.1c-4.3-6.5-10.6-9.7-18.7-9.7
					c-8.2,0-14.4,3.2-18.7,9.7c-4.3,6.5-6.5,15.8-6.5,28.1c0,12.3,2.2,21.7,6.5,28.1C284.2-874.2,290.4-871,298.6-871z"/>
			</g>
			<g>
				<path d="M362.2-878.8c-5.1,0-8.9-2.5-11.5-7.5c-2.6-5-3.8-12.5-3.8-22.5c0-10,1.3-17.5,3.8-22.5c2.6-5,6.4-7.5,11.5-7.5
					c5.1,0,8.9,2.5,11.5,7.5c2.6,5,3.8,12.5,3.8,22.5c0,10-1.3,17.5-3.8,22.5C371.2-881.3,367.3-878.8,362.2-878.8z M362.2-871
					c8.2,0,14.4-3.2,18.7-9.7c4.3-6.5,6.5-15.8,6.5-28.1c0-12.3-2.2-21.6-6.5-28.1c-4.3-6.5-10.6-9.7-18.7-9.7
					c-8.2,0-14.4,3.2-18.7,9.7c-4.3,6.5-6.5,15.8-6.5,28.1c0,12.3,2.2,21.7,6.5,28.1C347.8-874.2,354-871,362.2-871z"/>
			</g>
		</g>
	</g>
</g>
<g id="xtick_6">
	<g id="line2d_11">
		<rect x="122.9" y="101.7" class="st0" width="334.8" height="217.4"/>
		<path class="st3" d="M390.6,319.2V101.7"/>
	</g>
	<g id="line2d_12">
		<g>
			<g>
				<path class="st4" d="M390.6,319.2v3.5"/>
			</g>
		</g>
	</g>
	<g id="text_6">
		<g transform="translate(363.940924 239.238438)scale(0.1 -0.1)">
			<g>
				<path d="M158.7-936.9h34.4v-8.3h-46.3v8.3c3.7,3.9,8.8,9.1,15.3,15.6c6.5,6.5,10.5,10.7,12.2,12.6c3.2,3.5,5.4,6.5,6.6,9
					c1.3,2.5,1.9,4.9,1.9,7.2c0,3.9-1.4,7-4.1,9.5c-2.7,2.4-6.3,3.7-10.6,3.7c-3.1,0-6.4-0.5-9.8-1.6c-3.4-1.1-7.1-2.7-11-4.9v10
					c4,1.6,7.7,2.8,11.1,3.6c3.5,0.8,6.6,1.2,9.5,1.2c7.6,0,13.6-1.9,18.1-5.7c4.5-3.8,6.7-8.8,6.7-15.1c0-3-0.6-5.8-1.7-8.5
					c-1.1-2.7-3.2-5.8-6.1-9.5c-0.8-0.9-3.4-3.7-7.8-8.2C172.8-922.5,166.7-928.8,158.7-936.9z"/>
			</g>
			<g>
				<path d="M235-878.8c-5.1,0-8.9-2.5-11.5-7.5c-2.6-5-3.8-12.5-3.8-22.5c0-10,1.3-17.5,3.8-22.5c2.6-5,6.4-7.5,11.5-7.5
					c5.1,0,8.9,2.5,11.5,7.5c2.6,5,3.8,12.5,3.8,22.5c0,10-1.3,17.5-3.8,22.5C243.9-881.3,240.1-878.8,235-878.8z M235-871
					c8.2,0,14.4-3.2,18.7-9.7c4.3-6.5,6.5-15.8,6.5-28.1c0-12.3-2.2-21.6-6.5-28.1c-4.3-6.5-10.6-9.7-18.7-9.7
					c-8.2,0-14.4,3.2-18.7,9.7c-4.3,6.5-6.5,15.8-6.5,28.1c0,12.3,2.2,21.7,6.5,28.1C220.6-874.2,226.8-871,235-871z"/>
			</g>
			<g>
				<path d="M279.2-936.9h16.1v55.6l-17.5-3.5v9l17.4,3.5h9.9v-64.6h16.1v-8.3h-42V-936.9z"/>
			</g>
			<g>
				<path d="M362.2-878.8c-5.1,0-8.9-2.5-11.5-7.5c-2.6-5-3.8-12.5-3.8-22.5c0-10,1.3-17.5,3.8-22.5c2.6-5,6.4-7.5,11.5-7.5
					c5.1,0,8.9,2.5,11.5,7.5c2.6,5,3.8,12.5,3.8,22.5c0,10-1.3,17.5-3.8,22.5C371.2-881.3,367.3-878.8,362.2-878.8z M362.2-871
					c8.2,0,14.4-3.2,18.7-9.7c4.3-6.5,6.5-15.8,6.5-28.1c0-12.3-2.2-21.6-6.5-28.1c-4.3-6.5-10.6-9.7-18.7-9.7
					c-8.2,0-14.4,3.2-18.7,9.7c-4.3,6.5-6.5,15.8-6.5,28.1c0,12.3,2.2,21.7,6.5,28.1C347.8-874.2,354-871,362.2-871z"/>
			</g>
		</g>
	</g>
</g>
<rect x="122.9" y="101.7" class="st0" width="334.8" height="217.4"/>
<path class="st3" d="M439.5,319.2V101.7"/>
<g>
	<g>
		<path class="st4" d="M439.5,319.2v3.5"/>
	</g>
</g>
<g transform="translate(412.867349 239.238438)scale(0.1 -0.1)">
	<g>
		<path d="M158.7-936.9h34.4v-8.3h-46.3v8.3c3.7,3.9,8.8,9.1,15.3,15.6c6.5,6.5,10.5,10.7,12.2,12.6c3.2,3.5,5.4,6.5,6.6,9
			c1.3,2.5,1.9,4.9,1.9,7.2c0,3.9-1.4,7-4.1,9.5c-2.7,2.4-6.3,3.7-10.6,3.7c-3.1,0-6.4-0.5-9.8-1.6c-3.4-1.1-7.1-2.7-11-4.9v10
			c4,1.6,7.7,2.8,11.1,3.6c3.5,0.8,6.6,1.2,9.5,1.2c7.6,0,13.6-1.9,18.1-5.7c4.5-3.8,6.7-8.8,6.7-15.1c0-3-0.6-5.8-1.7-8.5
			c-1.1-2.7-3.2-5.8-6.1-9.5c-0.8-0.9-3.4-3.7-7.8-8.2C172.8-922.5,166.7-928.8,158.7-936.9z"/>
	</g>
	<g>
		<path d="M235-878.8c-5.1,0-8.9-2.5-11.5-7.5c-2.6-5-3.8-12.5-3.8-22.5c0-10,1.3-17.5,3.8-22.5c2.6-5,6.4-7.5,11.5-7.5
			c5.1,0,8.9,2.5,11.5,7.5c2.6,5,3.8,12.5,3.8,22.5c0,10-1.3,17.5-3.8,22.5C243.9-881.3,240.1-878.8,235-878.8z M235-871
			c8.2,0,14.4-3.2,18.7-9.7c4.3-6.5,6.5-15.8,6.5-28.1c0-12.3-2.2-21.6-6.5-28.1c-4.3-6.5-10.6-9.7-18.7-9.7
			c-8.2,0-14.4,3.2-18.7,9.7c-4.3,6.5-6.5,15.8-6.5,28.1c0,12.3,2.2,21.7,6.5,28.1C220.6-874.2,226.8-871,235-871z"/>
	</g>
	<g>
		<path d="M286-936.9h34.4v-8.3h-46.3v8.3c3.7,3.9,8.8,9.1,15.3,15.6c6.5,6.5,10.5,10.7,12.2,12.6c3.2,3.5,5.4,6.5,6.6,9
			c1.3,2.5,1.9,4.9,1.9,7.2c0,3.9-1.4,7-4.1,9.5c-2.7,2.4-6.3,3.7-10.6,3.7c-3.1,0-6.4-0.5-9.8-1.6c-3.4-1.1-7.1-2.7-11-4.9v10
			c4,1.6,7.7,2.8,11.1,3.6c3.5,0.8,6.6,1.2,9.5,1.2c7.6,0,13.6-1.9,18.1-5.7c4.5-3.8,6.7-8.8,6.7-15.1c0-3-0.6-5.8-1.7-8.5
			c-1.1-2.7-3.2-5.8-6.1-9.5c-0.8-0.9-3.4-3.7-7.8-8.2C300.1-922.5,293.9-928.8,286-936.9z"/>
	</g>
	<g>
		<path d="M362.2-878.8c-5.1,0-8.9-2.5-11.5-7.5c-2.6-5-3.8-12.5-3.8-22.5c0-10,1.3-17.5,3.8-22.5c2.6-5,6.4-7.5,11.5-7.5
			c5.1,0,8.9,2.5,11.5,7.5c2.6,5,3.8,12.5,3.8,22.5c0,10-1.3,17.5-3.8,22.5C371.2-881.3,367.3-878.8,362.2-878.8z M362.2-871
			c8.2,0,14.4-3.2,18.7-9.7c4.3-6.5,6.5-15.8,6.5-28.1c0-12.3-2.2-21.6-6.5-28.1c-4.3-6.5-10.6-9.7-18.7-9.7
			c-8.2,0-14.4,3.2-18.7,9.7c-4.3,6.5-6.5,15.8-6.5,28.1c0,12.3,2.2,21.7,6.5,28.1C347.8-874.2,354-871,362.2-871z"/>
	</g>
</g>
<g id="ytick_1">
	<g id="text_8">
		<g transform="translate(43.973437 215.558263)scale(0.1 -0.1)">
			<g>
				<path id="DejaVuSans-72" d="M149.4-872.3h9.9v-29.9h35.8v29.9h9.9v-72.9h-9.9v34.7h-35.8v-34.7h-9.9V-872.3z"/>
			</g>
			<g>
				<path id="DejaVuSans-105" d="M224.2-890.5h9v-54.7h-9V-890.5z M224.2-869.2h9v-11.4h-9V-869.2z"/>
			</g>
			<g>
				<path id="DejaVuSans-114" d="M283.6-898.9c-1,0.6-2.1,1-3.3,1.3c-1.2,0.3-2.5,0.4-3.9,0.4c-5.1,0-9-1.7-11.7-5
					c-2.7-3.3-4.1-8-4.1-14.2v-28.8h-9v54.7h9v-8.5c1.9,3.3,4.4,5.8,7.4,7.4c3,1.6,6.7,2.4,11,2.4c0.6,0,1.3,0,2-0.1
					c0.8-0.1,1.6-0.2,2.5-0.4L283.6-898.9z"/>
			</g>
			<g>
				<path id="DejaVuSans-97" d="M317.9-917.7c-7.3,0-12.3-0.8-15.1-2.5c-2.8-1.7-4.2-4.5-4.2-8.5c0-3.2,1.1-5.7,3.2-7.6
					c2.1-1.9,5-2.8,8.6-2.8c5,0,9,1.8,12,5.3c3,3.5,4.5,8.2,4.5,14.1v2H317.9z M335.9-914v-31.2h-9v8.3c-2.1-3.3-4.6-5.8-7.7-7.3
					c-3.1-1.6-6.8-2.4-11.2-2.4c-5.6,0-10,1.6-13.4,4.7c-3.3,3.1-5,7.4-5,12.6c0,6.1,2.1,10.8,6.2,13.9c4.1,3.1,10.3,4.7,18.4,4.7
					h12.6v0.9c0,4.1-1.4,7.3-4.1,9.6c-2.7,2.3-6.5,3.4-11.5,3.4c-3.1,0-6.2-0.4-9.1-1.1c-3-0.8-5.8-1.9-8.5-3.4v8.3
					c3.3,1.3,6.5,2.2,9.6,2.8c3.1,0.6,6.1,1,9,1c7.9,0,13.8-2.1,17.7-6.2C333.9-899.4,335.9-905.7,335.9-914z"/>
			</g>
			<g>
				<path id="DejaVuSans-109" d="M396.9-901c2.2,4,4.9,7,8.1,8.9c3.1,1.9,6.8,2.9,11,2.9c5.7,0,10.1-2,13.2-6c3.1-4,4.6-9.6,4.6-17
					v-33h-9v32.7c0,5.2-0.9,9.1-2.8,11.7c-1.9,2.5-4.7,3.8-8.5,3.8c-4.7,0-8.3-1.5-11-4.6c-2.7-3.1-4-7.3-4-12.6v-30.9h-9v32.7
					c0,5.3-0.9,9.2-2.8,11.7c-1.9,2.5-4.7,3.8-8.6,3.8c-4.6,0-8.2-1.6-11-4.7c-2.7-3.1-4-7.3-4-12.6v-30.9h-9v54.7h9v-8.5
					c2.1,3.4,4.5,5.8,7.4,7.4c2.9,1.6,6.3,2.4,10.2,2.4c4,0,7.4-1,10.1-3C393.5-894.2,395.6-897.2,396.9-901z"/>
			</g>
			<g>
				<path id="DejaVuSans-32" d="M442.3-945.2"/>
			</g>
			<g>
				<path id="DejaVuSans-70" d="M483.9-872.3h41.9v-8.3h-32v-21.5h28.9v-8.3h-28.9v-34.8h-9.9V-872.3z"/>
			</g>
			<g>
				<path id="DejaVuSans-111" d="M562.2-896.8c-4.8,0-8.6-1.9-11.4-5.6c-2.8-3.8-4.2-8.9-4.2-15.5c0-6.5,1.4-11.7,4.2-15.5
					c2.8-3.8,6.6-5.6,11.5-5.6c4.8,0,8.6,1.9,11.4,5.7c2.8,3.8,4.2,8.9,4.2,15.4c0,6.5-1.4,11.6-4.2,15.4
					C570.8-898.7,567-896.8,562.2-896.8z M562.2-889.2c7.8,0,13.9-2.5,18.4-7.6c4.5-5.1,6.7-12.1,6.7-21.1c0-8.9-2.2-16-6.7-21.1
					c-4.5-5.1-10.6-7.6-18.4-7.6c-7.8,0-14,2.5-18.4,7.6c-4.4,5.1-6.7,12.1-6.7,21.1c0,9,2.2,16,6.7,21.1
					C548.2-891.7,554.4-889.2,562.2-889.2z"/>
			</g>
			<g>
				<path id="DejaVuSans-110" d="M647.7-912.2v-33h-9v32.7c0,5.2-1,9-3,11.6c-2,2.6-5,3.9-9.1,3.9c-4.9,0-8.7-1.5-11.5-4.6
					c-2.8-3.1-4.2-7.3-4.2-12.6v-30.9h-9v54.7h9v-8.5c2.2,3.3,4.7,5.8,7.6,7.4c2.9,1.6,6.3,2.4,10.1,2.4c6.3,0,11-1.9,14.2-5.8
					C646.1-898.9,647.7-904.6,647.7-912.2z"/>
			</g>
			<g>
				<path id="DejaVuSans-103" d="M701.6-917.2c0,6.5-1.3,11.6-4,15.1c-2.7,3.6-6.4,5.4-11.3,5.4c-4.8,0-8.6-1.8-11.2-5.4
					c-2.7-3.6-4-8.6-4-15.1c0-6.5,1.3-11.5,4-15.1c2.7-3.6,6.4-5.4,11.2-5.4c4.9,0,8.6,1.8,11.3,5.4
					C700.2-928.7,701.6-923.7,701.6-917.2z M710.6-938.4c0-9.3-2.1-16.2-6.2-20.8c-4.1-4.5-10.5-6.8-19-6.8c-3.2,0-6.1,0.2-8.9,0.7
					s-5.5,1.2-8.2,2.2v8.7c2.6-1.4,5.2-2.5,7.8-3.2c2.6-0.7,5.2-1,7.9-1c5.9,0,10.3,1.5,13.2,4.6c2.9,3.1,4.4,7.7,4.4,13.9v4.5
					c-1.9-3.2-4.2-5.6-7.1-7.2s-6.4-2.4-10.4-2.4c-6.7,0-12.1,2.6-16.2,7.7c-4.1,5.1-6.2,11.9-6.2,20.3c0,8.5,2.1,15.2,6.2,20.3
					c4.1,5.1,9.5,7.7,16.2,7.7c4,0,7.5-0.8,10.4-2.4s5.3-4,7.1-7.2v8.3h9V-938.4z"/>
			</g>
		</g>
	</g>
</g>
<g id="ytick_2">
	<g id="text_9">
		<g transform="translate(33.1125 191.598502)scale(0.1 -0.1)">
			<g>
				<path id="DejaVuSans-68" d="M159.2-880.4v-56.7h11.9c10.1,0,17.4,2.3,22.1,6.8c4.7,4.6,7,11.8,7,21.6c0,9.8-2.3,16.9-7,21.5
					c-4.7,4.5-12,6.8-22.1,6.8H159.2z M149.4-872.3h20.3c14.1,0,24.5-2.9,31.1-8.8c6.6-5.9,9.9-15.1,9.9-27.6
					c0-12.6-3.3-21.8-10-27.7c-6.6-5.9-17-8.8-31-8.8h-20.3V-872.3z"/>
			</g>
			<g>
				<path d="M250.8-917.7c-7.3,0-12.3-0.8-15.1-2.5c-2.8-1.7-4.2-4.5-4.2-8.5c0-3.2,1.1-5.7,3.2-7.6c2.1-1.9,5-2.8,8.6-2.8
					c5,0,9,1.8,12,5.3c3,3.5,4.5,8.2,4.5,14.1v2H250.8z M268.8-914v-31.2h-9v8.3c-2.1-3.3-4.6-5.8-7.7-7.3
					c-3.1-1.6-6.8-2.4-11.2-2.4c-5.6,0-10,1.6-13.4,4.7c-3.3,3.1-5,7.4-5,12.6c0,6.1,2.1,10.8,6.2,13.9c4.1,3.1,10.3,4.7,18.4,4.7
					h12.6v0.9c0,4.1-1.4,7.3-4.1,9.6c-2.7,2.3-6.5,3.4-11.5,3.4c-3.1,0-6.2-0.4-9.1-1.1c-3-0.8-5.8-1.9-8.5-3.4v8.3
					c3.3,1.3,6.5,2.2,9.6,2.8c3.1,0.6,6.1,1,9,1c7.9,0,13.8-2.1,17.7-6.2C266.8-899.4,268.8-905.7,268.8-914z"/>
			</g>
			<g>
				<path d="M332.7-912.2v-33h-9v32.7c0,5.2-1,9-3,11.6c-2,2.6-5,3.9-9.1,3.9c-4.9,0-8.7-1.5-11.5-4.6c-2.8-3.1-4.2-7.3-4.2-12.6
					v-30.9h-9v54.7h9v-8.5c2.2,3.3,4.7,5.8,7.6,7.4c2.9,1.6,6.3,2.4,10.1,2.4c6.3,0,11-1.9,14.2-5.8
					C331.1-898.9,332.7-904.6,332.7-912.2z"/>
			</g>
			<g>
				<path d="M350.6-890.5h9v-54.7h-9V-890.5z M350.6-869.2h9v-11.4h-9V-869.2z"/>
			</g>
			<g>
				<path id="DejaVuSans-101" d="M425.2-915.6v-4.4h-41.3c0.4-6.2,2.3-10.9,5.6-14.1c3.3-3.2,8-4.9,13.9-4.9c3.4,0,6.8,0.4,10,1.3
					c3.2,0.8,6.5,2.1,9.7,3.8v-8.5c-3.2-1.4-6.5-2.4-9.9-3.1c-3.4-0.7-6.8-1.1-10.3-1.1c-8.7,0-15.6,2.5-20.7,7.6
					c-5.1,5.1-7.6,12-7.6,20.6c0,8.9,2.4,16,7.2,21.3c4.8,5.3,11.4,7.9,19.6,7.9c7.4,0,13.2-2.4,17.5-7.1
					C423.1-901,425.2-907.5,425.2-915.6z M416.2-913c-0.1,4.9-1.4,8.8-4.1,11.8c-2.7,2.9-6.2,4.4-10.7,4.4c-5,0-9-1.4-12-4.2
					c-3-2.8-4.7-6.8-5.2-12L416.2-913z"/>
			</g>
			<g>
				<path id="DejaVuSans-108" d="M439.9-869.2h9v-76h-9V-869.2z"/>
			</g>
			<g>
				<path d="M458.3-945.2"/>
			</g>
			<g>
				<path id="DejaVuSans-73" d="M499.9-872.3h9.9v-72.9h-9.9V-872.3z"/>
			</g>
			<g>
				<path d="M574.5-912.2v-33h-9v32.7c0,5.2-1,9-3,11.6c-2,2.6-5,3.9-9.1,3.9c-4.9,0-8.7-1.5-11.5-4.6c-2.8-3.1-4.2-7.3-4.2-12.6
					v-30.9h-9v54.7h9v-8.5c2.2,3.3,4.7,5.8,7.6,7.4c2.9,1.6,6.3,2.4,10.1,2.4c6.3,0,11-1.9,14.2-5.8
					C572.9-898.9,574.5-904.6,574.5-912.2z"/>
			</g>
			<g>
				<path d="M613.6-896.8c-4.8,0-8.6-1.9-11.4-5.6c-2.8-3.8-4.2-8.9-4.2-15.5c0-6.5,1.4-11.7,4.2-15.5c2.8-3.8,6.6-5.6,11.5-5.6
					c4.8,0,8.6,1.9,11.4,5.7c2.8,3.8,4.2,8.9,4.2,15.4c0,6.5-1.4,11.6-4.2,15.4C622.2-898.7,618.4-896.8,613.6-896.8z M613.6-889.2
					c7.8,0,13.9-2.5,18.4-7.6c4.5-5.1,6.7-12.1,6.7-21.1c0-8.9-2.2-16-6.7-21.1c-4.5-5.1-10.6-7.6-18.4-7.6c-7.8,0-14,2.5-18.4,7.6
					c-4.4,5.1-6.7,12.1-6.7,21.1c0,9,2.2,16,6.7,21.1C599.6-891.7,605.7-889.2,613.6-889.2z"/>
			</g>
			<g>
				<path id="DejaVuSans-117" d="M652.6-923.6v33.1h9v-32.8c0-5.2,1-9.1,3-11.7c2-2.6,5.1-3.9,9.1-3.9c4.8,0,8.7,1.5,11.5,4.6
					c2.8,3.1,4.2,7.3,4.2,12.7v31h9v-54.7h-9v8.4c-2.2-3.3-4.7-5.8-7.6-7.4c-2.9-1.6-6.2-2.4-10-2.4c-6.3,0-11.1,2-14.3,5.9
					C654.3-936.9,652.6-931.1,652.6-923.6z"/>
			</g>
			<g>
				<path id="DejaVuSans-121" d="M739.7-950.3c-2.5-6.5-5-10.8-7.4-12.7c-2.4-2-5.6-3-9.7-3h-7.2v7.5h5.3c2.5,0,4.4,0.6,5.8,1.8
					c1.4,1.2,2.9,3.9,4.5,8.3l1.6,4.1l-22.1,53.8h9.5l17.1-42.8l17.1,42.8h9.5L739.7-950.3z"/>
			</g>
			<g>
				<path d="M822.9-915.6v-4.4h-41.3c0.4-6.2,2.3-10.9,5.6-14.1c3.3-3.2,8-4.9,13.9-4.9c3.4,0,6.8,0.4,10,1.3s6.5,2.1,9.7,3.8v-8.5
					c-3.2-1.4-6.5-2.4-9.9-3.1s-6.8-1.1-10.3-1.1c-8.7,0-15.6,2.5-20.7,7.6c-5.1,5.1-7.6,12-7.6,20.6c0,8.9,2.4,16,7.2,21.3
					c4.8,5.3,11.4,7.9,19.6,7.9c7.4,0,13.2-2.4,17.5-7.1C820.8-901,822.9-907.5,822.9-915.6z M813.9-913c-0.1,4.9-1.4,8.8-4.1,11.8
					c-2.7,2.9-6.2,4.4-10.7,4.4c-5,0-9-1.4-12-4.2c-3-2.8-4.7-6.8-5.2-12L813.9-913z"/>
			</g>
		</g>
	</g>
</g>
<g id="ytick_3">
	<g id="text_10">
		<g transform="translate(28.051562 167.638741)scale(0.1 -0.1)">
			<g>
				<path id="DejaVuSans-83" d="M193.1-874.7v-9.6c-3.7,1.8-7.3,3.1-10.6,4c-3.3,0.9-6.5,1.3-9.6,1.3c-5.4,0-9.5-1-12.4-3.1
					c-2.9-2.1-4.4-5-4.4-8.9c0-3.2,1-5.7,2.9-7.3c1.9-1.6,5.6-3,11-4l6-1.2c7.4-1.4,12.8-3.9,16.3-7.4s5.2-8.3,5.2-14.2
					c0-7.1-2.4-12.4-7.1-16.1c-4.7-3.6-11.7-5.5-20.8-5.5c-3.4,0-7.1,0.4-11,1.2c-3.9,0.8-7.9,1.9-12.1,3.5v10.2
					c4-2.2,7.9-3.9,11.8-5.1c3.8-1.1,7.6-1.7,11.3-1.7c5.6,0,10,1.1,13,3.3c3.1,2.2,4.6,5.4,4.6,9.5c0,3.6-1.1,6.4-3.3,8.4
					c-2.2,2-5.8,3.5-10.8,4.5l-6,1.2c-7.4,1.5-12.7,3.8-16,6.9c-3.3,3.1-4.9,7.5-4.9,13c0,6.4,2.3,11.5,6.8,15.2
					c4.5,3.7,10.8,5.6,18.8,5.6c3.4,0,6.9-0.3,10.5-0.9C185.7-872.5,189.4-873.5,193.1-874.7z"/>
			</g>
			<g>
				<path id="DejaVuSans-46" d="M213.7-932.8H224v-12.4h-10.3V-932.8z"/>
			</g>
			<g>
				<path d="M234.8-945.2"/>
			</g>
			<g>
				<path d="M276.4-872.3h9.9v-72.9h-9.9V-872.3z"/>
			</g>
			<g>
				<path d="M306.8-932.8h10.3v-12.4h-10.3V-932.8z"/>
			</g>
			<g>
				<path d="M327.9-945.2"/>
			</g>
			<g>
				<path d="M369.5-872.3h9.9v-29.9h35.8v29.9h9.9v-72.9h-9.9v34.7h-35.8v-34.7h-9.9V-872.3z"/>
			</g>
			<g>
				<path d="M469.2-917.7c-7.3,0-12.3-0.8-15.1-2.5s-4.2-4.5-4.2-8.5c0-3.2,1.1-5.7,3.2-7.6c2.1-1.9,5-2.8,8.6-2.8c5,0,9,1.8,12,5.3
					c3,3.5,4.5,8.2,4.5,14.1v2H469.2z M487.1-914v-31.2h-9v8.3c-2.1-3.3-4.6-5.8-7.7-7.3c-3.1-1.6-6.8-2.4-11.2-2.4
					c-5.6,0-10,1.6-13.4,4.7c-3.3,3.1-5,7.4-5,12.6c0,6.1,2.1,10.8,6.2,13.9c4.1,3.1,10.3,4.7,18.4,4.7h12.6v0.9
					c0,4.1-1.4,7.3-4.1,9.6c-2.7,2.3-6.5,3.4-11.5,3.4c-3.1,0-6.2-0.4-9.1-1.1c-3-0.8-5.8-1.9-8.5-3.4v8.3c3.3,1.3,6.5,2.2,9.6,2.8
					c3.1,0.6,6.1,1,9,1c7.9,0,13.8-2.1,17.7-6.2C485.1-899.4,487.1-905.7,487.1-914z"/>
			</g>
			<g>
				<path d="M528.3-950.3c-2.5-6.5-5-10.8-7.4-12.7c-2.4-2-5.6-3-9.7-3h-7.2v7.5h5.3c2.5,0,4.4,0.6,5.8,1.8c1.4,1.2,2.9,3.9,4.5,8.3
					l1.6,4.1l-22.1,53.8h9.5l17.1-42.8l17.1,42.8h9.5L528.3-950.3z"/>
			</g>
			<g>
				<path d="M589.6-917.7c-7.3,0-12.3-0.8-15.1-2.5s-4.2-4.5-4.2-8.5c0-3.2,1.1-5.7,3.2-7.6c2.1-1.9,5-2.8,8.6-2.8c5,0,9,1.8,12,5.3
					s4.5,8.2,4.5,14.1v2H589.6z M607.5-914v-31.2h-9v8.3c-2.1-3.3-4.6-5.8-7.7-7.3c-3.1-1.6-6.8-2.4-11.2-2.4
					c-5.6,0-10,1.6-13.4,4.7c-3.3,3.1-5,7.4-5,12.6c0,6.1,2.1,10.8,6.2,13.9c4.1,3.1,10.3,4.7,18.4,4.7h12.6v0.9
					c0,4.1-1.4,7.3-4.1,9.6c-2.7,2.3-6.5,3.4-11.5,3.4c-3.1,0-6.2-0.4-9.1-1.1c-3-0.8-5.8-1.9-8.5-3.4v8.3c3.3,1.3,6.5,2.2,9.6,2.8
					c3.1,0.6,6.1,1,9,1c7.9,0,13.8-2.1,17.7-6.2C605.6-899.4,607.5-905.7,607.5-914z"/>
			</g>
			<g>
				<path id="DejaVuSans-107" d="M625.7-869.2h9v-44.9l26.8,23.6H673l-29-25.6l30.2-29.1h-11.7l-27.8,26.7v-26.7h-9V-869.2z"/>
			</g>
			<g>
				<path d="M708.8-917.7c-7.3,0-12.3-0.8-15.1-2.5s-4.2-4.5-4.2-8.5c0-3.2,1.1-5.7,3.2-7.6c2.1-1.9,5-2.8,8.6-2.8c5,0,9,1.8,12,5.3
					s4.5,8.2,4.5,14.1v2H708.8z M726.7-914v-31.2h-9v8.3c-2.1-3.3-4.6-5.8-7.7-7.3c-3.1-1.6-6.8-2.4-11.2-2.4
					c-5.6,0-10,1.6-13.4,4.7c-3.3,3.1-5,7.4-5,12.6c0,6.1,2.1,10.8,6.2,13.9c4.1,3.1,10.3,4.7,18.4,4.7h12.6v0.9
					c0,4.1-1.4,7.3-4.1,9.6c-2.7,2.3-6.5,3.4-11.5,3.4c-3.1,0-6.2-0.4-9.1-1.1c-3-0.8-5.8-1.9-8.5-3.4v8.3c3.3,1.3,6.5,2.2,9.6,2.8
					c3.1,0.6,6.1,1,9,1c7.9,0,13.8-2.1,17.7-6.2C724.8-899.4,726.7-905.7,726.7-914z"/>
			</g>
			<g>
				<path id="DejaVuSans-119" d="M740-890.5h9l11.2-42.7l11.2,42.7H782l11.2-42.7l11.2,42.7h9l-14.3-54.7h-10.6l-11.8,44.8
					l-11.8-44.8h-10.6L740-890.5z"/>
			</g>
			<g>
				<path d="M851.9-917.7c-7.3,0-12.3-0.8-15.1-2.5s-4.2-4.5-4.2-8.5c0-3.2,1.1-5.7,3.2-7.6c2.1-1.9,5-2.8,8.6-2.8c5,0,9,1.8,12,5.3
					s4.5,8.2,4.5,14.1v2H851.9z M869.8-914v-31.2h-9v8.3c-2.1-3.3-4.6-5.8-7.7-7.3c-3.1-1.6-6.8-2.4-11.2-2.4
					c-5.6,0-10,1.6-13.4,4.7c-3.3,3.1-5,7.4-5,12.6c0,6.1,2.1,10.8,6.2,13.9c4.1,3.1,10.3,4.7,18.4,4.7h12.6v0.9
					c0,4.1-1.4,7.3-4.1,9.6c-2.7,2.3-6.5,3.4-11.5,3.4c-3.1,0-6.2-0.4-9.1-1.1c-3-0.8-5.8-1.9-8.5-3.4v8.3c3.3,1.3,6.5,2.2,9.6,2.8
					c3.1,0.6,6.1,1,9,1c7.9,0,13.8-2.1,17.7-6.2C867.8-899.4,869.8-905.7,869.8-914z"/>
			</g>
		</g>
	</g>
</g>
<g id="ytick_4">
	<g id="text_11">
		<g transform="translate(14.910937 143.67898)scale(0.1 -0.1)">
			<g>
				<path d="M193.1-874.7v-9.6c-3.7,1.8-7.3,3.1-10.6,4c-3.3,0.9-6.5,1.3-9.6,1.3c-5.4,0-9.5-1-12.4-3.1c-2.9-2.1-4.4-5-4.4-8.9
					c0-3.2,1-5.7,2.9-7.3c1.9-1.6,5.6-3,11-4l6-1.2c7.4-1.4,12.8-3.9,16.3-7.4s5.2-8.3,5.2-14.2c0-7.1-2.4-12.4-7.1-16.1
					c-4.7-3.6-11.7-5.5-20.8-5.5c-3.4,0-7.1,0.4-11,1.2c-3.9,0.8-7.9,1.9-12.1,3.5v10.2c4-2.2,7.9-3.9,11.8-5.1
					c3.8-1.1,7.6-1.7,11.3-1.7c5.6,0,10,1.1,13,3.3c3.1,2.2,4.6,5.4,4.6,9.5c0,3.6-1.1,6.4-3.3,8.4c-2.2,2-5.8,3.5-10.8,4.5l-6,1.2
					c-7.4,1.5-12.7,3.8-16,6.9c-3.3,3.1-4.9,7.5-4.9,13c0,6.4,2.3,11.5,6.8,15.2c4.5,3.7,10.8,5.6,18.8,5.6c3.4,0,6.9-0.3,10.5-0.9
					C185.7-872.5,189.4-873.5,193.1-874.7z"/>
			</g>
			<g>
				<path id="DejaVuSans-112" d="M221.1-937v-29h-9v75.5h9v-8.3c1.9,3.2,4.3,5.7,7.2,7.2c2.9,1.6,6.3,2.4,10.3,2.4
					c6.6,0,12-2.6,16.2-7.9c4.2-5.3,6.2-12.2,6.2-20.8s-2.1-15.5-6.2-20.8c-4.1-5.3-9.5-7.9-16.2-7.9c-4,0-7.4,0.8-10.3,2.4
					C225.4-942.7,223-940.2,221.1-937z M251.7-917.9c0,6.6-1.4,11.8-4.1,15.5c-2.7,3.8-6.5,5.6-11.2,5.6c-4.8,0-8.5-1.9-11.2-5.6
					c-2.7-3.8-4.1-8.9-4.1-15.5c0-6.6,1.4-11.8,4.1-15.5c2.7-3.8,6.5-5.6,11.2-5.6c4.8,0,8.5,1.9,11.2,5.6
					C250.4-929.7,251.7-924.5,251.7-917.9z"/>
			</g>
			<g>
				<path d="M300.8-917.7c-7.3,0-12.3-0.8-15.1-2.5c-2.8-1.7-4.2-4.5-4.2-8.5c0-3.2,1.1-5.7,3.2-7.6c2.1-1.9,5-2.8,8.6-2.8
					c5,0,9,1.8,12,5.3c3,3.5,4.5,8.2,4.5,14.1v2H300.8z M318.7-914v-31.2h-9v8.3c-2.1-3.3-4.6-5.8-7.7-7.3
					c-3.1-1.6-6.8-2.4-11.2-2.4c-5.6,0-10,1.6-13.4,4.7c-3.3,3.1-5,7.4-5,12.6c0,6.1,2.1,10.8,6.2,13.9c4.1,3.1,10.3,4.7,18.4,4.7
					h12.6v0.9c0,4.1-1.4,7.3-4.1,9.6c-2.7,2.3-6.5,3.4-11.5,3.4c-3.1,0-6.2-0.4-9.1-1.1c-3-0.8-5.8-1.9-8.5-3.4v8.3
					c3.3,1.3,6.5,2.2,9.6,2.8c3.1,0.6,6.1,1,9,1c7.9,0,13.8-2.1,17.7-6.2C316.8-899.4,318.7-905.7,318.7-914z"/>
			</g>
			<g>
				<path d="M368.9-898.9c-1,0.6-2.1,1-3.3,1.3c-1.2,0.3-2.5,0.4-3.9,0.4c-5.1,0-9-1.7-11.7-5c-2.7-3.3-4.1-8-4.1-14.2v-28.8h-9
					v54.7h9v-8.5c1.9,3.3,4.4,5.8,7.4,7.4c3,1.6,6.7,2.4,11,2.4c0.6,0,1.3,0,2-0.1c0.8-0.1,1.6-0.2,2.5-0.4L368.9-898.9z"/>
			</g>
			<g>
				<path d="M378-869.2h9v-44.9l26.8,23.6h11.5l-29-25.6l30.2-29.1h-11.7L387-918.5v-26.7h-9V-869.2z"/>
			</g>
			<g>
				<path d="M426.8-945.2"/>
			</g>
			<g>
				<path id="DejaVuSans-77" d="M468.4-872.3h14.7l18.6-49.6l18.7,49.6h14.7v-72.9h-9.6v64l-18.8-50h-9.9l-18.8,50v-64h-9.6V-872.3z
					"/>
			</g>
			<g>
				<path d="M579.2-917.7c-7.3,0-12.3-0.8-15.1-2.5s-4.2-4.5-4.2-8.5c0-3.2,1.1-5.7,3.2-7.6c2.1-1.9,5-2.8,8.6-2.8c5,0,9,1.8,12,5.3
					s4.5,8.2,4.5,14.1v2H579.2z M597.1-914v-31.2h-9v8.3c-2.1-3.3-4.6-5.8-7.7-7.3c-3.1-1.6-6.8-2.4-11.2-2.4
					c-5.6,0-10,1.6-13.4,4.7c-3.3,3.1-5,7.4-5,12.6c0,6.1,2.1,10.8,6.2,13.9c4.1,3.1,10.3,4.7,18.4,4.7h12.6v0.9
					c0,4.1-1.4,7.3-4.1,9.6c-2.7,2.3-6.5,3.4-11.5,3.4c-3.1,0-6.2-0.4-9.1-1.1c-3-0.8-5.8-1.9-8.5-3.4v8.3c3.3,1.3,6.5,2.2,9.6,2.8
					c3.1,0.6,6.1,1,9,1c7.9,0,13.8-2.1,17.7-6.2C595.1-899.4,597.1-905.7,597.1-914z"/>
			</g>
			<g>
				<path id="DejaVuSans-116" d="M624.5-875v-15.5H643v-7h-18.5v-29.7c0-4.5,0.6-7.3,1.8-8.6c1.2-1.3,3.7-1.9,7.5-1.9h9.2v-7.5h-9.2
					c-6.9,0-11.7,1.3-14.4,3.9c-2.6,2.6-4,7.3-4,14.1v29.7h-6.6v7h6.6v15.5H624.5z"/>
			</g>
			<g>
				<path id="DejaVuSans-115" d="M689.7-892.1v-8.5c-2.5,1.3-5.2,2.3-7.9,2.9c-2.7,0.7-5.6,1-8.5,1c-4.5,0-7.8-0.7-10-2
					c-2.2-1.4-3.3-3.4-3.3-6.2c0-2.1,0.8-3.7,2.4-4.9s4.8-2.3,9.6-3.4l3.1-0.7c6.4-1.4,10.9-3.3,13.6-5.8c2.7-2.5,4-6,4-10.4
					c0-5.1-2-9.1-6-12.1c-4-3-9.5-4.4-16.6-4.4c-2.9,0-6,0.3-9.2,0.9c-3.2,0.6-6.5,1.4-10,2.6v9.3c3.3-1.7,6.6-3,9.8-3.9
					c3.2-0.9,6.4-1.3,9.6-1.3c4.2,0,7.5,0.7,9.8,2.2c2.3,1.4,3.4,3.5,3.4,6.1c0,2.4-0.8,4.3-2.5,5.6c-1.6,1.3-5.2,2.6-10.8,3.8
					l-3.1,0.7c-5.6,1.2-9.6,3-12.1,5.4c-2.5,2.4-3.7,5.8-3.7,10c0,5.1,1.8,9.1,5.5,11.9c3.6,2.8,8.8,4.2,15.5,4.2
					c3.3,0,6.4-0.2,9.4-0.7C684.5-890.4,687.2-891.1,689.7-892.1z"/>
			</g>
			<g>
				<path d="M706-923.6v33.1h9v-32.8c0-5.2,1-9.1,3-11.7c2-2.6,5.1-3.9,9.1-3.9c4.8,0,8.7,1.5,11.5,4.6c2.8,3.1,4.2,7.3,4.2,12.7v31
					h9v-54.7h-9v8.4c-2.2-3.3-4.7-5.8-7.6-7.4c-2.9-1.6-6.2-2.4-10-2.4c-6.3,0-11.1,2-14.3,5.9C707.6-936.9,706-931.1,706-923.6z"/>
			</g>
			<g>
				<path d="M815.7-912.2v-33h-9v32.7c0,5.2-1,9-3,11.6c-2,2.6-5,3.9-9.1,3.9c-4.9,0-8.7-1.5-11.5-4.6c-2.8-3.1-4.2-7.3-4.2-12.6
					v-30.9h-9v54.7h9v-8.5c2.2,3.3,4.7,5.8,7.6,7.4c2.9,1.6,6.3,2.4,10.1,2.4c6.3,0,11-1.9,14.2-5.8
					C814.1-898.9,815.7-904.6,815.7-912.2z"/>
			</g>
			<g>
				<path d="M858.5-917.7c-7.3,0-12.3-0.8-15.1-2.5s-4.2-4.5-4.2-8.5c0-3.2,1.1-5.7,3.2-7.6c2.1-1.9,5-2.8,8.6-2.8c5,0,9,1.8,12,5.3
					s4.5,8.2,4.5,14.1v2H858.5z M876.4-914v-31.2h-9v8.3c-2.1-3.3-4.6-5.8-7.7-7.3c-3.1-1.6-6.8-2.4-11.2-2.4
					c-5.6,0-10,1.6-13.4,4.7c-3.3,3.1-5,7.4-5,12.6c0,6.1,2.1,10.8,6.2,13.9c4.1,3.1,10.3,4.7,18.4,4.7h12.6v0.9
					c0,4.1-1.4,7.3-4.1,9.6c-2.7,2.3-6.5,3.4-11.5,3.4c-3.1,0-6.2-0.4-9.1-1.1c-3-0.8-5.8-1.9-8.5-3.4v8.3c3.3,1.3,6.5,2.2,9.6,2.8
					c3.1,0.6,6.1,1,9,1c7.9,0,13.8-2.1,17.7-6.2C874.5-899.4,876.4-905.7,876.4-914z"/>
			</g>
			<g>
				<path d="M930.9-917.2c0,6.5-1.3,11.6-4,15.1c-2.7,3.6-6.4,5.4-11.3,5.4c-4.8,0-8.6-1.8-11.2-5.4c-2.7-3.6-4-8.6-4-15.1
					c0-6.5,1.3-11.5,4-15.1c2.7-3.6,6.4-5.4,11.2-5.4c4.9,0,8.6,1.8,11.3,5.4C929.6-928.7,930.9-923.7,930.9-917.2z M939.9-938.4
					c0-9.3-2.1-16.2-6.2-20.8c-4.1-4.5-10.5-6.8-19-6.8c-3.2,0-6.1,0.2-8.9,0.7s-5.5,1.2-8.2,2.2v8.7c2.6-1.4,5.2-2.5,7.8-3.2
					c2.6-0.7,5.2-1,7.9-1c5.9,0,10.3,1.5,13.2,4.6c2.9,3.1,4.4,7.7,4.4,13.9v4.5c-1.9-3.2-4.2-5.6-7.1-7.2s-6.4-2.4-10.4-2.4
					c-6.7,0-12.1,2.6-16.2,7.7c-4.1,5.1-6.2,11.9-6.2,20.3c0,8.5,2.1,15.2,6.2,20.3c4.1,5.1,9.5,7.7,16.2,7.7c4,0,7.5-0.8,10.4-2.4
					s5.3-4,7.1-7.2v8.3h9V-938.4z"/>
			</g>
			<g>
				<path d="M983.3-917.7c-7.3,0-12.3-0.8-15.1-2.5s-4.2-4.5-4.2-8.5c0-3.2,1.1-5.7,3.2-7.6c2.1-1.9,5-2.8,8.6-2.8c5,0,9,1.8,12,5.3
					s4.5,8.2,4.5,14.1v2H983.3z M1001.2-914v-31.2h-9v8.3c-2.1-3.3-4.6-5.8-7.7-7.3c-3.1-1.6-6.8-2.4-11.2-2.4
					c-5.6,0-10,1.6-13.4,4.7c-3.3,3.1-5,7.4-5,12.6c0,6.1,2.1,10.8,6.2,13.9c4.1,3.1,10.3,4.7,18.4,4.7h12.6v0.9
					c0,4.1-1.4,7.3-4.1,9.6c-2.7,2.3-6.5,3.4-11.5,3.4c-3.1,0-6.2-0.4-9.1-1.1c-3-0.8-5.8-1.9-8.5-3.4v8.3c3.3,1.3,6.5,2.2,9.6,2.8
					c3.1,0.6,6.1,1,9,1c7.9,0,13.8-2.1,17.7-6.2C999.2-899.4,1001.2-905.7,1001.2-914z"/>
			</g>
		</g>
	</g>
</g>
<g id="ytick_5">
	<g id="text_12">
		<g transform="translate(36.253125 119.719219)scale(0.1 -0.1)">
			<g>
				<path d="M159.2-880.4v-56.7h11.9c10.1,0,17.4,2.3,22.1,6.8c4.7,4.6,7,11.8,7,21.6c0,9.8-2.3,16.9-7,21.5
					c-4.7,4.5-12,6.8-22.1,6.8H159.2z M149.4-872.3h20.3c14.1,0,24.5-2.9,31.1-8.8c6.6-5.9,9.9-15.1,9.9-27.6
					c0-12.6-3.3-21.8-10-27.7c-6.6-5.9-17-8.8-31-8.8h-20.3V-872.3z"/>
			</g>
			<g>
				<path d="M250.8-917.7c-7.3,0-12.3-0.8-15.1-2.5c-2.8-1.7-4.2-4.5-4.2-8.5c0-3.2,1.1-5.7,3.2-7.6c2.1-1.9,5-2.8,8.6-2.8
					c5,0,9,1.8,12,5.3c3,3.5,4.5,8.2,4.5,14.1v2H250.8z M268.8-914v-31.2h-9v8.3c-2.1-3.3-4.6-5.8-7.7-7.3
					c-3.1-1.6-6.8-2.4-11.2-2.4c-5.6,0-10,1.6-13.4,4.7c-3.3,3.1-5,7.4-5,12.6c0,6.1,2.1,10.8,6.2,13.9c4.1,3.1,10.3,4.7,18.4,4.7
					h12.6v0.9c0,4.1-1.4,7.3-4.1,9.6c-2.7,2.3-6.5,3.4-11.5,3.4c-3.1,0-6.2-0.4-9.1-1.1c-3-0.8-5.8-1.9-8.5-3.4v8.3
					c3.3,1.3,6.5,2.2,9.6,2.8c3.1,0.6,6.1,1,9,1c7.9,0,13.8-2.1,17.7-6.2C266.8-899.4,268.8-905.7,268.8-914z"/>
			</g>
			<g>
				<path d="M332.7-912.2v-33h-9v32.7c0,5.2-1,9-3,11.6c-2,2.6-5,3.9-9.1,3.9c-4.9,0-8.7-1.5-11.5-4.6c-2.8-3.1-4.2-7.3-4.2-12.6
					v-30.9h-9v54.7h9v-8.5c2.2,3.3,4.7,5.8,7.6,7.4c2.9,1.6,6.3,2.4,10.1,2.4c6.3,0,11-1.9,14.2-5.8
					C331.1-898.9,332.7-904.6,332.7-912.2z"/>
			</g>
			<g>
				<path d="M350.6-890.5h9v-54.7h-9V-890.5z M350.6-869.2h9v-11.4h-9V-869.2z"/>
			</g>
			<g>
				<path d="M425.2-915.6v-4.4h-41.3c0.4-6.2,2.3-10.9,5.6-14.1c3.3-3.2,8-4.9,13.9-4.9c3.4,0,6.8,0.4,10,1.3
					c3.2,0.8,6.5,2.1,9.7,3.8v-8.5c-3.2-1.4-6.5-2.4-9.9-3.1c-3.4-0.7-6.8-1.1-10.3-1.1c-8.7,0-15.6,2.5-20.7,7.6
					c-5.1,5.1-7.6,12-7.6,20.6c0,8.9,2.4,16,7.2,21.3c4.8,5.3,11.4,7.9,19.6,7.9c7.4,0,13.2-2.4,17.5-7.1
					C423.1-901,425.2-907.5,425.2-915.6z M416.2-913c-0.1,4.9-1.4,8.8-4.1,11.8c-2.7,2.9-6.2,4.4-10.7,4.4c-5,0-9-1.4-12-4.2
					c-3-2.8-4.7-6.8-5.2-12L416.2-913z"/>
			</g>
			<g>
				<path d="M439.9-869.2h9v-76h-9V-869.2z"/>
			</g>
			<g>
				<path d="M458.3-945.2"/>
			</g>
			<g>
				<path id="DejaVuSans-65" d="M524.3-882l-13.4-36.3h26.8L524.3-882z M518.7-872.3h11.2l27.8-72.9h-10.2l-6.6,18.7h-32.9
					l-6.6-18.7h-10.4L518.7-872.3z"/>
			</g>
			<g>
				<path d="M567.6-869.2h9v-44.9l26.8,23.6h11.5l-29-25.6l30.2-29.1h-11.7l-27.8,26.7v-26.7h-9V-869.2z"/>
			</g>
			<g>
				<path d="M650.7-917.7c-7.3,0-12.3-0.8-15.1-2.5s-4.2-4.5-4.2-8.5c0-3.2,1.1-5.7,3.2-7.6c2.1-1.9,5-2.8,8.6-2.8c5,0,9,1.8,12,5.3
					s4.5,8.2,4.5,14.1v2H650.7z M668.6-914v-31.2h-9v8.3c-2.1-3.3-4.6-5.8-7.7-7.3c-3.1-1.6-6.8-2.4-11.2-2.4
					c-5.6,0-10,1.6-13.4,4.7c-3.3,3.1-5,7.4-5,12.6c0,6.1,2.1,10.8,6.2,13.9c4.1,3.1,10.3,4.7,18.4,4.7h12.6v0.9
					c0,4.1-1.4,7.3-4.1,9.6c-2.7,2.3-6.5,3.4-11.5,3.4c-3.1,0-6.2-0.4-9.1-1.1c-3-0.8-5.8-1.9-8.5-3.4v8.3c3.3,1.3,6.5,2.2,9.6,2.8
					c3.1,0.6,6.1,1,9,1c7.9,0,13.8-2.1,17.7-6.2C666.6-899.4,668.6-905.7,668.6-914z"/>
			</g>
			<g>
				<path d="M686.8-869.2h9v-44.9l26.8,23.6h11.5l-29-25.6l30.2-29.1h-11.7l-27.8,26.7v-26.7h-9V-869.2z"/>
			</g>
			<g>
				<path d="M769.9-917.7c-7.3,0-12.3-0.8-15.1-2.5s-4.2-4.5-4.2-8.5c0-3.2,1.1-5.7,3.2-7.6c2.1-1.9,5-2.8,8.6-2.8c5,0,9,1.8,12,5.3
					s4.5,8.2,4.5,14.1v2H769.9z M787.8-914v-31.2h-9v8.3c-2.1-3.3-4.6-5.8-7.7-7.3c-3.1-1.6-6.8-2.4-11.2-2.4
					c-5.6,0-10,1.6-13.4,4.7c-3.3,3.1-5,7.4-5,12.6c0,6.1,2.1,10.8,6.2,13.9c4.1,3.1,10.3,4.7,18.4,4.7h12.6v0.9
					c0,4.1-1.4,7.3-4.1,9.6c-2.7,2.3-6.5,3.4-11.5,3.4c-3.1,0-6.2-0.4-9.1-1.1c-3-0.8-5.8-1.9-8.5-3.4v8.3c3.3,1.3,6.5,2.2,9.6,2.8
					c3.1,0.6,6.1,1,9,1c7.9,0,13.8-2.1,17.7-6.2C785.8-899.4,787.8-905.7,787.8-914z"/>
			</g>
		</g>
	</g>
</g>
<g id="ytick_6">
	<g id="text_13">
		<g transform="translate(43.729687 95.759458)scale(0.1 -0.1)">
			<g>
				<path id="DejaVuSans-74" d="M149.4-872.3h9.9v-67.8c0-8.8-1.7-15.2-5-19.1s-8.7-6-16.1-6h-3.8v8.3h3.1c4.4,0,7.4,1.2,9.2,3.7
					c1.8,2.4,2.7,6.8,2.7,13.1V-872.3z"/>
			</g>
			<g>
				<path d="M199.7-896.8c-4.8,0-8.6-1.9-11.4-5.6c-2.8-3.8-4.2-8.9-4.2-15.5c0-6.5,1.4-11.7,4.2-15.5c2.8-3.8,6.6-5.6,11.5-5.6
					c4.8,0,8.6,1.9,11.4,5.7c2.8,3.8,4.2,8.9,4.2,15.4c0,6.5-1.4,11.6-4.2,15.4C208.2-898.7,204.5-896.8,199.7-896.8z M199.7-889.2
					c7.8,0,13.9-2.5,18.4-7.6c4.5-5.1,6.7-12.1,6.7-21.1c0-8.9-2.2-16-6.7-21.1c-4.5-5.1-10.6-7.6-18.4-7.6c-7.8,0-14,2.5-18.4,7.6
					c-4.4,5.1-6.7,12.1-6.7,21.1c0,9,2.2,16,6.7,21.1C185.7-891.7,191.8-889.2,199.7-889.2z"/>
			</g>
			<g>
				<path id="DejaVuSans-104" d="M285.1-912.2v-33h-9v32.7c0,5.2-1,9-3,11.6c-2,2.6-5,3.9-9.1,3.9c-4.9,0-8.7-1.5-11.5-4.6
					c-2.8-3.1-4.2-7.3-4.2-12.6v-30.9h-9v76h9V-899c2.2,3.3,4.7,5.8,7.6,7.4c2.9,1.6,6.3,2.4,10.1,2.4c6.3,0,11-1.9,14.2-5.8
					C283.5-898.9,285.1-904.6,285.1-912.2z"/>
			</g>
			<g>
				<path d="M348.5-912.2v-33h-9v32.7c0,5.2-1,9-3,11.6c-2,2.6-5,3.9-9.1,3.9c-4.9,0-8.7-1.5-11.5-4.6c-2.8-3.1-4.2-7.3-4.2-12.6
					v-30.9h-9v54.7h9v-8.5c2.2,3.3,4.7,5.8,7.6,7.4c2.9,1.6,6.3,2.4,10.1,2.4c6.3,0,11-1.9,14.2-5.8
					C346.9-898.9,348.5-904.6,348.5-912.2z"/>
			</g>
			<g>
				<path d="M357-945.2"/>
			</g>
			<g>
				<path id="DejaVuSans-69" d="M398.6-872.3h46.1v-8.3h-36.2v-21.6h34.7v-8.3h-34.7v-26.4h37.1v-8.3h-47V-872.3z"/>
			</g>
			<g>
				<path d="M506.9-912.2v-33h-9v32.7c0,5.2-1,9-3,11.6c-2,2.6-5,3.9-9.1,3.9c-4.9,0-8.7-1.5-11.5-4.6c-2.8-3.1-4.2-7.3-4.2-12.6
					v-30.9h-9v54.7h9v-8.5c2.2,3.3,4.7,5.8,7.6,7.4c2.9,1.6,6.3,2.4,10.1,2.4c6.3,0,11-1.9,14.2-5.8
					C505.2-898.9,506.9-904.6,506.9-912.2z"/>
			</g>
			<g>
				<path d="M559.6-892.1v-8.5c-2.5,1.3-5.2,2.3-7.9,2.9c-2.7,0.7-5.6,1-8.5,1c-4.5,0-7.8-0.7-10-2c-2.2-1.4-3.3-3.4-3.3-6.2
					c0-2.1,0.8-3.7,2.4-4.9s4.8-2.3,9.6-3.4l3.1-0.7c6.4-1.4,10.9-3.3,13.6-5.8c2.7-2.5,4-6,4-10.4c0-5.1-2-9.1-6-12.1
					c-4-3-9.5-4.4-16.6-4.4c-2.9,0-6,0.3-9.2,0.9c-3.2,0.6-6.5,1.4-10,2.6v9.3c3.3-1.7,6.6-3,9.8-3.9c3.2-0.9,6.4-1.3,9.6-1.3
					c4.2,0,7.5,0.7,9.8,2.2c2.3,1.4,3.4,3.5,3.4,6.1c0,2.4-0.8,4.3-2.5,5.6c-1.6,1.3-5.2,2.6-10.8,3.8l-3.1,0.7
					c-5.6,1.2-9.6,3-12.1,5.4c-2.5,2.4-3.7,5.8-3.7,10c0,5.1,1.8,9.1,5.5,11.9c3.6,2.8,8.8,4.2,15.5,4.2c3.3,0,6.4-0.2,9.4-0.7
					C554.4-890.4,557.2-891.1,559.6-892.1z"/>
			</g>
			<g>
				<path d="M576.9-890.5h9v-54.7h-9V-890.5z M576.9-869.2h9v-11.4h-9V-869.2z"/>
			</g>
			<g>
				<path d="M640.6-917.2c0,6.5-1.3,11.6-4,15.1c-2.7,3.6-6.4,5.4-11.3,5.4c-4.8,0-8.6-1.8-11.2-5.4c-2.7-3.6-4-8.6-4-15.1
					c0-6.5,1.3-11.5,4-15.1c2.7-3.6,6.4-5.4,11.2-5.4c4.9,0,8.6,1.8,11.3,5.4C639.3-928.7,640.6-923.7,640.6-917.2z M649.6-938.4
					c0-9.3-2.1-16.2-6.2-20.8c-4.1-4.5-10.5-6.8-19-6.8c-3.2,0-6.1,0.2-8.9,0.7s-5.5,1.2-8.2,2.2v8.7c2.6-1.4,5.2-2.5,7.8-3.2
					c2.6-0.7,5.2-1,7.9-1c5.9,0,10.3,1.5,13.2,4.6c2.9,3.1,4.4,7.7,4.4,13.9v4.5c-1.9-3.2-4.2-5.6-7.1-7.2s-6.4-2.4-10.4-2.4
					c-6.7,0-12.1,2.6-16.2,7.7c-4.1,5.1-6.2,11.9-6.2,20.3c0,8.5,2.1,15.2,6.2,20.3c4.1,5.1,9.5,7.7,16.2,7.7c4,0,7.5-0.8,10.4-2.4
					s5.3-4,7.1-7.2v8.3h9V-938.4z"/>
			</g>
			<g>
				<path d="M713.6-912.2v-33h-9v32.7c0,5.2-1,9-3,11.6c-2,2.6-5,3.9-9.1,3.9c-4.9,0-8.7-1.5-11.5-4.6c-2.8-3.1-4.2-7.3-4.2-12.6
					v-30.9h-9v54.7h9v-8.5c2.2,3.3,4.7,5.8,7.6,7.4c2.9,1.6,6.3,2.4,10.1,2.4c6.3,0,11-1.9,14.2-5.8
					C712-898.9,713.6-904.6,713.6-912.2z"/>
			</g>
		</g>
	</g>
</g>
<g id="ytick_7">
	<g id="text_14">
		<g transform="translate(36.885937 71.799697)scale(0.1 -0.1)">
			<g>
				<path d="M149.4-872.3h14.7l18.6-49.6l18.7,49.6h14.7v-72.9h-9.6v64l-18.8-50h-9.9l-18.8,50v-64h-9.6V-872.3z"/>
			</g>
			<g>
				<path d="M260.1-917.7c-7.3,0-12.3-0.8-15.1-2.5s-4.2-4.5-4.2-8.5c0-3.2,1.1-5.7,3.2-7.6c2.1-1.9,5-2.8,8.6-2.8c5,0,9,1.8,12,5.3
					c3,3.5,4.5,8.2,4.5,14.1v2H260.1z M278-914v-31.2h-9v8.3c-2.1-3.3-4.6-5.8-7.7-7.3c-3.1-1.6-6.8-2.4-11.2-2.4
					c-5.6,0-10,1.6-13.4,4.7c-3.3,3.1-5,7.4-5,12.6c0,6.1,2.1,10.8,6.2,13.9c4.1,3.1,10.3,4.7,18.4,4.7h12.6v0.9
					c0,4.1-1.4,7.3-4.1,9.6c-2.7,2.3-6.5,3.4-11.5,3.4c-3.1,0-6.2-0.4-9.1-1.1c-3-0.8-5.8-1.9-8.5-3.4v8.3c3.3,1.3,6.5,2.2,9.6,2.8
					c3.1,0.6,6.1,1,9,1c7.9,0,13.8-2.1,17.7-6.2C276.1-899.4,278-905.7,278-914z"/>
			</g>
			<g>
				<path id="DejaVuSans-122" d="M292.6-890.5h42.7v-8.2L301.5-938h33.8v-7.2h-43.9v8.2l33.8,39.3h-32.6V-890.5z"/>
			</g>
			<g>
				<path d="M349-890.5h9v-54.7h-9V-890.5z M349-869.2h9v-11.4h-9V-869.2z"/>
			</g>
			<g>
				<path d="M423.6-915.6v-4.4h-41.3c0.4-6.2,2.3-10.9,5.6-14.1c3.3-3.2,8-4.9,13.9-4.9c3.4,0,6.8,0.4,10,1.3
					c3.2,0.8,6.5,2.1,9.7,3.8v-8.5c-3.2-1.4-6.5-2.4-9.9-3.1c-3.4-0.7-6.8-1.1-10.3-1.1c-8.7,0-15.6,2.5-20.7,7.6
					c-5.1,5.1-7.6,12-7.6,20.6c0,8.9,2.4,16,7.2,21.3c4.8,5.3,11.4,7.9,19.6,7.9c7.4,0,13.2-2.4,17.5-7.1
					C421.5-901,423.6-907.5,423.6-915.6z M414.6-913c-0.1,4.9-1.4,8.8-4.1,11.8c-2.7,2.9-6.2,4.4-10.7,4.4c-5,0-9-1.4-12-4.2
					c-3-2.8-4.7-6.8-5.2-12L414.6-913z"/>
			</g>
			<g>
				<path d="M428.9-945.2"/>
			</g>
			<g>
				<path d="M470.5-872.3h9.9v-29.9h35.8v29.9h9.9v-72.9h-9.9v34.7h-35.8v-34.7h-9.9V-872.3z"/>
			</g>
			<g>
				<path d="M545.3-890.5h9v-54.7h-9V-890.5z M545.3-869.2h9v-11.4h-9V-869.2z"/>
			</g>
			<g>
				<path d="M604.8-898.9c-1,0.6-2.1,1-3.3,1.3c-1.2,0.3-2.5,0.4-3.9,0.4c-5.1,0-9-1.7-11.7-5c-2.7-3.3-4.1-8-4.1-14.2v-28.8h-9
					v54.7h9v-8.5c1.9,3.3,4.4,5.8,7.4,7.4c3,1.6,6.7,2.4,11,2.4c0.6,0,1.3,0,2-0.1c0.8-0.1,1.6-0.2,2.5-0.4L604.8-898.9z"/>
			</g>
			<g>
				<path d="M635.4-896.8c-4.8,0-8.6-1.9-11.4-5.6c-2.8-3.8-4.2-8.9-4.2-15.5c0-6.5,1.4-11.7,4.2-15.5c2.8-3.8,6.6-5.6,11.5-5.6
					c4.8,0,8.6,1.9,11.4,5.7c2.8,3.8,4.2,8.9,4.2,15.4c0,6.5-1.4,11.6-4.2,15.4C644-898.7,640.2-896.8,635.4-896.8z M635.4-889.2
					c7.8,0,13.9-2.5,18.4-7.6c4.5-5.1,6.7-12.1,6.7-21.1c0-8.9-2.2-16-6.7-21.1c-4.5-5.1-10.6-7.6-18.4-7.6c-7.8,0-14,2.5-18.4,7.6
					c-4.4,5.1-6.7,12.1-6.7,21.1c0,9,2.2,16,6.7,21.1C621.4-891.7,627.5-889.2,635.4-889.2z"/>
			</g>
			<g>
				<path d="M720.8-912.2v-33h-9v32.7c0,5.2-1,9-3,11.6c-2,2.6-5,3.9-9.1,3.9c-4.9,0-8.7-1.5-11.5-4.6c-2.8-3.1-4.2-7.3-4.2-12.6
					v-30.9h-9v54.7h9v-8.5c2.2,3.3,4.7,5.8,7.6,7.4c2.9,1.6,6.3,2.4,10.1,2.4c6.3,0,11-1.9,14.2-5.8
					C719.2-898.9,720.8-904.6,720.8-912.2z"/>
			</g>
			<g>
				<path d="M759.9-896.8c-4.8,0-8.6-1.9-11.4-5.6c-2.8-3.8-4.2-8.9-4.2-15.5c0-6.5,1.4-11.7,4.2-15.5c2.8-3.8,6.6-5.6,11.5-5.6
					c4.8,0,8.6,1.9,11.4,5.7c2.8,3.8,4.2,8.9,4.2,15.4c0,6.5-1.4,11.6-4.2,15.4C768.5-898.7,764.7-896.8,759.9-896.8z M759.9-889.2
					c7.8,0,13.9-2.5,18.4-7.6c4.5-5.1,6.7-12.1,6.7-21.1c0-8.9-2.2-16-6.7-21.1c-4.5-5.1-10.6-7.6-18.4-7.6c-7.8,0-14,2.5-18.4,7.6
					c-4.4,5.1-6.7,12.1-6.7,21.1c0,9,2.2,16,6.7,21.1C745.9-891.7,752.1-889.2,759.9-889.2z"/>
			</g>
		</g>
	</g>
</g>
<g>
	<path id="DejaVuSans-84" d="M21.1,135.1h6.2v0.8h-2.6v6.5h-1v-6.5h-2.6V135.1z"/>
</g>
<g>
	<path d="M30.7,139.6c-0.7,0-1.2,0.1-1.5,0.2c-0.3,0.2-0.4,0.4-0.4,0.8c0,0.3,0.1,0.6,0.3,0.8c0.2,0.2,0.5,0.3,0.9,0.3
		c0.5,0,0.9-0.2,1.2-0.5c0.3-0.4,0.5-0.8,0.5-1.4v-0.2H30.7z M32.5,139.2v3.1h-0.9v-0.8c-0.2,0.3-0.5,0.6-0.8,0.7
		c-0.3,0.2-0.7,0.2-1.1,0.2c-0.6,0-1-0.2-1.3-0.5c-0.3-0.3-0.5-0.7-0.5-1.3c0-0.6,0.2-1.1,0.6-1.4c0.4-0.3,1-0.5,1.8-0.5h1.3v-0.1
		c0-0.4-0.1-0.7-0.4-1s-0.7-0.3-1.1-0.3c-0.3,0-0.6,0-0.9,0.1c-0.3,0.1-0.6,0.2-0.9,0.3v-0.8c0.3-0.1,0.6-0.2,1-0.3
		c0.3-0.1,0.6-0.1,0.9-0.1c0.8,0,1.4,0.2,1.8,0.6C32.3,137.8,32.5,138.4,32.5,139.2z"/>
</g>
<g>
	<path d="M38.6,137.9c0.2-0.4,0.5-0.7,0.8-0.9s0.7-0.3,1.1-0.3c0.6,0,1,0.2,1.3,0.6c0.3,0.4,0.5,1,0.5,1.7v3.3h-0.9v-3.3
		c0-0.5-0.1-0.9-0.3-1.2c-0.2-0.3-0.5-0.4-0.8-0.4c-0.5,0-0.8,0.2-1.1,0.5c-0.3,0.3-0.4,0.7-0.4,1.3v3.1h-0.9v-3.3
		c0-0.5-0.1-0.9-0.3-1.2c-0.2-0.3-0.5-0.4-0.9-0.4c-0.5,0-0.8,0.2-1.1,0.5c-0.3,0.3-0.4,0.7-0.4,1.3v3.1h-0.9v-5.5h0.9v0.8
		c0.2-0.3,0.5-0.6,0.7-0.7c0.3-0.2,0.6-0.2,1-0.2c0.4,0,0.7,0.1,1,0.3C38.2,137.3,38.4,137.6,38.6,137.9z"/>
</g>
<g>
	<path d="M48.3,137.9c0.2-0.4,0.5-0.7,0.8-0.9s0.7-0.3,1.1-0.3c0.6,0,1,0.2,1.3,0.6c0.3,0.4,0.5,1,0.5,1.7v3.3h-0.9v-3.3
		c0-0.5-0.1-0.9-0.3-1.2c-0.2-0.3-0.5-0.4-0.8-0.4c-0.5,0-0.8,0.2-1.1,0.5c-0.3,0.3-0.4,0.7-0.4,1.3v3.1h-0.9v-3.3
		c0-0.5-0.1-0.9-0.3-1.2c-0.2-0.3-0.5-0.4-0.9-0.4c-0.5,0-0.8,0.2-1.1,0.5c-0.3,0.3-0.4,0.7-0.4,1.3v3.1H44v-5.5h0.9v0.8
		c0.2-0.3,0.5-0.6,0.7-0.7c0.3-0.2,0.6-0.2,1-0.2c0.4,0,0.7,0.1,1,0.3C48,137.3,48.2,137.6,48.3,137.9z"/>
</g>
<g>
	<path d="M56.1,142.9c-0.3,0.7-0.5,1.1-0.7,1.3c-0.2,0.2-0.6,0.3-1,0.3h-0.7v-0.8h0.5c0.2,0,0.4-0.1,0.6-0.2
		c0.1-0.1,0.3-0.4,0.5-0.8l0.2-0.4l-2.2-5.4h1l1.7,4.3l1.7-4.3h1L56.1,142.9z"/>
</g>
<g>
	<path d="M58.8,142.4"/>
</g>
<g>
	<path d="M63.9,135.9v5.7h1.2c1,0,1.7-0.2,2.2-0.7c0.5-0.5,0.7-1.2,0.7-2.2c0-1-0.2-1.7-0.7-2.1c-0.5-0.5-1.2-0.7-2.2-0.7H63.9z
		 M62.9,135.1h2c1.4,0,2.4,0.3,3.1,0.9c0.7,0.6,1,1.5,1,2.8c0,1.3-0.3,2.2-1,2.8c-0.7,0.6-1.7,0.9-3.1,0.9h-2V135.1z"/>
</g>
<g>
	<path d="M70.5,140.2v-3.3h0.9v3.3c0,0.5,0.1,0.9,0.3,1.2c0.2,0.3,0.5,0.4,0.9,0.4c0.5,0,0.9-0.2,1.1-0.5c0.3-0.3,0.4-0.7,0.4-1.3
		v-3.1h0.9v5.5h-0.9v-0.8c-0.2,0.3-0.5,0.6-0.8,0.7c-0.3,0.2-0.6,0.2-1,0.2c-0.6,0-1.1-0.2-1.4-0.6C70.7,141.5,70.5,141,70.5,140.2z
		"/>
</g>
<g>
	<path id="DejaVuSans-99" d="M80.9,137.1v0.8c-0.3-0.1-0.5-0.2-0.8-0.3c-0.3-0.1-0.5-0.1-0.8-0.1c-0.6,0-1,0.2-1.4,0.6
		c-0.3,0.4-0.5,0.9-0.5,1.6s0.2,1.2,0.5,1.6c0.3,0.4,0.8,0.6,1.4,0.6c0.3,0,0.5,0,0.8-0.1c0.3-0.1,0.5-0.2,0.8-0.3v0.8
		c-0.3,0.1-0.5,0.2-0.8,0.3c-0.3,0.1-0.6,0.1-0.9,0.1c-0.8,0-1.5-0.3-2-0.8c-0.5-0.5-0.7-1.2-0.7-2.1c0-0.9,0.2-1.6,0.7-2.1
		c0.5-0.5,1.2-0.8,2-0.8c0.3,0,0.5,0,0.8,0.1C80.4,136.9,80.6,137,80.9,137.1z"/>
</g>
<g>
	<path d="M82.4,134.8h0.9v4.5l2.7-2.4h1.1l-2.9,2.6l3,2.9h-1.2l-2.8-2.7v2.7h-0.9V134.8z"/>
</g>
<g>
	<path d="M87.7,136.9h0.9l1.1,4.3l1.1-4.3h1.1l1.1,4.3l1.1-4.3H95l-1.4,5.5h-1.1l-1.2-4.5l-1.2,4.5h-1.1L87.7,136.9z"/>
</g>
<g>
	<path d="M98.5,137.5c-0.5,0-0.9,0.2-1.1,0.6c-0.3,0.4-0.4,0.9-0.4,1.5c0,0.7,0.1,1.2,0.4,1.5c0.3,0.4,0.7,0.6,1.1,0.6
		c0.5,0,0.9-0.2,1.1-0.6c0.3-0.4,0.4-0.9,0.4-1.5c0-0.6-0.1-1.2-0.4-1.5C99.4,137.7,99,137.5,98.5,137.5z M98.5,136.8
		c0.8,0,1.4,0.3,1.8,0.8c0.4,0.5,0.7,1.2,0.7,2.1c0,0.9-0.2,1.6-0.7,2.1c-0.4,0.5-1.1,0.8-1.8,0.8c-0.8,0-1.4-0.3-1.8-0.8
		c-0.4-0.5-0.7-1.2-0.7-2.1c0-0.9,0.2-1.6,0.7-2.1C97.1,137,97.7,136.8,98.5,136.8z"/>
</g>
<g>
	<path d="M105.7,137.7c-0.1-0.1-0.2-0.1-0.3-0.1c-0.1,0-0.2,0-0.4,0c-0.5,0-0.9,0.2-1.2,0.5c-0.3,0.3-0.4,0.8-0.4,1.4v2.9h-0.9v-5.5
		h0.9v0.8c0.2-0.3,0.4-0.6,0.7-0.7c0.3-0.2,0.7-0.2,1.1-0.2c0.1,0,0.1,0,0.2,0c0.1,0,0.2,0,0.2,0L105.7,137.7z"/>
</g>
<g>
	<path d="M107.5,135.3v1.6h1.8v0.7h-1.8v3c0,0.4,0.1,0.7,0.2,0.9c0.1,0.1,0.4,0.2,0.7,0.2h0.9v0.8h-0.9c-0.7,0-1.2-0.1-1.4-0.4
		c-0.3-0.3-0.4-0.7-0.4-1.4v-3H106v-0.7h0.7v-1.6H107.5z"/>
</g>
<g>
	<path d="M115.1,139.1v3.3h-0.9v-3.3c0-0.5-0.1-0.9-0.3-1.2c-0.2-0.3-0.5-0.4-0.9-0.4c-0.5,0-0.9,0.2-1.1,0.5
		c-0.3,0.3-0.4,0.7-0.4,1.3v3.1h-0.9v-7.6h0.9v3c0.2-0.3,0.5-0.6,0.8-0.7c0.3-0.2,0.6-0.2,1-0.2c0.6,0,1.1,0.2,1.4,0.6
		C114.9,137.7,115.1,138.3,115.1,139.1z"/>
</g>
<g id="ytick_9">
	<g id="text_16">
		<g transform="translate(31.4875 23.880175)scale(0.1 -0.1)">
			<g>
				<path id="DejaVuSans-75" d="M149.4-872.3h9.9v-30.8l32.7,30.8h12.7l-36.2-34l38.8-38.9h-13l-35,35.1v-35.1h-9.9V-872.3z"/>
			</g>
			<g>
				<path d="M239.4-917.7c-7.3,0-12.3-0.8-15.1-2.5c-2.8-1.7-4.2-4.5-4.2-8.5c0-3.2,1.1-5.7,3.2-7.6c2.1-1.9,5-2.8,8.6-2.8
					c5,0,9,1.8,12,5.3c3,3.5,4.5,8.2,4.5,14.1v2H239.4z M257.3-914v-31.2h-9v8.3c-2.1-3.3-4.6-5.8-7.7-7.3
					c-3.1-1.6-6.8-2.4-11.2-2.4c-5.6,0-10,1.6-13.4,4.7c-3.3,3.1-5,7.4-5,12.6c0,6.1,2.1,10.8,6.2,13.9c4.1,3.1,10.3,4.7,18.4,4.7
					h12.6v0.9c0,4.1-1.4,7.3-4.1,9.6c-2.7,2.3-6.5,3.4-11.5,3.4c-3.1,0-6.2-0.4-9.1-1.1c-3-0.8-5.8-1.9-8.5-3.4v8.3
					c3.3,1.3,6.5,2.2,9.6,2.8c3.1,0.6,6.1,1,9,1c7.9,0,13.8-2.1,17.7-6.2C255.4-899.4,257.3-905.7,257.3-914z"/>
			</g>
			<g>
				<path d="M318.4-901c2.2,4,4.9,7,8.1,8.9c3.1,1.9,6.8,2.9,11,2.9c5.7,0,10.1-2,13.2-6c3.1-4,4.6-9.6,4.6-17v-33h-9v32.7
					c0,5.2-0.9,9.1-2.8,11.7c-1.9,2.5-4.7,3.8-8.5,3.8c-4.7,0-8.3-1.5-11-4.6c-2.7-3.1-4-7.3-4-12.6v-30.9h-9v32.7
					c0,5.3-0.9,9.2-2.8,11.7c-1.9,2.5-4.7,3.8-8.6,3.8c-4.6,0-8.2-1.6-11-4.7c-2.7-3.1-4-7.3-4-12.6v-30.9h-9v54.7h9v-8.5
					c2.1,3.4,4.5,5.8,7.4,7.4c2.9,1.6,6.3,2.4,10.2,2.4c4,0,7.4-1,10.1-3C315-894.2,317.1-897.2,318.4-901z"/>
			</g>
			<g>
				<path d="M398.1-917.7c-7.3,0-12.3-0.8-15.1-2.5c-2.8-1.7-4.2-4.5-4.2-8.5c0-3.2,1.1-5.7,3.2-7.6c2.1-1.9,5-2.8,8.6-2.8
					c5,0,9,1.8,12,5.3c3,3.5,4.5,8.2,4.5,14.1v2H398.1z M416-914v-31.2h-9v8.3c-2.1-3.3-4.6-5.8-7.7-7.3c-3.1-1.6-6.8-2.4-11.2-2.4
					c-5.6,0-10,1.6-13.4,4.7c-3.3,3.1-5,7.4-5,12.6c0,6.1,2.1,10.8,6.2,13.9c4.1,3.1,10.3,4.7,18.4,4.7H407v0.9
					c0,4.1-1.4,7.3-4.1,9.6c-2.7,2.3-6.5,3.4-11.5,3.4c-3.1,0-6.2-0.4-9.1-1.1c-3-0.8-5.8-1.9-8.5-3.4v8.3c3.3,1.3,6.5,2.2,9.6,2.8
					c3.1,0.6,6.1,1,9,1c7.9,0,13.8-2.1,17.7-6.2C414.1-899.4,416-905.7,416-914z"/>
			</g>
			<g>
				<path d="M434.5-869.2h9v-76h-9V-869.2z"/>
			</g>
			<g>
				<path d="M487.2-917.7c-7.3,0-12.3-0.8-15.1-2.5c-2.8-1.7-4.2-4.5-4.2-8.5c0-3.2,1.1-5.7,3.2-7.6c2.1-1.9,5-2.8,8.6-2.8
					c5,0,9,1.8,12,5.3c3,3.5,4.5,8.2,4.5,14.1v2H487.2z M505.1-914v-31.2h-9v8.3c-2.1-3.3-4.6-5.8-7.7-7.3
					c-3.1-1.6-6.8-2.4-11.2-2.4c-5.6,0-10,1.6-13.4,4.7c-3.3,3.1-5,7.4-5,12.6c0,6.1,2.1,10.8,6.2,13.9c4.1,3.1,10.3,4.7,18.4,4.7
					h12.6v0.9c0,4.1-1.4,7.3-4.1,9.6c-2.7,2.3-6.5,3.4-11.5,3.4c-3.1,0-6.2-0.4-9.1-1.1c-3-0.8-5.8-1.9-8.5-3.4v8.3
					c3.3,1.3,6.5,2.2,9.6,2.8c3.1,0.6,6.1,1,9,1c7.9,0,13.8-2.1,17.7-6.2C503.1-899.4,505.1-905.7,505.1-914z"/>
			</g>
			<g>
				<path d="M514.2-945.2"/>
			</g>
			<g>
				<path d="M555.8-872.3h9.9v-29.9h35.8v29.9h9.9v-72.9h-9.9v34.7h-35.8v-34.7h-9.9V-872.3z"/>
			</g>
			<g>
				<path d="M655.4-917.7c-7.3,0-12.3-0.8-15.1-2.5s-4.2-4.5-4.2-8.5c0-3.2,1.1-5.7,3.2-7.6c2.1-1.9,5-2.8,8.6-2.8c5,0,9,1.8,12,5.3
					s4.5,8.2,4.5,14.1v2H655.4z M673.3-914v-31.2h-9v8.3c-2.1-3.3-4.6-5.8-7.7-7.3c-3.1-1.6-6.8-2.4-11.2-2.4
					c-5.6,0-10,1.6-13.4,4.7c-3.3,3.1-5,7.4-5,12.6c0,6.1,2.1,10.8,6.2,13.9c4.1,3.1,10.3,4.7,18.4,4.7h12.6v0.9
					c0,4.1-1.4,7.3-4.1,9.6c-2.7,2.3-6.5,3.4-11.5,3.4c-3.1,0-6.2-0.4-9.1-1.1c-3-0.8-5.8-1.9-8.5-3.4v8.3c3.3,1.3,6.5,2.2,9.6,2.8
					c3.1,0.6,6.1,1,9,1c7.9,0,13.8-2.1,17.7-6.2C671.4-899.4,673.3-905.7,673.3-914z"/>
			</g>
			<g>
				<path d="M723.5-898.9c-1,0.6-2.1,1-3.3,1.3c-1.2,0.3-2.5,0.4-3.9,0.4c-5.1,0-9-1.7-11.7-5c-2.7-3.3-4.1-8-4.1-14.2v-28.8h-9
					v54.7h9v-8.5c1.9,3.3,4.4,5.8,7.4,7.4c3,1.6,6.7,2.4,11,2.4c0.6,0,1.3,0,2-0.1c0.8-0.1,1.6-0.2,2.5-0.4L723.5-898.9z"/>
			</g>
			<g>
				<path d="M764.6-898.9c-1,0.6-2.1,1-3.3,1.3c-1.2,0.3-2.5,0.4-3.9,0.4c-5.1,0-9-1.7-11.7-5c-2.7-3.3-4.1-8-4.1-14.2v-28.8h-9
					v54.7h9v-8.5c1.9,3.3,4.4,5.8,7.4,7.4c3,1.6,6.7,2.4,11,2.4c0.6,0,1.3,0,2-0.1c0.8-0.1,1.6-0.2,2.5-0.4L764.6-898.9z"/>
			</g>
			<g>
				<path d="M774-890.5h9v-54.7h-9V-890.5z M774-869.2h9v-11.4h-9V-869.2z"/>
			</g>
			<g>
				<path d="M836.7-892.1v-8.5c-2.5,1.3-5.2,2.3-7.9,2.9c-2.7,0.7-5.6,1-8.5,1c-4.5,0-7.8-0.7-10-2c-2.2-1.4-3.3-3.4-3.3-6.2
					c0-2.1,0.8-3.7,2.4-4.9s4.8-2.3,9.6-3.4l3.1-0.7c6.4-1.4,10.9-3.3,13.6-5.8c2.7-2.5,4-6,4-10.4c0-5.1-2-9.1-6-12.1
					c-4-3-9.5-4.4-16.6-4.4c-2.9,0-6,0.3-9.2,0.9c-3.2,0.6-6.5,1.4-10,2.6v9.3c3.3-1.7,6.6-3,9.8-3.9c3.2-0.9,6.4-1.3,9.6-1.3
					c4.2,0,7.5,0.7,9.8,2.2c2.3,1.4,3.4,3.5,3.4,6.1c0,2.4-0.8,4.3-2.5,5.6c-1.6,1.3-5.2,2.6-10.8,3.8l-3.1,0.7
					c-5.6,1.2-9.6,3-12.1,5.4c-2.5,2.4-3.7,5.8-3.7,10c0,5.1,1.8,9.1,5.5,11.9c3.6,2.8,8.8,4.2,15.5,4.2c3.3,0,6.4-0.2,9.4-0.7
					C831.5-890.4,834.2-891.1,836.7-892.1z"/>
			</g>
		</g>
	</g>
</g>
<rect x="122.9" y="101.7" class="st0" width="334.8" height="217.4"/>
<path class="st5" d="M141.1,306.3h88.1"/>
<rect x="122.9" y="101.7" class="st0" width="334.8" height="217.4"/>
<path class="st6" d="M160.7,282.3h239.7"/>
<rect x="122.9" y="101.7" class="st0" width="334.8" height="217.4"/>
<path class="st5" d="M229.2,258.4h29.4"/>
<rect x="122.9" y="101.7" class="st0" width="334.8" height="217.4"/>
<path class="st6" d="M229.2,234.4h63.6"/>
<rect x="122.9" y="101.7" class="st0" width="334.8" height="217.4"/>
<path class="st6" d="M292.8,210.4h112.5"/>
<rect x="122.9" y="101.7" class="st0" width="334.8" height="217.4"/>
<path class="st5" d="M346.6,186.5h48.9"/>
<path class="st6" d="M405.3,162.5h34.2"/>
<path class="st6" d="M424.9,138.6h14.7"/>
<path class="st6" d="M424.9,114.6h14.7"/>
<path class="st7" d="M122.9,319.2h334.8"/>
<rect x="97.9" y="30.9" class="st0" width="342.6" height="18.8"/>
<text transform="matrix(1 0 0 1 97.9178 43.7386)" class="st8 st9 st10">Aisan American Senators in U.S. History</text>
<text transform="matrix(1 0 0 1 37.7416 122.2433)" class="st11 st12">*</text>
<text transform="matrix(1 0 0 1 15.2002 146.2919)" class="st11 st12">*</text>
<text transform="matrix(1 0 0 1 44.3807 169.8381)" class="st11 st12">*</text>
<text transform="matrix(1 0 0 1 94.5963 78.6605)" class="st11 st12">*</text>
<g id="ytick_9_1_">
	<text transform="matrix(1 0 0 1 103.5827 73.9571)" class="st9 st13">female</text>
</g>
<path class="st6" d="M277.9,71.3h14.7"/>
<path class="st5" d="M356,71.3h14.7"/>
<text transform="matrix(1 0 0 1 296.5471 73.9571)" class="st9 st13">Democratic</text>
<text transform="matrix(1 0 0 1 373.477 73.9574)" class="st9 st13">Republican</text>
<text transform="matrix(1 0 0 1 156.9661 73.9575)" class="st9 st13">start date</text>
<text transform="matrix(1 0 0 1 225.4604 73.9571)" class="st9 st13">end date</text>
</svg>
