<?xml version="1.0" encoding="utf-8"?>
<!-- Generator: Adobe Illustrator 23.0.4, SVG Export Plug-In . SVG Version: 6.00 Build 0)  -->
<svg version="1.1" id="Layer_1" xmlns="http://www.w3.org/2000/svg" xmlns:xlink="http://www.w3.org/1999/xlink" x="0px" y="0px"
	 viewBox="0 0 1920 1239" style="enable-background:new 0 0 1920 1239;" xml:space="preserve">
<style type="text/css">
	.st0{fill:#3DC979;stroke:#63EA6C;stroke-miterlimit:10;}
	.st1{fill:#D3D3D3;}
	.st2{font-family:'ArialMT';}
	.st3{font-size:24px;}
	.st4{fill:none;}
	.st5{font-size:36px;}
	.st6{fill:#020202;}
	.st7{font-size:48px;}
	.st8{font-size:60px;}
</style>
<rect x="118.5" y="240.5" class="st0" width="130.5" height="113.2"/>
<rect x="1664" y="240.5" class="st0" width="130.5" height="113.2"/>
<rect x="1383" y="363.8" class="st1" width="130.5" height="113.2"/>
<rect x="1523.5" y="363.8" class="st0" width="130.5" height="113.2"/>
<rect x="1664" y="363.8" class="st0" width="130.5" height="113.2"/>
<rect x="259" y="487" class="st0" width="130.5" height="113.2"/>
<rect x="399.5" y="487" class="st1" width="130.5" height="113.2"/>
<rect x="540" y="487" class="st1" width="130.5" height="113.2"/>
<rect x="680.5" y="487" class="st1" width="130.5" height="113.2"/>
<rect x="821" y="487" class="st0" width="130.5" height="113.2"/>
<rect x="961.5" y="487" class="st0" width="130.5" height="113.2"/>
<rect x="1102" y="487" class="st0" width="130.5" height="113.2"/>
<rect x="1383" y="487" class="st0" width="130.5" height="113.2"/>
<rect x="1523.5" y="487" class="st0" width="130.5" height="113.2"/>
<rect x="1664" y="487" class="st0" width="130.5" height="113.2"/>
<rect x="259" y="610.2" class="st0" width="130.5" height="113.2"/>
<rect x="399.5" y="610.2" class="st0" width="130.5" height="113.2"/>
<rect x="540" y="610.2" class="st0" width="130.5" height="113.2"/>
<rect x="680.5" y="610.2" class="st1" width="130.5" height="113.2"/>
<rect x="821" y="610.2" class="st1" width="130.5" height="113.2"/>
<rect x="961.5" y="610.2" class="st0" width="130.5" height="113.2"/>
<rect x="1102" y="610.2" class="st0" width="130.5" height="113.2"/>
<rect x="1242.5" y="610.2" class="st0" width="130.5" height="113.2"/>
<rect x="1383" y="610.2" class="st0" width="130.5" height="113.2"/>
<rect x="1523.5" y="610.2" class="st0" width="130.5" height="113.2"/>
<rect x="118.5" y="733.5" class="st0" width="130.5" height="113.2"/>
<rect x="259" y="733.5" class="st0" width="130.5" height="113.2"/>
<rect x="399.5" y="733.5" class="st0" width="130.5" height="113.2"/>
<rect x="540" y="733.5" class="st1" width="130.5" height="113.2"/>
<rect x="680.5" y="733.5" class="st0" width="130.5" height="113.2"/>
<rect x="821" y="733.5" class="st0" width="130.5" height="113.2"/>
<rect x="961.5" y="733.5" class="st0" width="130.5" height="113.2"/>
<rect x="1102" y="733.5" class="st1" width="130.5" height="113.2"/>
<rect x="1242.5" y="733.5" class="st0" width="130.5" height="113.2"/>
<rect x="1383" y="733.5" class="st0" width="130.5" height="113.2"/>
<rect x="1523.5" y="733.5" class="st1" width="130.5" height="113.2"/>
<rect x="399.5" y="856.8" class="st0" width="130.5" height="113.2"/>
<rect x="540" y="856.8" class="st0" width="130.5" height="113.2"/>
<rect x="680.5" y="856.8" class="st0" width="130.5" height="113.2"/>
<rect x="821" y="856.8" class="st1" width="130.5" height="113.2"/>
<rect x="961.5" y="856.8" class="st0" width="130.5" height="113.2"/>
<rect x="1102" y="856.8" class="st0" width="130.5" height="113.2"/>
<rect x="1242.5" y="856.8" class="st0" width="130.5" height="113.2"/>
<rect x="540" y="980" class="st0" width="130.5" height="113.2"/>
<rect x="680.5" y="980" class="st0" width="130.5" height="113.2"/>
<rect x="821" y="980" class="st1" width="130.5" height="113.2"/>
<rect x="961.5" y="980" class="st1" width="130.5" height="113.2"/>
<rect x="1102" y="980" class="st0" width="130.5" height="113.2"/>
<rect x="1242.5" y="980" class="st0" width="130.5" height="113.2"/>
<rect x="118.5" y="1103.2" class="st0" width="130.5" height="113.2"/>
<rect x="1102" y="1103.2" class="st0" width="130.5" height="113.2"/>
<text transform="matrix(1 0 0 1 210.9092 266.6362)" class="st2 st3">AK</text>
<text transform="matrix(1 0 0 1 344.9092 514.6362)" class="st2 st3">WA</text>
<text transform="matrix(1 0 0 1 492.9092 513.6362)" class="st2 st3">MT</text>
<text transform="matrix(1 0 0 1 908.9092 512.6362)" class="st2 st3">MN</text>
<text transform="matrix(1 0 0 1 772.9092 508.6362)" class="st2 st3">SD</text>
<text transform="matrix(1 0 0 1 630.9092 512.6362)" class="st2 st3">ND</text>
<text transform="matrix(1 0 0 1 491.9092 882.6362)" class="st2 st3">AZ</text>
<text transform="matrix(1 0 0 1 910.9092 883.6362)" class="st2 st3">AR</text>
<text transform="matrix(1 0 0 1 206.9092 757.6362)" class="st2 st3">CA</text>
<text transform="matrix(1 0 0 1 492.9092 758.6362)" class="st2 st3">UT</text>
<text transform="matrix(1 0 0 1 215.9092 1131.6362)" class="st2 st3">HI</text>
<text transform="matrix(1 0 0 1 499.9092 635.6362)" class="st2 st3">ID</text>
<text transform="matrix(1 0 0 1 349.9092 757.6362)" class="st2 st3">NV</text>
<text transform="matrix(1 0 0 1 349.9092 638.6362)" class="st2 st3">OR</text>
<text transform="matrix(1 0 0 1 1196.9092 514.6362)" class="st2 st3">MI</text>
<text transform="matrix(1 0 0 1 1064.9092 635.6362)" class="st2 st3">IL</text>
<text transform="matrix(1 0 0 1 1051.9092 762.6362)" class="st2 st3">KY</text>
<text transform="matrix(1 0 0 1 1054.9092 510.6362)" class="st2 st3">WI</text>
<text transform="matrix(1 0 0 1 1199.9092 636.6362)" class="st2 st3">IN</text>
<text transform="matrix(1 0 0 1 908.9092 1007.6362)" class="st2 st3">MS</text>
<text transform="matrix(1 0 0 1 1192.9092 1005.6362)" class="st2 st3">GA</text>
<text transform="matrix(1 0 0 1 626.9092 885.6362)" class="st2 st3">NM</text>
<text transform="matrix(1 0 0 1 630.9092 760.6362)" class="st2 st3">CO</text>
<text transform="matrix(1 0 0 1 635.9092 1003.6362)" class="st2 st3">TX</text>
<text transform="matrix(1 0 0 1 771.9092 1005.6362)" class="st2 st3">LA</text>
<text transform="matrix(1 0 0 1 767.9092 880.6362)" class="st2 st3">OK</text>
<text transform="matrix(1 0 0 1 771.9092 632.6362)" class="st2 st3">NE</text>
<text transform="matrix(1 0 0 1 630.9092 639.6362)" class="st2 st3">WY</text>
<text transform="matrix(1 0 0 1 774.9092 760.6362)" class="st2 st3">KS</text>
<text transform="matrix(1 0 0 1 921.9092 635.6362)" class="st2 st3">IA</text>
<text transform="matrix(1 0 0 1 908.9092 758.6362)" class="st2 st3">MO</text>
<text transform="matrix(1 0 0 1 1476.9092 635.6362)" class="st2 st3">PA</text>
<text transform="matrix(1 0 0 1 1331.9092 883.6362)" class="st2 st3">NC</text>
<text transform="matrix(1 0 0 1 1054.9092 1003.6362)" class="st2 st3">AL</text>
<text transform="matrix(1 0 0 1 1331.9092 762.6362)" class="st2 st3">DC</text>
<text transform="matrix(1 0 0 1 1331.9092 637.6362)" class="st2 st3">OH</text>
<text transform="matrix(1 0 0 1 1335.9092 1006.6362)" class="st2 st3">SC</text>
<text transform="matrix(1 0 0 1 1199.9092 1130.6362)" class="st2 st3">FL</text>
<text transform="matrix(1 0 0 1 1050.9092 886.6362)" class="st2 st3">TN</text>
<text transform="matrix(1 0 0 1 1614.9092 756.6362)" class="st2 st3">DE</text>
<text transform="matrix(1 0 0 1 1752.9092 269.6362)" class="st2 st3">ME</text>
<text transform="matrix(1 0 0 1 1612.9092 390.6362)" class="st2 st3">NH</text>
<text transform="matrix(1 0 0 1 1750.9092 392.6362)" class="st2 st3">MA</text>
<text transform="matrix(1 0 0 1 1475.9092 758.6362)" class="st2 st3">MD</text>
<text transform="matrix(1 0 0 1 1475.9092 388.6362)" class="st2 st3">VT</text>
<text transform="matrix(1 0 0 1 1614.9092 512.6362)" class="st2 st3">CT</text>
<text transform="matrix(1 0 0 1 1476.9092 515.6362)" class="st2 st3">NY</text>
<text transform="matrix(1 0 0 1 1760.9092 515.6362)" class="st2 st3">RI</text>
<text transform="matrix(1 0 0 1 1615.9092 634.6362)" class="st2 st3">NJ</text>
<text transform="matrix(1 0 0 1 1194.9092 886.6362)" class="st2 st3">VA</text>
<text transform="matrix(1 0 0 1 1187.9092 762.6362)" class="st2 st3">WV</text>
<rect x="421.5" y="183.5" class="st0" width="50" height="50"/>
<rect x="485.3" y="174.2" class="st4" width="1194.7" height="90.8"/>
<text transform="matrix(1 0 0 1 485.2729 199.957)"><tspan x="0" y="0" class="st2 st5">States that have elected Asian American officials during 2019-2020 cycle    </tspan><tspan x="0" y="43.2" class="st2 st5">Federal, State and Local combined.</tspan></text>
<text transform="matrix(1 0 0 1 142.4546 808.7275)" class="st6 st2 st7">358</text>
<text transform="matrix(1 0 0 1 145.4546 1186.7275)" class="st6 st2 st7">105</text>
<text transform="matrix(1 0 0 1 1567.4546 689.7275)" class="st6 st2 st7">52</text>
<text transform="matrix(1 0 0 1 145.4546 1186.7275)" class="st6 st2 st7">105</text>
<text transform="matrix(1 0 0 1 303.4546 573.7275)" class="st6 st2 st7">35</text>
<text transform="matrix(1 0 0 1 1428.4546 571.7275)" class="st6 st2 st7">21</text>
<text transform="matrix(1 0 0 1 1423.4546 814.7275)" class="st6 st2 st7">14</text>
<text transform="matrix(1 0 0 1 587.4546 1056.7275)" class="st6 st2 st7">14</text>
<text transform="matrix(1 0 0 1 858.4546 570.7275)" class="st6 st2 st7">13</text>
<text transform="matrix(1 0 0 1 437.4546 941.7275)" class="st6 st2 st7">11</text>
<text transform="matrix(1 0 0 1 1705.4546 454.7275)" class="st6 st2 st7">11</text>
<text transform="matrix(1 0 0 1 1005.4546 570.7275)" class="st6 st2 st7">10</text>
<text transform="matrix(1 0 0 1 1159.4546 938.7275)" class="st6 st2 st7">9</text>
<text transform="matrix(1 0 0 1 1158.4546 573.7275)" class="st6 st2 st7">7</text>
<text transform="matrix(1 0 0 1 1017.4546 688.7275)" class="st6 st2 st7">6</text>
<text transform="matrix(1 0 0 1 1301.4546 939.7275)" class="st6 st2 st7">6</text>
<text transform="matrix(1 0 0 1 316.4546 691.7275)" class="st6 st2 st7">6</text>
<text transform="matrix(1 0 0 1 1158.4546 1179.7275)" class="st6 st2 st7">5</text>
<text transform="matrix(1 0 0 1 454.4546 813.7275)" class="st6 st2 st7">5</text>
<text transform="matrix(1 0 0 1 176.4546 322.7275)" class="st6 st2 st7">5</text>
<text transform="matrix(1 0 0 1 1015.4546 935.7275)" class="st6 st2 st7">4</text>
<text transform="matrix(1 0 0 1 1443.4546 688.7275)" class="st6 st2 st7">4</text>
<text transform="matrix(1 0 0 1 314.4546 813.7275)" class="st6 st2 st7">4</text>
<text transform="matrix(1 0 0 1 1294.4546 690.7275)" class="st6 st2 st7">4</text>
<text transform="matrix(1 0 0 1 1156.4546 690.7275)" class="st6 st2 st7">4</text>
<text transform="matrix(1 0 0 1 1580.4546 567.7275)" class="st6 st2 st7">3</text>
<text transform="matrix(1 0 0 1 1586.4546 449.7275)" class="st6 st2 st7">3</text>
<text transform="matrix(1 0 0 1 456.4546 690.7275)" class="st6 st2 st7">3</text>
<text transform="matrix(1 0 0 1 740.4546 935.7275)" class="st6 st2 st7">2</text>
<text transform="matrix(1 0 0 1 742.4546 1058.7275)" class="st6 st2 st7">2</text>
<text transform="matrix(1 0 0 1 742.4546 820.7275)" class="st6 st2 st7">1</text>
<text transform="matrix(1 0 0 1 1717.4546 563.7275)" class="st6 st2 st7">1</text>
<text transform="matrix(1 0 0 1 1720.4546 317.7275)" class="st6 st2 st7">1</text>
<text transform="matrix(1 0 0 1 1304.4546 1058.7275)" class="st6 st2 st7">1</text>
<text transform="matrix(1 0 0 1 1158.4546 1056.7275)" class="st6 st2 st7">1</text>
<text transform="matrix(1 0 0 1 1301.4546 815.7275)" class="st6 st2 st7">1</text>
<text transform="matrix(1 0 0 1 1022.4546 817.7275)" class="st6 st2 st7">1</text>
<text transform="matrix(1 0 0 1 886.4546 819.7275)" class="st6 st2 st7">1</text>
<text transform="matrix(1 0 0 1 296.0908 117.7271)" class="st2 st8">Number of Asian American Elected Officials in 2019</text>
</svg>
