<svg id="Layer_1" data-name="Layer 1" xmlns="http://www.w3.org/2000/svg" viewBox="0 0 1765.63 1679.53"><defs><style>.cls-1{fill:#2ca25f;}.cls-1,.cls-2,.cls-4,.cls-5,.cls-6{stroke:#63ea6c;stroke-miterlimit:10;}.cls-2{fill:#b2e2e2;}.cls-3{fill:#edf8fb;}.cls-4{fill:#66c2a4;}.cls-5{fill:#3dc979;}.cls-6{fill:#006d2c;}.cls-12,.cls-14,.cls-15,.cls-16,.cls-7,.cls-8{isolation:isolate;}.cls-12,.cls-7,.cls-8{font-size:24px;}.cls-12,.cls-14,.cls-15,.cls-16,.cls-17,.cls-18,.cls-7,.cls-8{font-family:ArialMT, Arial;}.cls-11,.cls-8{letter-spacing:-0.04em;}.cls-9{letter-spacing:-0.06em;}.cls-10{letter-spacing:-0.02em;}.cls-12{letter-spacing:-0.07em;}.cls-13{fill:none;}.cls-14,.cls-15{font-size:48px;}.cls-14{fill:#020202;}.cls-16{font-size:36px;}.cls-17{font-size:60px;}.cls-18{font-size:28.87px;}.cls-19{letter-spacing:-0.06em;}.cls-20{letter-spacing:-0.07em;}.cls-21{letter-spacing:0em;}</style></defs><title>state_map</title><rect class="cls-1" x="89.13" y="487.83" width="130.5" height="113.2"/><rect class="cls-2" x="1634.63" y="487.83" width="130.5" height="113.2"/><rect class="cls-3" x="1353.63" y="611.13" width="130.5" height="113.2"/><rect class="cls-1" x="1494.13" y="611.13" width="130.5" height="113.2"/><rect class="cls-4" x="1634.63" y="611.13" width="130.5" height="113.2"/><rect class="cls-1" x="229.63" y="734.33" width="130.5" height="113.2"/><rect class="cls-3" x="370.13" y="734.33" width="130.5" height="113.2"/><rect class="cls-3" x="510.63" y="734.33" width="130.5" height="113.2"/><rect class="cls-3" x="651.13" y="734.33" width="130.5" height="113.2"/><rect class="cls-1" x="791.63" y="734.33" width="130.5" height="113.2"/><rect class="cls-4" x="932.13" y="734.33" width="130.5" height="113.2"/><rect class="cls-2" x="1072.63" y="734.33" width="130.5" height="113.2"/><rect class="cls-5" x="1353.63" y="734.33" width="130.5" height="113.2"/><rect class="cls-2" x="1494.13" y="734.33" width="130.5" height="113.2"/><rect class="cls-2" x="1634.63" y="734.33" width="130.5" height="113.2"/><rect class="cls-4" x="229.63" y="857.53" width="130.5" height="113.2"/><rect class="cls-4" x="370.13" y="857.53" width="130.5" height="113.2"/><rect class="cls-4" x="510.63" y="857.53" width="130.5" height="113.2"/><rect class="cls-3" x="651.13" y="857.53" width="130.5" height="113.2"/><rect class="cls-3" x="791.63" y="857.53" width="130.5" height="113.2"/><rect class="cls-2" x="932.13" y="857.53" width="130.5" height="113.2"/><rect class="cls-2" x="1072.63" y="857.53" width="130.5" height="113.2"/><rect class="cls-2" x="1213.13" y="857.53" width="130.5" height="113.2"/><rect class="cls-2" x="1353.63" y="857.53" width="130.5" height="113.2"/><rect class="cls-1" x="1494.13" y="857.53" width="130.5" height="113.2"/><rect class="cls-1" x="89.13" y="980.83" width="130.5" height="113.2"/><rect class="cls-4" x="229.63" y="980.83" width="130.5" height="113.2"/><rect class="cls-4" x="370.13" y="980.83" width="130.5" height="113.2"/><rect class="cls-3" x="510.63" y="980.83" width="130.5" height="113.2"/><rect class="cls-2" x="651.13" y="980.83" width="130.5" height="113.2"/><rect class="cls-2" x="791.63" y="980.83" width="130.5" height="113.2"/><rect class="cls-2" x="932.13" y="980.83" width="130.5" height="113.2"/><rect class="cls-3" x="1072.63" y="980.83" width="130.5" height="113.2"/><rect class="cls-4" x="1213.13" y="980.83" width="130.5" height="113.2"/><rect class="cls-1" x="1353.63" y="980.83" width="130.5" height="113.2"/><rect class="cls-3" x="1494.13" y="980.83" width="130.5" height="113.2"/><rect class="cls-4" x="370.13" y="1104.13" width="130.5" height="113.2"/><rect class="cls-2" x="510.63" y="1104.13" width="130.5" height="113.2"/><rect class="cls-2" x="651.13" y="1104.13" width="130.5" height="113.2"/><rect class="cls-3" x="791.63" y="1104.13" width="130.5" height="113.2"/><rect class="cls-2" x="932.13" y="1104.13" width="130.5" height="113.2"/><rect class="cls-4" x="1072.63" y="1104.13" width="130.5" height="113.2"/><rect class="cls-2" x="1213.13" y="1104.13" width="130.5" height="113.2"/><rect class="cls-2" x="510.63" y="1227.33" width="130.5" height="113.2"/><rect class="cls-2" x="651.13" y="1227.33" width="130.5" height="113.2"/><rect class="cls-3" x="791.63" y="1227.33" width="130.5" height="113.2"/><rect class="cls-3" x="932.13" y="1227.33" width="130.5" height="113.2"/><rect class="cls-2" x="1072.63" y="1227.33" width="130.5" height="113.2"/><rect class="cls-2" x="1213.13" y="1227.33" width="130.5" height="113.2"/><rect class="cls-6" x="89.13" y="1350.53" width="130.5" height="113.2"/><rect class="cls-2" x="1072.63" y="1350.53" width="130.5" height="113.2"/><text class="cls-7" transform="translate(181.55 514.03)">AK</text><text class="cls-8" transform="translate(315.55 762.03)">W<tspan class="cls-9" x="21.76" y="0">A</tspan></text><text class="cls-7" transform="translate(463.55 761.03)">M<tspan class="cls-10" x="19.99" y="0">T</tspan></text><text class="cls-7" transform="translate(879.55 760.03)">MN</text><text class="cls-7" transform="translate(743.55 756.03)">SD</text><text class="cls-7" transform="translate(601.55 760.03)">ND</text><text class="cls-7" transform="translate(462.55 1130.03)">AZ</text><text class="cls-7" transform="translate(881.55 1131.03)">AR</text><text class="cls-7" transform="translate(177.55 1005.03)">C<tspan class="cls-9" x="17.33" y="0">A</tspan></text><text class="cls-7" transform="translate(463.55 1006.03)">U<tspan class="cls-10" x="17.33" y="0">T</tspan></text><text class="cls-7" transform="translate(186.55 1379.03)">HI</text><text class="cls-7" transform="translate(470.55 883.03)">ID</text><text class="cls-7" transform="translate(320.55 1005.03)">NV</text><text class="cls-7" transform="translate(320.55 886.03)">OR</text><text class="cls-7" transform="translate(1167.55 762.03)">MI</text><text class="cls-7" transform="translate(1035.55 883.03)">I<tspan class="cls-11" x="6.67" y="0">L</tspan></text><text class="cls-7" transform="translate(1022.55 1010.03)">K<tspan class="cls-10" x="16.01" y="0">Y</tspan></text><text class="cls-7" transform="translate(1025.55 758.03)">WI</text><text class="cls-7" transform="translate(1170.55 884.03)">IN</text><text class="cls-7" transform="translate(879.55 1255.03)">MS</text><text class="cls-7" transform="translate(1163.55 1253.03)">G<tspan class="cls-9" x="18.67" y="0">A</tspan></text><text class="cls-7" transform="translate(597.55 1133.03)">NM</text><text class="cls-7" transform="translate(601.55 1008.03)">CO</text><text class="cls-7" transform="translate(606.55 1251.03)">TX</text><text class="cls-7" transform="translate(742.55 1253.03)">L<tspan class="cls-9" x="13.35" y="0">A</tspan></text><text class="cls-7" transform="translate(738.55 1128.03)">OK</text><text class="cls-7" transform="translate(742.55 880.03)">NE</text><text class="cls-7" transform="translate(601.55 887.03)">W<tspan class="cls-10" x="22.65" y="0">Y</tspan></text><text class="cls-7" transform="translate(745.55 1008.03)">KS</text><text class="cls-7" transform="translate(892.55 883.03)">I<tspan class="cls-9" x="6.67" y="0">A</tspan></text><text class="cls-7" transform="translate(879.55 1006.03)">MO</text><text class="cls-12" transform="translate(1447.55 883.03)">P<tspan class="cls-9" x="14.23" y="0">A</tspan></text><text class="cls-7" transform="translate(1302.55 1131.03)">NC</text><text class="cls-7" transform="translate(1025.55 1251.03)">A<tspan class="cls-11" x="16.01" y="0">L</tspan></text><text class="cls-7" transform="translate(1302.55 1010.03)">DC</text><text class="cls-7" transform="translate(1302.55 885.03)">OH</text><text class="cls-7" transform="translate(1306.55 1254.03)">SC</text><text class="cls-7" transform="translate(1170.55 1378.03)">F<tspan class="cls-11" x="14.66" y="0">L</tspan></text><text class="cls-7" transform="translate(1021.55 1134.03)">TN</text><text class="cls-7" transform="translate(1585.55 1004.03)">DE</text><text class="cls-7" transform="translate(1723.55 517.03)">ME</text><text class="cls-7" transform="translate(1583.55 638.03)">NH</text><text class="cls-7" transform="translate(1721.55 640.03)">M<tspan class="cls-9" x="19.99" y="0">A</tspan></text><text class="cls-7" transform="translate(1446.55 1006.03)">MD</text><text class="cls-7" transform="translate(1446.55 636.03)">V<tspan class="cls-10" x="16.01" y="0">T</tspan></text><text class="cls-7" transform="translate(1585.55 760.03)">C<tspan class="cls-10" x="17.33" y="0">T</tspan></text><text class="cls-7" transform="translate(1447.55 763.03)">N<tspan class="cls-10" x="17.33" y="0">Y</tspan></text><text class="cls-7" transform="translate(1731.55 763.03)">RI</text><text class="cls-7" transform="translate(1586.55 882.03)">NJ</text><text class="cls-12" transform="translate(1165.55 1134.03)">V<tspan class="cls-9" x="14.23" y="0">A</tspan></text><text class="cls-7" transform="translate(1158.55 1010.03)">WV</text><rect class="cls-13" x="410.23" y="434.23" width="1194.7" height="90.8"/><text class="cls-14" transform="translate(153.1 1056.12)">9</text><text class="cls-14" transform="translate(1532.1 937.12)">5.8</text><text class="cls-14" transform="translate(124.1 1434.12)">74</text><text class="cls-14" transform="translate(274.1 821.12)">4.6</text><text class="cls-14" transform="translate(1392.1 819.12)">1.1</text><text class="cls-14" transform="translate(1394.1 1062.12)">2.3</text><text class="cls-14" transform="translate(558.1 1304.12)">0.5</text><text class="cls-14" transform="translate(829.1 818.12)">2.3</text><text class="cls-14" transform="translate(390.1 1186.12)"><tspan xml:space="preserve"> 1.5</tspan></text><text class="cls-14" transform="translate(1663.1 702.12)">1.6</text><text class="cls-14" transform="translate(974.1 818.12)">1.7</text><text class="cls-14" transform="translate(1130.1 1186.12)">1</text><text class="cls-14" transform="translate(1114.1 821.12)">0.7</text><text class="cls-14" transform="translate(968.1 936.12)">0.5</text><text class="cls-14" transform="translate(1246.1 1187.12)">0.6</text><text class="cls-14" transform="translate(270.1 939.12)">1.4</text><text class="cls-14" transform="translate(1114.1 1427.12)">0.2</text><text class="cls-14" transform="translate(407.1 1061.12)">1.6</text><text class="cls-14" transform="translate(124.1 570.12)">6.8</text><text class="cls-14" transform="translate(986.1 1183.12)">0.6</text><text class="cls-14" transform="translate(1397.1 936.12)">0.3</text><text class="cls-14" transform="translate(270.1 1061.12)">1.3</text><text class="cls-14" transform="translate(1239.1 938.12)">0.3</text><text class="cls-14" transform="translate(1106.1 938.12)">0.6</text><text class="cls-14" transform="translate(1531.1 815.12)">0.8</text><text class="cls-14" transform="translate(1534.1 697.12)">2.2</text><text class="cls-14" transform="translate(405.1 938.12)">1.7</text><text class="cls-14" transform="translate(699.1 1184.12)">0.5</text><text class="cls-14" transform="translate(701.1 1306.12)">0.4</text><text class="cls-14" transform="translate(696.1 1065.12)">0.3</text><text class="cls-14" transform="translate(1670.1 811.12)">0.9</text><text class="cls-14" transform="translate(1672.1 565.12)">0.7</text><text class="cls-14" transform="translate(1249.1 1306.12)">0.2</text><text class="cls-14" transform="translate(1246.1 1063.12)">1.4</text><text class="cls-14" transform="translate(973.1 1065.12)">0.2</text><text class="cls-14" transform="translate(828.1 1067.12)">0.2</text><text class="cls-15" transform="translate(1118.86 143.02)">( Per 1,000,000<tspan class="cls-9" x="330.89" y="0"> </tspan><tspan x="341.58" y="0">Americans) </tspan></text><text class="cls-14" transform="translate(565.67 941.38)">1.7</text><text class="cls-14" transform="translate(554.28 1187.9)">0.5</text><text class="cls-14" transform="translate(1110.97 1306.71)">0.5</text><text class="cls-16" transform="translate(491.75 294.75)">States that have elected<tspan class="cls-9" x="386.26" y="0"> </tspan><tspan x="394.28" y="0">Asian</tspan><tspan class="cls-9" x="484.33" y="0"> </tspan><tspan x="492.35" y="0">American o</tspan><tspan class="cls-10" x="674.42" y="0">f</tspan><tspan x="683.77" y="0" xml:space="preserve">ficials during 2019-2020 cycle    </tspan></text><text class="cls-16" transform="translate(491.75 337.95)">Federal, State and Loca combined.</text><rect class="cls-1" x="321.81" y="271.51" width="50" height="50"/><rect class="cls-6" x="272.99" y="271.51" width="50" height="50"/><rect class="cls-4" x="370.17" y="271.51" width="50" height="50"/><rect class="cls-2" x="417.75" y="271.11" width="50" height="50"/><text class="cls-17" transform="translate(219.18 51.49)">How Many<tspan class="cls-9" x="283.42" y="0"> </tspan><tspan x="296.78" y="0">Asian</tspan><tspan class="cls-9" x="446.87" y="0"> </tspan><tspan x="460.22" y="0">American O</tspan><tspan class="cls-10" x="776.98" y="0">f</tspan><tspan x="792.57" y="0">ficials are Elected in 2019 ?</tspan></text><text class="cls-18" transform="translate(0 1670.16)">Sources: U.S. Census Bureau;<tspan class="cls-19" x="393.18" y="0"> </tspan><tspan x="399.61" y="0">A</tspan><tspan class="cls-20" x="418.87" y="0">P</tspan><tspan class="cls-21" x="435.99" y="0">AICS</tspan></text></svg>