<?xml version="1.0" encoding="utf-8"?>
<!-- Generator: Adobe Illustrator 23.0.4, SVG Export Plug-In . SVG Version: 6.00 Build 0)  -->
<svg version="1.1" id="Layer_1" xmlns="http://www.w3.org/2000/svg" xmlns:xlink="http://www.w3.org/1999/xlink" x="0px" y="0px"
	 viewBox="0 0 2074.8 1282.1" style="enable-background:new 0 0 2074.8 1282.1;" xml:space="preserve">
<style type="text/css">
	.st0{fill:#3DC979;stroke:#63EA6C;stroke-miterlimit:10;}
	.st1{fill:#D3D3D3;}
	.st2{font-family:'ArialMT';}
	.st3{font-size:24px;}
	.st4{fill:none;}
	.st5{font-size:36px;}
	.st6{fill:#020202;}
	.st7{font-size:48px;}
	.st8{font-size:60px;}
</style>
<rect x="166.7" y="283.6" class="st0" width="130.5" height="113.2"/>
<rect x="1712.2" y="283.6" class="st0" width="130.5" height="113.2"/>
<rect x="1431.2" y="406.9" class="st1" width="130.5" height="113.2"/>
<rect x="1571.7" y="406.9" class="st0" width="130.5" height="113.2"/>
<rect x="1712.2" y="406.9" class="st0" width="130.5" height="113.2"/>
<rect x="307.2" y="530.1" class="st0" width="130.5" height="113.2"/>
<rect x="447.7" y="530.1" class="st1" width="130.5" height="113.2"/>
<rect x="588.2" y="530.1" class="st1" width="130.5" height="113.2"/>
<rect x="728.7" y="530.1" class="st1" width="130.5" height="113.2"/>
<rect x="869.2" y="530.1" class="st0" width="130.5" height="113.2"/>
<rect x="1009.7" y="530.1" class="st0" width="130.5" height="113.2"/>
<rect x="1150.2" y="530.1" class="st0" width="130.5" height="113.2"/>
<rect x="1431.2" y="530.1" class="st0" width="130.5" height="113.2"/>
<rect x="1571.7" y="530.1" class="st0" width="130.5" height="113.2"/>
<rect x="1712.2" y="530.1" class="st0" width="130.5" height="113.2"/>
<rect x="307.2" y="653.3" class="st0" width="130.5" height="113.2"/>
<rect x="447.7" y="653.3" class="st0" width="130.5" height="113.2"/>
<rect x="588.2" y="653.3" class="st0" width="130.5" height="113.2"/>
<rect x="728.7" y="653.3" class="st1" width="130.5" height="113.2"/>
<rect x="869.2" y="653.3" class="st1" width="130.5" height="113.2"/>
<rect x="1009.7" y="653.3" class="st0" width="130.5" height="113.2"/>
<rect x="1150.2" y="653.3" class="st0" width="130.5" height="113.2"/>
<rect x="1290.7" y="653.3" class="st0" width="130.5" height="113.2"/>
<rect x="1431.2" y="653.3" class="st0" width="130.5" height="113.2"/>
<rect x="1571.7" y="653.3" class="st0" width="130.5" height="113.2"/>
<rect x="166.7" y="776.6" class="st0" width="130.5" height="113.2"/>
<rect x="307.2" y="776.6" class="st0" width="130.5" height="113.2"/>
<rect x="447.7" y="776.6" class="st0" width="130.5" height="113.2"/>
<rect x="588.2" y="776.6" class="st1" width="130.5" height="113.2"/>
<rect x="728.7" y="776.6" class="st0" width="130.5" height="113.2"/>
<rect x="869.2" y="776.6" class="st0" width="130.5" height="113.2"/>
<rect x="1009.7" y="776.6" class="st0" width="130.5" height="113.2"/>
<rect x="1150.2" y="776.6" class="st1" width="130.5" height="113.2"/>
<rect x="1290.7" y="776.6" class="st0" width="130.5" height="113.2"/>
<rect x="1431.2" y="776.6" class="st0" width="130.5" height="113.2"/>
<rect x="1571.7" y="776.6" class="st1" width="130.5" height="113.2"/>
<rect x="447.7" y="899.9" class="st0" width="130.5" height="113.2"/>
<rect x="588.2" y="899.9" class="st0" width="130.5" height="113.2"/>
<rect x="728.7" y="899.9" class="st0" width="130.5" height="113.2"/>
<rect x="869.2" y="899.9" class="st1" width="130.5" height="113.2"/>
<rect x="1009.7" y="899.9" class="st0" width="130.5" height="113.2"/>
<rect x="1150.2" y="899.9" class="st0" width="130.5" height="113.2"/>
<rect x="1290.7" y="899.9" class="st0" width="130.5" height="113.2"/>
<rect x="588.2" y="1023.1" class="st0" width="130.5" height="113.2"/>
<rect x="728.7" y="1023.1" class="st0" width="130.5" height="113.2"/>
<rect x="869.2" y="1023.1" class="st1" width="130.5" height="113.2"/>
<rect x="1009.7" y="1023.1" class="st1" width="130.5" height="113.2"/>
<rect x="1150.2" y="1023.1" class="st0" width="130.5" height="113.2"/>
<rect x="1290.7" y="1023.1" class="st0" width="130.5" height="113.2"/>
<rect x="166.7" y="1146.3" class="st0" width="130.5" height="113.2"/>
<rect x="1150.2" y="1146.3" class="st0" width="130.5" height="113.2"/>
<text transform="matrix(1 0 0 1 259.1205 309.7727)" class="st2 st3">AK</text>
<text transform="matrix(1 0 0 1 393.1206 557.7727)" class="st2 st3">WA</text>
<text transform="matrix(1 0 0 1 541.1205 556.7727)" class="st2 st3">MT</text>
<text transform="matrix(1 0 0 1 957.1205 555.7727)" class="st2 st3">MN</text>
<text transform="matrix(1 0 0 1 821.1205 551.7727)" class="st2 st3">SD</text>
<text transform="matrix(1 0 0 1 679.1205 555.7727)" class="st2 st3">ND</text>
<text transform="matrix(1 0 0 1 540.1205 925.7727)" class="st2 st3">AZ</text>
<text transform="matrix(1 0 0 1 959.1205 926.7727)" class="st2 st3">AR</text>
<text transform="matrix(1 0 0 1 255.1205 800.7727)" class="st2 st3">CA</text>
<text transform="matrix(1 0 0 1 541.1205 801.7727)" class="st2 st3">UT</text>
<text transform="matrix(1 0 0 1 264.1205 1174.7727)" class="st2 st3">HI</text>
<text transform="matrix(1 0 0 1 548.1205 678.7727)" class="st2 st3">ID</text>
<text transform="matrix(1 0 0 1 398.1206 800.7727)" class="st2 st3">NV</text>
<text transform="matrix(1 0 0 1 398.1206 681.7727)" class="st2 st3">OR</text>
<text transform="matrix(1 0 0 1 1245.1205 557.7727)" class="st2 st3">MI</text>
<text transform="matrix(1 0 0 1 1113.1205 678.7727)" class="st2 st3">IL</text>
<text transform="matrix(1 0 0 1 1100.1205 805.7727)" class="st2 st3">KY</text>
<text transform="matrix(1 0 0 1 1103.1205 553.7727)" class="st2 st3">WI</text>
<text transform="matrix(1 0 0 1 1248.1205 679.7727)" class="st2 st3">IN</text>
<text transform="matrix(1 0 0 1 957.1205 1050.7727)" class="st2 st3">MS</text>
<text transform="matrix(1 0 0 1 1241.1205 1048.7727)" class="st2 st3">GA</text>
<text transform="matrix(1 0 0 1 675.1205 928.7727)" class="st2 st3">NM</text>
<text transform="matrix(1 0 0 1 679.1205 803.7727)" class="st2 st3">CO</text>
<text transform="matrix(1 0 0 1 684.1205 1046.7727)" class="st2 st3">TX</text>
<text transform="matrix(1 0 0 1 820.1205 1048.7727)" class="st2 st3">LA</text>
<text transform="matrix(1 0 0 1 816.1205 923.7727)" class="st2 st3">OK</text>
<text transform="matrix(1 0 0 1 820.1205 675.7727)" class="st2 st3">NE</text>
<text transform="matrix(1 0 0 1 679.1205 682.7727)" class="st2 st3">WY</text>
<text transform="matrix(1 0 0 1 823.1205 803.7727)" class="st2 st3">KS</text>
<text transform="matrix(1 0 0 1 970.1205 678.7727)" class="st2 st3">IA</text>
<text transform="matrix(1 0 0 1 957.1205 801.7727)" class="st2 st3">MO</text>
<text transform="matrix(1 0 0 1 1525.1205 678.7727)" class="st2 st3">PA</text>
<text transform="matrix(1 0 0 1 1380.1205 926.7727)" class="st2 st3">NC</text>
<text transform="matrix(1 0 0 1 1103.1205 1046.7727)" class="st2 st3">AL</text>
<text transform="matrix(1 0 0 1 1380.1205 805.7727)" class="st2 st3">DC</text>
<text transform="matrix(1 0 0 1 1380.1205 680.7727)" class="st2 st3">OH</text>
<text transform="matrix(1 0 0 1 1384.1205 1049.7727)" class="st2 st3">SC</text>
<text transform="matrix(1 0 0 1 1248.1205 1173.7727)" class="st2 st3">FL</text>
<text transform="matrix(1 0 0 1 1099.1205 929.7727)" class="st2 st3">TN</text>
<text transform="matrix(1 0 0 1 1663.1205 799.7727)" class="st2 st3">DE</text>
<text transform="matrix(1 0 0 1 1801.1205 312.7727)" class="st2 st3">ME</text>
<text transform="matrix(1 0 0 1 1661.1205 433.7727)" class="st2 st3">NH</text>
<text transform="matrix(1 0 0 1 1799.1205 435.7727)" class="st2 st3">MA</text>
<text transform="matrix(1 0 0 1 1524.1205 801.7727)" class="st2 st3">MD</text>
<text transform="matrix(1 0 0 1 1524.1205 431.7727)" class="st2 st3">VT</text>
<text transform="matrix(1 0 0 1 1663.1205 555.7727)" class="st2 st3">CT</text>
<text transform="matrix(1 0 0 1 1525.1205 558.7727)" class="st2 st3">NY</text>
<text transform="matrix(1 0 0 1 1809.1205 558.7727)" class="st2 st3">RI</text>
<text transform="matrix(1 0 0 1 1664.1205 677.7727)" class="st2 st3">NJ</text>
<text transform="matrix(1 0 0 1 1243.1205 929.7727)" class="st2 st3">VA</text>
<text transform="matrix(1 0 0 1 1236.1205 805.7727)" class="st2 st3">WV</text>
<rect x="424" y="239.3" class="st0" width="50" height="50"/>
<rect x="487.8" y="230" class="st4" width="1194.7" height="90.8"/>
<text transform="matrix(1 0 0 1 487.8103 255.7807)" class="st2 st5">States that have elected Asian American officials during 2019-2020 cycle    </text>
<text transform="matrix(1 0 0 1 487.8103 298.9807)" class="st2 st5">Federal, State and Loca combined.</text>
<text transform="matrix(1 0 0 1 230.666 851.864)" class="st6 st2 st7">9</text>
<text transform="matrix(1 0 0 1 1609.6659 732.864)" class="st6 st2 st7">5.8</text>
<text transform="matrix(1 0 0 1 201.666 1229.864)" class="st6 st2 st7">74</text>
<text transform="matrix(1 0 0 1 351.666 616.864)" class="st6 st2 st7">4.6</text>
<text transform="matrix(1 0 0 1 1469.6659 614.864)" class="st6 st2 st7">1.1</text>
<text transform="matrix(1 0 0 1 1471.6659 857.864)" class="st6 st2 st7">2.3</text>
<text transform="matrix(1 0 0 1 635.666 1099.864)" class="st6 st2 st7">0.5</text>
<text transform="matrix(1 0 0 1 906.666 613.864)" class="st6 st2 st7">2.3</text>
<text transform="matrix(1 0 0 1 467.666 981.864)" class="st6 st2 st7"> 1.5</text>
<text transform="matrix(1 0 0 1 1740.6659 497.864)" class="st6 st2 st7">1.6</text>
<text transform="matrix(1 0 0 1 1051.6659 613.864)" class="st6 st2 st7">1.7</text>
<text transform="matrix(1 0 0 1 1207.6659 981.864)" class="st6 st2 st7">1</text>
<text transform="matrix(1 0 0 1 1191.6659 616.864)" class="st6 st2 st7">0.7</text>
<text transform="matrix(1 0 0 1 1045.6659 731.864)" class="st6 st2 st7">0.5</text>
<text transform="matrix(1 0 0 1 1323.6659 982.864)" class="st6 st2 st7">0.6</text>
<text transform="matrix(1 0 0 1 347.666 734.864)" class="st6 st2 st7">1.4</text>
<text transform="matrix(1 0 0 1 1191.6659 1222.864)" class="st6 st2 st7">0.2</text>
<text transform="matrix(1 0 0 1 484.666 856.864)" class="st6 st2 st7">1.6</text>
<text transform="matrix(1 0 0 1 201.666 365.864)" class="st6 st2 st7">6.8</text>
<text transform="matrix(1 0 0 1 1063.6659 978.864)" class="st6 st2 st7">0.6</text>
<text transform="matrix(1 0 0 1 1474.6659 731.864)" class="st6 st2 st7">0.3</text>
<text transform="matrix(1 0 0 1 347.666 856.864)" class="st6 st2 st7">1.3</text>
<text transform="matrix(1 0 0 1 1316.6659 733.864)" class="st6 st2 st7">0.3</text>
<text transform="matrix(1 0 0 1 1183.6659 733.864)" class="st6 st2 st7">0.6</text>
<text transform="matrix(1 0 0 1 1608.6659 610.864)" class="st6 st2 st7">0.8</text>
<text transform="matrix(1 0 0 1 1611.6659 492.864)" class="st6 st2 st7">2.2</text>
<text transform="matrix(1 0 0 1 482.666 733.864)" class="st6 st2 st7">1.7</text>
<text transform="matrix(1 0 0 1 776.666 979.864)" class="st6 st2 st7">0.5</text>
<text transform="matrix(1 0 0 1 778.666 1101.864)" class="st6 st2 st7">0.4</text>
<text transform="matrix(1 0 0 1 773.666 860.864)" class="st6 st2 st7">0.3</text>
<text transform="matrix(1 0 0 1 1747.6659 606.864)" class="st6 st2 st7">0.9</text>
<text transform="matrix(1 0 0 1 1749.6659 360.864)" class="st6 st2 st7">0.7</text>
<text transform="matrix(1 0 0 1 1326.6659 1101.864)" class="st6 st2 st7">0.2</text>
<text transform="matrix(1 0 0 1 1323.6659 858.864)" class="st6 st2 st7">1.4</text>
<text transform="matrix(1 0 0 1 1050.6659 860.864)" class="st6 st2 st7">0.2</text>
<text transform="matrix(1 0 0 1 905.666 862.864)" class="st6 st2 st7">0.2</text>
<text transform="matrix(1 0 0 1 135.6331 105.04)" class="st2 st8">                       How Many Asian American Officials Elected In 2019?</text>
<text transform="matrix(1 0 0 1 135.6331 177.04)" class="st2 st8">                                                </text>
<text transform="matrix(1 0 0 1 935.8331 177.04)" class="st2 st7">( Per 1,000,000 Americans) </text>
<text transform="matrix(1 0 0 1 643.2394 737.1215)" class="st6 st2 st7">1.7</text>
<text transform="matrix(1 0 0 1 631.8456 983.6419)" class="st6 st2 st7">0.5</text>
<text transform="matrix(1 0 0 1 1188.5433 1102.4512)" class="st6 st2 st7">0.5</text>
</svg>
