<svg id="Layer_1" data-name="Layer 1" xmlns="http://www.w3.org/2000/svg" viewBox="0 0 695.54 661.8"><defs><style>.cls-1{fill:#3182bd;}.cls-2{fill:#9ecae1;}.cls-3{fill:#deebf7;}.cls-4{fill:#d62728;}.cls-5{fill:none;stroke:#d3d3d3;stroke-linecap:square;stroke-linejoin:round;stroke-width:0.5px;}.cls-6{font-size:11px;}.cls-12,.cls-6,.cls-7,.cls-8{font-family:ArialMT, Arial;}.cls-7{font-size:12px;}.cls-8{font-size:14px;}.cls-9{letter-spacing:-0.04em;}.cls-10{letter-spacing:-0.02em;}.cls-11{letter-spacing:-0.11em;}.cls-12{font-size:18px;}</style></defs><title>industry1</title><rect class="cls-1" x="282.77" y="635.34" width="0.81" height="17.47"/><rect class="cls-1" x="282.77" y="600.4" width="1.54" height="17.47"/><rect class="cls-1" x="282.77" y="565.45" width="2.58" height="17.47"/><rect class="cls-1" x="282.77" y="530.51" width="4.86" height="17.47"/><rect class="cls-1" x="282.77" y="495.56" width="18.78" height="17.47"/><rect class="cls-1" x="282.77" y="460.62" width="11.04" height="17.47"/><rect class="cls-1" x="282.77" y="425.67" width="4.21" height="17.47"/><rect class="cls-1" x="282.77" y="390.72" width="10.85" height="17.47"/><rect class="cls-1" x="282.77" y="355.78" width="1.52" height="17.47"/><rect class="cls-1" x="282.77" y="320.83" width="36.42" height="17.47"/><rect class="cls-1" x="282.77" y="285.89" width="13.67" height="17.47"/><rect class="cls-1" x="282.77" y="250.94" width="15.6" height="17.47"/><rect class="cls-1" x="282.77" y="216" width="0.01" height="17.47"/><rect class="cls-1" x="282.77" y="181.05" width="57.31" height="17.47"/><polygon class="cls-2" points="282.77 652.82 282.77 652.82 282.77 635.34 282.77 652.82"/><rect class="cls-2" x="284.31" y="600.4" width="0.18" height="17.47"/><rect class="cls-2" x="285.35" y="565.45" width="2.5" height="17.47"/><rect class="cls-2" x="287.63" y="530.51" width="5.67" height="17.47"/><rect class="cls-2" x="301.54" y="495.56" width="0.21" height="17.47"/><rect class="cls-2" x="293.81" y="460.62" width="12.38" height="17.47"/><rect class="cls-2" x="286.98" y="425.67" width="51.22" height="17.47"/><rect class="cls-2" x="293.61" y="390.72" width="12.41" height="17.47"/><rect class="cls-2" x="284.29" y="355.78" width="68.19" height="17.47"/><rect class="cls-2" x="319.19" y="320.83" width="23.23" height="17.47"/><rect class="cls-2" x="296.44" y="285.89" width="57.68" height="17.47"/><rect class="cls-2" x="298.37" y="250.94" width="39.76" height="17.47"/><rect class="cls-2" x="282.78" y="216" width="72.91" height="17.47"/><rect class="cls-2" x="340.08" y="181.05" width="204.27" height="17.47"/><rect class="cls-3" x="283.57" y="635.34" width="0.75" height="17.47"/><rect class="cls-3" x="284.49" y="600.4" width="1.91" height="17.47"/><rect class="cls-3" x="287.85" y="565.45" width="1.06" height="17.47"/><rect class="cls-3" x="293.3" y="530.51" width="1.07" height="17.47"/><rect class="cls-3" x="301.75" y="495.56" width="0.42" height="17.47"/><rect class="cls-3" x="306.19" y="460.62" width="5.26" height="17.47"/><rect class="cls-3" x="338.19" y="425.67" width="2.75" height="17.47"/><rect class="cls-3" x="306.02" y="390.72" width="30.74" height="17.47"/><rect class="cls-3" x="352.48" y="355.78" width="0.49" height="17.47"/><rect class="cls-3" x="342.42" y="320.83" width="15.98" height="17.47"/><rect class="cls-3" x="354.12" y="285.89" width="6.32" height="17.47"/><rect class="cls-3" x="338.13" y="250.94" width="30.57" height="17.47"/><rect class="cls-3" x="355.69" y="216" width="125.56" height="17.47"/><rect class="cls-3" x="544.34" y="181.05" width="132.32" height="17.47"/><rect class="cls-4" x="284.32" y="635.34" width="0.12" height="17.47"/><rect class="cls-4" x="286.4" y="600.4" width="0.12" height="17.47"/><rect class="cls-4" x="288.91" y="565.45" width="1" height="17.47"/><rect class="cls-4" x="294.37" y="530.51" width="2.11" height="17.47"/><rect class="cls-4" x="311.45" y="460.62" width="0.23" height="17.47"/><rect class="cls-4" x="336.76" y="390.72" width="11.95" height="17.47"/><rect class="cls-4" x="352.98" y="355.78" width="0.54" height="17.47"/><rect class="cls-4" x="358.39" y="320.83" width="0.02" height="17.47"/><rect class="cls-4" x="360.45" y="285.89" width="2.41" height="17.47"/><rect class="cls-4" x="368.7" y="250.94" width="1.3" height="17.47"/><rect class="cls-4" x="676.67" y="181.05" width="4.67" height="17.47"/><line class="cls-5" x1="403.44" y1="661.55" x2="403.44" y2="172.31"/><line class="cls-5" x1="524.12" y1="661.55" x2="524.12" y2="172.31"/><line class="cls-5" x1="644.8" y1="661.55" x2="644.8" y2="172.31"/><text class="cls-6" transform="translate(280.58 166.91)">0 billion</text><text class="cls-6" transform="translate(388.54 166.91)"><tspan xml:space="preserve">   10</tspan></text><text class="cls-6" transform="translate(509.21 166.91)"><tspan xml:space="preserve">   20</tspan></text><text class="cls-6" transform="translate(629.89 166.91)"><tspan xml:space="preserve">   30</tspan></text><rect class="cls-1" x="598.56" y="78.81" width="20" height="7"/><text class="cls-7" transform="translate(597.83 70.41)">2015</text><rect class="cls-2" x="622.23" y="78.81" width="20" height="7"/><rect class="cls-3" x="645.9" y="78.81" width="20" height="7"/><rect class="cls-4" x="670.58" y="78.81" width="20" height="7"/><text class="cls-7" transform="translate(668.85 70.41)">2018</text><text class="cls-8" transform="translate(123.85 194.22)">Real Estate &amp; Hospitality</text><text class="cls-8" transform="translate(119.64 229.54)"><tspan class="cls-9">T</tspan><tspan x="8.03" y="0">ransport &amp; Infrastructure</tspan></text><text class="cls-8" transform="translate(0 265.01)">Information and Communications<tspan class="cls-10" x="205.43" y="0"> </tspan><tspan class="cls-11" x="209.07" y="0">T</tspan><tspan x="216.07" y="0">echnology</tspan></text><text class="cls-8" transform="translate(192.21 299.95)">Entertainment</text><text class="cls-8" transform="translate(91.19 336.37)">Finance &amp; Bussiness Services</text><text class="cls-8" transform="translate(85.75 369.83)">Consumer Products &amp; Services</text><text class="cls-8" transform="translate(175.53 405.49)">Health &amp; Biotech</text><text class="cls-8" transform="translate(212.22 440.15)">Electronics</text><text class="cls-8" transform="translate(210.88 474.75)">Automotive</text><text class="cls-8" transform="translate(235.89 509.27)">Energy</text><text class="cls-8" transform="translate(185.55 544.87)">Basic Materials</text><text class="cls-8" transform="translate(104.51 578.58)">Ind. Machinery &amp; Equipment</text><text class="cls-8" transform="translate(163.53 614.09)">Agriculture &amp; Food</text><text class="cls-8" transform="translate(230.44 648.6)"><tspan class="cls-10">A</tspan><tspan x="9.08" y="0">viation</tspan></text><text class="cls-12" transform="translate(151.56 15.45)">Chinese Investment In U.S. By Industry (2015 - 2018)</text></svg>